<svg width="1097" height="722" viewBox="0 0 1097 722" fill="none" xmlns="http://www.w3.org/2000/svg">
<mask id="mask0" style="mask-type:alpha" maskUnits="userSpaceOnUse" x="0" y="-26" width="1097" height="748">
<rect y="-26" width="1097" height="748" fill="#C4C4C4"/>
</mask>
<g mask="url(#mask0)">
<g filter="url(#filter0_f)">
<path d="M162 684C195.7 720.8 280.181 778.248 414.5 820" stroke="url(#paint0_linear)" stroke-width="21"/>
</g>
<path d="M1027.17 382.614C1027.17 614.56 807.272 802.972 535.5 802.972C263.728 802.972 43.8269 614.56 43.8269 382.614C43.8269 150.668 263.728 -37.7441 535.5 -37.7441C807.272 -37.7441 1027.17 150.668 1027.17 382.614Z" stroke="#73592C" stroke-width="3"/>
<path d="M77.5001 229L89.0001 226C75 251.5 51.9999 316 53.5 359L46 352.5" stroke="#73592C" stroke-width="1.5"/>
<path d="M993.667 229L982.167 226C996.167 251.5 1019.17 316 1017.67 359L1025.17 352.5" stroke="#73592C" stroke-width="1.5"/>
<path d="M44.3637 400.917L53.1709 392.937C52.557 422.021 64.2438 489.805 85.468 527.232L73.5759 524.978" stroke="#73592C" stroke-width="1.5"/>
<path d="M1026.8 400.917L1018 392.937C1018.61 422.021 1006.92 489.805 985.699 527.232L997.591 524.978" stroke="#73592C" stroke-width="1.5"/>
<g clip-path="url(#clip0)">
<mask id="mask1" style="mask-type:alpha" maskUnits="userSpaceOnUse" x="-22" y="-81" width="1143" height="778">
<rect x="-22" y="-81" width="1143" height="778" fill="#C4C4C4"/>
</mask>
<g mask="url(#mask1)">
<path opacity="0.6" d="M535.5 -80.9987H532.747L532.871 -59.5745H535.5V-80.9987ZM521.734 -80.8439H519.986H519.834H518.981L519.724 -59.4198H522.353L521.734 -80.8439ZM507.968 -80.4035L505.215 -80.2726L506.591 -58.8484L509.221 -58.9675L507.968 -80.3916V-80.4035ZM494.202 -79.6418L491.449 -79.4633L493.458 -58.0986C494.326 -58.17 495.207 -58.2295 496.074 -58.2771L494.202 -79.7013V-79.6418ZM480.436 -78.5944L478.343 -78.4039H478.192H477.696L480.436 -57.0393L483.051 -57.2773L480.518 -78.6182L480.436 -78.5944ZM466.766 -77.2256L464.495 -76.9757H464.357H464.027L467.303 -55.7419L469.905 -56.0395L466.766 -77.2851V-77.2256ZM453.138 -75.5712L450.384 -75.2022L454.294 -54.0399L456.882 -54.397L453.11 -75.5712H453.138ZM439.551 -73.5954L438.422 -73.4169L436.852 -73.1669L441.381 -52.1117L443.969 -52.5164L439.551 -73.5954ZM426.046 -71.334L423.293 -70.846L428.455 -49.886C429.309 -50.0526 430.162 -50.2074 431.029 -50.3502L425.991 -71.334H426.046ZM412.597 -68.7631H412.486H412.404L411.605 -68.5964H411.468L409.94 -68.287L415.721 -47.4579L418.282 -47.9816L412.61 -68.8345L412.597 -68.7631ZM399.243 -65.8946L398.294 -65.6804H398.197H398.087H398.018H397.894H397.771H397.633H397.537H397.426H397.302H397.165L396.848 -65.609L403.249 -44.9108L405.782 -45.494L399.505 -66.216L399.243 -65.8946ZM385.973 -62.7286L385.574 -62.6334L383.33 -62.0621L390.351 -41.5187L392.87 -42.1495L385.987 -62.7286H385.973ZM372.799 -59.265L372.496 -59.1817H372.4H372.317H372.234H372.111H371.959L371.395 -59.027H371.271H371.174L370.39 -58.8127L377.906 -38.1503L380.398 -38.8407L372.881 -59.2531L372.799 -59.265ZM359.735 -55.5039L357.918 -54.9326H357.753H357.656L357.216 -54.7898L365.475 -34.5558L367.953 -35.3057L359.817 -55.5396L359.735 -55.5039ZM346.795 -51.4571L345.845 -51.1476H345.749L344.262 -50.6597L353.113 -30.6519L355.564 -31.4612L346.905 -51.4571H346.795ZM333.979 -47.1247L332.395 -46.5653H332.299L331.735 -46.3748H331.583H331.501L340.944 -26.5694L343.367 -27.4263L334.047 -47.2794L333.979 -47.1247ZM321.3 -42.5066L318.767 -41.5425L328.802 -21.9513L331.212 -22.8678L321.3 -42.5066ZM308.745 -37.6028L308.14 -37.3529H308.043L306.295 -36.6387L316.909 -17.2856L319.29 -18.2497L308.787 -37.6623L308.745 -37.6028ZM296.356 -32.4134L293.892 -31.3422L305.084 -12.2271L307.438 -13.2507L296.425 -32.4134H296.356ZM284.118 -26.9622L283.498 -26.6646L281.695 -25.8314L293.451 -6.97816L295.764 -8.04938L284.118 -26.9622ZM272.059 -21.2252L269.664 -20.035L281.984 -1.4436L284.255 -2.63383L272.059 -21.2728V-21.2252ZM260.165 -15.2741L259.752 -15.0598L258.086 -14.191L257.811 -14.0362L270.668 4.26952L272.912 3.07928L260.165 -15.2979V-15.2741ZM248.45 -9.01346L247.886 -8.704L247.638 -8.57308H247.569L247.349 -8.45406H247.28L247.073 -8.34693L246.826 -8.2041L246.261 -7.89465L259.669 10.1255L261.872 8.93522L248.574 -9.14439L248.45 -9.01346ZM237.01 -2.44339L235.056 -1.25316H234.959H234.89L234.739 -1.15794L248.67 16.6003L250.845 15.3268L237.01 -2.44339ZM225.764 4.30522L224.387 5.16219L224.139 5.30501H224.07L223.919 5.40023L223.561 5.61448L238.015 23.0157L240.149 21.7064L225.764 4.30522ZM214.641 11.3276C214.076 11.6847 213.512 12.0655 212.947 12.4345H212.878L212.493 12.6845L227.457 29.7643C228.145 29.3001 228.833 28.8478 229.549 28.3955L214.682 11.2562L214.641 11.3276ZM203.738 18.588L202.815 19.2188H202.733L202.637 19.2783L202.526 19.3617L202.416 19.445H202.347L201.728 19.8734L216.981 36.8342L219.032 35.4179L203.738 18.588ZM193.042 26.0865L191.486 27.2172L191.307 27.3362L190.977 27.5742L206.821 43.9756L208.831 42.5235L192.973 26.1222L193.042 26.0865ZM182.579 33.823L182.387 33.9777H182.29L182.111 34.1205L182.029 34.18L181.712 34.4538L181.464 34.6323L181.217 34.8227L180.969 35.0013L180.831 35.1084L180.487 35.3703L196.855 51.4265L198.823 49.9268L182.483 33.823H182.579ZM172.351 41.7856L170.603 43.1782L170.479 43.2615L170.383 43.3448L187.219 59.0677L189.146 57.5205L172.337 41.7856H172.351ZM162.288 49.9268L162.123 50.0696L162.013 50.1529L161.889 50.2601L161.738 50.3791L161.641 50.4624L161.504 50.5814L161.366 50.7004V50.7599L161.187 50.9147L161.09 50.9861L160.98 51.0813L160.402 51.5693L177.761 66.8638L179.647 65.2689L162.288 49.9268ZM152.542 58.3298L151.771 59.0083L151.592 59.163C151.275 59.4486 150.959 59.7224 150.656 60.008L168.455 74.9097L170.286 73.2791L152.542 58.3774V58.3298ZM143.043 66.9471L142.837 67.1375L142.658 67.3042L142.575 67.3875L142.41 67.5422H142.341L142.19 67.685L141.969 67.8874L141.267 68.5301L159.425 83.2533L161.201 81.5869L143.043 67.0066V66.9471ZM133.806 75.7667L132.264 77.3021L132.168 77.3973L132.003 77.564L150.67 91.6563L152.404 89.9543L133.82 75.7786L133.806 75.7667ZM124.831 84.7887L123.124 86.5621L142.203 100.238L143.883 98.4882L124.886 84.7292L124.831 84.7887ZM116.131 94.013L115.332 94.8699L115.222 95.0008L115.139 95.0842L115.002 95.2389L114.892 95.3698V95.4293L114.713 95.6317L114.506 95.8578L133.971 109.105L135.61 107.32L116.213 93.9892L116.131 94.013ZM107.692 103.416V103.475L105.999 105.368L125.849 118.187L127.432 116.366L107.692 103.487V103.416ZM99.5562 113.009L97.9593 114.949L118.182 127.328L119.71 125.471L99.5562 113.009ZM91.6958 122.781L91.5719 122.936L90.1953 124.757L110.844 136.659L112.304 134.778L91.7921 122.769L91.6958 122.781ZM84.1244 132.731L84.0418 132.838L83.9455 132.993L83.8491 133.112L83.7803 133.207L83.6426 133.398V133.457C83.3398 133.862 83.0369 134.267 82.7478 134.647L103.686 146.109L105.063 144.193L84.1933 132.648L84.1244 132.731ZM76.8559 142.836L76.443 143.419V143.503C76.1264 143.943 75.8097 144.395 75.5069 144.848L96.7066 155.857L98.0832 153.917L76.8835 142.836H76.8559ZM69.8903 153.096L69.7527 153.286V153.346L69.6287 153.536V153.596L69.5186 153.774V153.858L69.3948 154.036L69.3259 154.155V154.215L68.734 155.119L90.3329 165.629C90.7597 164.975 91.1864 164.308 91.6269 163.653L70.0968 153.048L69.8903 153.096ZM63.2275 163.511L63.0211 163.832L62.8972 164.034L62.4153 164.82L62.2777 165.034L62.1676 165.224L61.9611 165.57L83.8629 175.591C84.2621 174.925 84.6751 174.258 85.0881 173.592L63.2551 163.463L63.2275 163.511ZM56.8814 174.08C56.6198 174.52 56.3583 174.961 56.1105 175.401C55.8627 175.841 55.8077 175.937 55.6425 176.21L77.8334 185.732L79.0172 183.697L56.8814 174.068V174.08ZM50.8519 184.792L50.6041 185.244L50.5352 185.351L50.1223 186.113L49.6817 186.934L72.148 195.968L73.263 193.909L50.8519 184.78V184.792ZM45.1389 195.623L44.0376 197.801L66.7654 206.335C67.1096 205.633 67.4675 204.943 67.8254 204.252L45.1389 195.623ZM39.7564 206.573L38.724 208.775L61.6995 216.797L62.6907 214.69L39.7564 206.573ZM34.7042 217.642C34.3739 218.392 34.0573 219.13 33.7406 219.868L56.9502 227.378C57.2531 226.664 57.5559 225.962 57.8726 225.248L34.7042 217.642ZM29.9825 228.83L29.597 229.795C29.4181 230.211 29.2529 230.652 29.0877 231.068L52.49 238.055L53.3573 235.912L29.955 228.771L29.9825 228.83ZM25.6049 240.114L25.3984 240.649V240.733V240.828V240.959L25.2745 241.28V241.399C25.1644 241.673 25.068 241.959 24.9579 242.244L48.5942 248.695L49.3789 246.529L25.7976 239.983L25.6049 240.114ZM21.5577 251.481L21.1447 252.73V252.79C21.0483 253.087 20.9382 253.409 20.8281 253.706L44.6433 259.657C44.8911 258.931 45.1389 258.205 45.3729 257.479L21.599 251.445L21.5577 251.481ZM17.8959 262.978L17.1938 265.287L41.1881 270.667L41.8488 268.477L17.8959 262.978ZM14.537 274.523C14.4131 275 14.2754 275.488 14.1515 275.964V276.106C14.0827 276.344 14.0139 276.583 13.9588 276.821L38.0907 281.665C38.2835 280.927 38.4899 280.189 38.6964 279.451L14.5783 274.5L14.537 274.523ZM11.536 286.14L11.4121 286.64V286.747L11.1643 287.806V287.925L11.0404 288.461L35.1998 292.734L35.7367 290.508L11.4947 286.092L11.536 286.14ZM8.86535 297.816L8.78276 298.257V298.388C8.65886 298.983 8.54872 299.578 8.42483 300.149L32.8183 303.91C32.9697 303.16 33.1211 302.422 33.2863 301.673L8.90665 297.804L8.86535 297.816ZM6.55266 309.552L6.13965 311.932L30.6433 315.146C30.7672 314.396 30.9048 313.646 31.0425 312.896L6.55266 309.576V309.552ZM4.59786 321.335C4.51526 321.871 4.43269 322.406 4.36386 322.942V323.061C4.36386 323.275 4.36385 323.49 4.26749 323.692L28.8537 326.37C28.9638 325.62 29.0739 324.858 29.1978 324.108L4.55656 321.3L4.59786 321.335ZM2.94596 333.202C2.87713 333.809 2.79453 334.392 2.7257 335.047V335.142V335.57L27.3807 337.701C27.4633 336.939 27.5459 336.189 27.6422 335.439L2.94596 333.202ZM1.67946 345.104L1.47298 347.485L26.1555 348.96L26.362 346.699L1.65194 345.009L1.67946 345.104ZM0.770896 357.006C0.770896 357.673 0.702085 358.316 0.660786 358.982V359.399L25.4397 360.422C25.4397 359.673 25.5223 358.911 25.5773 358.161L0.798413 356.971L0.770896 357.006ZM0.220262 368.909C0.220262 369.432 0.220262 369.968 0.220262 370.492C0.220262 370.742 0.220262 370.968 0.220262 371.218L24.9992 371.706C24.9992 370.944 24.9992 370.194 24.9992 369.432L0.220262 368.837V368.909ZM0 380.811V382.001V383.061H24.7789V380.787L0 380.728V380.811ZM24.9166 392.237L0.137669 392.713V394.261V394.499C0.137669 394.701 0.137669 394.892 0.137669 395.094L24.9166 394.511C24.9166 393.749 24.9166 392.987 24.9166 392.237ZM25.3709 403.58L0.591931 404.604C0.591931 405.235 0.660785 405.877 0.702083 406.508V406.592V406.972L25.481 405.842C25.481 405.092 25.3846 404.33 25.3433 403.568L25.3709 403.58ZM26.1693 414.923L1.39039 416.482L1.55557 418.268V418.351C1.55557 418.518 1.55557 418.696 1.55557 418.863L26.2519 417.185C26.2519 416.435 26.1142 415.673 26.0592 414.923H26.1693ZM27.2981 426.23L2.62932 428.349C2.62932 428.885 2.7532 429.432 2.82203 429.968V430.039L2.90462 430.706L27.5321 428.42C27.4358 427.671 27.3532 426.921 27.2706 426.159L27.2981 426.23ZM28.7573 437.514L4.12982 440.049C4.22618 440.727 4.32255 441.406 4.43268 442.084V442.406L29.0051 439.644L28.6747 437.383L28.7573 437.514ZM30.5469 448.761L6.05706 451.963C6.12589 452.404 6.20851 452.844 6.2911 453.284V453.629L6.41499 454.308L30.8911 450.999C30.7672 450.249 30.6295 449.499 30.4918 448.75L30.5469 448.761ZM32.6806 459.961L8.25964 463.58C8.42483 464.365 8.57627 465.139 8.74146 465.96L33.1212 462.104C32.9697 461.354 32.8045 460.616 32.6531 459.866L32.6806 459.961ZM35.1448 471.114L10.8752 475.399C11.0266 476.065 11.178 476.696 11.3432 477.363V477.458V477.541V477.672L35.599 473.268L35.0622 471.054L35.1448 471.114ZM37.898 482.195L13.7661 486.896C13.9313 487.539 14.1102 488.182 14.2754 488.825V488.884L14.3443 489.158L38.545 484.278C38.3385 483.54 38.1458 482.802 37.9393 482.064L37.898 482.195ZM41.0229 493.217L17.0424 498.596C17.0424 498.751 17.125 498.882 17.1801 499.037V499.132V499.251V499.382L17.2764 499.703V499.834C17.3728 500.167 17.4691 500.465 17.5793 500.798L41.5322 495.323C41.2982 494.585 41.0779 493.859 40.8577 493.121L41.0229 493.217ZM44.4782 504.167L20.6629 510.118V510.201V510.296L20.9933 511.308V511.451V511.594L21.241 512.32L45.0151 506.369C44.781 505.643 44.5332 504.917 44.2855 504.19L44.4782 504.167ZM48.2638 515.034L24.6275 521.473L24.6963 521.651C24.9579 522.342 25.2057 523.044 25.4672 523.734L49.0623 517.188L48.2638 515.034ZM52.3936 525.805L28.9913 532.78C29.129 533.101 29.2529 533.423 29.3906 533.756V533.839C29.542 534.232 29.6934 534.625 29.8586 535.029L53.2609 527.959C52.9718 527.245 52.6827 526.531 52.4074 525.817L52.3936 525.805ZM56.8125 536.517L33.6305 543.873L33.7957 544.266L34.3188 545.456L34.5941 546.087L57.8175 538.481L56.8951 536.362L56.8125 536.517ZM61.5619 547.086L38.545 554.942L39.2471 556.418V556.513L39.5499 557.132L62.4842 549.026L61.493 546.92L61.5619 547.086ZM66.6278 557.56L43.8862 566.082C43.9688 566.249 44.0652 566.428 44.1478 566.606L44.9875 568.261L67.674 559.643C67.3161 558.953 66.9719 558.251 66.6278 557.56ZM71.9965 567.915L49.5578 576.783L49.8469 577.33V577.414V577.533V577.652L49.9158 577.771L50.1223 578.14V578.211V578.306V578.425L50.3012 578.747L72.7261 569.629L71.6111 567.57L71.9965 567.915ZM77.6819 578.14L55.4772 587.661L55.67 587.995L56.5372 589.494L56.6749 589.721L78.8107 580.103L77.6406 578.068L77.6819 578.14ZM83.6702 588.245L61.7546 598.254L61.9198 598.516L62.4842 599.421V599.504C62.6494 599.754 62.8146 600.016 62.966 600.278L84.8127 590.173L83.5876 588.161L83.6702 588.245ZM89.9475 598.207L68.3485 608.705L68.4174 608.8L69.0093 609.716L69.6838 610.74L91.214 600.135C90.7872 599.48 90.3467 598.826 89.92 598.159L89.9475 598.207ZM96.5277 608.038L75.2728 618.857L75.9749 619.857V619.929V620.048L76.5669 620.893L97.7804 609.823L96.4038 607.883L96.5277 608.038ZM103.411 617.703L82.4725 629.153C82.7065 629.486 82.9543 629.819 83.2021 630.153C83.4361 630.486 83.6839 630.819 83.9317 631.152L104.815 619.607C104.333 618.976 103.865 618.334 103.438 617.691L103.411 617.703ZM110.569 627.225L89.92 639.127L90.4706 639.841L90.5394 639.936L90.622 640.043L90.9386 640.436L91.1038 640.639L91.2415 640.817L91.4342 641.055L111.959 629.058L110.5 627.177L110.569 627.225ZM118.003 636.58L97.7391 648.78L99.3359 650.72L119.503 638.27L117.975 636.413L118.003 636.58ZM125.712 645.768L105.861 658.421L106.315 658.944L107.513 660.325L127.309 647.423L125.725 645.602L125.712 645.768ZM133.696 654.79L114.258 667.871C114.575 668.216 114.878 668.561 115.194 668.895L115.277 668.978V669.061L115.442 669.252L115.621 669.454L115.8 669.645L135.21 656.314L133.572 654.54L133.696 654.79ZM141.956 663.622L122.876 677.179L123.151 677.464L123.303 677.631L123.495 677.833L123.716 678.059L124.349 678.726L124.528 678.916L143.635 665.276L141.956 663.527V663.622ZM150.463 672.275L131.796 686.355L132.113 686.665L132.196 686.76L132.264 686.831C132.553 687.105 132.843 687.391 133.118 687.677L133.2 687.748L133.545 688.093L152.143 673.929L150.408 672.227L150.463 672.275ZM159.218 680.737L140.965 695.032L141.157 695.211L142.066 696.056V696.127L142.727 696.746L161.063 682.249L159.273 680.583L159.218 680.737ZM168.221 688.998L150.408 703.888L150.862 704.292L151.055 704.471H151.124L151.303 704.625H151.372L151.537 704.768L151.73 704.935H151.798L151.977 705.102L152.06 705.161L152.17 705.268L152.253 705.34L169.97 690.366L168.139 688.736L168.221 688.998ZM177.472 697.068L160.099 712.183L162.068 713.85L179.358 698.496L177.472 696.913V697.068ZM186.957 704.923L170.038 720.575L170.41 720.872L170.52 720.955L170.754 721.146L171.002 721.348L171.222 721.527L171.305 721.586L171.415 721.681L172.007 722.146L188.829 706.423L186.902 704.875L186.957 704.923ZM196.662 712.564L180.225 728.585L181.327 729.43L181.492 729.561L182.263 730.144L198.603 714.04L196.634 712.54L196.662 712.564ZM206.601 719.991L190.633 736.369L191.417 736.952L192.725 737.904L208.597 721.443L206.587 719.991H206.601ZM216.747 727.133L201.274 743.832L202.182 744.463H202.265L202.375 744.546L202.609 744.701L203.407 745.248L218.88 728.454L216.816 727.037L216.747 727.133ZM227.113 734.107L212.135 751.08L212.314 751.199L214.324 752.52L229.205 735.381C228.503 734.929 227.828 734.476 227.113 734.012V734.107ZM237.671 740.856L223.203 758.114L223.327 758.186H223.41L223.52 758.257L223.74 758.4L225.116 759.233L225.282 759.328L225.378 759.388L239.736 741.927L237.602 740.606L237.671 740.856ZM248.422 747.367L234.477 765.077L236.157 766.053H236.253L236.694 766.315L250.542 748.593L248.367 747.319L248.422 747.367ZM259.435 753.639L246.013 771.647L246.385 771.862L246.592 771.969C247.06 772.242 247.541 772.504 247.968 772.766L248.216 772.909L261.555 754.77L259.353 753.58L259.435 753.639ZM270.558 759.662L257.687 777.967L260.013 779.158L272.775 760.792L270.531 759.602L270.558 759.662ZM281.86 765.434L269.54 784.014L271.921 785.204L284.09 766.446L281.805 765.327L281.86 765.434ZM293.327 770.957L281.557 789.81L281.805 789.917H281.888H281.984H282.08H282.163H282.232H282.328L283.843 790.62L295.502 771.719L293.176 770.648L293.327 770.957ZM304.96 776.218L293.768 795.262L296.218 796.333L307.259 777.158L304.905 776.146L304.96 776.218ZM316.743 781.217L306.116 800.57L306.488 800.725L306.736 800.82L308.553 801.57L319.07 782.169L316.688 781.205L316.743 781.217ZM328.679 785.978L318.629 805.557H318.726L319.813 805.974H319.951L321.066 806.402L331.005 786.775L328.596 785.859L328.679 785.978ZM340.738 790.441L331.28 810.247L333.29 810.949L333.827 811.151L343.174 791.298L340.738 790.441ZM352.934 794.631L344.083 814.638L346.643 815.484L355.385 795.44L352.934 794.631ZM365.255 798.558L356.995 818.792H357.119H357.188H357.312L359.473 819.447L367.623 799.213L365.145 798.463L365.255 798.558ZM377.645 802.201L369.991 822.577L370.459 822.708H370.541L372.29 823.196H372.4H372.537L380.067 802.784L377.576 802.094L377.645 802.201ZM390.172 805.569L383.123 825.958L385.505 826.553H385.587H385.711L392.594 805.974L390.075 805.343L390.172 805.569ZM402.809 808.652L396.38 829.338H396.463L398.996 829.921L405.301 809.211L402.768 808.628L402.809 808.652ZM415.529 811.449L409.719 832.278L412.473 832.825L418.144 811.972L415.598 811.449H415.529ZM428.317 813.96L423.141 834.908L423.623 835.003H423.747L425.84 835.384L430.878 814.305L428.304 813.841L428.317 813.96ZM441.189 816.186L436.646 837.241L437.788 837.431L438.669 837.574L439.358 837.681L443.763 816.436L441.175 816.031L441.189 816.186ZM454.129 818.126L450.15 839.157L450.935 839.264L452.876 839.526L456.662 818.352L454.074 818.007L454.129 818.126ZM467.11 819.768L463.82 841.002L464.467 841.085H464.591L466.56 841.3L469.698 820.006L467.096 819.709L467.11 819.768ZM480.147 821.137L477.49 842.43H477.683H478.329H478.66L480.229 842.573L482.762 821.268L480.147 821.03V821.137ZM493.224 822.208L491.201 843.561L493.954 843.752L495.854 822.327L493.238 822.149L493.224 822.208ZM506.33 822.982L504.953 844.406H505.531L507.706 844.501L508.973 823.077L506.357 822.946L506.33 822.982ZM519.449 823.482L518.678 844.906H519.531H521.39L522.023 823.482H519.394H519.449ZM532.582 823.684L532.444 845.108H535.197V823.577L532.582 823.684ZM548.358 823.565H545.742L546.224 844.989H547.821H548.068H548.977L548.358 823.565ZM561.49 823.137L558.875 823.244L559.99 844.668H560.995H561.146H562.729L561.49 823.244V823.137ZM574.596 822.423L571.98 822.589L573.715 843.811L575.601 843.704H576.454L574.582 822.28L574.596 822.423ZM587.687 821.423L585.072 821.649L587.439 842.966L590.193 842.74L587.701 821.423H587.687ZM600.724 820.137L598.122 820.411L601.123 841.681L602.968 841.478H603.119H603.298H603.862L600.71 820.006L600.724 820.137ZM613.733 818.554L611.131 818.888L614.765 840.086L616.83 839.812L617.491 839.729L613.733 818.554ZM626.686 816.686L624.098 817.078L628.366 838.181C628.981 838.102 629.6 838.007 630.224 837.896H630.362H630.486L631.037 837.8L626.645 816.721L626.686 816.686ZM639.571 814.531L636.997 814.984L641.884 835.991L644.637 835.503L639.627 814.531H639.571ZM652.388 812.151L649.827 812.663L655.334 833.539L656.146 833.385H656.27L658.018 833.028L652.374 812.175L652.388 812.151ZM665.121 809.413L662.588 809.985L668.728 830.742L670.931 830.242H671.041H671.151H671.302L665.108 809.294L665.121 809.413ZM677.772 806.402L675.253 807.033L682.012 827.636L684.669 826.981L677.786 806.402H677.772ZM690.341 803.105L687.835 803.784L695.186 824.065L697.485 823.434L697.816 823.351L690.313 802.927L690.341 803.105ZM702.73 799.534L700.252 800.272L708.237 820.506L710.852 819.733L702.73 799.499V799.534ZM715.12 795.678L712.656 796.476L721.259 816.436H721.342H721.411L723.792 815.662L715.078 795.607L715.12 795.678ZM727.344 791.548L724.907 792.393L734.103 812.294L734.282 812.234H734.433H734.544H734.612L735.879 811.794L736.471 811.58L727.165 791.727L727.344 791.548ZM739.444 787.144L737.035 788.049L746.823 807.735L748.516 807.104H748.612L749.328 806.831L739.431 787.192L739.444 787.144ZM751.407 782.478L749.025 783.431L759.391 802.891L761.897 801.891L751.407 782.478ZM763.218 777.539L760.864 778.551L771.877 797.773L773.254 797.214L773.364 797.154L774.396 796.714L763.383 777.539H763.218ZM774.892 772.35L772.565 773.409L784.088 792.369L786.524 791.262L774.892 772.35ZM786.4 766.886L784.115 768.005L796.188 786.704L798.528 785.514L786.332 766.863L786.4 766.886ZM797.744 761.173L795.5 762.364L808.068 780.586L810.436 779.396L797.689 761.019L797.744 761.173ZM808.922 755.222L806.705 756.412L819.879 774.563H819.99H820.072L821.738 773.647L821.972 773.516L822.123 773.433L808.839 755.341L808.922 755.222ZM819.934 749.021L817.704 750.092L831.47 767.946L831.828 767.743L832.751 767.208L833.756 766.625L819.99 748.843L819.934 749.021ZM830.741 742.57L828.593 743.879L842.841 761.411L845.085 760.043L830.741 742.57ZM841.354 735.881L839.248 737.238L854.005 754.448L854.212 754.306L856.084 753.115H856.194L841.341 735.964L841.354 735.881ZM851.762 728.954L849.697 730.358L864.95 747.248L865.156 747.117L865.239 747.057L865.404 746.938H865.5L865.665 746.819H865.762L865.954 746.7L866.065 746.617H866.147L867.083 745.986L851.72 729.168L851.762 728.954ZM861.962 721.812L859.939 723.253L875.687 739.797L876.486 739.225L876.678 739.083L877.807 738.273L861.949 721.812H861.962ZM871.956 714.433L870.015 715.73L886.177 731.929L888.228 730.394L871.901 714.278L871.956 714.433ZM881.717 706.839L879.789 708.375L896.488 724.205L898.525 722.586L881.717 706.839ZM891.256 699.043L889.288 700.424L906.454 715.897L906.95 715.48L908.423 714.29L891.16 698.924L891.256 699.043ZM900.562 691.021L898.718 692.64L916.338 707.708L916.435 707.625L916.545 707.53L916.737 707.363L916.971 707.161L917.44 706.756L917.619 706.589L917.715 706.518L917.811 706.423L918.004 706.256L918.128 706.149L900.425 691.164L900.562 691.021ZM909.62 682.808C909.029 683.368 908.436 683.915 907.831 684.463L925.892 699.138L926.814 698.293L927.007 698.115C927.227 697.913 927.448 697.698 927.682 697.496L909.524 682.904L909.62 682.808ZM918.444 674.393L916.696 676.096L935.184 690.378L936.905 688.7L918.417 674.203L918.444 674.393ZM927.007 665.788C926.456 666.371 925.892 666.978 925.314 667.526L944.228 681.38L946.004 679.559L927.007 665.788ZM935.267 656.992C934.73 657.587 934.179 658.183 933.628 658.766L952.901 672.204L953.163 671.93L953.975 671.049L954.085 670.93L954.58 670.394L935.198 657.04L935.267 656.992ZM943.32 648.03C942.783 648.625 942.26 649.22 941.723 649.839L961.422 662.836C961.987 662.206 962.537 661.563 963.088 660.932L943.32 648.03ZM951.098 638.877L949.556 640.722L969.64 653.279C970.012 652.815 970.384 652.374 970.769 651.922L970.893 651.791L971.017 651.624V651.565L971.182 651.363L951.042 638.889L951.098 638.877ZM958.6 629.558L957.113 631.438L977.556 643.543C977.818 643.233 978.065 642.912 978.313 642.591L978.478 642.376L979.043 641.662L958.531 629.641L958.6 629.558ZM965.827 620.036L964.451 621.94L985.251 633.592L986.738 631.593L965.882 620.036H965.827ZM972.71 610.395L971.334 612.335L992.465 623.523C992.602 623.321 992.74 623.118 992.891 622.928V622.833L993.621 621.797L993.786 621.559L972.586 610.466L972.71 610.395ZM979.359 600.611L977.983 602.587L999.444 613.299C999.637 613.001 999.829 612.704 1000.04 612.406V612.335L1000.74 611.264L979.222 600.647L979.359 600.611ZM985.719 590.685L984.467 592.684L1006.24 602.908L1006.85 601.92V601.849L1007.3 601.111L1007.41 600.944L985.582 590.815L985.719 590.685ZM991.776 580.615L990.592 582.639L1012.62 592.387L1012.93 591.851C1013.21 591.363 1013.5 590.875 1013.79 590.387V590.316L991.666 580.675L991.776 580.615ZM997.531 570.415C997.159 571.105 996.787 571.784 996.402 572.462L1018.76 581.71L1019.16 580.996V580.889V580.782C1019.16 580.675 1019.27 580.58 1019.34 580.472C1019.49 580.211 1019.61 579.972 1019.76 579.699L997.352 570.558L997.531 570.415ZM1003.04 560.096C1002.68 560.786 1002.32 561.476 1001.98 562.167L1024.59 570.915L1024.8 570.51V570.403V570.332V570.272L1025.12 569.653L1025.2 569.522V569.451L1025.53 568.808L1002.86 560.167L1003.04 560.096ZM1008.17 549.645C1007.84 550.348 1007.51 551.05 1007.17 551.752L1030.05 559.977L1030.27 559.512C1030.54 558.941 1030.83 558.322 1031.11 557.775L1008.17 549.645ZM1013 539.088L1012.05 541.219L1035.17 548.931L1035.32 548.622V548.491V548.36C1035.54 547.836 1035.77 547.301 1036.01 546.777L1012.85 539.159L1013 539.088ZM1017.51 528.376C1017.22 529.09 1016.93 529.804 1016.62 530.518L1040.03 537.66C1040.14 537.386 1040.25 537.1 1040.37 536.827V536.755C1040.55 536.327 1040.73 535.898 1040.89 535.458L1017.49 528.316L1017.51 528.376ZM1021.63 517.664C1021.37 518.378 1021.1 519.104 1020.82 519.818L1044.38 526.495C1044.6 525.888 1044.83 525.305 1045.05 524.674C1045.05 524.52 1045.16 524.389 1045.22 524.234L1021.63 517.664ZM1025.5 506.821C1025.26 507.547 1025.01 508.261 1024.75 508.987L1048.49 515.141C1048.64 514.676 1048.81 514.224 1048.96 513.76V513.677C1049.04 513.403 1049.14 513.141 1049.24 512.867L1025.57 506.702L1025.5 506.821ZM1029.03 495.895C1028.81 496.621 1028.59 497.347 1028.35 498.085L1052.26 503.691C1052.39 503.286 1052.51 502.917 1052.64 502.5V502.429L1052.88 501.608V501.548V501.441L1028.93 495.942L1029.03 495.895ZM1032.23 484.885C1032.04 485.623 1031.84 486.361 1031.63 487.087L1055.71 492.169L1056.24 490.217V490.146L1056.31 489.86L1032.21 484.897L1032.23 484.885ZM1035.21 473.649L1034.67 475.863L1058.89 480.398C1058.89 480.148 1059.01 479.898 1059.08 479.636L1059.46 478.077L1035.21 473.649ZM1037.75 462.521C1037.6 463.258 1037.44 464.008 1037.27 464.746L1061.63 468.733C1061.63 468.507 1061.72 468.269 1061.78 468.031C1061.78 467.734 1061.9 467.448 1061.96 467.162L1062.12 466.436L1037.74 462.556L1037.75 462.521ZM1039.97 451.332L1039.56 453.57L1064.01 457.022C1064.01 456.784 1064.1 456.557 1064.14 456.319V456.034V455.879C1064.14 455.784 1064.14 455.653 1064.14 455.546V455.427C1064.14 455.177 1064.24 454.939 1064.28 454.689L1039.81 451.356L1039.97 451.332ZM1041.84 440.096C1041.73 440.846 1041.62 441.596 1041.5 442.346L1066.06 445.25C1066.18 444.465 1066.29 443.679 1066.42 442.87L1041.84 440.085V440.096ZM1043.4 428.825L1043.11 431.075L1067.74 433.455C1067.74 433.05 1067.85 432.658 1067.89 432.265V431.991C1067.89 431.693 1067.89 431.396 1068 431.098L1043.36 428.861L1043.4 428.825ZM1044.61 417.518C1044.53 418.268 1044.46 419.029 1044.39 419.779L1069.07 421.588C1069.16 420.803 1069.24 420.005 1069.31 419.208L1044.61 417.506V417.518ZM1045.48 406.187C1045.48 406.937 1045.38 407.698 1045.33 408.448L1070.11 409.722V409.21V409.115L1070.23 407.353L1045.45 406.163L1045.48 406.187ZM1046.03 394.832L1045.95 397.105L1070.72 397.831V396.736V396.641V395.451L1045.95 394.832H1046.03ZM1046.23 383.477C1046.23 384.227 1046.23 384.989 1046.23 385.751L1071.01 385.929C1071.01 385.239 1071.01 384.572 1071.01 383.882V383.549L1046.23 383.477ZM1070.89 371.634L1046.11 372.099C1046.11 372.86 1046.11 373.61 1046.11 374.372L1070.89 374.015C1070.89 373.515 1070.89 373.027 1070.89 372.527C1070.89 372.23 1070.89 371.932 1070.89 371.634ZM1070.41 359.732L1045.63 360.744L1045.75 363.005L1070.53 362.101L1070.41 359.72V359.732ZM1069.58 347.83L1044.8 349.377C1044.8 350.139 1044.93 350.889 1044.98 351.639L1069.76 350.198V349.936C1069.76 349.532 1069.76 349.139 1069.66 348.746L1069.58 347.83ZM1068.41 335.927L1043.76 338.034L1044 340.284L1068.67 338.296L1068.55 337.213V337.082C1068.55 336.677 1068.47 336.332 1068.43 335.892L1068.41 335.927ZM1066.88 324.097L1042.3 326.751C1042.41 327.501 1042.5 328.25 1042.61 329L1067.21 326.465C1067.21 326.191 1067.21 325.918 1067.1 325.644V325.513L1066.9 324.097H1066.88ZM1065.01 312.313L1040.51 315.503C1040.63 316.253 1040.77 317.003 1040.89 317.753L1065.41 314.67C1065.31 314.122 1065.23 313.587 1065.14 313.051V312.944V312.849L1065.05 312.373L1065.01 312.313ZM1062.78 300.566L1038.39 304.303C1038.54 305.041 1038.69 305.791 1038.83 306.541L1063.25 302.91V302.613L1063.08 301.804V301.685C1063.08 301.351 1062.96 301.018 1062.89 300.685V300.566H1062.78ZM1060.21 288.866L1035.92 293.151C1036.1 293.889 1036.27 294.638 1036.45 295.376L1060.74 291.21V290.901C1060.61 290.294 1060.47 289.711 1060.32 289.068V288.866H1060.21ZM1057.28 277.237L1033.14 282.058L1033.72 284.283L1057.89 279.522L1057.67 278.713V278.642C1057.55 278.166 1057.43 277.678 1057.29 277.201L1057.28 277.237ZM1054.01 265.68L1030.02 271.036C1030.24 271.774 1030.46 272.512 1030.67 273.238L1054.69 267.989C1054.47 267.215 1054.23 266.442 1054.01 265.68ZM1050.39 254.194L1026.56 260.086C1026.81 260.824 1027.04 261.55 1027.28 262.276L1051.14 256.491C1051 256.039 1050.85 255.599 1050.71 255.158V255.087V255.027C1050.61 254.754 1050.53 254.468 1050.43 254.194H1050.39ZM1046.43 242.792L1022.79 249.219L1023.58 251.397L1047.25 245.065C1047.12 244.696 1046.98 244.327 1046.85 243.958V243.863V243.768C1046.76 243.47 1046.65 243.173 1046.54 242.875L1046.43 242.792ZM1042.13 231.485L1018.73 238.448L1019.58 240.59L1043.05 233.746L1042.53 232.401V232.318C1042.42 232.056 1042.31 231.794 1042.22 231.52L1042.13 231.485ZM1037.49 220.285L1014.27 227.759L1015.18 229.89L1038.44 222.522C1038.17 221.868 1037.91 221.225 1037.62 220.594V220.499L1037.52 220.285H1037.49ZM1032.46 209.299L1009.47 217.297L1010.44 219.404L1033.47 211.513V211.417L1033.34 211.096V210.977V210.906V210.834V210.751V210.644L1032.76 209.394L1032.46 209.299ZM1027.16 198.325L1004.41 206.823L1005.45 208.918L1028.24 200.503C1027.98 199.979 1027.72 199.456 1027.47 198.932L1027.17 198.337L1027.16 198.325ZM1021.52 187.458L999.045 196.468C999.416 197.158 999.774 197.849 1000.15 198.527L1022.67 189.624L1022.49 189.267L1022.39 189.089L1021.81 188.017L1021.7 187.815C1021.7 187.708 1021.58 187.589 1021.52 187.482V187.458ZM1015.58 176.746L993.373 186.268L994.53 188.303L1016.79 178.888C1016.46 178.293 1016.11 177.698 1015.78 177.115L1015.58 176.758V176.746ZM1009.3 166.141L987.44 176.091L988.665 178.103L1010.69 168.188C1010.26 167.498 1009.84 166.784 1009.41 166.081L1009.3 166.141ZM1002.72 155.691L981.108 166.177L982.388 168.164L1004.06 157.774L1003.23 156.476L1003.09 156.262V156.155V156.084L1002.84 155.703L1002.72 155.691ZM995.837 145.383L974.638 156.345L976.014 158.297L997.365 147.419L996.939 146.788V146.716L996.03 145.395L995.837 145.383ZM988.638 135.243L967.755 146.669C968.223 147.3 968.691 147.942 969.131 148.585L990.166 137.242L988.693 135.231L988.638 135.243ZM981.149 125.257L960.5 137.159L961.945 139.051L982.594 127.244C982.347 126.911 982.099 126.578 981.837 126.256L981.672 126.054C981.479 125.78 981.287 125.53 981.08 125.268L981.149 125.257ZM973.399 115.39L953.149 127.732L954.649 129.589L974.982 117.33L974.72 117.02L974.596 116.865L973.426 115.425L973.399 115.39ZM965.318 105.749L945.44 118.544L947.009 120.365L966.956 107.665L966.832 107.51L966.763 107.439L965.786 106.249L965.662 106.106L965.401 105.796L965.318 105.749ZM956.962 96.3458L937.469 109.569L939.08 111.355L958.655 98.2621L958.256 97.8217L958.16 97.7265L957.334 96.8219V96.7505L957.21 96.6077L957.1 96.4886L956.962 96.3458ZM948.317 87.0739L929.21 100.726C929.774 101.309 930.325 101.916 930.875 102.487L950.051 88.9069C949.473 88.2999 948.895 87.7166 948.303 87.0739H948.317ZM939.41 78.0043L920.73 92.0729L922.45 93.7868L941.214 79.8016L940.36 78.9446L939.41 78.0043ZM930.242 69.1252L911.974 83.6103L913.75 85.2886L932.087 70.8868L931.178 70.0179L931.054 69.8989C930.793 69.6489 930.531 69.4109 930.283 69.1609L930.242 69.1252ZM920.798 60.4603L902.971 75.3382L904.789 76.9807L922.684 62.1743L921.886 61.4601L921.79 61.3649L921.707 61.3054L921.501 61.115L920.785 60.4841L920.798 60.4603ZM911.162 51.9978L893.776 67.2685C894.395 67.8041 895.015 68.3397 895.648 68.8634L913.117 53.676L912.952 53.5332L911.575 52.343L911.424 52.2239V52.1525L911.162 51.9978ZM901.223 43.7614L884.263 59.4486L886.177 60.9959L903.192 45.4277L902.958 45.2373L902.765 45.0945L902.669 45.0111L902.558 44.9159L902.379 44.7731L902.159 44.5946L902.077 44.5231L901.98 44.4398L901.76 44.2732L901.264 43.8685L901.223 43.7614ZM891.05 35.7392L874.531 51.7597L876.499 53.2713L893.019 37.3341L890.967 35.7392H891.05ZM880.643 27.9551L864.619 44.3327L866.629 45.7967L882.694 29.4905L882.212 29.1334H882.143L881.992 29.0144L881.524 28.6812L881.331 28.5383L881.152 28.4074L880.629 28.0265L880.643 27.9551ZM870.015 20.3971L854.529 37.1199L856.58 38.5482L872.163 21.8849L872.053 21.8135L871.915 21.7183L870.015 20.3971ZM859.113 13.0296L844.121 30.0856L846.214 31.4663L861.357 14.4698L860.462 13.8866L860.269 13.7557L859.182 13.0415L859.113 13.0296ZM848.1 5.94775L833.563 23.3846L835.697 24.7177L850.275 7.39983L849.187 6.70949L848.981 6.57857L848.871 6.50716L848.761 6.44764L848.527 6.30482L848.141 6.06676L848.1 5.94775ZM836.825 -0.872276L822.867 16.8265L825.028 18.1119L839.097 0.472672L838.532 0.139412L838.298 -0.00341034L838.161 -0.0867386L836.88 -0.836571L836.825 -0.872276ZM825.358 -7.45426L811.868 10.6492L814.07 11.8394L827.602 -6.0974C827.203 -6.33544 826.79 -6.56158 826.377 -6.78773L826.239 -6.87105L826.074 -6.96627H825.964L825.303 -7.33524L825.358 -7.45426ZM813.575 -13.7268L800.69 4.56707L802.933 5.7573L815.929 -12.4889L815.337 -12.7984L815.185 -12.8817L814.208 -13.4054L813.588 -13.7268H813.575ZM801.736 -19.7851L789.346 -1.20556L791.618 -0.0153275L804.007 -18.5353L802.947 -19.0709H802.851L801.832 -19.5708L801.736 -19.7851ZM789.704 -25.5815L777.92 -6.74012L780.233 -5.64511L792.127 -24.4389L791.865 -24.5579H791.769L789.718 -25.522L789.704 -25.5815ZM777.507 -31.1042L766.302 -12.0605L768.628 -11.025L779.958 -30.0687L779.793 -30.1401H779.669L777.59 -31.0565L777.507 -31.1042ZM765.118 -36.3531L754.477 -17.0118L756.845 -16.0239L767.596 -35.3295L765.118 -36.3531ZM752.605 -41.3282L742.542 -21.7489L744.951 -20.8206L755.124 -40.3523L752.605 -41.3282ZM739.954 -46.0178L730.579 -26.248L733.002 -25.3672L742.638 -45.1251L741.179 -45.6607H741.069L740.119 -45.9939L739.954 -46.0178ZM727.165 -50.4216L718.286 -30.4257L720.736 -29.6045L729.739 -49.5646L727.385 -50.3621H727.165V-50.4216ZM714.252 -54.5517L705.993 -34.3178L708.471 -33.556L716.937 -53.7424L714.349 -54.5517H714.252ZM701.312 -58.3843L693.645 -38.0194L696.15 -37.3053L703.928 -57.6463L703.418 -57.7891L701.312 -58.3843ZM688.166 -61.955L681.117 -41.4235L683.637 -40.7688L690.809 -61.2765L688.166 -61.955ZM674.923 -65.1924L668.494 -44.4586L671.027 -43.8634L677.58 -64.5259L674.923 -65.1448V-65.1924ZM661.583 -68.1442L655.774 -47.3151L658.321 -46.7795L664.254 -67.5728L662.506 -67.9061H662.409L661.611 -68.0727L661.583 -68.1442ZM648.162 -70.7865L642.985 -49.8265L645.546 -49.3504L650.86 -70.2747H650.694L648.808 -70.6317L648.162 -70.7508V-70.7865ZM634.671 -73.1669L630.114 -52.1117L632.688 -51.6833L637.369 -72.667L634.74 -73.0955L634.671 -73.1669ZM621.111 -75.2141L617.174 -54.0518L619.762 -53.6947L623.823 -74.8213L623.286 -74.9047H623.121H622.983L621.125 -75.1665L621.111 -75.2141ZM607.497 -76.94L604.193 -55.7181L606.794 -55.4087L610.222 -76.6186L608.006 -76.8805H607.854H607.497V-76.94ZM593.827 -78.3801L591.156 -57.075L593.772 -56.8251L596.525 -78.1183L594.859 -78.273H593.964H593.786L593.827 -78.3801ZM580.061 -79.5704L578.023 -58.2176L580.653 -58.0272L582.814 -79.368L581.589 -79.4633L580.061 -79.5704ZM566.295 -80.3916L564.918 -58.9675L567.534 -58.8365L569.075 -80.2607C568.139 -80.2607 567.245 -80.3678 566.322 -80.4035L566.295 -80.3916ZM552.529 -80.9153L551.744 -59.4912L554.373 -59.4198L555.282 -80.8439H553.093H552.529V-80.9153ZM538.763 -81.1415L538.611 -59.7173H541.24L541.516 -81.1415H538.763Z" fill="#64583A"/>
</g>
</g>
</g>
<defs>
<filter id="filter0_f" x="114.256" y="636.909" width="343.36" height="233.118" filterUnits="userSpaceOnUse" color-interpolation-filters="sRGB">
<feFlood flood-opacity="0" result="BackgroundImageFix"/>
<feBlend mode="normal" in="SourceGraphic" in2="BackgroundImageFix" result="shape"/>
<feGaussianBlur stdDeviation="20" result="effect1_foregroundBlur"/>
</filter>
<linearGradient id="paint0_linear" x1="235.5" y1="745.258" x2="447.062" y2="816.912" gradientUnits="userSpaceOnUse">
<stop stop-color="#285766"/>
<stop offset="1" stop-color="#285766" stop-opacity="0"/>
</linearGradient>
<clipPath id="clip0">
<rect width="1071" height="926" fill="white" transform="translate(0 -81)"/>
</clipPath>
</defs>
</svg>
