<svg width="464" height="614" viewBox="0 0 464 614" fill="none" xmlns="http://www.w3.org/2000/svg">
<g filter="url(#filter0_d)">
<path fill-rule="evenodd" clip-rule="evenodd" d="M394.008 8H69.9916C69.4578 39.5712 43.6985 65 12 65V443.811C12 446.491 13.0757 449.059 14.9858 450.938L145.446 579.323C164.093 551.395 195.899 533 232 533C268.102 533 299.907 551.395 318.554 579.323L449.014 450.938C450.924 449.059 452 446.491 452 443.811V65C420.302 65 394.542 39.5712 394.008 8Z" fill="#0D1F30"/>
<path d="M394.008 8L395.508 7.97465L395.483 6.5H394.008V8ZM69.9916 8V6.5H68.5167L68.4918 7.97465L69.9916 8ZM12 65V63.5H10.5V65H12ZM14.9858 450.938L16.038 449.869H16.038L14.9858 450.938ZM145.446 579.323L144.394 580.392L145.686 581.664L146.693 580.156L145.446 579.323ZM318.554 579.323L317.307 580.156L318.314 581.664L319.606 580.392L318.554 579.323ZM449.014 450.938L447.962 449.869L449.014 450.938ZM452 65H453.5V63.5H452V65ZM394.008 6.5H69.9916V9.5H394.008V6.5ZM68.4918 7.97465C67.9718 38.7288 42.8786 63.5 12 63.5V66.5C44.5185 66.5 70.9438 40.4136 71.4913 8.02535L68.4918 7.97465ZM10.5 65V443.811H13.5V65H10.5ZM10.5 443.811C10.5 446.893 11.737 449.846 13.9337 452.007L16.038 449.869C14.4143 448.271 13.5 446.089 13.5 443.811H10.5ZM13.9337 452.007L144.394 580.392L146.498 578.254L16.038 449.869L13.9337 452.007ZM146.693 580.156C165.074 552.627 196.421 534.5 232 534.5V531.5C195.376 531.5 163.112 550.163 144.198 578.49L146.693 580.156ZM232 534.5C267.579 534.5 298.926 552.627 317.307 580.156L319.802 578.49C300.888 550.163 268.624 531.5 232 531.5V534.5ZM319.606 580.392L450.066 452.007L447.962 449.869L317.502 578.254L319.606 580.392ZM450.066 452.007C452.263 449.846 453.5 446.893 453.5 443.811H450.5C450.5 446.089 449.586 448.271 447.962 449.869L450.066 452.007ZM453.5 443.811V65H450.5V443.811H453.5ZM452 63.5C421.121 63.5 396.028 38.7288 395.508 7.97465L392.509 8.02535C393.056 40.4136 419.482 66.5 452 66.5V63.5Z" fill="url(#paint0_angular)"/>
<path d="M11 438V472.5L123.5 585C128.629 570.968 142.231 548.789 165.5 532.654M453 444.5V471L339 585C333.974 570.985 320.551 548.841 297.443 532.712M165.5 532.654C182.307 521.001 204.157 512.5 231.5 512.5C258.888 512.5 280.706 521.028 297.443 532.712M165.5 532.654L231.5 598.654L297.443 532.712" stroke="#BB8C3C"/>
<path d="M13 65V55.1754C35.1121 55.1754 59.1897 35.5263 59.1897 9H70" stroke="#BB8C3C"/>
<path d="M12 78.0877C45.75 78.0877 82.5 48.2632 82.5 8" stroke="#BB8C3C"/>
<path d="M82 20H24V77" stroke="#BB8C3C"/>
<path d="M383 20H441V77" stroke="#BB8C3C"/>
<path d="M452.5 78.0877C418.75 78.0877 382 48.2632 382 8" stroke="#BB8C3C"/>
<path d="M451 65V55.1754C428.888 55.1754 404.81 35.5263 404.81 9H394" stroke="#BB8C3C"/>
</g>
<defs>
<filter id="filter0_d" x="0.5" y="0.5" width="463" height="612.862" filterUnits="userSpaceOnUse" color-interpolation-filters="sRGB">
<feFlood flood-opacity="0" result="BackgroundImageFix"/>
<feColorMatrix in="SourceAlpha" type="matrix" values="0 0 0 0 0 0 0 0 0 0 0 0 0 0 0 0 0 0 127 0" result="hardAlpha"/>
<feOffset dy="4"/>
<feGaussianBlur stdDeviation="5"/>
<feColorMatrix type="matrix" values="0 0 0 0 0.00392157 0 0 0 0 0.0156863 0 0 0 0 0.027451 0 0 0 0.1 0"/>
<feBlend mode="normal" in2="BackgroundImageFix" result="effect1_dropShadow"/>
<feBlend mode="normal" in="SourceGraphic" in2="effect1_dropShadow" result="shape"/>
</filter>
<radialGradient id="paint0_angular" cx="0" cy="0" r="1" gradientUnits="userSpaceOnUse" gradientTransform="translate(232 293.661) rotate(90) scale(285.661 220)">
<stop offset="0.312582" stop-color="#D4C18B"/>
<stop offset="0.402335" stop-color="#765C29"/>
<stop offset="0.597142" stop-color="#765C29"/>
<stop offset="0.691398" stop-color="#D4C18B"/>
<stop offset="0.999357" stop-color="#443916"/>
</radialGradient>
</defs>
</svg>
