<svg width="402" height="521" viewBox="0 0 402 521" fill="none" xmlns="http://www.w3.org/2000/svg">
<path d="M2 59V49.1754C24.1121 49.1754 48.1897 29.5263 48.1897 3H59" stroke="#BB8C3C"/>
<path d="M400 59V49.1754C377.888 49.1754 353.81 29.5263 353.81 3H343" stroke="#BB8C3C"/>
<path fill-rule="evenodd" clip-rule="evenodd" d="M343.008 2H58.9916C58.4634 33.2386 33.2386 58.4634 2 58.9916V368.44C2 370.945 2.94038 373.359 4.63508 375.204L123.203 504.297C136.974 475.159 166.633 455 201 455C235.367 455 265.026 475.159 278.797 504.297L397.365 375.204C399.06 373.359 400 370.945 400 368.44V58.9916C368.761 58.4634 343.537 33.2386 343.008 2Z" fill="#0D1F30"/>
<path d="M343.008 2L344.508 1.97465L344.483 0.5L343.008 0.5V2ZM58.9916 2V0.5H57.5167L57.4918 1.97465L58.9916 2ZM2 58.9916L1.97465 57.4918L0.5 57.5167V58.9916H2ZM4.63508 375.204L5.73982 374.189L5.73981 374.189L4.63508 375.204ZM123.203 504.297L122.098 505.312L123.606 506.954L124.559 504.938L123.203 504.297ZM278.797 504.297L277.441 504.938L278.394 506.954L279.902 505.312L278.797 504.297ZM397.365 375.204L396.26 374.189L396.26 374.189L397.365 375.204ZM400 58.9916H401.5V57.5167L400.025 57.4918L400 58.9916ZM343.008 0.5H58.9916V3.5H343.008V0.5ZM57.4918 1.97465C56.9773 32.4046 32.4046 56.9773 1.97465 57.4918L2.02535 60.4913C34.0725 59.9496 59.9496 34.0725 60.4913 2.02535L57.4918 1.97465ZM0.5 58.9916V368.44H3.5V58.9916H0.5ZM0.5 368.44C0.5 371.321 1.58144 374.097 3.53034 376.219L5.73981 374.189C4.29932 372.621 3.5 370.569 3.5 368.44H0.5ZM3.53034 376.219L122.098 505.312L124.308 503.282L5.73982 374.189L3.53034 376.219ZM124.559 504.938C138.091 476.305 167.234 456.5 201 456.5V453.5C166.031 453.5 135.856 474.013 121.847 503.656L124.559 504.938ZM201 456.5C234.766 456.5 263.909 476.305 277.441 504.938L280.153 503.656C266.144 474.013 235.969 453.5 201 453.5V456.5ZM279.902 505.312L398.47 376.219L396.26 374.189L277.692 503.282L279.902 505.312ZM398.47 376.219C400.419 374.097 401.5 371.321 401.5 368.44H398.5C398.5 370.569 397.701 372.621 396.26 374.189L398.47 376.219ZM401.5 368.44V58.9916H398.5V368.44H401.5ZM400.025 57.4918C369.595 56.9773 345.023 32.4046 344.508 1.97465L341.509 2.02535C342.05 34.0725 367.928 59.9496 399.975 60.4913L400.025 57.4918Z" fill="#C9AC6A"/>
<path d="M2 359V393.574L103.301 506.316C107.919 492.254 120.167 470.027 141.12 453.858M400 365.514V392.071L299.348 506.316C294.823 492.271 280.736 470.08 259.928 453.915M141.12 453.858C156.254 442.179 175.929 433.66 200.55 433.66C225.211 433.66 244.857 442.207 259.928 453.915M141.12 453.858L200.55 520L259.928 453.915" stroke="#BB8C3C"/>
<path d="M2 73.0877C35.75 73.0877 72.5 43.2632 72.5 3" stroke="#BB8C3C"/>
<path d="M72 15H14V72" stroke="#BB8C3C"/>
<path d="M330 15H388V72" stroke="#BB8C3C"/>
<path d="M399.5 73.0877C365.75 73.0877 329 43.2632 329 3" stroke="#BB8C3C"/>
</svg>
