<svg width="203" height="32" viewBox="0 0 203 32" fill="none" xmlns="http://www.w3.org/2000/svg">
<g clip-path="url(#clip0)">
<path d="M9.31033 30.5312L4.02223 12.8106H3.87931C4.07327 16.4093 4.16515 18.8224 4.16515 20.0289V30.5207H0V7.94238H6.34981L11.5563 25.2224H11.6481L17.1608 7.94238H23.5106V30.5312H19.1617V19.8401C19.1617 19.3365 19.1617 18.7909 19.1617 18.0879C19.1617 17.385 19.2434 15.6853 19.3659 12.842H19.2332L13.5878 30.5312H9.31033Z" fill="white"/>
<path d="M46.9397 7.94238V22.5575C46.971 24.0976 46.5934 25.6174 45.8474 26.9535C45.1054 28.2183 44.0096 29.2238 42.7031 29.8388C41.1735 30.5598 39.5059 30.9184 37.8233 30.888C35.4305 31.0411 33.0722 30.2407 31.2387 28.6532C30.4445 27.8655 29.824 26.9119 29.4189 25.8567C29.0139 24.8015 28.8338 23.6693 28.8907 22.5365V7.94238H33.5357V21.7706C33.4236 23.1311 33.7854 24.4883 34.5565 25.6001C34.9975 26.0472 35.5288 26.3891 36.1129 26.6012C36.6969 26.8134 37.3192 26.8907 37.9356 26.8276C38.5424 26.8849 39.1539 26.8046 39.7272 26.5925C40.3004 26.3804 40.8214 26.0416 41.2535 25.6001C42.0244 24.4762 42.3858 23.1094 42.2743 21.7391V7.94238H46.9397Z" fill="white"/>
<path d="M65.3051 24.2568C65.3435 25.1781 65.1694 26.0956 64.7968 26.9344C64.4242 27.7732 63.8637 28.5095 63.1612 29.0831C61.4284 30.3538 59.3243 30.9759 57.1993 30.8457C55.049 30.891 52.9176 30.4242 50.972 29.4817V25.0332C52.1893 25.6126 53.4488 26.0932 54.739 26.4706C55.6576 26.7305 56.6041 26.8715 57.5567 26.8903C58.3852 26.9451 59.2098 26.7323 59.9149 26.2817C60.1842 26.0749 60.3997 25.8029 60.5421 25.4899C60.6846 25.177 60.7497 24.8327 60.7316 24.4876C60.7354 24.0671 60.6104 23.656 60.3743 23.3126C60.0973 22.9033 59.7516 22.548 59.3534 22.2634C58.4341 21.6956 57.4831 21.1842 56.5052 20.7316C55.4111 20.2456 54.3819 19.618 53.4426 18.864C52.7854 18.2737 52.2417 17.5619 51.8398 16.7657C51.4236 15.8987 51.217 14.9414 51.2375 13.9749C51.1948 13.0862 51.3511 12.1994 51.6945 11.3827C52.0378 10.5659 52.559 9.84109 53.218 9.26402C54.779 8.03721 56.7181 7.43005 58.6796 7.55389C59.7843 7.54959 60.8851 7.68703 61.9566 7.96305C63.0658 8.27087 64.1509 8.66366 65.203 9.13813L63.7023 12.8627C62.7586 12.4408 61.7862 12.0901 60.7928 11.8136C60.0522 11.6191 59.2909 11.5204 58.5265 11.5198C57.7938 11.4648 57.067 11.6889 56.4847 12.1493C56.2526 12.3531 56.0679 12.6078 55.9442 12.8947C55.8206 13.1816 55.7611 13.4934 55.7701 13.807C55.7647 14.1943 55.8636 14.5756 56.056 14.9086C56.298 15.2709 56.6067 15.581 56.9646 15.8214C57.9217 16.4062 58.9101 16.9351 59.9251 17.4057C61.5326 18.0867 62.9753 19.1217 64.1515 20.4378C64.9502 21.5375 65.3575 22.8856 65.3051 24.2568Z" fill="white"/>
<path d="M95.7168 11.6039C94.9257 11.5636 94.1374 11.7279 93.424 12.0816C92.7107 12.4354 92.095 12.9673 91.6333 13.6288C90.586 15.3149 90.0824 17.2973 90.1939 19.2944C90.1939 24.3445 92.0315 26.866 95.7066 26.859C97.6297 26.7821 99.527 26.3779 101.321 25.6629V29.6813C99.3991 30.4799 97.3409 30.8759 95.2676 30.8459C92.0723 30.8459 89.6222 29.8491 87.9378 27.8557C86.2534 25.8622 85.3958 22.998 85.3958 19.2629C85.3465 17.1357 85.7725 15.0252 86.6413 13.0937C87.4049 11.3937 88.6549 9.97356 90.2245 9.02292C91.8965 8.05837 93.7897 7.57284 95.7066 7.61703C97.9425 7.64045 100.144 8.18196 102.148 9.20127L100.668 13.1147C99.8612 12.7169 99.0329 12.3666 98.1873 12.0655C97.3951 11.7694 96.5598 11.6133 95.7168 11.6039Z" fill="white"/>
<path d="M135.378 30.5312H130.069L127.098 18.665C126.986 18.2453 126.792 17.364 126.527 16.0421C126.261 14.7201 126.108 13.8283 126.067 13.3771C126.016 13.9332 125.863 14.825 125.618 16.063C125.373 17.3011 125.189 18.1614 125.067 18.6965L122.106 30.5312H116.808L111.193 7.94238H115.787L118.594 20.2703C119.084 22.5505 119.425 24.5229 119.615 26.1876C119.677 25.6001 119.809 24.6978 120.024 23.4597C120.181 22.495 120.385 21.5391 120.636 20.5955L123.842 7.94238H128.242L131.447 20.5955C131.59 21.1621 131.764 22.0329 131.978 23.1974C132.192 24.362 132.346 25.3588 132.458 26.1876C132.56 25.3902 132.713 24.383 132.938 23.187C133.162 21.9909 133.356 21.0152 133.54 20.2703L136.398 7.94238H140.982L135.378 30.5312Z" fill="white"/>
<path d="M156.642 30.5314L155.05 25.1596H147.036L145.433 30.5314H140.41L148.179 7.86914H153.876L161.665 30.5524L156.642 30.5314ZM153.937 21.0888C152.457 16.2101 151.63 13.4613 151.446 12.8213C151.262 12.1813 151.13 11.6777 151.048 11.2999C150.711 12.6219 149.772 15.8849 148.2 21.0888H153.937Z" fill="white"/>
<path d="M169.066 21.865V30.5312H164.401V7.94238H170.812C173.793 7.94238 176.008 8.49844 177.437 9.61058C178.595 10.6801 179.34 12.1406 179.539 13.7269C179.737 15.3132 179.376 16.9201 178.52 18.2558C177.743 19.348 176.681 20.1919 175.457 20.6899L181.929 30.5312H176.825L171.578 21.865H169.066ZM169.066 17.9725H170.567C171.705 18.057 172.841 17.7942 173.834 17.2171C174.183 16.9383 174.459 16.5747 174.637 16.1589C174.815 15.7432 174.89 15.2884 174.855 14.8355C174.895 14.3891 174.815 13.9398 174.624 13.5366C174.433 13.1334 174.139 12.7916 173.772 12.5483C172.743 12.0174 171.593 11.7818 170.444 11.8663H169.066V17.9725Z" fill="white"/>
<path d="M203.01 19.0217C203.01 22.7358 201.989 25.5861 199.948 27.5725C197.906 29.559 194.932 30.5452 191.025 30.5312H184.798V7.94238H191.699C195.292 7.94238 198.079 8.90763 200.06 10.8591C201.077 11.9338 201.865 13.2149 202.373 14.6205C202.881 16.026 203.098 17.5251 203.01 19.0217ZM198.161 19.1476C198.161 14.2934 196.079 11.8663 191.913 11.8663H189.422V26.5548H191.464C195.929 26.5688 198.161 24.0998 198.161 19.1476Z" fill="white"/>
<path d="M75.4628 5.68656L79.7096 1.75213L78.4335 0H72.9106L71.4202 1.5318L75.4628 5.68656Z" fill="#BFA36B"/>
<path d="M78.2089 5.94867L80.3323 3.75586H88.4176C88.4176 3.75586 85.8654 6.81948 83.3132 6.81948H81.6084L84.5893 9.8831L79.9137 12.0654L78.2089 5.94867Z" fill="#BFA36B"/>
<path d="M73.1045 5.94867L70.9811 3.75586H62.8958C62.8958 3.75586 65.448 6.81948 68.0002 6.81948H69.705L66.7241 9.8831L71.3997 12.0654L73.1045 5.94867Z" fill="#BFA36B"/>
<path d="M74.5439 7.10254L75.5647 8.65533L76.5856 7.10254L79.6482 27.3307L75.5647 31.9996L71.4813 27.3307L74.5439 7.10254Z" fill="#BFA36B"/>
</g>
<defs>
<clipPath id="clip0">
<rect width="203" height="32" fill="white"/>
</clipPath>
</defs>
</svg>
