<svg width="560" height="150" viewBox="0 0 560 150" fill="none" xmlns="http://www.w3.org/2000/svg">
<mask id="mask0" style="mask-type:alpha" maskUnits="userSpaceOnUse" x="0" y="0" width="560" height="150">
<rect width="560" height="150" fill="#C9AC6A"/>
</mask>
<g mask="url(#mask0)">
<g filter="url(#filter0_d)">
<path fill-rule="evenodd" clip-rule="evenodd" d="M484.445 -129H73.5431C72.8921 -88.9402 40.215 -56.6663 0 -56.6663L3.05176e-05 438C3.05176e-05 443.523 4.47718 448 10 448H279H548C553.523 448 558 443.523 558 438V-56.6663C557.996 -56.6663 557.992 -56.6663 557.989 -56.6663C517.774 -56.6663 485.097 -88.9402 484.445 -129Z" fill="#0D1F30"/>
<path d="M484.445 -129L485.945 -129.024L485.921 -130.5H484.445V-129ZM73.5431 -129V-130.5H72.0673L72.0433 -129.024L73.5431 -129ZM0 -56.6663V-58.1663H-1.5L-1.5 -56.6663L0 -56.6663ZM3.05176e-05 438L1.50003 438L1.50003 438L3.05176e-05 438ZM558 -56.6663H559.5V-58.1663H558V-56.6663ZM484.445 -130.5H73.5431V-127.5H484.445V-130.5ZM72.0433 -129.024C71.4055 -89.782 39.3947 -58.1663 0 -58.1663V-55.1663C41.0353 -55.1663 74.3786 -88.0983 75.0429 -128.976L72.0433 -129.024ZM-1.5 -56.6663L-1.49997 438L1.50003 438L1.5 -56.6663L-1.5 -56.6663ZM-1.49997 438C-1.49997 444.351 3.64876 449.5 10 449.5V446.5C5.30561 446.5 1.50003 442.694 1.50003 438H-1.49997ZM10 449.5H279V446.5H10V449.5ZM279 449.5H548V446.5H279V449.5ZM548 449.5C554.351 449.5 559.5 444.351 559.5 438H556.5C556.5 442.694 552.694 446.5 548 446.5V449.5ZM559.5 438V-56.6663H556.5V438H559.5ZM558 -58.1663C558 -58.1663 558 -58.1663 558 -58.1663C558 -58.1663 558 -58.1663 558 -58.1663C558 -58.1663 558 -58.1663 558 -58.1663C558 -58.1663 558 -58.1663 558 -58.1663C558 -58.1663 558 -58.1663 558 -58.1663C558 -58.1663 558 -58.1663 558 -58.1663C558 -58.1663 558 -58.1663 558 -58.1663C558 -58.1663 558 -58.1663 558 -58.1663C558 -58.1663 558 -58.1663 558 -58.1663C558 -58.1663 558 -58.1663 558 -58.1663C558 -58.1663 558 -58.1663 558 -58.1663C558 -58.1663 558 -58.1663 558 -58.1663C558 -58.1663 558 -58.1663 558 -58.1663C558 -58.1663 558 -58.1663 558 -58.1663C558 -58.1663 558 -58.1663 558 -58.1663C558 -58.1663 558 -58.1663 558 -58.1663C558 -58.1663 558 -58.1663 558 -58.1663C558 -58.1663 558 -58.1663 558 -58.1663C558 -58.1663 558 -58.1663 558 -58.1663C558 -58.1663 558 -58.1663 558 -58.1663C558 -58.1663 558 -58.1663 558 -58.1663C558 -58.1663 558 -58.1663 558 -58.1663C558 -58.1663 558 -58.1663 557.999 -58.1663C557.999 -58.1663 557.999 -58.1663 557.999 -58.1663C557.999 -58.1663 557.999 -58.1663 557.999 -58.1663C557.999 -58.1663 557.999 -58.1663 557.999 -58.1663C557.999 -58.1663 557.999 -58.1663 557.999 -58.1663C557.999 -58.1663 557.999 -58.1663 557.999 -58.1663C557.999 -58.1663 557.999 -58.1663 557.999 -58.1663C557.999 -58.1663 557.999 -58.1663 557.999 -58.1663C557.999 -58.1663 557.999 -58.1663 557.999 -58.1663C557.999 -58.1663 557.999 -58.1663 557.999 -58.1663C557.999 -58.1663 557.999 -58.1663 557.999 -58.1663C557.999 -58.1663 557.999 -58.1663 557.999 -58.1663C557.999 -58.1663 557.999 -58.1663 557.999 -58.1663C557.999 -58.1663 557.999 -58.1663 557.999 -58.1663C557.999 -58.1663 557.999 -58.1663 557.999 -58.1663C557.999 -58.1663 557.999 -58.1663 557.999 -58.1663C557.999 -58.1663 557.999 -58.1663 557.999 -58.1663C557.999 -58.1663 557.999 -58.1663 557.999 -58.1663C557.999 -58.1663 557.999 -58.1663 557.999 -58.1663C557.999 -58.1663 557.999 -58.1663 557.999 -58.1663C557.999 -58.1663 557.999 -58.1663 557.999 -58.1663C557.999 -58.1663 557.999 -58.1663 557.999 -58.1663C557.999 -58.1663 557.999 -58.1663 557.999 -58.1663C557.999 -58.1663 557.999 -58.1663 557.999 -58.1663C557.999 -58.1663 557.999 -58.1663 557.999 -58.1663C557.999 -58.1663 557.999 -58.1663 557.999 -58.1663C557.999 -58.1663 557.999 -58.1663 557.999 -58.1663C557.999 -58.1663 557.999 -58.1663 557.999 -58.1663C557.999 -58.1663 557.999 -58.1663 557.999 -58.1663C557.999 -58.1663 557.999 -58.1663 557.999 -58.1663C557.999 -58.1663 557.999 -58.1663 557.999 -58.1663C557.999 -58.1663 557.999 -58.1663 557.999 -58.1663C557.999 -58.1663 557.999 -58.1663 557.999 -58.1663C557.999 -58.1663 557.999 -58.1663 557.999 -58.1663C557.999 -58.1663 557.999 -58.1663 557.999 -58.1663C557.999 -58.1663 557.999 -58.1663 557.999 -58.1663C557.999 -58.1663 557.999 -58.1663 557.999 -58.1663C557.999 -58.1663 557.999 -58.1663 557.999 -58.1663C557.999 -58.1663 557.999 -58.1663 557.999 -58.1663C557.999 -58.1663 557.999 -58.1663 557.999 -58.1663C557.999 -58.1663 557.999 -58.1663 557.999 -58.1663C557.999 -58.1663 557.999 -58.1663 557.999 -58.1663C557.999 -58.1663 557.999 -58.1663 557.999 -58.1663C557.999 -58.1663 557.999 -58.1663 557.999 -58.1663C557.999 -58.1663 557.999 -58.1663 557.999 -58.1663C557.999 -58.1663 557.999 -58.1663 557.998 -58.1663C557.998 -58.1663 557.998 -58.1663 557.998 -58.1663C557.998 -58.1663 557.998 -58.1663 557.998 -58.1663C557.998 -58.1663 557.998 -58.1663 557.998 -58.1663C557.998 -58.1663 557.998 -58.1663 557.998 -58.1663C557.998 -58.1663 557.998 -58.1663 557.998 -58.1663C557.998 -58.1663 557.998 -58.1663 557.998 -58.1663C557.998 -58.1663 557.998 -58.1663 557.998 -58.1663C557.998 -58.1663 557.998 -58.1663 557.998 -58.1663C557.998 -58.1663 557.998 -58.1663 557.998 -58.1663C557.998 -58.1663 557.998 -58.1663 557.998 -58.1663C557.998 -58.1663 557.998 -58.1663 557.998 -58.1663C557.998 -58.1663 557.998 -58.1663 557.998 -58.1663C557.998 -58.1663 557.998 -58.1663 557.998 -58.1663C557.998 -58.1663 557.998 -58.1663 557.998 -58.1663C557.998 -58.1663 557.998 -58.1663 557.998 -58.1663C557.998 -58.1663 557.998 -58.1663 557.998 -58.1663C557.998 -58.1663 557.998 -58.1663 557.998 -58.1663C557.998 -58.1663 557.998 -58.1663 557.998 -58.1663C557.998 -58.1663 557.998 -58.1663 557.998 -58.1663C557.998 -58.1663 557.998 -58.1663 557.998 -58.1663C557.998 -58.1663 557.998 -58.1663 557.998 -58.1663C557.998 -58.1663 557.998 -58.1663 557.998 -58.1663C557.998 -58.1663 557.998 -58.1663 557.998 -58.1663C557.998 -58.1663 557.998 -58.1663 557.998 -58.1663C557.998 -58.1663 557.998 -58.1663 557.998 -58.1663C557.998 -58.1663 557.998 -58.1663 557.998 -58.1663C557.998 -58.1663 557.998 -58.1663 557.998 -58.1663C557.998 -58.1663 557.998 -58.1663 557.998 -58.1663C557.998 -58.1663 557.998 -58.1663 557.998 -58.1663C557.998 -58.1663 557.998 -58.1663 557.998 -58.1663C557.998 -58.1663 557.998 -58.1663 557.998 -58.1663C557.998 -58.1663 557.998 -58.1663 557.998 -58.1663C557.998 -58.1663 557.998 -58.1663 557.998 -58.1663C557.998 -58.1663 557.998 -58.1663 557.998 -58.1663C557.998 -58.1663 557.998 -58.1663 557.998 -58.1663C557.998 -58.1663 557.998 -58.1663 557.998 -58.1663C557.998 -58.1663 557.998 -58.1663 557.998 -58.1663C557.998 -58.1663 557.998 -58.1663 557.998 -58.1663C557.998 -58.1663 557.998 -58.1663 557.998 -58.1663C557.998 -58.1663 557.998 -58.1663 557.998 -58.1663C557.998 -58.1663 557.998 -58.1663 557.998 -58.1663C557.998 -58.1663 557.998 -58.1663 557.998 -58.1663C557.998 -58.1663 557.998 -58.1663 557.998 -58.1663C557.998 -58.1663 557.998 -58.1663 557.998 -58.1663C557.998 -58.1663 557.998 -58.1663 557.997 -58.1663C557.997 -58.1663 557.997 -58.1663 557.997 -58.1663C557.997 -58.1663 557.997 -58.1663 557.997 -58.1663C557.997 -58.1663 557.997 -58.1663 557.997 -58.1663C557.997 -58.1663 557.997 -58.1663 557.997 -58.1663C557.997 -58.1663 557.997 -58.1663 557.997 -58.1663C557.997 -58.1663 557.997 -58.1663 557.997 -58.1663C557.997 -58.1663 557.997 -58.1663 557.997 -58.1663C557.997 -58.1663 557.997 -58.1663 557.997 -58.1663C557.997 -58.1663 557.997 -58.1663 557.997 -58.1663C557.997 -58.1663 557.997 -58.1663 557.997 -58.1663C557.997 -58.1663 557.997 -58.1663 557.997 -58.1663C557.997 -58.1663 557.997 -58.1663 557.997 -58.1663C557.997 -58.1663 557.997 -58.1663 557.997 -58.1663C557.997 -58.1663 557.997 -58.1663 557.997 -58.1663C557.997 -58.1663 557.997 -58.1663 557.997 -58.1663C557.997 -58.1663 557.997 -58.1663 557.997 -58.1663C557.997 -58.1663 557.997 -58.1663 557.997 -58.1663C557.997 -58.1663 557.997 -58.1663 557.997 -58.1663C557.997 -58.1663 557.997 -58.1663 557.997 -58.1663C557.997 -58.1663 557.997 -58.1663 557.997 -58.1663C557.997 -58.1663 557.997 -58.1663 557.997 -58.1663C557.997 -58.1663 557.997 -58.1663 557.997 -58.1663C557.997 -58.1663 557.997 -58.1663 557.997 -58.1663C557.997 -58.1663 557.997 -58.1663 557.997 -58.1663C557.997 -58.1663 557.997 -58.1663 557.997 -58.1663C557.997 -58.1663 557.997 -58.1663 557.997 -58.1663C557.997 -58.1663 557.997 -58.1663 557.997 -58.1663C557.997 -58.1663 557.997 -58.1663 557.997 -58.1663C557.997 -58.1663 557.997 -58.1663 557.997 -58.1663C557.997 -58.1663 557.997 -58.1663 557.997 -58.1663C557.997 -58.1663 557.997 -58.1663 557.997 -58.1663C557.997 -58.1663 557.997 -58.1663 557.997 -58.1663C557.997 -58.1663 557.997 -58.1663 557.997 -58.1663C557.997 -58.1663 557.997 -58.1663 557.997 -58.1663C557.997 -58.1663 557.997 -58.1663 557.997 -58.1663C557.997 -58.1663 557.997 -58.1663 557.997 -58.1663C557.997 -58.1663 557.997 -58.1663 557.997 -58.1663C557.997 -58.1663 557.997 -58.1663 557.997 -58.1663C557.997 -58.1663 557.997 -58.1663 557.997 -58.1663C557.997 -58.1663 557.997 -58.1663 557.997 -58.1663C557.997 -58.1663 557.997 -58.1663 557.997 -58.1663C557.997 -58.1663 557.997 -58.1663 557.997 -58.1663C557.997 -58.1663 557.997 -58.1663 557.997 -58.1663C557.997 -58.1663 557.997 -58.1663 557.997 -58.1663C557.997 -58.1663 557.996 -58.1663 557.996 -58.1663C557.996 -58.1663 557.996 -58.1663 557.996 -58.1663C557.996 -58.1663 557.996 -58.1663 557.996 -58.1663C557.996 -58.1663 557.996 -58.1663 557.996 -58.1663C557.996 -58.1663 557.996 -58.1663 557.996 -58.1663C557.996 -58.1663 557.996 -58.1663 557.996 -58.1663C557.996 -58.1663 557.996 -58.1663 557.996 -58.1663C557.996 -58.1663 557.996 -58.1663 557.996 -58.1663C557.996 -58.1663 557.996 -58.1663 557.996 -58.1663C557.996 -58.1663 557.996 -58.1663 557.996 -58.1663C557.996 -58.1663 557.996 -58.1663 557.996 -58.1663C557.996 -58.1663 557.996 -58.1663 557.996 -58.1663C557.996 -58.1663 557.996 -58.1663 557.996 -58.1663C557.996 -58.1663 557.996 -58.1663 557.996 -58.1663C557.996 -58.1663 557.996 -58.1663 557.996 -58.1663C557.996 -58.1663 557.996 -58.1663 557.996 -58.1663C557.996 -58.1663 557.996 -58.1663 557.996 -58.1663C557.996 -58.1663 557.996 -58.1663 557.996 -58.1663C557.996 -58.1663 557.996 -58.1663 557.996 -58.1663C557.996 -58.1663 557.996 -58.1663 557.996 -58.1663C557.996 -58.1663 557.996 -58.1663 557.996 -58.1663C557.996 -58.1663 557.996 -58.1663 557.996 -58.1663C557.996 -58.1663 557.996 -58.1663 557.996 -58.1663C557.996 -58.1663 557.996 -58.1663 557.996 -58.1663C557.996 -58.1663 557.996 -58.1663 557.996 -58.1663C557.996 -58.1663 557.996 -58.1663 557.996 -58.1663C557.996 -58.1663 557.996 -58.1663 557.996 -58.1663C557.996 -58.1663 557.996 -58.1663 557.996 -58.1663C557.996 -58.1663 557.996 -58.1663 557.996 -58.1663C557.996 -58.1663 557.996 -58.1663 557.996 -58.1663C557.996 -58.1663 557.996 -58.1663 557.996 -58.1663C557.996 -58.1663 557.996 -58.1663 557.996 -58.1663C557.996 -58.1663 557.996 -58.1663 557.996 -58.1663C557.996 -58.1663 557.996 -58.1663 557.996 -58.1663C557.996 -58.1663 557.996 -58.1663 557.996 -58.1663C557.996 -58.1663 557.996 -58.1663 557.996 -58.1663C557.996 -58.1663 557.996 -58.1663 557.996 -58.1663C557.996 -58.1663 557.996 -58.1663 557.996 -58.1663C557.996 -58.1663 557.996 -58.1663 557.996 -58.1663C557.996 -58.1663 557.996 -58.1663 557.996 -58.1663C557.996 -58.1663 557.996 -58.1663 557.996 -58.1663C557.996 -58.1663 557.996 -58.1663 557.996 -58.1663C557.996 -58.1663 557.996 -58.1663 557.996 -58.1663C557.996 -58.1663 557.996 -58.1663 557.996 -58.1663C557.996 -58.1663 557.996 -58.1663 557.996 -58.1663C557.996 -58.1663 557.995 -58.1663 557.995 -58.1663C557.995 -58.1663 557.995 -58.1663 557.995 -58.1663C557.995 -58.1663 557.995 -58.1663 557.995 -58.1663C557.995 -58.1663 557.995 -58.1663 557.995 -58.1663C557.995 -58.1663 557.995 -58.1663 557.995 -58.1663C557.995 -58.1663 557.995 -58.1663 557.995 -58.1663C557.995 -58.1663 557.995 -58.1663 557.995 -58.1663C557.995 -58.1663 557.995 -58.1663 557.995 -58.1663C557.995 -58.1663 557.995 -58.1663 557.995 -58.1663C557.995 -58.1663 557.995 -58.1663 557.995 -58.1663C557.995 -58.1663 557.995 -58.1663 557.995 -58.1663C557.995 -58.1663 557.995 -58.1663 557.995 -58.1663C557.995 -58.1663 557.995 -58.1663 557.995 -58.1663C557.995 -58.1663 557.995 -58.1663 557.995 -58.1663C557.995 -58.1663 557.995 -58.1663 557.995 -58.1663C557.995 -58.1663 557.995 -58.1663 557.995 -58.1663C557.995 -58.1663 557.995 -58.1663 557.995 -58.1663C557.995 -58.1663 557.995 -58.1663 557.995 -58.1663C557.995 -58.1663 557.995 -58.1663 557.995 -58.1663C557.995 -58.1663 557.995 -58.1663 557.995 -58.1663C557.995 -58.1663 557.995 -58.1663 557.995 -58.1663C557.995 -58.1663 557.995 -58.1663 557.995 -58.1663C557.995 -58.1663 557.995 -58.1663 557.995 -58.1663C557.995 -58.1663 557.995 -58.1663 557.995 -58.1663C557.995 -58.1663 557.995 -58.1663 557.995 -58.1663C557.995 -58.1663 557.995 -58.1663 557.995 -58.1663C557.995 -58.1663 557.995 -58.1663 557.995 -58.1663C557.995 -58.1663 557.995 -58.1663 557.995 -58.1663C557.995 -58.1663 557.995 -58.1663 557.995 -58.1663C557.995 -58.1663 557.995 -58.1663 557.995 -58.1663C557.995 -58.1663 557.995 -58.1663 557.995 -58.1663C557.995 -58.1663 557.995 -58.1663 557.995 -58.1663C557.995 -58.1663 557.995 -58.1663 557.995 -58.1663C557.995 -58.1663 557.995 -58.1663 557.995 -58.1663C557.995 -58.1663 557.995 -58.1663 557.995 -58.1663C557.995 -58.1663 557.995 -58.1663 557.995 -58.1663C557.995 -58.1663 557.995 -58.1663 557.995 -58.1663C557.995 -58.1663 557.995 -58.1663 557.995 -58.1663C557.995 -58.1663 557.995 -58.1663 557.995 -58.1663C557.995 -58.1663 557.995 -58.1663 557.995 -58.1663C557.995 -58.1663 557.995 -58.1663 557.995 -58.1663C557.995 -58.1663 557.995 -58.1663 557.995 -58.1663C557.995 -58.1663 557.995 -58.1663 557.995 -58.1663C557.995 -58.1663 557.995 -58.1663 557.995 -58.1663C557.995 -58.1663 557.995 -58.1663 557.995 -58.1663C557.994 -58.1663 557.994 -58.1663 557.994 -58.1663C557.994 -58.1663 557.994 -58.1663 557.994 -58.1663C557.994 -58.1663 557.994 -58.1663 557.994 -58.1663C557.994 -58.1663 557.994 -58.1663 557.994 -58.1663C557.994 -58.1663 557.994 -58.1663 557.994 -58.1663C557.994 -58.1663 557.994 -58.1663 557.994 -58.1663C557.994 -58.1663 557.994 -58.1663 557.994 -58.1663C557.994 -58.1663 557.994 -58.1663 557.994 -58.1663C557.994 -58.1663 557.994 -58.1663 557.994 -58.1663C557.994 -58.1663 557.994 -58.1663 557.994 -58.1663C557.994 -58.1663 557.994 -58.1663 557.994 -58.1663C557.994 -58.1663 557.994 -58.1663 557.994 -58.1663C557.994 -58.1663 557.994 -58.1663 557.994 -58.1663C557.994 -58.1663 557.994 -58.1663 557.994 -58.1663C557.994 -58.1663 557.994 -58.1663 557.994 -58.1663C557.994 -58.1663 557.994 -58.1663 557.994 -58.1663C557.994 -58.1663 557.994 -58.1663 557.994 -58.1663C557.994 -58.1663 557.994 -58.1663 557.994 -58.1663C557.994 -58.1663 557.994 -58.1663 557.994 -58.1663C557.994 -58.1663 557.994 -58.1663 557.994 -58.1663C557.994 -58.1663 557.994 -58.1663 557.994 -58.1663C557.994 -58.1663 557.994 -58.1663 557.994 -58.1663C557.994 -58.1663 557.994 -58.1663 557.994 -58.1663C557.994 -58.1663 557.994 -58.1663 557.994 -58.1663C557.994 -58.1663 557.994 -58.1663 557.994 -58.1663C557.994 -58.1663 557.994 -58.1663 557.994 -58.1663C557.994 -58.1663 557.994 -58.1663 557.994 -58.1663C557.994 -58.1663 557.994 -58.1663 557.994 -58.1663C557.994 -58.1663 557.994 -58.1663 557.994 -58.1663C557.994 -58.1663 557.994 -58.1663 557.994 -58.1663C557.994 -58.1663 557.994 -58.1663 557.994 -58.1663C557.994 -58.1663 557.994 -58.1663 557.994 -58.1663C557.994 -58.1663 557.994 -58.1663 557.994 -58.1663C557.994 -58.1663 557.994 -58.1663 557.994 -58.1663C557.994 -58.1663 557.994 -58.1663 557.994 -58.1663C557.994 -58.1663 557.994 -58.1663 557.994 -58.1663C557.994 -58.1663 557.994 -58.1663 557.994 -58.1663C557.994 -58.1663 557.994 -58.1663 557.994 -58.1663C557.994 -58.1663 557.994 -58.1663 557.994 -58.1663C557.994 -58.1663 557.994 -58.1663 557.994 -58.1663C557.994 -58.1663 557.994 -58.1663 557.994 -58.1663C557.994 -58.1663 557.994 -58.1663 557.994 -58.1663C557.994 -58.1663 557.994 -58.1663 557.994 -58.1663C557.994 -58.1663 557.994 -58.1663 557.994 -58.1663C557.994 -58.1663 557.994 -58.1663 557.993 -58.1663C557.993 -58.1663 557.993 -58.1663 557.993 -58.1663C557.993 -58.1663 557.993 -58.1663 557.993 -58.1663C557.993 -58.1663 557.993 -58.1663 557.993 -58.1663C557.993 -58.1663 557.993 -58.1663 557.993 -58.1663C557.993 -58.1663 557.993 -58.1663 557.993 -58.1663C557.993 -58.1663 557.993 -58.1663 557.993 -58.1663C557.993 -58.1663 557.993 -58.1663 557.993 -58.1663C557.993 -58.1663 557.993 -58.1663 557.993 -58.1663C557.993 -58.1663 557.993 -58.1663 557.993 -58.1663C557.993 -58.1663 557.993 -58.1663 557.993 -58.1663C557.993 -58.1663 557.993 -58.1663 557.993 -58.1663C557.993 -58.1663 557.993 -58.1663 557.993 -58.1663C557.993 -58.1663 557.993 -58.1663 557.993 -58.1663C557.993 -58.1663 557.993 -58.1663 557.993 -58.1663C557.993 -58.1663 557.993 -58.1663 557.993 -58.1663C557.993 -58.1663 557.993 -58.1663 557.993 -58.1663C557.993 -58.1663 557.993 -58.1663 557.993 -58.1663C557.993 -58.1663 557.993 -58.1663 557.993 -58.1663C557.993 -58.1663 557.993 -58.1663 557.993 -58.1663C557.993 -58.1663 557.993 -58.1663 557.993 -58.1663C557.993 -58.1663 557.993 -58.1663 557.993 -58.1663C557.993 -58.1663 557.993 -58.1663 557.993 -58.1663C557.993 -58.1663 557.993 -58.1663 557.993 -58.1663C557.993 -58.1663 557.993 -58.1663 557.993 -58.1663C557.993 -58.1663 557.993 -58.1663 557.993 -58.1663C557.993 -58.1663 557.993 -58.1663 557.993 -58.1663C557.993 -58.1663 557.993 -58.1663 557.993 -58.1663C557.993 -58.1663 557.993 -58.1663 557.993 -58.1663C557.993 -58.1663 557.993 -58.1663 557.993 -58.1663C557.993 -58.1663 557.993 -58.1663 557.993 -58.1663C557.993 -58.1663 557.993 -58.1663 557.993 -58.1663C557.993 -58.1663 557.993 -58.1663 557.993 -58.1663C557.993 -58.1663 557.993 -58.1663 557.993 -58.1663C557.993 -58.1663 557.993 -58.1663 557.993 -58.1663C557.993 -58.1663 557.993 -58.1663 557.993 -58.1663C557.993 -58.1663 557.993 -58.1663 557.993 -58.1663C557.993 -58.1663 557.993 -58.1663 557.993 -58.1663C557.993 -58.1663 557.993 -58.1663 557.993 -58.1663C557.993 -58.1663 557.993 -58.1663 557.993 -58.1663C557.993 -58.1663 557.993 -58.1663 557.993 -58.1663C557.993 -58.1663 557.993 -58.1663 557.993 -58.1663C557.993 -58.1663 557.993 -58.1663 557.993 -58.1663C557.993 -58.1663 557.993 -58.1663 557.993 -58.1663C557.993 -58.1663 557.993 -58.1663 557.993 -58.1663C557.993 -58.1663 557.992 -58.1663 557.992 -58.1663C557.992 -58.1663 557.992 -58.1663 557.992 -58.1663C557.992 -58.1663 557.992 -58.1663 557.992 -58.1663C557.992 -58.1663 557.992 -58.1663 557.992 -58.1663C557.992 -58.1663 557.992 -58.1663 557.992 -58.1663C557.992 -58.1663 557.992 -58.1663 557.992 -58.1663C557.992 -58.1663 557.992 -58.1663 557.992 -58.1663C557.992 -58.1663 557.992 -58.1663 557.992 -58.1663C557.992 -58.1663 557.992 -58.1663 557.992 -58.1663C557.992 -58.1663 557.992 -58.1663 557.992 -58.1663C557.992 -58.1663 557.992 -58.1663 557.992 -58.1663C557.992 -58.1663 557.992 -58.1663 557.992 -58.1663C557.992 -58.1663 557.992 -58.1663 557.992 -58.1663C557.992 -58.1663 557.992 -58.1663 557.992 -58.1663C557.992 -58.1663 557.992 -58.1663 557.992 -58.1663C557.992 -58.1663 557.992 -58.1663 557.992 -58.1663C557.992 -58.1663 557.992 -58.1663 557.992 -58.1663C557.992 -58.1663 557.992 -58.1663 557.992 -58.1663C557.992 -58.1663 557.992 -58.1663 557.992 -58.1663C557.992 -58.1663 557.992 -58.1663 557.992 -58.1663C557.992 -58.1663 557.992 -58.1663 557.992 -58.1663C557.992 -58.1663 557.992 -58.1663 557.992 -58.1663C557.992 -58.1663 557.992 -58.1663 557.992 -58.1663C557.992 -58.1663 557.992 -58.1663 557.992 -58.1663C557.992 -58.1663 557.992 -58.1663 557.992 -58.1663C557.992 -58.1663 557.992 -58.1663 557.992 -58.1663C557.992 -58.1663 557.992 -58.1663 557.992 -58.1663C557.992 -58.1663 557.992 -58.1663 557.992 -58.1663C557.992 -58.1663 557.992 -58.1663 557.992 -58.1663C557.992 -58.1663 557.992 -58.1663 557.992 -58.1663C557.992 -58.1663 557.992 -58.1663 557.992 -58.1663C557.992 -58.1663 557.992 -58.1663 557.992 -58.1663C557.992 -58.1663 557.992 -58.1663 557.992 -58.1663C557.992 -58.1663 557.992 -58.1663 557.992 -58.1663C557.992 -58.1663 557.992 -58.1663 557.992 -58.1663C557.992 -58.1663 557.992 -58.1663 557.992 -58.1663C557.992 -58.1663 557.992 -58.1663 557.992 -58.1663C557.992 -58.1663 557.992 -58.1663 557.992 -58.1663C557.992 -58.1663 557.992 -58.1663 557.992 -58.1663C557.992 -58.1663 557.992 -58.1663 557.992 -58.1663C557.992 -58.1663 557.992 -58.1663 557.992 -58.1663C557.992 -58.1663 557.992 -58.1663 557.992 -58.1663C557.992 -58.1663 557.992 -58.1663 557.992 -58.1663C557.992 -58.1663 557.992 -58.1663 557.992 -58.1663C557.992 -58.1663 557.992 -58.1663 557.992 -58.1663C557.992 -58.1663 557.991 -58.1663 557.991 -58.1663C557.991 -58.1663 557.991 -58.1663 557.991 -58.1663C557.991 -58.1663 557.991 -58.1663 557.991 -58.1663C557.991 -58.1663 557.991 -58.1663 557.991 -58.1663C557.991 -58.1663 557.991 -58.1663 557.991 -58.1663C557.991 -58.1663 557.991 -58.1663 557.991 -58.1663C557.991 -58.1663 557.991 -58.1663 557.991 -58.1663C557.991 -58.1663 557.991 -58.1663 557.991 -58.1663C557.991 -58.1663 557.991 -58.1663 557.991 -58.1663C557.991 -58.1663 557.991 -58.1663 557.991 -58.1663C557.991 -58.1663 557.991 -58.1663 557.991 -58.1663C557.991 -58.1663 557.991 -58.1663 557.991 -58.1663C557.991 -58.1663 557.991 -58.1663 557.991 -58.1663C557.991 -58.1663 557.991 -58.1663 557.991 -58.1663C557.991 -58.1663 557.991 -58.1663 557.991 -58.1663C557.991 -58.1663 557.991 -58.1663 557.991 -58.1663C557.991 -58.1663 557.991 -58.1663 557.991 -58.1663C557.991 -58.1663 557.991 -58.1663 557.991 -58.1663C557.991 -58.1663 557.991 -58.1663 557.991 -58.1663C557.991 -58.1663 557.991 -58.1663 557.991 -58.1663C557.991 -58.1663 557.991 -58.1663 557.991 -58.1663C557.991 -58.1663 557.991 -58.1663 557.991 -58.1663C557.991 -58.1663 557.991 -58.1663 557.991 -58.1663C557.991 -58.1663 557.991 -58.1663 557.991 -58.1663C557.991 -58.1663 557.991 -58.1663 557.991 -58.1663C557.991 -58.1663 557.991 -58.1663 557.991 -58.1663C557.991 -58.1663 557.991 -58.1663 557.991 -58.1663C557.991 -58.1663 557.991 -58.1663 557.991 -58.1663C557.991 -58.1663 557.991 -58.1663 557.991 -58.1663C557.991 -58.1663 557.991 -58.1663 557.991 -58.1663C557.991 -58.1663 557.991 -58.1663 557.991 -58.1663C557.991 -58.1663 557.991 -58.1663 557.991 -58.1663C557.991 -58.1663 557.991 -58.1663 557.991 -58.1663C557.991 -58.1663 557.991 -58.1663 557.991 -58.1663C557.991 -58.1663 557.991 -58.1663 557.991 -58.1663C557.991 -58.1663 557.991 -58.1663 557.991 -58.1663C557.991 -58.1663 557.991 -58.1663 557.991 -58.1663C557.991 -58.1663 557.991 -58.1663 557.991 -58.1663C557.991 -58.1663 557.991 -58.1663 557.991 -58.1663C557.991 -58.1663 557.991 -58.1663 557.991 -58.1663C557.991 -58.1663 557.991 -58.1663 557.991 -58.1663C557.991 -58.1663 557.991 -58.1663 557.991 -58.1663C557.991 -58.1663 557.991 -58.1663 557.991 -58.1663C557.991 -58.1663 557.991 -58.1663 557.991 -58.1663C557.991 -58.1663 557.991 -58.1663 557.991 -58.1663C557.99 -58.1663 557.99 -58.1663 557.99 -58.1663C557.99 -58.1663 557.99 -58.1663 557.99 -58.1663C557.99 -58.1663 557.99 -58.1663 557.99 -58.1663C557.99 -58.1663 557.99 -58.1663 557.99 -58.1663C557.99 -58.1663 557.99 -58.1663 557.99 -58.1663C557.99 -58.1663 557.99 -58.1663 557.99 -58.1663C557.99 -58.1663 557.99 -58.1663 557.99 -58.1663C557.99 -58.1663 557.99 -58.1663 557.99 -58.1663C557.99 -58.1663 557.99 -58.1663 557.99 -58.1663C557.99 -58.1663 557.99 -58.1663 557.99 -58.1663C557.99 -58.1663 557.99 -58.1663 557.99 -58.1663C557.99 -58.1663 557.99 -58.1663 557.99 -58.1663C557.99 -58.1663 557.99 -58.1663 557.99 -58.1663C557.99 -58.1663 557.99 -58.1663 557.99 -58.1663C557.99 -58.1663 557.99 -58.1663 557.99 -58.1663C557.99 -58.1663 557.99 -58.1663 557.99 -58.1663C557.99 -58.1663 557.99 -58.1663 557.99 -58.1663C557.99 -58.1663 557.99 -58.1663 557.99 -58.1663C557.99 -58.1663 557.99 -58.1663 557.99 -58.1663C557.99 -58.1663 557.99 -58.1663 557.99 -58.1663C557.99 -58.1663 557.99 -58.1663 557.99 -58.1663C557.99 -58.1663 557.99 -58.1663 557.99 -58.1663C557.99 -58.1663 557.99 -58.1663 557.99 -58.1663C557.99 -58.1663 557.99 -58.1663 557.99 -58.1663C557.99 -58.1663 557.99 -58.1663 557.99 -58.1663C557.99 -58.1663 557.99 -58.1663 557.99 -58.1663C557.99 -58.1663 557.99 -58.1663 557.99 -58.1663C557.99 -58.1663 557.99 -58.1663 557.99 -58.1663C557.99 -58.1663 557.99 -58.1663 557.99 -58.1663C557.99 -58.1663 557.99 -58.1663 557.99 -58.1663C557.99 -58.1663 557.99 -58.1663 557.99 -58.1663C557.99 -58.1663 557.99 -58.1663 557.99 -58.1663C557.99 -58.1663 557.99 -58.1663 557.99 -58.1663C557.99 -58.1663 557.99 -58.1663 557.99 -58.1663C557.99 -58.1663 557.99 -58.1663 557.99 -58.1663C557.99 -58.1663 557.99 -58.1663 557.99 -58.1663C557.99 -58.1663 557.99 -58.1663 557.99 -58.1663C557.99 -58.1663 557.99 -58.1663 557.99 -58.1663C557.99 -58.1663 557.99 -58.1663 557.99 -58.1663C557.99 -58.1663 557.99 -58.1663 557.99 -58.1663C557.99 -58.1663 557.99 -58.1663 557.99 -58.1663C557.99 -58.1663 557.99 -58.1663 557.99 -58.1663C557.99 -58.1663 557.99 -58.1663 557.99 -58.1663C557.99 -58.1663 557.99 -58.1663 557.99 -58.1663C557.99 -58.1663 557.99 -58.1663 557.99 -58.1663C557.989 -58.1663 557.989 -58.1663 557.989 -58.1663C557.989 -58.1663 557.989 -58.1663 557.989 -58.1663C557.989 -58.1663 557.989 -58.1663 557.989 -58.1663C557.989 -58.1663 557.989 -58.1663 557.989 -58.1663C557.989 -58.1663 557.989 -58.1663 557.989 -58.1663C557.989 -58.1663 557.989 -58.1663 557.989 -58.1663C557.989 -58.1663 557.989 -58.1663 557.989 -58.1663C557.989 -58.1663 557.989 -58.1663 557.989 -58.1663C557.989 -58.1663 557.989 -58.1663 557.989 -58.1663C557.989 -58.1663 557.989 -58.1663 557.989 -58.1663C557.989 -58.1663 557.989 -58.1663 557.989 -58.1663C557.989 -58.1663 557.989 -58.1663 557.989 -58.1663C557.989 -58.1663 557.989 -58.1663 557.989 -58.1663C557.989 -58.1663 557.989 -58.1663 557.989 -58.1663C557.989 -58.1663 557.989 -58.1663 557.989 -58.1663C557.989 -58.1663 557.989 -58.1663 557.989 -58.1663C557.989 -58.1663 557.989 -58.1663 557.989 -58.1663C557.989 -58.1663 557.989 -58.1663 557.989 -58.1663C557.989 -58.1663 557.989 -58.1663 557.989 -58.1663C557.989 -58.1663 557.989 -58.1663 557.989 -58.1663C557.989 -58.1663 557.989 -58.1663 557.989 -58.1663C557.989 -58.1663 557.989 -58.1663 557.989 -58.1663C557.989 -58.1663 557.989 -58.1663 557.989 -58.1663C557.989 -58.1663 557.989 -58.1663 557.989 -58.1663C557.989 -58.1663 557.989 -58.1663 557.989 -58.1663C557.989 -58.1663 557.989 -58.1663 557.989 -58.1663C557.989 -58.1663 557.989 -58.1663 557.989 -58.1663C557.989 -58.1663 557.989 -58.1663 557.989 -58.1663C557.989 -58.1663 557.989 -58.1663 557.989 -58.1663C557.989 -58.1663 557.989 -58.1663 557.989 -58.1663C557.989 -58.1663 557.989 -58.1663 557.989 -58.1663C557.989 -58.1663 557.989 -58.1663 557.989 -58.1663C557.989 -58.1663 557.989 -58.1663 557.989 -58.1663C557.989 -58.1663 557.989 -58.1663 557.989 -58.1663C557.989 -58.1663 557.989 -58.1663 557.989 -58.1663C557.989 -58.1663 557.989 -58.1663 557.989 -58.1663C557.989 -58.1663 557.989 -58.1663 557.989 -58.1663C557.989 -58.1663 557.989 -58.1663 557.989 -58.1663C557.989 -58.1663 557.989 -58.1663 557.989 -58.1663C557.989 -58.1663 557.989 -58.1663 557.989 -58.1663C557.989 -58.1663 557.989 -58.1663 557.989 -58.1663V-55.1663C557.989 -55.1663 557.989 -55.1663 557.989 -55.1663C557.989 -55.1663 557.989 -55.1663 557.989 -55.1663C557.989 -55.1663 557.989 -55.1663 557.989 -55.1663C557.989 -55.1663 557.989 -55.1663 557.989 -55.1663C557.989 -55.1663 557.989 -55.1663 557.989 -55.1663C557.989 -55.1663 557.989 -55.1663 557.989 -55.1663C557.989 -55.1663 557.989 -55.1663 557.989 -55.1663C557.989 -55.1663 557.989 -55.1663 557.989 -55.1663C557.989 -55.1663 557.989 -55.1663 557.989 -55.1663C557.989 -55.1663 557.989 -55.1663 557.989 -55.1663C557.989 -55.1663 557.989 -55.1663 557.989 -55.1663C557.989 -55.1663 557.989 -55.1663 557.989 -55.1663C557.989 -55.1663 557.989 -55.1663 557.989 -55.1663C557.989 -55.1663 557.989 -55.1663 557.989 -55.1663C557.989 -55.1663 557.989 -55.1663 557.989 -55.1663C557.989 -55.1663 557.989 -55.1663 557.989 -55.1663C557.989 -55.1663 557.989 -55.1663 557.989 -55.1663C557.989 -55.1663 557.989 -55.1663 557.989 -55.1663C557.989 -55.1663 557.989 -55.1663 557.989 -55.1663C557.989 -55.1663 557.989 -55.1663 557.989 -55.1663C557.989 -55.1663 557.989 -55.1663 557.989 -55.1663C557.989 -55.1663 557.989 -55.1663 557.989 -55.1663C557.989 -55.1663 557.989 -55.1663 557.989 -55.1663C557.989 -55.1663 557.989 -55.1663 557.989 -55.1663C557.989 -55.1663 557.989 -55.1663 557.989 -55.1663C557.989 -55.1663 557.989 -55.1663 557.989 -55.1663C557.989 -55.1663 557.989 -55.1663 557.989 -55.1663C557.989 -55.1663 557.989 -55.1663 557.989 -55.1663C557.989 -55.1663 557.989 -55.1663 557.989 -55.1663C557.989 -55.1663 557.989 -55.1663 557.989 -55.1663C557.989 -55.1663 557.989 -55.1663 557.989 -55.1663C557.989 -55.1663 557.989 -55.1663 557.989 -55.1663C557.989 -55.1663 557.989 -55.1663 557.989 -55.1663C557.989 -55.1663 557.989 -55.1663 557.989 -55.1663C557.989 -55.1663 557.989 -55.1663 557.989 -55.1663C557.989 -55.1663 557.989 -55.1663 557.989 -55.1663C557.989 -55.1663 557.989 -55.1663 557.989 -55.1663C557.989 -55.1663 557.989 -55.1663 557.989 -55.1663C557.989 -55.1663 557.989 -55.1663 557.989 -55.1663C557.989 -55.1663 557.989 -55.1663 557.989 -55.1663C557.989 -55.1663 557.989 -55.1663 557.99 -55.1663C557.99 -55.1663 557.99 -55.1663 557.99 -55.1663C557.99 -55.1663 557.99 -55.1663 557.99 -55.1663C557.99 -55.1663 557.99 -55.1663 557.99 -55.1663C557.99 -55.1663 557.99 -55.1663 557.99 -55.1663C557.99 -55.1663 557.99 -55.1663 557.99 -55.1663C557.99 -55.1663 557.99 -55.1663 557.99 -55.1663C557.99 -55.1663 557.99 -55.1663 557.99 -55.1663C557.99 -55.1663 557.99 -55.1663 557.99 -55.1663C557.99 -55.1663 557.99 -55.1663 557.99 -55.1663C557.99 -55.1663 557.99 -55.1663 557.99 -55.1663C557.99 -55.1663 557.99 -55.1663 557.99 -55.1663C557.99 -55.1663 557.99 -55.1663 557.99 -55.1663C557.99 -55.1663 557.99 -55.1663 557.99 -55.1663C557.99 -55.1663 557.99 -55.1663 557.99 -55.1663C557.99 -55.1663 557.99 -55.1663 557.99 -55.1663C557.99 -55.1663 557.99 -55.1663 557.99 -55.1663C557.99 -55.1663 557.99 -55.1663 557.99 -55.1663C557.99 -55.1663 557.99 -55.1663 557.99 -55.1663C557.99 -55.1663 557.99 -55.1663 557.99 -55.1663C557.99 -55.1663 557.99 -55.1663 557.99 -55.1663C557.99 -55.1663 557.99 -55.1663 557.99 -55.1663C557.99 -55.1663 557.99 -55.1663 557.99 -55.1663C557.99 -55.1663 557.99 -55.1663 557.99 -55.1663C557.99 -55.1663 557.99 -55.1663 557.99 -55.1663C557.99 -55.1663 557.99 -55.1663 557.99 -55.1663C557.99 -55.1663 557.99 -55.1663 557.99 -55.1663C557.99 -55.1663 557.99 -55.1663 557.99 -55.1663C557.99 -55.1663 557.99 -55.1663 557.99 -55.1663C557.99 -55.1663 557.99 -55.1663 557.99 -55.1663C557.99 -55.1663 557.99 -55.1663 557.99 -55.1663C557.99 -55.1663 557.99 -55.1663 557.99 -55.1663C557.99 -55.1663 557.99 -55.1663 557.99 -55.1663C557.99 -55.1663 557.99 -55.1663 557.99 -55.1663C557.99 -55.1663 557.99 -55.1663 557.99 -55.1663C557.99 -55.1663 557.99 -55.1663 557.99 -55.1663C557.99 -55.1663 557.99 -55.1663 557.99 -55.1663C557.99 -55.1663 557.99 -55.1663 557.99 -55.1663C557.99 -55.1663 557.99 -55.1663 557.99 -55.1663C557.99 -55.1663 557.99 -55.1663 557.99 -55.1663C557.99 -55.1663 557.99 -55.1663 557.99 -55.1663C557.99 -55.1663 557.99 -55.1663 557.99 -55.1663C557.99 -55.1663 557.99 -55.1663 557.99 -55.1663C557.99 -55.1663 557.99 -55.1663 557.99 -55.1663C557.99 -55.1663 557.99 -55.1663 557.99 -55.1663C557.99 -55.1663 557.99 -55.1663 557.991 -55.1663C557.991 -55.1663 557.991 -55.1663 557.991 -55.1663C557.991 -55.1663 557.991 -55.1663 557.991 -55.1663C557.991 -55.1663 557.991 -55.1663 557.991 -55.1663C557.991 -55.1663 557.991 -55.1663 557.991 -55.1663C557.991 -55.1663 557.991 -55.1663 557.991 -55.1663C557.991 -55.1663 557.991 -55.1663 557.991 -55.1663C557.991 -55.1663 557.991 -55.1663 557.991 -55.1663C557.991 -55.1663 557.991 -55.1663 557.991 -55.1663C557.991 -55.1663 557.991 -55.1663 557.991 -55.1663C557.991 -55.1663 557.991 -55.1663 557.991 -55.1663C557.991 -55.1663 557.991 -55.1663 557.991 -55.1663C557.991 -55.1663 557.991 -55.1663 557.991 -55.1663C557.991 -55.1663 557.991 -55.1663 557.991 -55.1663C557.991 -55.1663 557.991 -55.1663 557.991 -55.1663C557.991 -55.1663 557.991 -55.1663 557.991 -55.1663C557.991 -55.1663 557.991 -55.1663 557.991 -55.1663C557.991 -55.1663 557.991 -55.1663 557.991 -55.1663C557.991 -55.1663 557.991 -55.1663 557.991 -55.1663C557.991 -55.1663 557.991 -55.1663 557.991 -55.1663C557.991 -55.1663 557.991 -55.1663 557.991 -55.1663C557.991 -55.1663 557.991 -55.1663 557.991 -55.1663C557.991 -55.1663 557.991 -55.1663 557.991 -55.1663C557.991 -55.1663 557.991 -55.1663 557.991 -55.1663C557.991 -55.1663 557.991 -55.1663 557.991 -55.1663C557.991 -55.1663 557.991 -55.1663 557.991 -55.1663C557.991 -55.1663 557.991 -55.1663 557.991 -55.1663C557.991 -55.1663 557.991 -55.1663 557.991 -55.1663C557.991 -55.1663 557.991 -55.1663 557.991 -55.1663C557.991 -55.1663 557.991 -55.1663 557.991 -55.1663C557.991 -55.1663 557.991 -55.1663 557.991 -55.1663C557.991 -55.1663 557.991 -55.1663 557.991 -55.1663C557.991 -55.1663 557.991 -55.1663 557.991 -55.1663C557.991 -55.1663 557.991 -55.1663 557.991 -55.1663C557.991 -55.1663 557.991 -55.1663 557.991 -55.1663C557.991 -55.1663 557.991 -55.1663 557.991 -55.1663C557.991 -55.1663 557.991 -55.1663 557.991 -55.1663C557.991 -55.1663 557.991 -55.1663 557.991 -55.1663C557.991 -55.1663 557.991 -55.1663 557.991 -55.1663C557.991 -55.1663 557.991 -55.1663 557.991 -55.1663C557.991 -55.1663 557.991 -55.1663 557.991 -55.1663C557.991 -55.1663 557.991 -55.1663 557.991 -55.1663C557.991 -55.1663 557.991 -55.1663 557.991 -55.1663C557.991 -55.1663 557.991 -55.1663 557.991 -55.1663C557.991 -55.1663 557.991 -55.1663 557.991 -55.1663C557.991 -55.1663 557.992 -55.1663 557.992 -55.1663C557.992 -55.1663 557.992 -55.1663 557.992 -55.1663C557.992 -55.1663 557.992 -55.1663 557.992 -55.1663C557.992 -55.1663 557.992 -55.1663 557.992 -55.1663C557.992 -55.1663 557.992 -55.1663 557.992 -55.1663C557.992 -55.1663 557.992 -55.1663 557.992 -55.1663C557.992 -55.1663 557.992 -55.1663 557.992 -55.1663C557.992 -55.1663 557.992 -55.1663 557.992 -55.1663C557.992 -55.1663 557.992 -55.1663 557.992 -55.1663C557.992 -55.1663 557.992 -55.1663 557.992 -55.1663C557.992 -55.1663 557.992 -55.1663 557.992 -55.1663C557.992 -55.1663 557.992 -55.1663 557.992 -55.1663C557.992 -55.1663 557.992 -55.1663 557.992 -55.1663C557.992 -55.1663 557.992 -55.1663 557.992 -55.1663C557.992 -55.1663 557.992 -55.1663 557.992 -55.1663C557.992 -55.1663 557.992 -55.1663 557.992 -55.1663C557.992 -55.1663 557.992 -55.1663 557.992 -55.1663C557.992 -55.1663 557.992 -55.1663 557.992 -55.1663C557.992 -55.1663 557.992 -55.1663 557.992 -55.1663C557.992 -55.1663 557.992 -55.1663 557.992 -55.1663C557.992 -55.1663 557.992 -55.1663 557.992 -55.1663C557.992 -55.1663 557.992 -55.1663 557.992 -55.1663C557.992 -55.1663 557.992 -55.1663 557.992 -55.1663C557.992 -55.1663 557.992 -55.1663 557.992 -55.1663C557.992 -55.1663 557.992 -55.1663 557.992 -55.1663C557.992 -55.1663 557.992 -55.1663 557.992 -55.1663C557.992 -55.1663 557.992 -55.1663 557.992 -55.1663C557.992 -55.1663 557.992 -55.1663 557.992 -55.1663C557.992 -55.1663 557.992 -55.1663 557.992 -55.1663C557.992 -55.1663 557.992 -55.1663 557.992 -55.1663C557.992 -55.1663 557.992 -55.1663 557.992 -55.1663C557.992 -55.1663 557.992 -55.1663 557.992 -55.1663C557.992 -55.1663 557.992 -55.1663 557.992 -55.1663C557.992 -55.1663 557.992 -55.1663 557.992 -55.1663C557.992 -55.1663 557.992 -55.1663 557.992 -55.1663C557.992 -55.1663 557.992 -55.1663 557.992 -55.1663C557.992 -55.1663 557.992 -55.1663 557.992 -55.1663C557.992 -55.1663 557.992 -55.1663 557.992 -55.1663C557.992 -55.1663 557.992 -55.1663 557.992 -55.1663C557.992 -55.1663 557.992 -55.1663 557.992 -55.1663C557.992 -55.1663 557.992 -55.1663 557.992 -55.1663C557.992 -55.1663 557.992 -55.1663 557.992 -55.1663C557.992 -55.1663 557.992 -55.1663 557.992 -55.1663C557.992 -55.1663 557.992 -55.1663 557.992 -55.1663C557.992 -55.1663 557.992 -55.1663 557.992 -55.1663C557.992 -55.1663 557.993 -55.1663 557.993 -55.1663C557.993 -55.1663 557.993 -55.1663 557.993 -55.1663C557.993 -55.1663 557.993 -55.1663 557.993 -55.1663C557.993 -55.1663 557.993 -55.1663 557.993 -55.1663C557.993 -55.1663 557.993 -55.1663 557.993 -55.1663C557.993 -55.1663 557.993 -55.1663 557.993 -55.1663C557.993 -55.1663 557.993 -55.1663 557.993 -55.1663C557.993 -55.1663 557.993 -55.1663 557.993 -55.1663C557.993 -55.1663 557.993 -55.1663 557.993 -55.1663C557.993 -55.1663 557.993 -55.1663 557.993 -55.1663C557.993 -55.1663 557.993 -55.1663 557.993 -55.1663C557.993 -55.1663 557.993 -55.1663 557.993 -55.1663C557.993 -55.1663 557.993 -55.1663 557.993 -55.1663C557.993 -55.1663 557.993 -55.1663 557.993 -55.1663C557.993 -55.1663 557.993 -55.1663 557.993 -55.1663C557.993 -55.1663 557.993 -55.1663 557.993 -55.1663C557.993 -55.1663 557.993 -55.1663 557.993 -55.1663C557.993 -55.1663 557.993 -55.1663 557.993 -55.1663C557.993 -55.1663 557.993 -55.1663 557.993 -55.1663C557.993 -55.1663 557.993 -55.1663 557.993 -55.1663C557.993 -55.1663 557.993 -55.1663 557.993 -55.1663C557.993 -55.1663 557.993 -55.1663 557.993 -55.1663C557.993 -55.1663 557.993 -55.1663 557.993 -55.1663C557.993 -55.1663 557.993 -55.1663 557.993 -55.1663C557.993 -55.1663 557.993 -55.1663 557.993 -55.1663C557.993 -55.1663 557.993 -55.1663 557.993 -55.1663C557.993 -55.1663 557.993 -55.1663 557.993 -55.1663C557.993 -55.1663 557.993 -55.1663 557.993 -55.1663C557.993 -55.1663 557.993 -55.1663 557.993 -55.1663C557.993 -55.1663 557.993 -55.1663 557.993 -55.1663C557.993 -55.1663 557.993 -55.1663 557.993 -55.1663C557.993 -55.1663 557.993 -55.1663 557.993 -55.1663C557.993 -55.1663 557.993 -55.1663 557.993 -55.1663C557.993 -55.1663 557.993 -55.1663 557.993 -55.1663C557.993 -55.1663 557.993 -55.1663 557.993 -55.1663C557.993 -55.1663 557.993 -55.1663 557.993 -55.1663C557.993 -55.1663 557.993 -55.1663 557.993 -55.1663C557.993 -55.1663 557.993 -55.1663 557.993 -55.1663C557.993 -55.1663 557.993 -55.1663 557.993 -55.1663C557.993 -55.1663 557.993 -55.1663 557.993 -55.1663C557.993 -55.1663 557.993 -55.1663 557.993 -55.1663C557.993 -55.1663 557.993 -55.1663 557.993 -55.1663C557.993 -55.1663 557.993 -55.1663 557.993 -55.1663C557.993 -55.1663 557.993 -55.1663 557.993 -55.1663C557.993 -55.1663 557.993 -55.1663 557.993 -55.1663C557.994 -55.1663 557.994 -55.1663 557.994 -55.1663C557.994 -55.1663 557.994 -55.1663 557.994 -55.1663C557.994 -55.1663 557.994 -55.1663 557.994 -55.1663C557.994 -55.1663 557.994 -55.1663 557.994 -55.1663C557.994 -55.1663 557.994 -55.1663 557.994 -55.1663C557.994 -55.1663 557.994 -55.1663 557.994 -55.1663C557.994 -55.1663 557.994 -55.1663 557.994 -55.1663C557.994 -55.1663 557.994 -55.1663 557.994 -55.1663C557.994 -55.1663 557.994 -55.1663 557.994 -55.1663C557.994 -55.1663 557.994 -55.1663 557.994 -55.1663C557.994 -55.1663 557.994 -55.1663 557.994 -55.1663C557.994 -55.1663 557.994 -55.1663 557.994 -55.1663C557.994 -55.1663 557.994 -55.1663 557.994 -55.1663C557.994 -55.1663 557.994 -55.1663 557.994 -55.1663C557.994 -55.1663 557.994 -55.1663 557.994 -55.1663C557.994 -55.1663 557.994 -55.1663 557.994 -55.1663C557.994 -55.1663 557.994 -55.1663 557.994 -55.1663C557.994 -55.1663 557.994 -55.1663 557.994 -55.1663C557.994 -55.1663 557.994 -55.1663 557.994 -55.1663C557.994 -55.1663 557.994 -55.1663 557.994 -55.1663C557.994 -55.1663 557.994 -55.1663 557.994 -55.1663C557.994 -55.1663 557.994 -55.1663 557.994 -55.1663C557.994 -55.1663 557.994 -55.1663 557.994 -55.1663C557.994 -55.1663 557.994 -55.1663 557.994 -55.1663C557.994 -55.1663 557.994 -55.1663 557.994 -55.1663C557.994 -55.1663 557.994 -55.1663 557.994 -55.1663C557.994 -55.1663 557.994 -55.1663 557.994 -55.1663C557.994 -55.1663 557.994 -55.1663 557.994 -55.1663C557.994 -55.1663 557.994 -55.1663 557.994 -55.1663C557.994 -55.1663 557.994 -55.1663 557.994 -55.1663C557.994 -55.1663 557.994 -55.1663 557.994 -55.1663C557.994 -55.1663 557.994 -55.1663 557.994 -55.1663C557.994 -55.1663 557.994 -55.1663 557.994 -55.1663C557.994 -55.1663 557.994 -55.1663 557.994 -55.1663C557.994 -55.1663 557.994 -55.1663 557.994 -55.1663C557.994 -55.1663 557.994 -55.1663 557.994 -55.1663C557.994 -55.1663 557.994 -55.1663 557.994 -55.1663C557.994 -55.1663 557.994 -55.1663 557.994 -55.1663C557.994 -55.1663 557.994 -55.1663 557.994 -55.1663C557.994 -55.1663 557.994 -55.1663 557.994 -55.1663C557.994 -55.1663 557.994 -55.1663 557.994 -55.1663C557.994 -55.1663 557.994 -55.1663 557.994 -55.1663C557.994 -55.1663 557.994 -55.1663 557.994 -55.1663C557.994 -55.1663 557.994 -55.1663 557.994 -55.1663C557.994 -55.1663 557.994 -55.1663 557.995 -55.1663C557.995 -55.1663 557.995 -55.1663 557.995 -55.1663C557.995 -55.1663 557.995 -55.1663 557.995 -55.1663C557.995 -55.1663 557.995 -55.1663 557.995 -55.1663C557.995 -55.1663 557.995 -55.1663 557.995 -55.1663C557.995 -55.1663 557.995 -55.1663 557.995 -55.1663C557.995 -55.1663 557.995 -55.1663 557.995 -55.1663C557.995 -55.1663 557.995 -55.1663 557.995 -55.1663C557.995 -55.1663 557.995 -55.1663 557.995 -55.1663C557.995 -55.1663 557.995 -55.1663 557.995 -55.1663C557.995 -55.1663 557.995 -55.1663 557.995 -55.1663C557.995 -55.1663 557.995 -55.1663 557.995 -55.1663C557.995 -55.1663 557.995 -55.1663 557.995 -55.1663C557.995 -55.1663 557.995 -55.1663 557.995 -55.1663C557.995 -55.1663 557.995 -55.1663 557.995 -55.1663C557.995 -55.1663 557.995 -55.1663 557.995 -55.1663C557.995 -55.1663 557.995 -55.1663 557.995 -55.1663C557.995 -55.1663 557.995 -55.1663 557.995 -55.1663C557.995 -55.1663 557.995 -55.1663 557.995 -55.1663C557.995 -55.1663 557.995 -55.1663 557.995 -55.1663C557.995 -55.1663 557.995 -55.1663 557.995 -55.1663C557.995 -55.1663 557.995 -55.1663 557.995 -55.1663C557.995 -55.1663 557.995 -55.1663 557.995 -55.1663C557.995 -55.1663 557.995 -55.1663 557.995 -55.1663C557.995 -55.1663 557.995 -55.1663 557.995 -55.1663C557.995 -55.1663 557.995 -55.1663 557.995 -55.1663C557.995 -55.1663 557.995 -55.1663 557.995 -55.1663C557.995 -55.1663 557.995 -55.1663 557.995 -55.1663C557.995 -55.1663 557.995 -55.1663 557.995 -55.1663C557.995 -55.1663 557.995 -55.1663 557.995 -55.1663C557.995 -55.1663 557.995 -55.1663 557.995 -55.1663C557.995 -55.1663 557.995 -55.1663 557.995 -55.1663C557.995 -55.1663 557.995 -55.1663 557.995 -55.1663C557.995 -55.1663 557.995 -55.1663 557.995 -55.1663C557.995 -55.1663 557.995 -55.1663 557.995 -55.1663C557.995 -55.1663 557.995 -55.1663 557.995 -55.1663C557.995 -55.1663 557.995 -55.1663 557.995 -55.1663C557.995 -55.1663 557.995 -55.1663 557.995 -55.1663C557.995 -55.1663 557.995 -55.1663 557.995 -55.1663C557.995 -55.1663 557.995 -55.1663 557.995 -55.1663C557.995 -55.1663 557.995 -55.1663 557.995 -55.1663C557.995 -55.1663 557.995 -55.1663 557.995 -55.1663C557.995 -55.1663 557.995 -55.1663 557.995 -55.1663C557.995 -55.1663 557.995 -55.1663 557.995 -55.1663C557.995 -55.1663 557.995 -55.1663 557.995 -55.1663C557.995 -55.1663 557.996 -55.1663 557.996 -55.1663C557.996 -55.1663 557.996 -55.1663 557.996 -55.1663C557.996 -55.1663 557.996 -55.1663 557.996 -55.1663C557.996 -55.1663 557.996 -55.1663 557.996 -55.1663C557.996 -55.1663 557.996 -55.1663 557.996 -55.1663C557.996 -55.1663 557.996 -55.1663 557.996 -55.1663C557.996 -55.1663 557.996 -55.1663 557.996 -55.1663C557.996 -55.1663 557.996 -55.1663 557.996 -55.1663C557.996 -55.1663 557.996 -55.1663 557.996 -55.1663C557.996 -55.1663 557.996 -55.1663 557.996 -55.1663C557.996 -55.1663 557.996 -55.1663 557.996 -55.1663C557.996 -55.1663 557.996 -55.1663 557.996 -55.1663C557.996 -55.1663 557.996 -55.1663 557.996 -55.1663C557.996 -55.1663 557.996 -55.1663 557.996 -55.1663C557.996 -55.1663 557.996 -55.1663 557.996 -55.1663C557.996 -55.1663 557.996 -55.1663 557.996 -55.1663C557.996 -55.1663 557.996 -55.1663 557.996 -55.1663C557.996 -55.1663 557.996 -55.1663 557.996 -55.1663C557.996 -55.1663 557.996 -55.1663 557.996 -55.1663C557.996 -55.1663 557.996 -55.1663 557.996 -55.1663C557.996 -55.1663 557.996 -55.1663 557.996 -55.1663C557.996 -55.1663 557.996 -55.1663 557.996 -55.1663C557.996 -55.1663 557.996 -55.1663 557.996 -55.1663C557.996 -55.1663 557.996 -55.1663 557.996 -55.1663C557.996 -55.1663 557.996 -55.1663 557.996 -55.1663C557.996 -55.1663 557.996 -55.1663 557.996 -55.1663C557.996 -55.1663 557.996 -55.1663 557.996 -55.1663C557.996 -55.1663 557.996 -55.1663 557.996 -55.1663C557.996 -55.1663 557.996 -55.1663 557.996 -55.1663C557.996 -55.1663 557.996 -55.1663 557.996 -55.1663C557.996 -55.1663 557.996 -55.1663 557.996 -55.1663C557.996 -55.1663 557.996 -55.1663 557.996 -55.1663C557.996 -55.1663 557.996 -55.1663 557.996 -55.1663C557.996 -55.1663 557.996 -55.1663 557.996 -55.1663C557.996 -55.1663 557.996 -55.1663 557.996 -55.1663C557.996 -55.1663 557.996 -55.1663 557.996 -55.1663C557.996 -55.1663 557.996 -55.1663 557.996 -55.1663C557.996 -55.1663 557.996 -55.1663 557.996 -55.1663C557.996 -55.1663 557.996 -55.1663 557.996 -55.1663C557.996 -55.1663 557.996 -55.1663 557.996 -55.1663C557.996 -55.1663 557.996 -55.1663 557.996 -55.1663C557.996 -55.1663 557.996 -55.1663 557.996 -55.1663C557.996 -55.1663 557.996 -55.1663 557.996 -55.1663C557.996 -55.1663 557.996 -55.1663 557.996 -55.1663C557.996 -55.1663 557.996 -55.1663 557.996 -55.1663C557.996 -55.1663 557.997 -55.1663 557.997 -55.1663C557.997 -55.1663 557.997 -55.1663 557.997 -55.1663C557.997 -55.1663 557.997 -55.1663 557.997 -55.1663C557.997 -55.1663 557.997 -55.1663 557.997 -55.1663C557.997 -55.1663 557.997 -55.1663 557.997 -55.1663C557.997 -55.1663 557.997 -55.1663 557.997 -55.1663C557.997 -55.1663 557.997 -55.1663 557.997 -55.1663C557.997 -55.1663 557.997 -55.1663 557.997 -55.1663C557.997 -55.1663 557.997 -55.1663 557.997 -55.1663C557.997 -55.1663 557.997 -55.1663 557.997 -55.1663C557.997 -55.1663 557.997 -55.1663 557.997 -55.1663C557.997 -55.1663 557.997 -55.1663 557.997 -55.1663C557.997 -55.1663 557.997 -55.1663 557.997 -55.1663C557.997 -55.1663 557.997 -55.1663 557.997 -55.1663C557.997 -55.1663 557.997 -55.1663 557.997 -55.1663C557.997 -55.1663 557.997 -55.1663 557.997 -55.1663C557.997 -55.1663 557.997 -55.1663 557.997 -55.1663C557.997 -55.1663 557.997 -55.1663 557.997 -55.1663C557.997 -55.1663 557.997 -55.1663 557.997 -55.1663C557.997 -55.1663 557.997 -55.1663 557.997 -55.1663C557.997 -55.1663 557.997 -55.1663 557.997 -55.1663C557.997 -55.1663 557.997 -55.1663 557.997 -55.1663C557.997 -55.1663 557.997 -55.1663 557.997 -55.1663C557.997 -55.1663 557.997 -55.1663 557.997 -55.1663C557.997 -55.1663 557.997 -55.1663 557.997 -55.1663C557.997 -55.1663 557.997 -55.1663 557.997 -55.1663C557.997 -55.1663 557.997 -55.1663 557.997 -55.1663C557.997 -55.1663 557.997 -55.1663 557.997 -55.1663C557.997 -55.1663 557.997 -55.1663 557.997 -55.1663C557.997 -55.1663 557.997 -55.1663 557.997 -55.1663C557.997 -55.1663 557.997 -55.1663 557.997 -55.1663C557.997 -55.1663 557.997 -55.1663 557.997 -55.1663C557.997 -55.1663 557.997 -55.1663 557.997 -55.1663C557.997 -55.1663 557.997 -55.1663 557.997 -55.1663C557.997 -55.1663 557.997 -55.1663 557.997 -55.1663C557.997 -55.1663 557.997 -55.1663 557.997 -55.1663C557.997 -55.1663 557.997 -55.1663 557.997 -55.1663C557.997 -55.1663 557.997 -55.1663 557.997 -55.1663C557.997 -55.1663 557.997 -55.1663 557.997 -55.1663C557.997 -55.1663 557.997 -55.1663 557.997 -55.1663C557.997 -55.1663 557.997 -55.1663 557.997 -55.1663C557.997 -55.1663 557.997 -55.1663 557.997 -55.1663C557.997 -55.1663 557.997 -55.1663 557.997 -55.1663C557.997 -55.1663 557.997 -55.1663 557.997 -55.1663C557.997 -55.1663 557.997 -55.1663 557.997 -55.1663C557.998 -55.1663 557.998 -55.1663 557.998 -55.1663C557.998 -55.1663 557.998 -55.1663 557.998 -55.1663C557.998 -55.1663 557.998 -55.1663 557.998 -55.1663C557.998 -55.1663 557.998 -55.1663 557.998 -55.1663C557.998 -55.1663 557.998 -55.1663 557.998 -55.1663C557.998 -55.1663 557.998 -55.1663 557.998 -55.1663C557.998 -55.1663 557.998 -55.1663 557.998 -55.1663C557.998 -55.1663 557.998 -55.1663 557.998 -55.1663C557.998 -55.1663 557.998 -55.1663 557.998 -55.1663C557.998 -55.1663 557.998 -55.1663 557.998 -55.1663C557.998 -55.1663 557.998 -55.1663 557.998 -55.1663C557.998 -55.1663 557.998 -55.1663 557.998 -55.1663C557.998 -55.1663 557.998 -55.1663 557.998 -55.1663C557.998 -55.1663 557.998 -55.1663 557.998 -55.1663C557.998 -55.1663 557.998 -55.1663 557.998 -55.1663C557.998 -55.1663 557.998 -55.1663 557.998 -55.1663C557.998 -55.1663 557.998 -55.1663 557.998 -55.1663C557.998 -55.1663 557.998 -55.1663 557.998 -55.1663C557.998 -55.1663 557.998 -55.1663 557.998 -55.1663C557.998 -55.1663 557.998 -55.1663 557.998 -55.1663C557.998 -55.1663 557.998 -55.1663 557.998 -55.1663C557.998 -55.1663 557.998 -55.1663 557.998 -55.1663C557.998 -55.1663 557.998 -55.1663 557.998 -55.1663C557.998 -55.1663 557.998 -55.1663 557.998 -55.1663C557.998 -55.1663 557.998 -55.1663 557.998 -55.1663C557.998 -55.1663 557.998 -55.1663 557.998 -55.1663C557.998 -55.1663 557.998 -55.1663 557.998 -55.1663C557.998 -55.1663 557.998 -55.1663 557.998 -55.1663C557.998 -55.1663 557.998 -55.1663 557.998 -55.1663C557.998 -55.1663 557.998 -55.1663 557.998 -55.1663C557.998 -55.1663 557.998 -55.1663 557.998 -55.1663C557.998 -55.1663 557.998 -55.1663 557.998 -55.1663C557.998 -55.1663 557.998 -55.1663 557.998 -55.1663C557.998 -55.1663 557.998 -55.1663 557.998 -55.1663C557.998 -55.1663 557.998 -55.1663 557.998 -55.1663C557.998 -55.1663 557.998 -55.1663 557.998 -55.1663C557.998 -55.1663 557.998 -55.1663 557.998 -55.1663C557.998 -55.1663 557.998 -55.1663 557.998 -55.1663C557.998 -55.1663 557.998 -55.1663 557.998 -55.1663C557.998 -55.1663 557.998 -55.1663 557.998 -55.1663C557.998 -55.1663 557.998 -55.1663 557.998 -55.1663C557.998 -55.1663 557.998 -55.1663 557.998 -55.1663C557.998 -55.1663 557.998 -55.1663 557.998 -55.1663C557.998 -55.1663 557.998 -55.1663 557.998 -55.1663C557.998 -55.1663 557.998 -55.1663 557.998 -55.1663C557.999 -55.1663 557.999 -55.1663 557.999 -55.1663C557.999 -55.1663 557.999 -55.1663 557.999 -55.1663C557.999 -55.1663 557.999 -55.1663 557.999 -55.1663C557.999 -55.1663 557.999 -55.1663 557.999 -55.1663C557.999 -55.1663 557.999 -55.1663 557.999 -55.1663C557.999 -55.1663 557.999 -55.1663 557.999 -55.1663C557.999 -55.1663 557.999 -55.1663 557.999 -55.1663C557.999 -55.1663 557.999 -55.1663 557.999 -55.1663C557.999 -55.1663 557.999 -55.1663 557.999 -55.1663C557.999 -55.1663 557.999 -55.1663 557.999 -55.1663C557.999 -55.1663 557.999 -55.1663 557.999 -55.1663C557.999 -55.1663 557.999 -55.1663 557.999 -55.1663C557.999 -55.1663 557.999 -55.1663 557.999 -55.1663C557.999 -55.1663 557.999 -55.1663 557.999 -55.1663C557.999 -55.1663 557.999 -55.1663 557.999 -55.1663C557.999 -55.1663 557.999 -55.1663 557.999 -55.1663C557.999 -55.1663 557.999 -55.1663 557.999 -55.1663C557.999 -55.1663 557.999 -55.1663 557.999 -55.1663C557.999 -55.1663 557.999 -55.1663 557.999 -55.1663C557.999 -55.1663 557.999 -55.1663 557.999 -55.1663C557.999 -55.1663 557.999 -55.1663 557.999 -55.1663C557.999 -55.1663 557.999 -55.1663 557.999 -55.1663C557.999 -55.1663 557.999 -55.1663 557.999 -55.1663C557.999 -55.1663 557.999 -55.1663 557.999 -55.1663C557.999 -55.1663 557.999 -55.1663 557.999 -55.1663C557.999 -55.1663 557.999 -55.1663 557.999 -55.1663C557.999 -55.1663 557.999 -55.1663 557.999 -55.1663C557.999 -55.1663 557.999 -55.1663 557.999 -55.1663C557.999 -55.1663 557.999 -55.1663 557.999 -55.1663C557.999 -55.1663 557.999 -55.1663 557.999 -55.1663C557.999 -55.1663 557.999 -55.1663 557.999 -55.1663C557.999 -55.1663 557.999 -55.1663 557.999 -55.1663C557.999 -55.1663 557.999 -55.1663 557.999 -55.1663C557.999 -55.1663 557.999 -55.1663 557.999 -55.1663C557.999 -55.1663 557.999 -55.1663 557.999 -55.1663C557.999 -55.1663 557.999 -55.1663 557.999 -55.1663C557.999 -55.1663 557.999 -55.1663 557.999 -55.1663C557.999 -55.1663 557.999 -55.1663 557.999 -55.1663C557.999 -55.1663 557.999 -55.1663 557.999 -55.1663C557.999 -55.1663 557.999 -55.1663 557.999 -55.1663C557.999 -55.1663 557.999 -55.1663 557.999 -55.1663C557.999 -55.1663 557.999 -55.1663 557.999 -55.1663C557.999 -55.1663 557.999 -55.1663 557.999 -55.1663C557.999 -55.1663 557.999 -55.1663 557.999 -55.1663C557.999 -55.1663 557.999 -55.1663 557.999 -55.1663C558 -55.1663 558 -55.1663 558 -55.1663C558 -55.1663 558 -55.1663 558 -55.1663C558 -55.1663 558 -55.1663 558 -55.1663C558 -55.1663 558 -55.1663 558 -55.1663C558 -55.1663 558 -55.1663 558 -55.1663C558 -55.1663 558 -55.1663 558 -55.1663C558 -55.1663 558 -55.1663 558 -55.1663C558 -55.1663 558 -55.1663 558 -55.1663C558 -55.1663 558 -55.1663 558 -55.1663C558 -55.1663 558 -55.1663 558 -55.1663C558 -55.1663 558 -55.1663 558 -55.1663C558 -55.1663 558 -55.1663 558 -55.1663C558 -55.1663 558 -55.1663 558 -55.1663C558 -55.1663 558 -55.1663 558 -55.1663C558 -55.1663 558 -55.1663 558 -55.1663C558 -55.1663 558 -55.1663 558 -55.1663C558 -55.1663 558 -55.1663 558 -55.1663C558 -55.1663 558 -55.1663 558 -55.1663C558 -55.1663 558 -55.1663 558 -55.1663C558 -55.1663 558 -55.1663 558 -55.1663C558 -55.1663 558 -55.1663 558 -55.1663C558 -55.1663 558 -55.1663 558 -55.1663C558 -55.1663 558 -55.1663 558 -55.1663V-58.1663ZM557.989 -58.1663C518.594 -58.1663 486.583 -89.782 485.945 -129.024L482.946 -128.976C483.61 -88.0983 516.953 -55.1663 557.989 -55.1663V-58.1663Z" fill="#C9AC6A"/>
</g>
</g>
<defs>
<filter id="filter0_d" x="-11.5" y="-136.5" width="581" height="600" filterUnits="userSpaceOnUse" color-interpolation-filters="sRGB">
<feFlood flood-opacity="0" result="BackgroundImageFix"/>
<feColorMatrix in="SourceAlpha" type="matrix" values="0 0 0 0 0 0 0 0 0 0 0 0 0 0 0 0 0 0 127 0" result="hardAlpha"/>
<feOffset dy="4"/>
<feGaussianBlur stdDeviation="5"/>
<feColorMatrix type="matrix" values="0 0 0 0 0.00392157 0 0 0 0 0.0156863 0 0 0 0 0.027451 0 0 0 0.1 0"/>
<feBlend mode="normal" in2="BackgroundImageFix" result="effect1_dropShadow"/>
<feBlend mode="normal" in="SourceGraphic" in2="effect1_dropShadow" result="shape"/>
</filter>
</defs>
</svg>
