<svg width="562" height="581" viewBox="0 0 562 581" fill="none" xmlns="http://www.w3.org/2000/svg">
<path fill-rule="evenodd" clip-rule="evenodd" d="M486.445 2H75.5431C74.8921 42.0598 42.215 74.3337 2 74.3337L2.00003 569C2.00003 574.523 6.47718 579 12 579H281H550C555.523 579 560 574.523 560 569V74.3337C559.996 74.3337 559.992 74.3337 559.989 74.3337C519.774 74.3337 487.097 42.0598 486.445 2Z" fill="#0D1F30"/>
<path d="M486.445 2L487.945 1.97562L487.921 0.5H486.445V2ZM75.5431 2V0.5H74.0673L74.0433 1.97562L75.5431 2ZM2 74.3337V72.8337H0.5L0.5 74.3337H2ZM2.00003 569H3.50003H2.00003ZM560 74.3337H561.5V72.8337H560V74.3337ZM486.445 0.5H75.5431V3.5H486.445V0.5ZM74.0433 1.97562C73.4055 41.218 41.3947 72.8337 2 72.8337V75.8337C43.0353 75.8337 76.3786 42.9017 77.0429 2.02438L74.0433 1.97562ZM0.5 74.3337L0.500031 569H3.50003L3.5 74.3337H0.5ZM0.500031 569C0.500031 575.351 5.64876 580.5 12 580.5V577.5C7.30561 577.5 3.50003 573.694 3.50003 569H0.500031ZM12 580.5H281V577.5H12V580.5ZM281 580.5H550V577.5H281V580.5ZM550 580.5C556.351 580.5 561.5 575.351 561.5 569H558.5C558.5 573.694 554.694 577.5 550 577.5V580.5ZM561.5 569V74.3337H558.5V569H561.5ZM560 72.8337C560 72.8337 560 72.8337 560 72.8337H560C560 72.8337 560 72.8337 560 72.8337C560 72.8337 560 72.8337 560 72.8337C560 72.8337 560 72.8337 560 72.8337H560C560 72.8337 560 72.8337 560 72.8337C560 72.8337 560 72.8337 560 72.8337C560 72.8337 560 72.8337 559.999 72.8337H559.999C559.999 72.8337 559.999 72.8337 559.999 72.8337C559.999 72.8337 559.999 72.8337 559.999 72.8337C559.999 72.8337 559.999 72.8337 559.999 72.8337H559.999C559.999 72.8337 559.999 72.8337 559.999 72.8337C559.999 72.8337 559.999 72.8337 559.999 72.8337C559.999 72.8337 559.999 72.8337 559.999 72.8337H559.999C559.999 72.8337 559.999 72.8337 559.999 72.8337C559.999 72.8337 559.999 72.8337 559.999 72.8337C559.999 72.8337 559.999 72.8337 559.999 72.8337H559.999C559.999 72.8337 559.999 72.8337 559.999 72.8337C559.999 72.8337 559.999 72.8337 559.999 72.8337H559.998H559.998C559.998 72.8337 559.998 72.8337 559.998 72.8337C559.998 72.8337 559.998 72.8337 559.998 72.8337H559.998H559.998C559.998 72.8337 559.998 72.8337 559.998 72.8337C559.998 72.8337 559.998 72.8337 559.998 72.8337H559.998C559.998 72.8337 559.998 72.8337 559.998 72.8337C559.998 72.8337 559.998 72.8337 559.998 72.8337C559.998 72.8337 559.998 72.8337 559.998 72.8337H559.998C559.998 72.8337 559.998 72.8337 559.998 72.8337C559.998 72.8337 559.998 72.8337 559.998 72.8337C559.998 72.8337 559.998 72.8337 559.998 72.8337H559.997C559.997 72.8337 559.997 72.8337 559.997 72.8337C559.997 72.8337 559.997 72.8337 559.997 72.8337C559.997 72.8337 559.997 72.8337 559.997 72.8337H559.997C559.997 72.8337 559.997 72.8337 559.997 72.8337C559.997 72.8337 559.997 72.8337 559.997 72.8337H559.997H559.997C559.997 72.8337 559.997 72.8337 559.997 72.8337C559.997 72.8337 559.997 72.8337 559.997 72.8337H559.997C559.997 72.8337 559.997 72.8337 559.997 72.8337C559.997 72.8337 559.997 72.8337 559.997 72.8337C559.997 72.8337 559.997 72.8337 559.997 72.8337H559.997C559.997 72.8337 559.997 72.8337 559.997 72.8337C559.997 72.8337 559.997 72.8337 559.996 72.8337C559.996 72.8337 559.996 72.8337 559.996 72.8337H559.996C559.996 72.8337 559.996 72.8337 559.996 72.8337C559.996 72.8337 559.996 72.8337 559.996 72.8337H559.996H559.996C559.996 72.8337 559.996 72.8337 559.996 72.8337C559.996 72.8337 559.996 72.8337 559.996 72.8337H559.996C559.996 72.8337 559.996 72.8337 559.996 72.8337C559.996 72.8337 559.996 72.8337 559.996 72.8337C559.996 72.8337 559.996 72.8337 559.996 72.8337H559.996C559.996 72.8337 559.996 72.8337 559.996 72.8337C559.996 72.8337 559.996 72.8337 559.996 72.8337C559.996 72.8337 559.996 72.8337 559.995 72.8337H559.995C559.995 72.8337 559.995 72.8337 559.995 72.8337C559.995 72.8337 559.995 72.8337 559.995 72.8337H559.995H559.995C559.995 72.8337 559.995 72.8337 559.995 72.8337C559.995 72.8337 559.995 72.8337 559.995 72.8337H559.995C559.995 72.8337 559.995 72.8337 559.995 72.8337C559.995 72.8337 559.995 72.8337 559.995 72.8337C559.995 72.8337 559.995 72.8337 559.995 72.8337H559.995C559.995 72.8337 559.995 72.8337 559.995 72.8337C559.995 72.8337 559.995 72.8337 559.995 72.8337C559.995 72.8337 559.995 72.8337 559.995 72.8337H559.995C559.994 72.8337 559.994 72.8337 559.994 72.8337C559.994 72.8337 559.994 72.8337 559.994 72.8337H559.994H559.994C559.994 72.8337 559.994 72.8337 559.994 72.8337C559.994 72.8337 559.994 72.8337 559.994 72.8337H559.994C559.994 72.8337 559.994 72.8337 559.994 72.8337C559.994 72.8337 559.994 72.8337 559.994 72.8337C559.994 72.8337 559.994 72.8337 559.994 72.8337H559.994C559.994 72.8337 559.994 72.8337 559.994 72.8337C559.994 72.8337 559.994 72.8337 559.994 72.8337H559.994H559.994C559.994 72.8337 559.994 72.8337 559.994 72.8337C559.994 72.8337 559.994 72.8337 559.993 72.8337H559.993C559.993 72.8337 559.993 72.8337 559.993 72.8337C559.993 72.8337 559.993 72.8337 559.993 72.8337C559.993 72.8337 559.993 72.8337 559.993 72.8337H559.993C559.993 72.8337 559.993 72.8337 559.993 72.8337C559.993 72.8337 559.993 72.8337 559.993 72.8337C559.993 72.8337 559.993 72.8337 559.993 72.8337H559.993C559.993 72.8337 559.993 72.8337 559.993 72.8337C559.993 72.8337 559.993 72.8337 559.993 72.8337H559.993H559.993C559.993 72.8337 559.993 72.8337 559.993 72.8337C559.993 72.8337 559.993 72.8337 559.993 72.8337H559.992C559.992 72.8337 559.992 72.8337 559.992 72.8337C559.992 72.8337 559.992 72.8337 559.992 72.8337C559.992 72.8337 559.992 72.8337 559.992 72.8337H559.992C559.992 72.8337 559.992 72.8337 559.992 72.8337C559.992 72.8337 559.992 72.8337 559.992 72.8337C559.992 72.8337 559.992 72.8337 559.992 72.8337H559.992C559.992 72.8337 559.992 72.8337 559.992 72.8337C559.992 72.8337 559.992 72.8337 559.992 72.8337H559.992H559.992C559.992 72.8337 559.992 72.8337 559.992 72.8337C559.992 72.8337 559.992 72.8337 559.992 72.8337H559.992C559.992 72.8337 559.992 72.8337 559.992 72.8337C559.991 72.8337 559.991 72.8337 559.991 72.8337C559.991 72.8337 559.991 72.8337 559.991 72.8337H559.991C559.991 72.8337 559.991 72.8337 559.991 72.8337C559.991 72.8337 559.991 72.8337 559.991 72.8337C559.991 72.8337 559.991 72.8337 559.991 72.8337H559.991C559.991 72.8337 559.991 72.8337 559.991 72.8337C559.991 72.8337 559.991 72.8337 559.991 72.8337C559.991 72.8337 559.991 72.8337 559.991 72.8337H559.991C559.991 72.8337 559.991 72.8337 559.991 72.8337C559.991 72.8337 559.991 72.8337 559.991 72.8337H559.991H559.991C559.991 72.8337 559.991 72.8337 559.991 72.8337C559.991 72.8337 559.991 72.8337 559.99 72.8337H559.99C559.99 72.8337 559.99 72.8337 559.99 72.8337C559.99 72.8337 559.99 72.8337 559.99 72.8337C559.99 72.8337 559.99 72.8337 559.99 72.8337H559.99C559.99 72.8337 559.99 72.8337 559.99 72.8337C559.99 72.8337 559.99 72.8337 559.99 72.8337C559.99 72.8337 559.99 72.8337 559.99 72.8337H559.99C559.99 72.8337 559.99 72.8337 559.99 72.8337C559.99 72.8337 559.99 72.8337 559.99 72.8337C559.99 72.8337 559.99 72.8337 559.99 72.8337H559.99C559.99 72.8337 559.99 72.8337 559.99 72.8337C559.99 72.8337 559.99 72.8337 559.99 72.8337C559.99 72.8337 559.99 72.8337 559.99 72.8337H559.989C559.989 72.8337 559.989 72.8337 559.989 72.8337C559.989 72.8337 559.989 72.8337 559.989 72.8337C559.989 72.8337 559.989 72.8337 559.989 72.8337H559.989C559.989 72.8337 559.989 72.8337 559.989 72.8337C559.989 72.8337 559.989 72.8337 559.989 72.8337C559.989 72.8337 559.989 72.8337 559.989 72.8337H559.989C559.989 72.8337 559.989 72.8337 559.989 72.8337C559.989 72.8337 559.989 72.8337 559.989 72.8337C559.989 72.8337 559.989 72.8337 559.989 72.8337H559.989C559.989 72.8337 559.989 72.8337 559.989 72.8337C559.989 72.8337 559.989 72.8337 559.989 72.8337V75.8337C559.989 75.8337 559.989 75.8337 559.989 75.8337C559.989 75.8337 559.989 75.8337 559.989 75.8337H559.989C559.989 75.8337 559.989 75.8337 559.989 75.8337C559.989 75.8337 559.989 75.8337 559.989 75.8337C559.989 75.8337 559.989 75.8337 559.989 75.8337H559.989C559.989 75.8337 559.989 75.8337 559.989 75.8337C559.989 75.8337 559.989 75.8337 559.989 75.8337C559.989 75.8337 559.989 75.8337 559.989 75.8337H559.989C559.989 75.8337 559.989 75.8337 559.989 75.8337C559.989 75.8337 559.989 75.8337 559.989 75.8337C559.989 75.8337 559.989 75.8337 559.989 75.8337H559.99C559.99 75.8337 559.99 75.8337 559.99 75.8337C559.99 75.8337 559.99 75.8337 559.99 75.8337C559.99 75.8337 559.99 75.8337 559.99 75.8337H559.99C559.99 75.8337 559.99 75.8337 559.99 75.8337C559.99 75.8337 559.99 75.8337 559.99 75.8337C559.99 75.8337 559.99 75.8337 559.99 75.8337H559.99C559.99 75.8337 559.99 75.8337 559.99 75.8337C559.99 75.8337 559.99 75.8337 559.99 75.8337C559.99 75.8337 559.99 75.8337 559.99 75.8337H559.99C559.99 75.8337 559.99 75.8337 559.99 75.8337C559.99 75.8337 559.99 75.8337 559.99 75.8337C559.99 75.8337 559.99 75.8337 559.99 75.8337H559.99C559.991 75.8337 559.991 75.8337 559.991 75.8337C559.991 75.8337 559.991 75.8337 559.991 75.8337H559.991H559.991C559.991 75.8337 559.991 75.8337 559.991 75.8337C559.991 75.8337 559.991 75.8337 559.991 75.8337H559.991C559.991 75.8337 559.991 75.8337 559.991 75.8337C559.991 75.8337 559.991 75.8337 559.991 75.8337C559.991 75.8337 559.991 75.8337 559.991 75.8337H559.991C559.991 75.8337 559.991 75.8337 559.991 75.8337C559.991 75.8337 559.991 75.8337 559.991 75.8337C559.991 75.8337 559.991 75.8337 559.991 75.8337H559.991C559.991 75.8337 559.991 75.8337 559.991 75.8337C559.991 75.8337 559.991 75.8337 559.992 75.8337C559.992 75.8337 559.992 75.8337 559.992 75.8337H559.992C559.992 75.8337 559.992 75.8337 559.992 75.8337C559.992 75.8337 559.992 75.8337 559.992 75.8337H559.992H559.992C559.992 75.8337 559.992 75.8337 559.992 75.8337C559.992 75.8337 559.992 75.8337 559.992 75.8337H559.992C559.992 75.8337 559.992 75.8337 559.992 75.8337C559.992 75.8337 559.992 75.8337 559.992 75.8337C559.992 75.8337 559.992 75.8337 559.992 75.8337H559.992C559.992 75.8337 559.992 75.8337 559.992 75.8337C559.992 75.8337 559.992 75.8337 559.992 75.8337C559.992 75.8337 559.992 75.8337 559.992 75.8337H559.993C559.993 75.8337 559.993 75.8337 559.993 75.8337C559.993 75.8337 559.993 75.8337 559.993 75.8337H559.993H559.993C559.993 75.8337 559.993 75.8337 559.993 75.8337C559.993 75.8337 559.993 75.8337 559.993 75.8337H559.993C559.993 75.8337 559.993 75.8337 559.993 75.8337C559.993 75.8337 559.993 75.8337 559.993 75.8337C559.993 75.8337 559.993 75.8337 559.993 75.8337H559.993C559.993 75.8337 559.993 75.8337 559.993 75.8337C559.993 75.8337 559.993 75.8337 559.993 75.8337C559.993 75.8337 559.993 75.8337 559.993 75.8337H559.993C559.994 75.8337 559.994 75.8337 559.994 75.8337C559.994 75.8337 559.994 75.8337 559.994 75.8337H559.994H559.994C559.994 75.8337 559.994 75.8337 559.994 75.8337C559.994 75.8337 559.994 75.8337 559.994 75.8337H559.994C559.994 75.8337 559.994 75.8337 559.994 75.8337C559.994 75.8337 559.994 75.8337 559.994 75.8337C559.994 75.8337 559.994 75.8337 559.994 75.8337H559.994C559.994 75.8337 559.994 75.8337 559.994 75.8337C559.994 75.8337 559.994 75.8337 559.994 75.8337H559.994H559.994C559.994 75.8337 559.994 75.8337 559.994 75.8337C559.994 75.8337 559.994 75.8337 559.995 75.8337H559.995C559.995 75.8337 559.995 75.8337 559.995 75.8337C559.995 75.8337 559.995 75.8337 559.995 75.8337C559.995 75.8337 559.995 75.8337 559.995 75.8337H559.995C559.995 75.8337 559.995 75.8337 559.995 75.8337C559.995 75.8337 559.995 75.8337 559.995 75.8337C559.995 75.8337 559.995 75.8337 559.995 75.8337H559.995C559.995 75.8337 559.995 75.8337 559.995 75.8337C559.995 75.8337 559.995 75.8337 559.995 75.8337H559.995H559.995C559.995 75.8337 559.995 75.8337 559.995 75.8337C559.995 75.8337 559.995 75.8337 559.995 75.8337H559.995C559.996 75.8337 559.996 75.8337 559.996 75.8337C559.996 75.8337 559.996 75.8337 559.996 75.8337C559.996 75.8337 559.996 75.8337 559.996 75.8337H559.996C559.996 75.8337 559.996 75.8337 559.996 75.8337C559.996 75.8337 559.996 75.8337 559.996 75.8337C559.996 75.8337 559.996 75.8337 559.996 75.8337H559.996C559.996 75.8337 559.996 75.8337 559.996 75.8337C559.996 75.8337 559.996 75.8337 559.996 75.8337H559.996H559.996C559.996 75.8337 559.996 75.8337 559.996 75.8337C559.996 75.8337 559.996 75.8337 559.996 75.8337H559.996C559.996 75.8337 559.996 75.8337 559.996 75.8337C559.997 75.8337 559.997 75.8337 559.997 75.8337C559.997 75.8337 559.997 75.8337 559.997 75.8337H559.997C559.997 75.8337 559.997 75.8337 559.997 75.8337C559.997 75.8337 559.997 75.8337 559.997 75.8337C559.997 75.8337 559.997 75.8337 559.997 75.8337H559.997C559.997 75.8337 559.997 75.8337 559.997 75.8337C559.997 75.8337 559.997 75.8337 559.997 75.8337H559.997H559.997C559.997 75.8337 559.997 75.8337 559.997 75.8337C559.997 75.8337 559.997 75.8337 559.997 75.8337H559.997C559.997 75.8337 559.997 75.8337 559.997 75.8337C559.997 75.8337 559.997 75.8337 559.997 75.8337C559.997 75.8337 559.997 75.8337 559.997 75.8337H559.998C559.998 75.8337 559.998 75.8337 559.998 75.8337C559.998 75.8337 559.998 75.8337 559.998 75.8337C559.998 75.8337 559.998 75.8337 559.998 75.8337H559.998C559.998 75.8337 559.998 75.8337 559.998 75.8337C559.998 75.8337 559.998 75.8337 559.998 75.8337C559.998 75.8337 559.998 75.8337 559.998 75.8337H559.998C559.998 75.8337 559.998 75.8337 559.998 75.8337C559.998 75.8337 559.998 75.8337 559.998 75.8337H559.998H559.998C559.998 75.8337 559.998 75.8337 559.998 75.8337C559.998 75.8337 559.998 75.8337 559.998 75.8337H559.998H559.999C559.999 75.8337 559.999 75.8337 559.999 75.8337C559.999 75.8337 559.999 75.8337 559.999 75.8337H559.999C559.999 75.8337 559.999 75.8337 559.999 75.8337C559.999 75.8337 559.999 75.8337 559.999 75.8337C559.999 75.8337 559.999 75.8337 559.999 75.8337H559.999C559.999 75.8337 559.999 75.8337 559.999 75.8337C559.999 75.8337 559.999 75.8337 559.999 75.8337C559.999 75.8337 559.999 75.8337 559.999 75.8337H559.999C559.999 75.8337 559.999 75.8337 559.999 75.8337C559.999 75.8337 559.999 75.8337 559.999 75.8337C559.999 75.8337 559.999 75.8337 559.999 75.8337H559.999C560 75.8337 560 75.8337 560 75.8337C560 75.8337 560 75.8337 560 75.8337C560 75.8337 560 75.8337 560 75.8337H560C560 75.8337 560 75.8337 560 75.8337C560 75.8337 560 75.8337 560 75.8337C560 75.8337 560 75.8337 560 75.8337H560C560 75.8337 560 75.8337 560 75.8337V72.8337ZM559.989 72.8337C520.594 72.8337 488.583 41.218 487.945 1.97562L484.946 2.02438C485.61 42.9017 518.953 75.8337 559.989 75.8337V72.8337Z" fill="url(#paint0_angular)"/>
<path d="M3.26819 74.3331V61.8741C31.3097 61.8741 61.8439 36.9559 61.8439 3.31641H75.5531" stroke="#BB8C3C"/>
<path d="M2 90.931C44.8003 90.931 91.405 53.1088 91.405 2.04883" stroke="#BB8C3C"/>
<path d="M90.7709 17.2656H17.2179V89.5505" stroke="#BB8C3C"/>
<path d="M472.486 17.2656H546.039V89.5505" stroke="#BB8C3C"/>
<path d="M560.623 90.931C517.822 90.931 471.218 53.1088 471.218 2.04883" stroke="#BB8C3C"/>
<path d="M558.72 74.3331V61.8741C530.679 61.8741 500.145 36.9559 500.145 3.31641H486.436" stroke="#BB8C3C"/>
<defs>
<radialGradient id="paint0_angular" cx="0" cy="0" r="1" gradientUnits="userSpaceOnUse" gradientTransform="translate(281 290.5) rotate(90) scale(288.5 279)">
<stop offset="0.312582" stop-color="#D4C18B"/>
<stop offset="0.402335" stop-color="#765C29"/>
<stop offset="0.597142" stop-color="#765C29"/>
<stop offset="0.691398" stop-color="#D4C18B"/>
<stop offset="0.999357" stop-color="#443916"/>
</radialGradient>
</defs>
</svg>
