<svg width="560" height="150" viewBox="0 0 560 150" fill="none" xmlns="http://www.w3.org/2000/svg">
<mask id="mask0" style="mask-type:alpha" maskUnits="userSpaceOnUse" x="0" y="0" width="560" height="150">
<rect width="560" height="150" fill="#C9AC6A"/>
</mask>
<g mask="url(#mask0)">
<g filter="url(#filter0_d)">
<path d="M1.26819 73.3341V60.875C29.3097 60.875 59.8439 35.9569 59.8439 2.31738H73.5531" stroke="#BB8C3C"/>
<path d="M556.72 73.3341V60.875C528.679 60.875 498.145 35.9569 498.145 2.31738H484.436" stroke="#BB8C3C"/>
<path fill-rule="evenodd" clip-rule="evenodd" d="M484.445 1H73.5431C72.8921 41.0598 40.215 73.3337 0 73.3337L3.05176e-05 568C3.05176e-05 573.523 4.47718 578 10 578H279H548C553.523 578 558 573.523 558 568V73.3337C557.996 73.3337 557.992 73.3337 557.989 73.3337C517.774 73.3337 485.097 41.0598 484.445 1Z" fill="#0D1F30"/>
<path d="M484.445 1L485.945 0.975624L485.921 -0.5H484.445V1ZM73.5431 1V-0.5H72.0673L72.0433 0.975624L73.5431 1ZM0 73.3337V71.8337H-1.5L-1.5 73.3337L0 73.3337ZM3.05176e-05 568L1.50003 568L1.50003 568L3.05176e-05 568ZM558 73.3337H559.5V71.8337H558V73.3337ZM484.445 -0.5H73.5431V2.5H484.445V-0.5ZM72.0433 0.975624C71.4055 40.218 39.3947 71.8337 0 71.8337V74.8337C41.0353 74.8337 74.3786 41.9017 75.0429 1.02438L72.0433 0.975624ZM-1.5 73.3337L-1.49997 568L1.50003 568L1.5 73.3337L-1.5 73.3337ZM-1.49997 568C-1.49997 574.351 3.64876 579.5 10 579.5V576.5C5.30561 576.5 1.50003 572.694 1.50003 568H-1.49997ZM10 579.5H279V576.5H10V579.5ZM279 579.5H548V576.5H279V579.5ZM548 579.5C554.351 579.5 559.5 574.351 559.5 568H556.5C556.5 572.694 552.694 576.5 548 576.5V579.5ZM559.5 568V73.3337H556.5V568H559.5ZM558 71.8337C558 71.8337 558 71.8337 558 71.8337C558 71.8337 558 71.8337 558 71.8337C558 71.8337 558 71.8337 558 71.8337C558 71.8337 558 71.8337 558 71.8337C558 71.8337 558 71.8337 558 71.8337C558 71.8337 558 71.8337 558 71.8337C558 71.8337 558 71.8337 558 71.8337C558 71.8337 558 71.8337 558 71.8337C558 71.8337 558 71.8337 558 71.8337C558 71.8337 558 71.8337 558 71.8337C558 71.8337 558 71.8337 558 71.8337C558 71.8337 558 71.8337 558 71.8337C558 71.8337 558 71.8337 558 71.8337C558 71.8337 558 71.8337 558 71.8337C558 71.8337 558 71.8337 558 71.8337C558 71.8337 558 71.8337 558 71.8337C558 71.8337 558 71.8337 558 71.8337C558 71.8337 558 71.8337 558 71.8337C558 71.8337 558 71.8337 558 71.8337C558 71.8337 558 71.8337 558 71.8337C558 71.8337 558 71.8337 558 71.8337C558 71.8337 558 71.8337 558 71.8337C558 71.8337 558 71.8337 557.999 71.8337C557.999 71.8337 557.999 71.8337 557.999 71.8337C557.999 71.8337 557.999 71.8337 557.999 71.8337C557.999 71.8337 557.999 71.8337 557.999 71.8337C557.999 71.8337 557.999 71.8337 557.999 71.8337C557.999 71.8337 557.999 71.8337 557.999 71.8337C557.999 71.8337 557.999 71.8337 557.999 71.8337C557.999 71.8337 557.999 71.8337 557.999 71.8337C557.999 71.8337 557.999 71.8337 557.999 71.8337C557.999 71.8337 557.999 71.8337 557.999 71.8337C557.999 71.8337 557.999 71.8337 557.999 71.8337C557.999 71.8337 557.999 71.8337 557.999 71.8337C557.999 71.8337 557.999 71.8337 557.999 71.8337C557.999 71.8337 557.999 71.8337 557.999 71.8337C557.999 71.8337 557.999 71.8337 557.999 71.8337C557.999 71.8337 557.999 71.8337 557.999 71.8337C557.999 71.8337 557.999 71.8337 557.999 71.8337C557.999 71.8337 557.999 71.8337 557.999 71.8337C557.999 71.8337 557.999 71.8337 557.999 71.8337C557.999 71.8337 557.999 71.8337 557.999 71.8337C557.999 71.8337 557.999 71.8337 557.999 71.8337C557.999 71.8337 557.999 71.8337 557.999 71.8337C557.999 71.8337 557.999 71.8337 557.999 71.8337C557.999 71.8337 557.999 71.8337 557.999 71.8337C557.999 71.8337 557.999 71.8337 557.999 71.8337C557.999 71.8337 557.999 71.8337 557.999 71.8337C557.999 71.8337 557.999 71.8337 557.999 71.8337C557.999 71.8337 557.999 71.8337 557.999 71.8337C557.999 71.8337 557.999 71.8337 557.999 71.8337C557.999 71.8337 557.999 71.8337 557.999 71.8337C557.999 71.8337 557.999 71.8337 557.999 71.8337C557.999 71.8337 557.999 71.8337 557.999 71.8337C557.999 71.8337 557.999 71.8337 557.999 71.8337C557.999 71.8337 557.999 71.8337 557.999 71.8337C557.999 71.8337 557.999 71.8337 557.999 71.8337C557.999 71.8337 557.999 71.8337 557.999 71.8337C557.999 71.8337 557.999 71.8337 557.999 71.8337C557.999 71.8337 557.999 71.8337 557.999 71.8337C557.999 71.8337 557.999 71.8337 557.999 71.8337C557.999 71.8337 557.999 71.8337 557.999 71.8337C557.999 71.8337 557.999 71.8337 557.999 71.8337C557.999 71.8337 557.999 71.8337 557.999 71.8337C557.999 71.8337 557.999 71.8337 557.999 71.8337C557.999 71.8337 557.999 71.8337 557.999 71.8337C557.999 71.8337 557.999 71.8337 557.999 71.8337C557.999 71.8337 557.999 71.8337 557.998 71.8337C557.998 71.8337 557.998 71.8337 557.998 71.8337C557.998 71.8337 557.998 71.8337 557.998 71.8337C557.998 71.8337 557.998 71.8337 557.998 71.8337C557.998 71.8337 557.998 71.8337 557.998 71.8337C557.998 71.8337 557.998 71.8337 557.998 71.8337C557.998 71.8337 557.998 71.8337 557.998 71.8337C557.998 71.8337 557.998 71.8337 557.998 71.8337C557.998 71.8337 557.998 71.8337 557.998 71.8337C557.998 71.8337 557.998 71.8337 557.998 71.8337C557.998 71.8337 557.998 71.8337 557.998 71.8337C557.998 71.8337 557.998 71.8337 557.998 71.8337C557.998 71.8337 557.998 71.8337 557.998 71.8337C557.998 71.8337 557.998 71.8337 557.998 71.8337C557.998 71.8337 557.998 71.8337 557.998 71.8337C557.998 71.8337 557.998 71.8337 557.998 71.8337C557.998 71.8337 557.998 71.8337 557.998 71.8337C557.998 71.8337 557.998 71.8337 557.998 71.8337C557.998 71.8337 557.998 71.8337 557.998 71.8337C557.998 71.8337 557.998 71.8337 557.998 71.8337C557.998 71.8337 557.998 71.8337 557.998 71.8337C557.998 71.8337 557.998 71.8337 557.998 71.8337C557.998 71.8337 557.998 71.8337 557.998 71.8337C557.998 71.8337 557.998 71.8337 557.998 71.8337C557.998 71.8337 557.998 71.8337 557.998 71.8337C557.998 71.8337 557.998 71.8337 557.998 71.8337C557.998 71.8337 557.998 71.8337 557.998 71.8337C557.998 71.8337 557.998 71.8337 557.998 71.8337C557.998 71.8337 557.998 71.8337 557.998 71.8337C557.998 71.8337 557.998 71.8337 557.998 71.8337C557.998 71.8337 557.998 71.8337 557.998 71.8337C557.998 71.8337 557.998 71.8337 557.998 71.8337C557.998 71.8337 557.998 71.8337 557.998 71.8337C557.998 71.8337 557.998 71.8337 557.998 71.8337C557.998 71.8337 557.998 71.8337 557.998 71.8337C557.998 71.8337 557.998 71.8337 557.998 71.8337C557.998 71.8337 557.998 71.8337 557.998 71.8337C557.998 71.8337 557.998 71.8337 557.998 71.8337C557.998 71.8337 557.998 71.8337 557.998 71.8337C557.998 71.8337 557.998 71.8337 557.998 71.8337C557.998 71.8337 557.998 71.8337 557.998 71.8337C557.998 71.8337 557.998 71.8337 557.998 71.8337C557.998 71.8337 557.998 71.8337 557.998 71.8337C557.998 71.8337 557.998 71.8337 557.998 71.8337C557.998 71.8337 557.998 71.8337 557.998 71.8337C557.998 71.8337 557.998 71.8337 557.997 71.8337C557.997 71.8337 557.997 71.8337 557.997 71.8337C557.997 71.8337 557.997 71.8337 557.997 71.8337C557.997 71.8337 557.997 71.8337 557.997 71.8337C557.997 71.8337 557.997 71.8337 557.997 71.8337C557.997 71.8337 557.997 71.8337 557.997 71.8337C557.997 71.8337 557.997 71.8337 557.997 71.8337C557.997 71.8337 557.997 71.8337 557.997 71.8337C557.997 71.8337 557.997 71.8337 557.997 71.8337C557.997 71.8337 557.997 71.8337 557.997 71.8337C557.997 71.8337 557.997 71.8337 557.997 71.8337C557.997 71.8337 557.997 71.8337 557.997 71.8337C557.997 71.8337 557.997 71.8337 557.997 71.8337C557.997 71.8337 557.997 71.8337 557.997 71.8337C557.997 71.8337 557.997 71.8337 557.997 71.8337C557.997 71.8337 557.997 71.8337 557.997 71.8337C557.997 71.8337 557.997 71.8337 557.997 71.8337C557.997 71.8337 557.997 71.8337 557.997 71.8337C557.997 71.8337 557.997 71.8337 557.997 71.8337C557.997 71.8337 557.997 71.8337 557.997 71.8337C557.997 71.8337 557.997 71.8337 557.997 71.8337C557.997 71.8337 557.997 71.8337 557.997 71.8337C557.997 71.8337 557.997 71.8337 557.997 71.8337C557.997 71.8337 557.997 71.8337 557.997 71.8337C557.997 71.8337 557.997 71.8337 557.997 71.8337C557.997 71.8337 557.997 71.8337 557.997 71.8337C557.997 71.8337 557.997 71.8337 557.997 71.8337C557.997 71.8337 557.997 71.8337 557.997 71.8337C557.997 71.8337 557.997 71.8337 557.997 71.8337C557.997 71.8337 557.997 71.8337 557.997 71.8337C557.997 71.8337 557.997 71.8337 557.997 71.8337C557.997 71.8337 557.997 71.8337 557.997 71.8337C557.997 71.8337 557.997 71.8337 557.997 71.8337C557.997 71.8337 557.997 71.8337 557.997 71.8337C557.997 71.8337 557.997 71.8337 557.997 71.8337C557.997 71.8337 557.997 71.8337 557.997 71.8337C557.997 71.8337 557.997 71.8337 557.997 71.8337C557.997 71.8337 557.997 71.8337 557.997 71.8337C557.997 71.8337 557.997 71.8337 557.997 71.8337C557.997 71.8337 557.997 71.8337 557.997 71.8337C557.997 71.8337 557.997 71.8337 557.997 71.8337C557.997 71.8337 557.997 71.8337 557.997 71.8337C557.997 71.8337 557.997 71.8337 557.997 71.8337C557.997 71.8337 557.997 71.8337 557.997 71.8337C557.997 71.8337 557.997 71.8337 557.997 71.8337C557.997 71.8337 557.996 71.8337 557.996 71.8337C557.996 71.8337 557.996 71.8337 557.996 71.8337C557.996 71.8337 557.996 71.8337 557.996 71.8337C557.996 71.8337 557.996 71.8337 557.996 71.8337C557.996 71.8337 557.996 71.8337 557.996 71.8337C557.996 71.8337 557.996 71.8337 557.996 71.8337C557.996 71.8337 557.996 71.8337 557.996 71.8337C557.996 71.8337 557.996 71.8337 557.996 71.8337C557.996 71.8337 557.996 71.8337 557.996 71.8337C557.996 71.8337 557.996 71.8337 557.996 71.8337C557.996 71.8337 557.996 71.8337 557.996 71.8337C557.996 71.8337 557.996 71.8337 557.996 71.8337C557.996 71.8337 557.996 71.8337 557.996 71.8337C557.996 71.8337 557.996 71.8337 557.996 71.8337C557.996 71.8337 557.996 71.8337 557.996 71.8337C557.996 71.8337 557.996 71.8337 557.996 71.8337C557.996 71.8337 557.996 71.8337 557.996 71.8337C557.996 71.8337 557.996 71.8337 557.996 71.8337C557.996 71.8337 557.996 71.8337 557.996 71.8337C557.996 71.8337 557.996 71.8337 557.996 71.8337C557.996 71.8337 557.996 71.8337 557.996 71.8337C557.996 71.8337 557.996 71.8337 557.996 71.8337C557.996 71.8337 557.996 71.8337 557.996 71.8337C557.996 71.8337 557.996 71.8337 557.996 71.8337C557.996 71.8337 557.996 71.8337 557.996 71.8337C557.996 71.8337 557.996 71.8337 557.996 71.8337C557.996 71.8337 557.996 71.8337 557.996 71.8337C557.996 71.8337 557.996 71.8337 557.996 71.8337C557.996 71.8337 557.996 71.8337 557.996 71.8337C557.996 71.8337 557.996 71.8337 557.996 71.8337C557.996 71.8337 557.996 71.8337 557.996 71.8337C557.996 71.8337 557.996 71.8337 557.996 71.8337C557.996 71.8337 557.996 71.8337 557.996 71.8337C557.996 71.8337 557.996 71.8337 557.996 71.8337C557.996 71.8337 557.996 71.8337 557.996 71.8337C557.996 71.8337 557.996 71.8337 557.996 71.8337C557.996 71.8337 557.996 71.8337 557.996 71.8337C557.996 71.8337 557.996 71.8337 557.996 71.8337C557.996 71.8337 557.996 71.8337 557.996 71.8337C557.996 71.8337 557.996 71.8337 557.996 71.8337C557.996 71.8337 557.996 71.8337 557.996 71.8337C557.996 71.8337 557.996 71.8337 557.996 71.8337C557.996 71.8337 557.996 71.8337 557.996 71.8337C557.996 71.8337 557.996 71.8337 557.996 71.8337C557.996 71.8337 557.996 71.8337 557.996 71.8337C557.996 71.8337 557.995 71.8337 557.995 71.8337C557.995 71.8337 557.995 71.8337 557.995 71.8337C557.995 71.8337 557.995 71.8337 557.995 71.8337C557.995 71.8337 557.995 71.8337 557.995 71.8337C557.995 71.8337 557.995 71.8337 557.995 71.8337C557.995 71.8337 557.995 71.8337 557.995 71.8337C557.995 71.8337 557.995 71.8337 557.995 71.8337C557.995 71.8337 557.995 71.8337 557.995 71.8337C557.995 71.8337 557.995 71.8337 557.995 71.8337C557.995 71.8337 557.995 71.8337 557.995 71.8337C557.995 71.8337 557.995 71.8337 557.995 71.8337C557.995 71.8337 557.995 71.8337 557.995 71.8337C557.995 71.8337 557.995 71.8337 557.995 71.8337C557.995 71.8337 557.995 71.8337 557.995 71.8337C557.995 71.8337 557.995 71.8337 557.995 71.8337C557.995 71.8337 557.995 71.8337 557.995 71.8337C557.995 71.8337 557.995 71.8337 557.995 71.8337C557.995 71.8337 557.995 71.8337 557.995 71.8337C557.995 71.8337 557.995 71.8337 557.995 71.8337C557.995 71.8337 557.995 71.8337 557.995 71.8337C557.995 71.8337 557.995 71.8337 557.995 71.8337C557.995 71.8337 557.995 71.8337 557.995 71.8337C557.995 71.8337 557.995 71.8337 557.995 71.8337C557.995 71.8337 557.995 71.8337 557.995 71.8337C557.995 71.8337 557.995 71.8337 557.995 71.8337C557.995 71.8337 557.995 71.8337 557.995 71.8337C557.995 71.8337 557.995 71.8337 557.995 71.8337C557.995 71.8337 557.995 71.8337 557.995 71.8337C557.995 71.8337 557.995 71.8337 557.995 71.8337C557.995 71.8337 557.995 71.8337 557.995 71.8337C557.995 71.8337 557.995 71.8337 557.995 71.8337C557.995 71.8337 557.995 71.8337 557.995 71.8337C557.995 71.8337 557.995 71.8337 557.995 71.8337C557.995 71.8337 557.995 71.8337 557.995 71.8337C557.995 71.8337 557.995 71.8337 557.995 71.8337C557.995 71.8337 557.995 71.8337 557.995 71.8337C557.995 71.8337 557.995 71.8337 557.995 71.8337C557.995 71.8337 557.995 71.8337 557.995 71.8337C557.995 71.8337 557.995 71.8337 557.995 71.8337C557.995 71.8337 557.995 71.8337 557.995 71.8337C557.995 71.8337 557.995 71.8337 557.995 71.8337C557.995 71.8337 557.995 71.8337 557.995 71.8337C557.995 71.8337 557.995 71.8337 557.995 71.8337C557.995 71.8337 557.995 71.8337 557.995 71.8337C557.995 71.8337 557.995 71.8337 557.995 71.8337C557.994 71.8337 557.994 71.8337 557.994 71.8337C557.994 71.8337 557.994 71.8337 557.994 71.8337C557.994 71.8337 557.994 71.8337 557.994 71.8337C557.994 71.8337 557.994 71.8337 557.994 71.8337C557.994 71.8337 557.994 71.8337 557.994 71.8337C557.994 71.8337 557.994 71.8337 557.994 71.8337C557.994 71.8337 557.994 71.8337 557.994 71.8337C557.994 71.8337 557.994 71.8337 557.994 71.8337C557.994 71.8337 557.994 71.8337 557.994 71.8337C557.994 71.8337 557.994 71.8337 557.994 71.8337C557.994 71.8337 557.994 71.8337 557.994 71.8337C557.994 71.8337 557.994 71.8337 557.994 71.8337C557.994 71.8337 557.994 71.8337 557.994 71.8337C557.994 71.8337 557.994 71.8337 557.994 71.8337C557.994 71.8337 557.994 71.8337 557.994 71.8337C557.994 71.8337 557.994 71.8337 557.994 71.8337C557.994 71.8337 557.994 71.8337 557.994 71.8337C557.994 71.8337 557.994 71.8337 557.994 71.8337C557.994 71.8337 557.994 71.8337 557.994 71.8337C557.994 71.8337 557.994 71.8337 557.994 71.8337C557.994 71.8337 557.994 71.8337 557.994 71.8337C557.994 71.8337 557.994 71.8337 557.994 71.8337C557.994 71.8337 557.994 71.8337 557.994 71.8337C557.994 71.8337 557.994 71.8337 557.994 71.8337C557.994 71.8337 557.994 71.8337 557.994 71.8337C557.994 71.8337 557.994 71.8337 557.994 71.8337C557.994 71.8337 557.994 71.8337 557.994 71.8337C557.994 71.8337 557.994 71.8337 557.994 71.8337C557.994 71.8337 557.994 71.8337 557.994 71.8337C557.994 71.8337 557.994 71.8337 557.994 71.8337C557.994 71.8337 557.994 71.8337 557.994 71.8337C557.994 71.8337 557.994 71.8337 557.994 71.8337C557.994 71.8337 557.994 71.8337 557.994 71.8337C557.994 71.8337 557.994 71.8337 557.994 71.8337C557.994 71.8337 557.994 71.8337 557.994 71.8337C557.994 71.8337 557.994 71.8337 557.994 71.8337C557.994 71.8337 557.994 71.8337 557.994 71.8337C557.994 71.8337 557.994 71.8337 557.994 71.8337C557.994 71.8337 557.994 71.8337 557.994 71.8337C557.994 71.8337 557.994 71.8337 557.994 71.8337C557.994 71.8337 557.994 71.8337 557.994 71.8337C557.994 71.8337 557.994 71.8337 557.994 71.8337C557.994 71.8337 557.994 71.8337 557.994 71.8337C557.994 71.8337 557.994 71.8337 557.994 71.8337C557.994 71.8337 557.994 71.8337 557.993 71.8337C557.993 71.8337 557.993 71.8337 557.993 71.8337C557.993 71.8337 557.993 71.8337 557.993 71.8337C557.993 71.8337 557.993 71.8337 557.993 71.8337C557.993 71.8337 557.993 71.8337 557.993 71.8337C557.993 71.8337 557.993 71.8337 557.993 71.8337C557.993 71.8337 557.993 71.8337 557.993 71.8337C557.993 71.8337 557.993 71.8337 557.993 71.8337C557.993 71.8337 557.993 71.8337 557.993 71.8337C557.993 71.8337 557.993 71.8337 557.993 71.8337C557.993 71.8337 557.993 71.8337 557.993 71.8337C557.993 71.8337 557.993 71.8337 557.993 71.8337C557.993 71.8337 557.993 71.8337 557.993 71.8337C557.993 71.8337 557.993 71.8337 557.993 71.8337C557.993 71.8337 557.993 71.8337 557.993 71.8337C557.993 71.8337 557.993 71.8337 557.993 71.8337C557.993 71.8337 557.993 71.8337 557.993 71.8337C557.993 71.8337 557.993 71.8337 557.993 71.8337C557.993 71.8337 557.993 71.8337 557.993 71.8337C557.993 71.8337 557.993 71.8337 557.993 71.8337C557.993 71.8337 557.993 71.8337 557.993 71.8337C557.993 71.8337 557.993 71.8337 557.993 71.8337C557.993 71.8337 557.993 71.8337 557.993 71.8337C557.993 71.8337 557.993 71.8337 557.993 71.8337C557.993 71.8337 557.993 71.8337 557.993 71.8337C557.993 71.8337 557.993 71.8337 557.993 71.8337C557.993 71.8337 557.993 71.8337 557.993 71.8337C557.993 71.8337 557.993 71.8337 557.993 71.8337C557.993 71.8337 557.993 71.8337 557.993 71.8337C557.993 71.8337 557.993 71.8337 557.993 71.8337C557.993 71.8337 557.993 71.8337 557.993 71.8337C557.993 71.8337 557.993 71.8337 557.993 71.8337C557.993 71.8337 557.993 71.8337 557.993 71.8337C557.993 71.8337 557.993 71.8337 557.993 71.8337C557.993 71.8337 557.993 71.8337 557.993 71.8337C557.993 71.8337 557.993 71.8337 557.993 71.8337C557.993 71.8337 557.993 71.8337 557.993 71.8337C557.993 71.8337 557.993 71.8337 557.993 71.8337C557.993 71.8337 557.993 71.8337 557.993 71.8337C557.993 71.8337 557.993 71.8337 557.993 71.8337C557.993 71.8337 557.993 71.8337 557.993 71.8337C557.993 71.8337 557.993 71.8337 557.993 71.8337C557.993 71.8337 557.993 71.8337 557.993 71.8337C557.993 71.8337 557.993 71.8337 557.993 71.8337C557.993 71.8337 557.993 71.8337 557.993 71.8337C557.993 71.8337 557.992 71.8337 557.992 71.8337C557.992 71.8337 557.992 71.8337 557.992 71.8337C557.992 71.8337 557.992 71.8337 557.992 71.8337C557.992 71.8337 557.992 71.8337 557.992 71.8337C557.992 71.8337 557.992 71.8337 557.992 71.8337C557.992 71.8337 557.992 71.8337 557.992 71.8337C557.992 71.8337 557.992 71.8337 557.992 71.8337C557.992 71.8337 557.992 71.8337 557.992 71.8337C557.992 71.8337 557.992 71.8337 557.992 71.8337C557.992 71.8337 557.992 71.8337 557.992 71.8337C557.992 71.8337 557.992 71.8337 557.992 71.8337C557.992 71.8337 557.992 71.8337 557.992 71.8337C557.992 71.8337 557.992 71.8337 557.992 71.8337C557.992 71.8337 557.992 71.8337 557.992 71.8337C557.992 71.8337 557.992 71.8337 557.992 71.8337C557.992 71.8337 557.992 71.8337 557.992 71.8337C557.992 71.8337 557.992 71.8337 557.992 71.8337C557.992 71.8337 557.992 71.8337 557.992 71.8337C557.992 71.8337 557.992 71.8337 557.992 71.8337C557.992 71.8337 557.992 71.8337 557.992 71.8337C557.992 71.8337 557.992 71.8337 557.992 71.8337C557.992 71.8337 557.992 71.8337 557.992 71.8337C557.992 71.8337 557.992 71.8337 557.992 71.8337C557.992 71.8337 557.992 71.8337 557.992 71.8337C557.992 71.8337 557.992 71.8337 557.992 71.8337C557.992 71.8337 557.992 71.8337 557.992 71.8337C557.992 71.8337 557.992 71.8337 557.992 71.8337C557.992 71.8337 557.992 71.8337 557.992 71.8337C557.992 71.8337 557.992 71.8337 557.992 71.8337C557.992 71.8337 557.992 71.8337 557.992 71.8337C557.992 71.8337 557.992 71.8337 557.992 71.8337C557.992 71.8337 557.992 71.8337 557.992 71.8337C557.992 71.8337 557.992 71.8337 557.992 71.8337C557.992 71.8337 557.992 71.8337 557.992 71.8337C557.992 71.8337 557.992 71.8337 557.992 71.8337C557.992 71.8337 557.992 71.8337 557.992 71.8337C557.992 71.8337 557.992 71.8337 557.992 71.8337C557.992 71.8337 557.992 71.8337 557.992 71.8337C557.992 71.8337 557.992 71.8337 557.992 71.8337C557.992 71.8337 557.992 71.8337 557.992 71.8337C557.992 71.8337 557.992 71.8337 557.992 71.8337C557.992 71.8337 557.992 71.8337 557.992 71.8337C557.992 71.8337 557.992 71.8337 557.992 71.8337C557.992 71.8337 557.992 71.8337 557.992 71.8337C557.992 71.8337 557.992 71.8337 557.992 71.8337C557.992 71.8337 557.991 71.8337 557.991 71.8337C557.991 71.8337 557.991 71.8337 557.991 71.8337C557.991 71.8337 557.991 71.8337 557.991 71.8337C557.991 71.8337 557.991 71.8337 557.991 71.8337C557.991 71.8337 557.991 71.8337 557.991 71.8337C557.991 71.8337 557.991 71.8337 557.991 71.8337C557.991 71.8337 557.991 71.8337 557.991 71.8337C557.991 71.8337 557.991 71.8337 557.991 71.8337C557.991 71.8337 557.991 71.8337 557.991 71.8337C557.991 71.8337 557.991 71.8337 557.991 71.8337C557.991 71.8337 557.991 71.8337 557.991 71.8337C557.991 71.8337 557.991 71.8337 557.991 71.8337C557.991 71.8337 557.991 71.8337 557.991 71.8337C557.991 71.8337 557.991 71.8337 557.991 71.8337C557.991 71.8337 557.991 71.8337 557.991 71.8337C557.991 71.8337 557.991 71.8337 557.991 71.8337C557.991 71.8337 557.991 71.8337 557.991 71.8337C557.991 71.8337 557.991 71.8337 557.991 71.8337C557.991 71.8337 557.991 71.8337 557.991 71.8337C557.991 71.8337 557.991 71.8337 557.991 71.8337C557.991 71.8337 557.991 71.8337 557.991 71.8337C557.991 71.8337 557.991 71.8337 557.991 71.8337C557.991 71.8337 557.991 71.8337 557.991 71.8337C557.991 71.8337 557.991 71.8337 557.991 71.8337C557.991 71.8337 557.991 71.8337 557.991 71.8337C557.991 71.8337 557.991 71.8337 557.991 71.8337C557.991 71.8337 557.991 71.8337 557.991 71.8337C557.991 71.8337 557.991 71.8337 557.991 71.8337C557.991 71.8337 557.991 71.8337 557.991 71.8337C557.991 71.8337 557.991 71.8337 557.991 71.8337C557.991 71.8337 557.991 71.8337 557.991 71.8337C557.991 71.8337 557.991 71.8337 557.991 71.8337C557.991 71.8337 557.991 71.8337 557.991 71.8337C557.991 71.8337 557.991 71.8337 557.991 71.8337C557.991 71.8337 557.991 71.8337 557.991 71.8337C557.991 71.8337 557.991 71.8337 557.991 71.8337C557.991 71.8337 557.991 71.8337 557.991 71.8337C557.991 71.8337 557.991 71.8337 557.991 71.8337C557.991 71.8337 557.991 71.8337 557.991 71.8337C557.991 71.8337 557.991 71.8337 557.991 71.8337C557.991 71.8337 557.991 71.8337 557.991 71.8337C557.991 71.8337 557.991 71.8337 557.991 71.8337C557.991 71.8337 557.991 71.8337 557.991 71.8337C557.991 71.8337 557.991 71.8337 557.991 71.8337C557.991 71.8337 557.991 71.8337 557.991 71.8337C557.99 71.8337 557.99 71.8337 557.99 71.8337C557.99 71.8337 557.99 71.8337 557.99 71.8337C557.99 71.8337 557.99 71.8337 557.99 71.8337C557.99 71.8337 557.99 71.8337 557.99 71.8337C557.99 71.8337 557.99 71.8337 557.99 71.8337C557.99 71.8337 557.99 71.8337 557.99 71.8337C557.99 71.8337 557.99 71.8337 557.99 71.8337C557.99 71.8337 557.99 71.8337 557.99 71.8337C557.99 71.8337 557.99 71.8337 557.99 71.8337C557.99 71.8337 557.99 71.8337 557.99 71.8337C557.99 71.8337 557.99 71.8337 557.99 71.8337C557.99 71.8337 557.99 71.8337 557.99 71.8337C557.99 71.8337 557.99 71.8337 557.99 71.8337C557.99 71.8337 557.99 71.8337 557.99 71.8337C557.99 71.8337 557.99 71.8337 557.99 71.8337C557.99 71.8337 557.99 71.8337 557.99 71.8337C557.99 71.8337 557.99 71.8337 557.99 71.8337C557.99 71.8337 557.99 71.8337 557.99 71.8337C557.99 71.8337 557.99 71.8337 557.99 71.8337C557.99 71.8337 557.99 71.8337 557.99 71.8337C557.99 71.8337 557.99 71.8337 557.99 71.8337C557.99 71.8337 557.99 71.8337 557.99 71.8337C557.99 71.8337 557.99 71.8337 557.99 71.8337C557.99 71.8337 557.99 71.8337 557.99 71.8337C557.99 71.8337 557.99 71.8337 557.99 71.8337C557.99 71.8337 557.99 71.8337 557.99 71.8337C557.99 71.8337 557.99 71.8337 557.99 71.8337C557.99 71.8337 557.99 71.8337 557.99 71.8337C557.99 71.8337 557.99 71.8337 557.99 71.8337C557.99 71.8337 557.99 71.8337 557.99 71.8337C557.99 71.8337 557.99 71.8337 557.99 71.8337C557.99 71.8337 557.99 71.8337 557.99 71.8337C557.99 71.8337 557.99 71.8337 557.99 71.8337C557.99 71.8337 557.99 71.8337 557.99 71.8337C557.99 71.8337 557.99 71.8337 557.99 71.8337C557.99 71.8337 557.99 71.8337 557.99 71.8337C557.99 71.8337 557.99 71.8337 557.99 71.8337C557.99 71.8337 557.99 71.8337 557.99 71.8337C557.99 71.8337 557.99 71.8337 557.99 71.8337C557.99 71.8337 557.99 71.8337 557.99 71.8337C557.99 71.8337 557.99 71.8337 557.99 71.8337C557.99 71.8337 557.99 71.8337 557.99 71.8337C557.99 71.8337 557.99 71.8337 557.99 71.8337C557.99 71.8337 557.99 71.8337 557.99 71.8337C557.99 71.8337 557.99 71.8337 557.99 71.8337C557.989 71.8337 557.989 71.8337 557.989 71.8337C557.989 71.8337 557.989 71.8337 557.989 71.8337C557.989 71.8337 557.989 71.8337 557.989 71.8337C557.989 71.8337 557.989 71.8337 557.989 71.8337C557.989 71.8337 557.989 71.8337 557.989 71.8337C557.989 71.8337 557.989 71.8337 557.989 71.8337C557.989 71.8337 557.989 71.8337 557.989 71.8337C557.989 71.8337 557.989 71.8337 557.989 71.8337C557.989 71.8337 557.989 71.8337 557.989 71.8337C557.989 71.8337 557.989 71.8337 557.989 71.8337C557.989 71.8337 557.989 71.8337 557.989 71.8337C557.989 71.8337 557.989 71.8337 557.989 71.8337C557.989 71.8337 557.989 71.8337 557.989 71.8337C557.989 71.8337 557.989 71.8337 557.989 71.8337C557.989 71.8337 557.989 71.8337 557.989 71.8337C557.989 71.8337 557.989 71.8337 557.989 71.8337C557.989 71.8337 557.989 71.8337 557.989 71.8337C557.989 71.8337 557.989 71.8337 557.989 71.8337C557.989 71.8337 557.989 71.8337 557.989 71.8337C557.989 71.8337 557.989 71.8337 557.989 71.8337C557.989 71.8337 557.989 71.8337 557.989 71.8337C557.989 71.8337 557.989 71.8337 557.989 71.8337C557.989 71.8337 557.989 71.8337 557.989 71.8337C557.989 71.8337 557.989 71.8337 557.989 71.8337C557.989 71.8337 557.989 71.8337 557.989 71.8337C557.989 71.8337 557.989 71.8337 557.989 71.8337C557.989 71.8337 557.989 71.8337 557.989 71.8337C557.989 71.8337 557.989 71.8337 557.989 71.8337C557.989 71.8337 557.989 71.8337 557.989 71.8337C557.989 71.8337 557.989 71.8337 557.989 71.8337C557.989 71.8337 557.989 71.8337 557.989 71.8337C557.989 71.8337 557.989 71.8337 557.989 71.8337C557.989 71.8337 557.989 71.8337 557.989 71.8337C557.989 71.8337 557.989 71.8337 557.989 71.8337C557.989 71.8337 557.989 71.8337 557.989 71.8337C557.989 71.8337 557.989 71.8337 557.989 71.8337C557.989 71.8337 557.989 71.8337 557.989 71.8337C557.989 71.8337 557.989 71.8337 557.989 71.8337C557.989 71.8337 557.989 71.8337 557.989 71.8337C557.989 71.8337 557.989 71.8337 557.989 71.8337C557.989 71.8337 557.989 71.8337 557.989 71.8337V74.8337C557.989 74.8337 557.989 74.8337 557.989 74.8337C557.989 74.8337 557.989 74.8337 557.989 74.8337C557.989 74.8337 557.989 74.8337 557.989 74.8337C557.989 74.8337 557.989 74.8337 557.989 74.8337C557.989 74.8337 557.989 74.8337 557.989 74.8337C557.989 74.8337 557.989 74.8337 557.989 74.8337C557.989 74.8337 557.989 74.8337 557.989 74.8337C557.989 74.8337 557.989 74.8337 557.989 74.8337C557.989 74.8337 557.989 74.8337 557.989 74.8337C557.989 74.8337 557.989 74.8337 557.989 74.8337C557.989 74.8337 557.989 74.8337 557.989 74.8337C557.989 74.8337 557.989 74.8337 557.989 74.8337C557.989 74.8337 557.989 74.8337 557.989 74.8337C557.989 74.8337 557.989 74.8337 557.989 74.8337C557.989 74.8337 557.989 74.8337 557.989 74.8337C557.989 74.8337 557.989 74.8337 557.989 74.8337C557.989 74.8337 557.989 74.8337 557.989 74.8337C557.989 74.8337 557.989 74.8337 557.989 74.8337C557.989 74.8337 557.989 74.8337 557.989 74.8337C557.989 74.8337 557.989 74.8337 557.989 74.8337C557.989 74.8337 557.989 74.8337 557.989 74.8337C557.989 74.8337 557.989 74.8337 557.989 74.8337C557.989 74.8337 557.989 74.8337 557.989 74.8337C557.989 74.8337 557.989 74.8337 557.989 74.8337C557.989 74.8337 557.989 74.8337 557.989 74.8337C557.989 74.8337 557.989 74.8337 557.989 74.8337C557.989 74.8337 557.989 74.8337 557.989 74.8337C557.989 74.8337 557.989 74.8337 557.989 74.8337C557.989 74.8337 557.989 74.8337 557.989 74.8337C557.989 74.8337 557.989 74.8337 557.989 74.8337C557.989 74.8337 557.989 74.8337 557.989 74.8337C557.989 74.8337 557.989 74.8337 557.989 74.8337C557.989 74.8337 557.989 74.8337 557.989 74.8337C557.989 74.8337 557.989 74.8337 557.989 74.8337C557.989 74.8337 557.989 74.8337 557.989 74.8337C557.989 74.8337 557.989 74.8337 557.989 74.8337C557.989 74.8337 557.989 74.8337 557.989 74.8337C557.989 74.8337 557.989 74.8337 557.989 74.8337C557.989 74.8337 557.989 74.8337 557.989 74.8337C557.989 74.8337 557.989 74.8337 557.989 74.8337C557.989 74.8337 557.989 74.8337 557.99 74.8337C557.99 74.8337 557.99 74.8337 557.99 74.8337C557.99 74.8337 557.99 74.8337 557.99 74.8337C557.99 74.8337 557.99 74.8337 557.99 74.8337C557.99 74.8337 557.99 74.8337 557.99 74.8337C557.99 74.8337 557.99 74.8337 557.99 74.8337C557.99 74.8337 557.99 74.8337 557.99 74.8337C557.99 74.8337 557.99 74.8337 557.99 74.8337C557.99 74.8337 557.99 74.8337 557.99 74.8337C557.99 74.8337 557.99 74.8337 557.99 74.8337C557.99 74.8337 557.99 74.8337 557.99 74.8337C557.99 74.8337 557.99 74.8337 557.99 74.8337C557.99 74.8337 557.99 74.8337 557.99 74.8337C557.99 74.8337 557.99 74.8337 557.99 74.8337C557.99 74.8337 557.99 74.8337 557.99 74.8337C557.99 74.8337 557.99 74.8337 557.99 74.8337C557.99 74.8337 557.99 74.8337 557.99 74.8337C557.99 74.8337 557.99 74.8337 557.99 74.8337C557.99 74.8337 557.99 74.8337 557.99 74.8337C557.99 74.8337 557.99 74.8337 557.99 74.8337C557.99 74.8337 557.99 74.8337 557.99 74.8337C557.99 74.8337 557.99 74.8337 557.99 74.8337C557.99 74.8337 557.99 74.8337 557.99 74.8337C557.99 74.8337 557.99 74.8337 557.99 74.8337C557.99 74.8337 557.99 74.8337 557.99 74.8337C557.99 74.8337 557.99 74.8337 557.99 74.8337C557.99 74.8337 557.99 74.8337 557.99 74.8337C557.99 74.8337 557.99 74.8337 557.99 74.8337C557.99 74.8337 557.99 74.8337 557.99 74.8337C557.99 74.8337 557.99 74.8337 557.99 74.8337C557.99 74.8337 557.99 74.8337 557.99 74.8337C557.99 74.8337 557.99 74.8337 557.99 74.8337C557.99 74.8337 557.99 74.8337 557.99 74.8337C557.99 74.8337 557.99 74.8337 557.99 74.8337C557.99 74.8337 557.99 74.8337 557.99 74.8337C557.99 74.8337 557.99 74.8337 557.99 74.8337C557.99 74.8337 557.99 74.8337 557.99 74.8337C557.99 74.8337 557.99 74.8337 557.99 74.8337C557.99 74.8337 557.99 74.8337 557.99 74.8337C557.99 74.8337 557.99 74.8337 557.99 74.8337C557.99 74.8337 557.99 74.8337 557.99 74.8337C557.99 74.8337 557.99 74.8337 557.99 74.8337C557.99 74.8337 557.99 74.8337 557.99 74.8337C557.99 74.8337 557.99 74.8337 557.99 74.8337C557.99 74.8337 557.99 74.8337 557.99 74.8337C557.99 74.8337 557.99 74.8337 557.991 74.8337C557.991 74.8337 557.991 74.8337 557.991 74.8337C557.991 74.8337 557.991 74.8337 557.991 74.8337C557.991 74.8337 557.991 74.8337 557.991 74.8337C557.991 74.8337 557.991 74.8337 557.991 74.8337C557.991 74.8337 557.991 74.8337 557.991 74.8337C557.991 74.8337 557.991 74.8337 557.991 74.8337C557.991 74.8337 557.991 74.8337 557.991 74.8337C557.991 74.8337 557.991 74.8337 557.991 74.8337C557.991 74.8337 557.991 74.8337 557.991 74.8337C557.991 74.8337 557.991 74.8337 557.991 74.8337C557.991 74.8337 557.991 74.8337 557.991 74.8337C557.991 74.8337 557.991 74.8337 557.991 74.8337C557.991 74.8337 557.991 74.8337 557.991 74.8337C557.991 74.8337 557.991 74.8337 557.991 74.8337C557.991 74.8337 557.991 74.8337 557.991 74.8337C557.991 74.8337 557.991 74.8337 557.991 74.8337C557.991 74.8337 557.991 74.8337 557.991 74.8337C557.991 74.8337 557.991 74.8337 557.991 74.8337C557.991 74.8337 557.991 74.8337 557.991 74.8337C557.991 74.8337 557.991 74.8337 557.991 74.8337C557.991 74.8337 557.991 74.8337 557.991 74.8337C557.991 74.8337 557.991 74.8337 557.991 74.8337C557.991 74.8337 557.991 74.8337 557.991 74.8337C557.991 74.8337 557.991 74.8337 557.991 74.8337C557.991 74.8337 557.991 74.8337 557.991 74.8337C557.991 74.8337 557.991 74.8337 557.991 74.8337C557.991 74.8337 557.991 74.8337 557.991 74.8337C557.991 74.8337 557.991 74.8337 557.991 74.8337C557.991 74.8337 557.991 74.8337 557.991 74.8337C557.991 74.8337 557.991 74.8337 557.991 74.8337C557.991 74.8337 557.991 74.8337 557.991 74.8337C557.991 74.8337 557.991 74.8337 557.991 74.8337C557.991 74.8337 557.991 74.8337 557.991 74.8337C557.991 74.8337 557.991 74.8337 557.991 74.8337C557.991 74.8337 557.991 74.8337 557.991 74.8337C557.991 74.8337 557.991 74.8337 557.991 74.8337C557.991 74.8337 557.991 74.8337 557.991 74.8337C557.991 74.8337 557.991 74.8337 557.991 74.8337C557.991 74.8337 557.991 74.8337 557.991 74.8337C557.991 74.8337 557.991 74.8337 557.991 74.8337C557.991 74.8337 557.991 74.8337 557.991 74.8337C557.991 74.8337 557.991 74.8337 557.991 74.8337C557.991 74.8337 557.991 74.8337 557.991 74.8337C557.991 74.8337 557.991 74.8337 557.991 74.8337C557.991 74.8337 557.992 74.8337 557.992 74.8337C557.992 74.8337 557.992 74.8337 557.992 74.8337C557.992 74.8337 557.992 74.8337 557.992 74.8337C557.992 74.8337 557.992 74.8337 557.992 74.8337C557.992 74.8337 557.992 74.8337 557.992 74.8337C557.992 74.8337 557.992 74.8337 557.992 74.8337C557.992 74.8337 557.992 74.8337 557.992 74.8337C557.992 74.8337 557.992 74.8337 557.992 74.8337C557.992 74.8337 557.992 74.8337 557.992 74.8337C557.992 74.8337 557.992 74.8337 557.992 74.8337C557.992 74.8337 557.992 74.8337 557.992 74.8337C557.992 74.8337 557.992 74.8337 557.992 74.8337C557.992 74.8337 557.992 74.8337 557.992 74.8337C557.992 74.8337 557.992 74.8337 557.992 74.8337C557.992 74.8337 557.992 74.8337 557.992 74.8337C557.992 74.8337 557.992 74.8337 557.992 74.8337C557.992 74.8337 557.992 74.8337 557.992 74.8337C557.992 74.8337 557.992 74.8337 557.992 74.8337C557.992 74.8337 557.992 74.8337 557.992 74.8337C557.992 74.8337 557.992 74.8337 557.992 74.8337C557.992 74.8337 557.992 74.8337 557.992 74.8337C557.992 74.8337 557.992 74.8337 557.992 74.8337C557.992 74.8337 557.992 74.8337 557.992 74.8337C557.992 74.8337 557.992 74.8337 557.992 74.8337C557.992 74.8337 557.992 74.8337 557.992 74.8337C557.992 74.8337 557.992 74.8337 557.992 74.8337C557.992 74.8337 557.992 74.8337 557.992 74.8337C557.992 74.8337 557.992 74.8337 557.992 74.8337C557.992 74.8337 557.992 74.8337 557.992 74.8337C557.992 74.8337 557.992 74.8337 557.992 74.8337C557.992 74.8337 557.992 74.8337 557.992 74.8337C557.992 74.8337 557.992 74.8337 557.992 74.8337C557.992 74.8337 557.992 74.8337 557.992 74.8337C557.992 74.8337 557.992 74.8337 557.992 74.8337C557.992 74.8337 557.992 74.8337 557.992 74.8337C557.992 74.8337 557.992 74.8337 557.992 74.8337C557.992 74.8337 557.992 74.8337 557.992 74.8337C557.992 74.8337 557.992 74.8337 557.992 74.8337C557.992 74.8337 557.992 74.8337 557.992 74.8337C557.992 74.8337 557.992 74.8337 557.992 74.8337C557.992 74.8337 557.992 74.8337 557.992 74.8337C557.992 74.8337 557.992 74.8337 557.992 74.8337C557.992 74.8337 557.992 74.8337 557.992 74.8337C557.992 74.8337 557.992 74.8337 557.992 74.8337C557.992 74.8337 557.992 74.8337 557.992 74.8337C557.992 74.8337 557.993 74.8337 557.993 74.8337C557.993 74.8337 557.993 74.8337 557.993 74.8337C557.993 74.8337 557.993 74.8337 557.993 74.8337C557.993 74.8337 557.993 74.8337 557.993 74.8337C557.993 74.8337 557.993 74.8337 557.993 74.8337C557.993 74.8337 557.993 74.8337 557.993 74.8337C557.993 74.8337 557.993 74.8337 557.993 74.8337C557.993 74.8337 557.993 74.8337 557.993 74.8337C557.993 74.8337 557.993 74.8337 557.993 74.8337C557.993 74.8337 557.993 74.8337 557.993 74.8337C557.993 74.8337 557.993 74.8337 557.993 74.8337C557.993 74.8337 557.993 74.8337 557.993 74.8337C557.993 74.8337 557.993 74.8337 557.993 74.8337C557.993 74.8337 557.993 74.8337 557.993 74.8337C557.993 74.8337 557.993 74.8337 557.993 74.8337C557.993 74.8337 557.993 74.8337 557.993 74.8337C557.993 74.8337 557.993 74.8337 557.993 74.8337C557.993 74.8337 557.993 74.8337 557.993 74.8337C557.993 74.8337 557.993 74.8337 557.993 74.8337C557.993 74.8337 557.993 74.8337 557.993 74.8337C557.993 74.8337 557.993 74.8337 557.993 74.8337C557.993 74.8337 557.993 74.8337 557.993 74.8337C557.993 74.8337 557.993 74.8337 557.993 74.8337C557.993 74.8337 557.993 74.8337 557.993 74.8337C557.993 74.8337 557.993 74.8337 557.993 74.8337C557.993 74.8337 557.993 74.8337 557.993 74.8337C557.993 74.8337 557.993 74.8337 557.993 74.8337C557.993 74.8337 557.993 74.8337 557.993 74.8337C557.993 74.8337 557.993 74.8337 557.993 74.8337C557.993 74.8337 557.993 74.8337 557.993 74.8337C557.993 74.8337 557.993 74.8337 557.993 74.8337C557.993 74.8337 557.993 74.8337 557.993 74.8337C557.993 74.8337 557.993 74.8337 557.993 74.8337C557.993 74.8337 557.993 74.8337 557.993 74.8337C557.993 74.8337 557.993 74.8337 557.993 74.8337C557.993 74.8337 557.993 74.8337 557.993 74.8337C557.993 74.8337 557.993 74.8337 557.993 74.8337C557.993 74.8337 557.993 74.8337 557.993 74.8337C557.993 74.8337 557.993 74.8337 557.993 74.8337C557.993 74.8337 557.993 74.8337 557.993 74.8337C557.993 74.8337 557.993 74.8337 557.993 74.8337C557.993 74.8337 557.993 74.8337 557.993 74.8337C557.993 74.8337 557.993 74.8337 557.993 74.8337C557.993 74.8337 557.993 74.8337 557.993 74.8337C557.993 74.8337 557.993 74.8337 557.993 74.8337C557.994 74.8337 557.994 74.8337 557.994 74.8337C557.994 74.8337 557.994 74.8337 557.994 74.8337C557.994 74.8337 557.994 74.8337 557.994 74.8337C557.994 74.8337 557.994 74.8337 557.994 74.8337C557.994 74.8337 557.994 74.8337 557.994 74.8337C557.994 74.8337 557.994 74.8337 557.994 74.8337C557.994 74.8337 557.994 74.8337 557.994 74.8337C557.994 74.8337 557.994 74.8337 557.994 74.8337C557.994 74.8337 557.994 74.8337 557.994 74.8337C557.994 74.8337 557.994 74.8337 557.994 74.8337C557.994 74.8337 557.994 74.8337 557.994 74.8337C557.994 74.8337 557.994 74.8337 557.994 74.8337C557.994 74.8337 557.994 74.8337 557.994 74.8337C557.994 74.8337 557.994 74.8337 557.994 74.8337C557.994 74.8337 557.994 74.8337 557.994 74.8337C557.994 74.8337 557.994 74.8337 557.994 74.8337C557.994 74.8337 557.994 74.8337 557.994 74.8337C557.994 74.8337 557.994 74.8337 557.994 74.8337C557.994 74.8337 557.994 74.8337 557.994 74.8337C557.994 74.8337 557.994 74.8337 557.994 74.8337C557.994 74.8337 557.994 74.8337 557.994 74.8337C557.994 74.8337 557.994 74.8337 557.994 74.8337C557.994 74.8337 557.994 74.8337 557.994 74.8337C557.994 74.8337 557.994 74.8337 557.994 74.8337C557.994 74.8337 557.994 74.8337 557.994 74.8337C557.994 74.8337 557.994 74.8337 557.994 74.8337C557.994 74.8337 557.994 74.8337 557.994 74.8337C557.994 74.8337 557.994 74.8337 557.994 74.8337C557.994 74.8337 557.994 74.8337 557.994 74.8337C557.994 74.8337 557.994 74.8337 557.994 74.8337C557.994 74.8337 557.994 74.8337 557.994 74.8337C557.994 74.8337 557.994 74.8337 557.994 74.8337C557.994 74.8337 557.994 74.8337 557.994 74.8337C557.994 74.8337 557.994 74.8337 557.994 74.8337C557.994 74.8337 557.994 74.8337 557.994 74.8337C557.994 74.8337 557.994 74.8337 557.994 74.8337C557.994 74.8337 557.994 74.8337 557.994 74.8337C557.994 74.8337 557.994 74.8337 557.994 74.8337C557.994 74.8337 557.994 74.8337 557.994 74.8337C557.994 74.8337 557.994 74.8337 557.994 74.8337C557.994 74.8337 557.994 74.8337 557.994 74.8337C557.994 74.8337 557.994 74.8337 557.994 74.8337C557.994 74.8337 557.994 74.8337 557.994 74.8337C557.994 74.8337 557.994 74.8337 557.994 74.8337C557.994 74.8337 557.994 74.8337 557.995 74.8337C557.995 74.8337 557.995 74.8337 557.995 74.8337C557.995 74.8337 557.995 74.8337 557.995 74.8337C557.995 74.8337 557.995 74.8337 557.995 74.8337C557.995 74.8337 557.995 74.8337 557.995 74.8337C557.995 74.8337 557.995 74.8337 557.995 74.8337C557.995 74.8337 557.995 74.8337 557.995 74.8337C557.995 74.8337 557.995 74.8337 557.995 74.8337C557.995 74.8337 557.995 74.8337 557.995 74.8337C557.995 74.8337 557.995 74.8337 557.995 74.8337C557.995 74.8337 557.995 74.8337 557.995 74.8337C557.995 74.8337 557.995 74.8337 557.995 74.8337C557.995 74.8337 557.995 74.8337 557.995 74.8337C557.995 74.8337 557.995 74.8337 557.995 74.8337C557.995 74.8337 557.995 74.8337 557.995 74.8337C557.995 74.8337 557.995 74.8337 557.995 74.8337C557.995 74.8337 557.995 74.8337 557.995 74.8337C557.995 74.8337 557.995 74.8337 557.995 74.8337C557.995 74.8337 557.995 74.8337 557.995 74.8337C557.995 74.8337 557.995 74.8337 557.995 74.8337C557.995 74.8337 557.995 74.8337 557.995 74.8337C557.995 74.8337 557.995 74.8337 557.995 74.8337C557.995 74.8337 557.995 74.8337 557.995 74.8337C557.995 74.8337 557.995 74.8337 557.995 74.8337C557.995 74.8337 557.995 74.8337 557.995 74.8337C557.995 74.8337 557.995 74.8337 557.995 74.8337C557.995 74.8337 557.995 74.8337 557.995 74.8337C557.995 74.8337 557.995 74.8337 557.995 74.8337C557.995 74.8337 557.995 74.8337 557.995 74.8337C557.995 74.8337 557.995 74.8337 557.995 74.8337C557.995 74.8337 557.995 74.8337 557.995 74.8337C557.995 74.8337 557.995 74.8337 557.995 74.8337C557.995 74.8337 557.995 74.8337 557.995 74.8337C557.995 74.8337 557.995 74.8337 557.995 74.8337C557.995 74.8337 557.995 74.8337 557.995 74.8337C557.995 74.8337 557.995 74.8337 557.995 74.8337C557.995 74.8337 557.995 74.8337 557.995 74.8337C557.995 74.8337 557.995 74.8337 557.995 74.8337C557.995 74.8337 557.995 74.8337 557.995 74.8337C557.995 74.8337 557.995 74.8337 557.995 74.8337C557.995 74.8337 557.995 74.8337 557.995 74.8337C557.995 74.8337 557.995 74.8337 557.995 74.8337C557.995 74.8337 557.995 74.8337 557.995 74.8337C557.995 74.8337 557.995 74.8337 557.995 74.8337C557.995 74.8337 557.995 74.8337 557.995 74.8337C557.995 74.8337 557.996 74.8337 557.996 74.8337C557.996 74.8337 557.996 74.8337 557.996 74.8337C557.996 74.8337 557.996 74.8337 557.996 74.8337C557.996 74.8337 557.996 74.8337 557.996 74.8337C557.996 74.8337 557.996 74.8337 557.996 74.8337C557.996 74.8337 557.996 74.8337 557.996 74.8337C557.996 74.8337 557.996 74.8337 557.996 74.8337C557.996 74.8337 557.996 74.8337 557.996 74.8337C557.996 74.8337 557.996 74.8337 557.996 74.8337C557.996 74.8337 557.996 74.8337 557.996 74.8337C557.996 74.8337 557.996 74.8337 557.996 74.8337C557.996 74.8337 557.996 74.8337 557.996 74.8337C557.996 74.8337 557.996 74.8337 557.996 74.8337C557.996 74.8337 557.996 74.8337 557.996 74.8337C557.996 74.8337 557.996 74.8337 557.996 74.8337C557.996 74.8337 557.996 74.8337 557.996 74.8337C557.996 74.8337 557.996 74.8337 557.996 74.8337C557.996 74.8337 557.996 74.8337 557.996 74.8337C557.996 74.8337 557.996 74.8337 557.996 74.8337C557.996 74.8337 557.996 74.8337 557.996 74.8337C557.996 74.8337 557.996 74.8337 557.996 74.8337C557.996 74.8337 557.996 74.8337 557.996 74.8337C557.996 74.8337 557.996 74.8337 557.996 74.8337C557.996 74.8337 557.996 74.8337 557.996 74.8337C557.996 74.8337 557.996 74.8337 557.996 74.8337C557.996 74.8337 557.996 74.8337 557.996 74.8337C557.996 74.8337 557.996 74.8337 557.996 74.8337C557.996 74.8337 557.996 74.8337 557.996 74.8337C557.996 74.8337 557.996 74.8337 557.996 74.8337C557.996 74.8337 557.996 74.8337 557.996 74.8337C557.996 74.8337 557.996 74.8337 557.996 74.8337C557.996 74.8337 557.996 74.8337 557.996 74.8337C557.996 74.8337 557.996 74.8337 557.996 74.8337C557.996 74.8337 557.996 74.8337 557.996 74.8337C557.996 74.8337 557.996 74.8337 557.996 74.8337C557.996 74.8337 557.996 74.8337 557.996 74.8337C557.996 74.8337 557.996 74.8337 557.996 74.8337C557.996 74.8337 557.996 74.8337 557.996 74.8337C557.996 74.8337 557.996 74.8337 557.996 74.8337C557.996 74.8337 557.996 74.8337 557.996 74.8337C557.996 74.8337 557.996 74.8337 557.996 74.8337C557.996 74.8337 557.996 74.8337 557.996 74.8337C557.996 74.8337 557.996 74.8337 557.996 74.8337C557.996 74.8337 557.996 74.8337 557.996 74.8337C557.996 74.8337 557.996 74.8337 557.996 74.8337C557.996 74.8337 557.997 74.8337 557.997 74.8337C557.997 74.8337 557.997 74.8337 557.997 74.8337C557.997 74.8337 557.997 74.8337 557.997 74.8337C557.997 74.8337 557.997 74.8337 557.997 74.8337C557.997 74.8337 557.997 74.8337 557.997 74.8337C557.997 74.8337 557.997 74.8337 557.997 74.8337C557.997 74.8337 557.997 74.8337 557.997 74.8337C557.997 74.8337 557.997 74.8337 557.997 74.8337C557.997 74.8337 557.997 74.8337 557.997 74.8337C557.997 74.8337 557.997 74.8337 557.997 74.8337C557.997 74.8337 557.997 74.8337 557.997 74.8337C557.997 74.8337 557.997 74.8337 557.997 74.8337C557.997 74.8337 557.997 74.8337 557.997 74.8337C557.997 74.8337 557.997 74.8337 557.997 74.8337C557.997 74.8337 557.997 74.8337 557.997 74.8337C557.997 74.8337 557.997 74.8337 557.997 74.8337C557.997 74.8337 557.997 74.8337 557.997 74.8337C557.997 74.8337 557.997 74.8337 557.997 74.8337C557.997 74.8337 557.997 74.8337 557.997 74.8337C557.997 74.8337 557.997 74.8337 557.997 74.8337C557.997 74.8337 557.997 74.8337 557.997 74.8337C557.997 74.8337 557.997 74.8337 557.997 74.8337C557.997 74.8337 557.997 74.8337 557.997 74.8337C557.997 74.8337 557.997 74.8337 557.997 74.8337C557.997 74.8337 557.997 74.8337 557.997 74.8337C557.997 74.8337 557.997 74.8337 557.997 74.8337C557.997 74.8337 557.997 74.8337 557.997 74.8337C557.997 74.8337 557.997 74.8337 557.997 74.8337C557.997 74.8337 557.997 74.8337 557.997 74.8337C557.997 74.8337 557.997 74.8337 557.997 74.8337C557.997 74.8337 557.997 74.8337 557.997 74.8337C557.997 74.8337 557.997 74.8337 557.997 74.8337C557.997 74.8337 557.997 74.8337 557.997 74.8337C557.997 74.8337 557.997 74.8337 557.997 74.8337C557.997 74.8337 557.997 74.8337 557.997 74.8337C557.997 74.8337 557.997 74.8337 557.997 74.8337C557.997 74.8337 557.997 74.8337 557.997 74.8337C557.997 74.8337 557.997 74.8337 557.997 74.8337C557.997 74.8337 557.997 74.8337 557.997 74.8337C557.997 74.8337 557.997 74.8337 557.997 74.8337C557.997 74.8337 557.997 74.8337 557.997 74.8337C557.997 74.8337 557.997 74.8337 557.997 74.8337C557.997 74.8337 557.997 74.8337 557.997 74.8337C557.997 74.8337 557.997 74.8337 557.997 74.8337C557.997 74.8337 557.997 74.8337 557.997 74.8337C557.998 74.8337 557.998 74.8337 557.998 74.8337C557.998 74.8337 557.998 74.8337 557.998 74.8337C557.998 74.8337 557.998 74.8337 557.998 74.8337C557.998 74.8337 557.998 74.8337 557.998 74.8337C557.998 74.8337 557.998 74.8337 557.998 74.8337C557.998 74.8337 557.998 74.8337 557.998 74.8337C557.998 74.8337 557.998 74.8337 557.998 74.8337C557.998 74.8337 557.998 74.8337 557.998 74.8337C557.998 74.8337 557.998 74.8337 557.998 74.8337C557.998 74.8337 557.998 74.8337 557.998 74.8337C557.998 74.8337 557.998 74.8337 557.998 74.8337C557.998 74.8337 557.998 74.8337 557.998 74.8337C557.998 74.8337 557.998 74.8337 557.998 74.8337C557.998 74.8337 557.998 74.8337 557.998 74.8337C557.998 74.8337 557.998 74.8337 557.998 74.8337C557.998 74.8337 557.998 74.8337 557.998 74.8337C557.998 74.8337 557.998 74.8337 557.998 74.8337C557.998 74.8337 557.998 74.8337 557.998 74.8337C557.998 74.8337 557.998 74.8337 557.998 74.8337C557.998 74.8337 557.998 74.8337 557.998 74.8337C557.998 74.8337 557.998 74.8337 557.998 74.8337C557.998 74.8337 557.998 74.8337 557.998 74.8337C557.998 74.8337 557.998 74.8337 557.998 74.8337C557.998 74.8337 557.998 74.8337 557.998 74.8337C557.998 74.8337 557.998 74.8337 557.998 74.8337C557.998 74.8337 557.998 74.8337 557.998 74.8337C557.998 74.8337 557.998 74.8337 557.998 74.8337C557.998 74.8337 557.998 74.8337 557.998 74.8337C557.998 74.8337 557.998 74.8337 557.998 74.8337C557.998 74.8337 557.998 74.8337 557.998 74.8337C557.998 74.8337 557.998 74.8337 557.998 74.8337C557.998 74.8337 557.998 74.8337 557.998 74.8337C557.998 74.8337 557.998 74.8337 557.998 74.8337C557.998 74.8337 557.998 74.8337 557.998 74.8337C557.998 74.8337 557.998 74.8337 557.998 74.8337C557.998 74.8337 557.998 74.8337 557.998 74.8337C557.998 74.8337 557.998 74.8337 557.998 74.8337C557.998 74.8337 557.998 74.8337 557.998 74.8337C557.998 74.8337 557.998 74.8337 557.998 74.8337C557.998 74.8337 557.998 74.8337 557.998 74.8337C557.998 74.8337 557.998 74.8337 557.998 74.8337C557.998 74.8337 557.998 74.8337 557.998 74.8337C557.998 74.8337 557.998 74.8337 557.998 74.8337C557.998 74.8337 557.998 74.8337 557.998 74.8337C557.998 74.8337 557.998 74.8337 557.998 74.8337C557.999 74.8337 557.999 74.8337 557.999 74.8337C557.999 74.8337 557.999 74.8337 557.999 74.8337C557.999 74.8337 557.999 74.8337 557.999 74.8337C557.999 74.8337 557.999 74.8337 557.999 74.8337C557.999 74.8337 557.999 74.8337 557.999 74.8337C557.999 74.8337 557.999 74.8337 557.999 74.8337C557.999 74.8337 557.999 74.8337 557.999 74.8337C557.999 74.8337 557.999 74.8337 557.999 74.8337C557.999 74.8337 557.999 74.8337 557.999 74.8337C557.999 74.8337 557.999 74.8337 557.999 74.8337C557.999 74.8337 557.999 74.8337 557.999 74.8337C557.999 74.8337 557.999 74.8337 557.999 74.8337C557.999 74.8337 557.999 74.8337 557.999 74.8337C557.999 74.8337 557.999 74.8337 557.999 74.8337C557.999 74.8337 557.999 74.8337 557.999 74.8337C557.999 74.8337 557.999 74.8337 557.999 74.8337C557.999 74.8337 557.999 74.8337 557.999 74.8337C557.999 74.8337 557.999 74.8337 557.999 74.8337C557.999 74.8337 557.999 74.8337 557.999 74.8337C557.999 74.8337 557.999 74.8337 557.999 74.8337C557.999 74.8337 557.999 74.8337 557.999 74.8337C557.999 74.8337 557.999 74.8337 557.999 74.8337C557.999 74.8337 557.999 74.8337 557.999 74.8337C557.999 74.8337 557.999 74.8337 557.999 74.8337C557.999 74.8337 557.999 74.8337 557.999 74.8337C557.999 74.8337 557.999 74.8337 557.999 74.8337C557.999 74.8337 557.999 74.8337 557.999 74.8337C557.999 74.8337 557.999 74.8337 557.999 74.8337C557.999 74.8337 557.999 74.8337 557.999 74.8337C557.999 74.8337 557.999 74.8337 557.999 74.8337C557.999 74.8337 557.999 74.8337 557.999 74.8337C557.999 74.8337 557.999 74.8337 557.999 74.8337C557.999 74.8337 557.999 74.8337 557.999 74.8337C557.999 74.8337 557.999 74.8337 557.999 74.8337C557.999 74.8337 557.999 74.8337 557.999 74.8337C557.999 74.8337 557.999 74.8337 557.999 74.8337C557.999 74.8337 557.999 74.8337 557.999 74.8337C557.999 74.8337 557.999 74.8337 557.999 74.8337C557.999 74.8337 557.999 74.8337 557.999 74.8337C557.999 74.8337 557.999 74.8337 557.999 74.8337C557.999 74.8337 557.999 74.8337 557.999 74.8337C557.999 74.8337 557.999 74.8337 557.999 74.8337C557.999 74.8337 557.999 74.8337 557.999 74.8337C557.999 74.8337 557.999 74.8337 557.999 74.8337C557.999 74.8337 557.999 74.8337 557.999 74.8337C558 74.8337 558 74.8337 558 74.8337C558 74.8337 558 74.8337 558 74.8337C558 74.8337 558 74.8337 558 74.8337C558 74.8337 558 74.8337 558 74.8337C558 74.8337 558 74.8337 558 74.8337C558 74.8337 558 74.8337 558 74.8337C558 74.8337 558 74.8337 558 74.8337C558 74.8337 558 74.8337 558 74.8337C558 74.8337 558 74.8337 558 74.8337C558 74.8337 558 74.8337 558 74.8337C558 74.8337 558 74.8337 558 74.8337C558 74.8337 558 74.8337 558 74.8337C558 74.8337 558 74.8337 558 74.8337C558 74.8337 558 74.8337 558 74.8337C558 74.8337 558 74.8337 558 74.8337C558 74.8337 558 74.8337 558 74.8337C558 74.8337 558 74.8337 558 74.8337C558 74.8337 558 74.8337 558 74.8337C558 74.8337 558 74.8337 558 74.8337C558 74.8337 558 74.8337 558 74.8337C558 74.8337 558 74.8337 558 74.8337C558 74.8337 558 74.8337 558 74.8337C558 74.8337 558 74.8337 558 74.8337V71.8337ZM557.989 71.8337C518.594 71.8337 486.583 40.218 485.945 0.975624L482.946 1.02438C483.61 41.9017 516.953 74.8337 557.989 74.8337V71.8337Z" fill="#C9AC6A"/>
<path d="M1 90.932C43.8003 90.932 90.405 53.1098 90.405 2.0498" stroke="#BB8C3C"/>
<path d="M88.7709 17.2666H15.2179V89.5515" stroke="#BB8C3C"/>
<path d="M468.486 17.2666H542.039V89.5515" stroke="#BB8C3C"/>
<path d="M556.623 90.931C513.822 90.931 467.218 53.1088 467.218 2.04883" stroke="#BB8C3C"/>
</g>
</g>
<defs>
<filter id="filter0_d" x="-11.5" y="-6.5" width="581" height="600" filterUnits="userSpaceOnUse" color-interpolation-filters="sRGB">
<feFlood flood-opacity="0" result="BackgroundImageFix"/>
<feColorMatrix in="SourceAlpha" type="matrix" values="0 0 0 0 0 0 0 0 0 0 0 0 0 0 0 0 0 0 127 0" result="hardAlpha"/>
<feOffset dy="4"/>
<feGaussianBlur stdDeviation="5"/>
<feColorMatrix type="matrix" values="0 0 0 0 0.00392157 0 0 0 0 0.0156863 0 0 0 0 0.027451 0 0 0 0.1 0"/>
<feBlend mode="normal" in2="BackgroundImageFix" result="effect1_dropShadow"/>
<feBlend mode="normal" in="SourceGraphic" in2="effect1_dropShadow" result="shape"/>
</filter>
</defs>
</svg>
