<svg width="562" height="150" viewBox="0 0 562 150" fill="none" xmlns="http://www.w3.org/2000/svg">
<mask id="mask0" style="mask-type:alpha" maskUnits="userSpaceOnUse" x="0" y="0" width="562" height="150">
<rect width="562" height="150" fill="#C9AC6A"/>
</mask>
<g mask="url(#mask0)">
<g filter="url(#filter0_d)">
<path fill-rule="evenodd" clip-rule="evenodd" d="M486.445 -429H75.5431C74.8921 -388.94 42.215 -356.666 2 -356.666L2.00003 138C2.00003 143.523 6.47718 148 12 148H281H550C555.523 148 560 143.523 560 138V-356.666C559.996 -356.666 559.992 -356.666 559.989 -356.666C519.774 -356.666 487.097 -388.94 486.445 -429Z" fill="#0D1F30"/>
<path d="M486.445 -429L487.945 -429.024L487.921 -430.5H486.445V-429ZM75.5431 -429V-430.5H74.0673L74.0433 -429.024L75.5431 -429ZM2 -356.666V-358.166H0.5L0.5 -356.666L2 -356.666ZM2.00003 138L3.50003 138L3.50003 138L2.00003 138ZM560 -356.666H561.5V-358.166H560V-356.666ZM486.445 -430.5H75.5431V-427.5H486.445V-430.5ZM74.0433 -429.024C73.4055 -389.782 41.3947 -358.166 2 -358.166V-355.166C43.0353 -355.166 76.3786 -388.098 77.0429 -428.976L74.0433 -429.024ZM0.5 -356.666L0.500031 138L3.50003 138L3.5 -356.666L0.5 -356.666ZM0.500031 138C0.500031 144.351 5.64876 149.5 12 149.5V146.5C7.30561 146.5 3.50003 142.694 3.50003 138H0.500031ZM12 149.5H281V146.5H12V149.5ZM281 149.5H550V146.5H281V149.5ZM550 149.5C556.351 149.5 561.5 144.351 561.5 138H558.5C558.5 142.694 554.694 146.5 550 146.5V149.5ZM561.5 138V-356.666H558.5V138H561.5ZM560 -358.166C560 -358.166 560 -358.166 560 -358.166C560 -358.166 560 -358.166 560 -358.166C560 -358.166 560 -358.166 560 -358.166C560 -358.166 560 -358.166 560 -358.166C560 -358.166 560 -358.166 560 -358.166C560 -358.166 560 -358.166 560 -358.166C560 -358.166 560 -358.166 560 -358.166C560 -358.166 560 -358.166 560 -358.166C560 -358.166 560 -358.166 560 -358.166C560 -358.166 560 -358.166 560 -358.166C560 -358.166 560 -358.166 560 -358.166C560 -358.166 560 -358.166 560 -358.166C560 -358.166 560 -358.166 560 -358.166C560 -358.166 560 -358.166 560 -358.166C560 -358.166 560 -358.166 560 -358.166C560 -358.166 560 -358.166 560 -358.166C560 -358.166 560 -358.166 560 -358.166C560 -358.166 560 -358.166 560 -358.166C560 -358.166 560 -358.166 560 -358.166C560 -358.166 560 -358.166 560 -358.166C560 -358.166 560 -358.166 560 -358.166C560 -358.166 560 -358.166 560 -358.166C560 -358.166 560 -358.166 559.999 -358.166C559.999 -358.166 559.999 -358.166 559.999 -358.166C559.999 -358.166 559.999 -358.166 559.999 -358.166C559.999 -358.166 559.999 -358.166 559.999 -358.166C559.999 -358.166 559.999 -358.166 559.999 -358.166C559.999 -358.166 559.999 -358.166 559.999 -358.166C559.999 -358.166 559.999 -358.166 559.999 -358.166C559.999 -358.166 559.999 -358.166 559.999 -358.166C559.999 -358.166 559.999 -358.166 559.999 -358.166C559.999 -358.166 559.999 -358.166 559.999 -358.166C559.999 -358.166 559.999 -358.166 559.999 -358.166C559.999 -358.166 559.999 -358.166 559.999 -358.166C559.999 -358.166 559.999 -358.166 559.999 -358.166C559.999 -358.166 559.999 -358.166 559.999 -358.166C559.999 -358.166 559.999 -358.166 559.999 -358.166C559.999 -358.166 559.999 -358.166 559.999 -358.166C559.999 -358.166 559.999 -358.166 559.999 -358.166C559.999 -358.166 559.999 -358.166 559.999 -358.166C559.999 -358.166 559.999 -358.166 559.999 -358.166C559.999 -358.166 559.999 -358.166 559.999 -358.166C559.999 -358.166 559.999 -358.166 559.999 -358.166C559.999 -358.166 559.999 -358.166 559.999 -358.166C559.999 -358.166 559.999 -358.166 559.999 -358.166C559.999 -358.166 559.999 -358.166 559.999 -358.166C559.999 -358.166 559.999 -358.166 559.999 -358.166C559.999 -358.166 559.999 -358.166 559.999 -358.166C559.999 -358.166 559.999 -358.166 559.999 -358.166C559.999 -358.166 559.999 -358.166 559.999 -358.166C559.999 -358.166 559.999 -358.166 559.999 -358.166C559.999 -358.166 559.999 -358.166 559.999 -358.166C559.999 -358.166 559.999 -358.166 559.999 -358.166C559.999 -358.166 559.999 -358.166 559.999 -358.166C559.999 -358.166 559.999 -358.166 559.999 -358.166C559.999 -358.166 559.999 -358.166 559.999 -358.166C559.999 -358.166 559.999 -358.166 559.999 -358.166C559.999 -358.166 559.999 -358.166 559.999 -358.166C559.999 -358.166 559.999 -358.166 559.999 -358.166C559.999 -358.166 559.999 -358.166 559.999 -358.166C559.999 -358.166 559.999 -358.166 559.999 -358.166C559.999 -358.166 559.999 -358.166 559.999 -358.166C559.999 -358.166 559.999 -358.166 559.999 -358.166C559.999 -358.166 559.999 -358.166 559.999 -358.166C559.999 -358.166 559.999 -358.166 559.999 -358.166C559.999 -358.166 559.999 -358.166 559.999 -358.166C559.999 -358.166 559.999 -358.166 559.999 -358.166C559.999 -358.166 559.999 -358.166 559.998 -358.166C559.998 -358.166 559.998 -358.166 559.998 -358.166C559.998 -358.166 559.998 -358.166 559.998 -358.166C559.998 -358.166 559.998 -358.166 559.998 -358.166C559.998 -358.166 559.998 -358.166 559.998 -358.166C559.998 -358.166 559.998 -358.166 559.998 -358.166C559.998 -358.166 559.998 -358.166 559.998 -358.166C559.998 -358.166 559.998 -358.166 559.998 -358.166C559.998 -358.166 559.998 -358.166 559.998 -358.166C559.998 -358.166 559.998 -358.166 559.998 -358.166C559.998 -358.166 559.998 -358.166 559.998 -358.166C559.998 -358.166 559.998 -358.166 559.998 -358.166C559.998 -358.166 559.998 -358.166 559.998 -358.166C559.998 -358.166 559.998 -358.166 559.998 -358.166C559.998 -358.166 559.998 -358.166 559.998 -358.166C559.998 -358.166 559.998 -358.166 559.998 -358.166C559.998 -358.166 559.998 -358.166 559.998 -358.166C559.998 -358.166 559.998 -358.166 559.998 -358.166C559.998 -358.166 559.998 -358.166 559.998 -358.166C559.998 -358.166 559.998 -358.166 559.998 -358.166C559.998 -358.166 559.998 -358.166 559.998 -358.166C559.998 -358.166 559.998 -358.166 559.998 -358.166C559.998 -358.166 559.998 -358.166 559.998 -358.166C559.998 -358.166 559.998 -358.166 559.998 -358.166C559.998 -358.166 559.998 -358.166 559.998 -358.166C559.998 -358.166 559.998 -358.166 559.998 -358.166C559.998 -358.166 559.998 -358.166 559.998 -358.166C559.998 -358.166 559.998 -358.166 559.998 -358.166C559.998 -358.166 559.998 -358.166 559.998 -358.166C559.998 -358.166 559.998 -358.166 559.998 -358.166C559.998 -358.166 559.998 -358.166 559.998 -358.166C559.998 -358.166 559.998 -358.166 559.998 -358.166C559.998 -358.166 559.998 -358.166 559.998 -358.166C559.998 -358.166 559.998 -358.166 559.998 -358.166C559.998 -358.166 559.998 -358.166 559.998 -358.166C559.998 -358.166 559.998 -358.166 559.998 -358.166C559.998 -358.166 559.998 -358.166 559.998 -358.166C559.998 -358.166 559.998 -358.166 559.998 -358.166C559.998 -358.166 559.998 -358.166 559.998 -358.166C559.998 -358.166 559.998 -358.166 559.998 -358.166C559.998 -358.166 559.998 -358.166 559.998 -358.166C559.998 -358.166 559.998 -358.166 559.998 -358.166C559.998 -358.166 559.998 -358.166 559.998 -358.166C559.998 -358.166 559.998 -358.166 559.998 -358.166C559.998 -358.166 559.998 -358.166 559.998 -358.166C559.998 -358.166 559.998 -358.166 559.997 -358.166C559.997 -358.166 559.997 -358.166 559.997 -358.166C559.997 -358.166 559.997 -358.166 559.997 -358.166C559.997 -358.166 559.997 -358.166 559.997 -358.166C559.997 -358.166 559.997 -358.166 559.997 -358.166C559.997 -358.166 559.997 -358.166 559.997 -358.166C559.997 -358.166 559.997 -358.166 559.997 -358.166C559.997 -358.166 559.997 -358.166 559.997 -358.166C559.997 -358.166 559.997 -358.166 559.997 -358.166C559.997 -358.166 559.997 -358.166 559.997 -358.166C559.997 -358.166 559.997 -358.166 559.997 -358.166C559.997 -358.166 559.997 -358.166 559.997 -358.166C559.997 -358.166 559.997 -358.166 559.997 -358.166C559.997 -358.166 559.997 -358.166 559.997 -358.166C559.997 -358.166 559.997 -358.166 559.997 -358.166C559.997 -358.166 559.997 -358.166 559.997 -358.166C559.997 -358.166 559.997 -358.166 559.997 -358.166C559.997 -358.166 559.997 -358.166 559.997 -358.166C559.997 -358.166 559.997 -358.166 559.997 -358.166C559.997 -358.166 559.997 -358.166 559.997 -358.166C559.997 -358.166 559.997 -358.166 559.997 -358.166C559.997 -358.166 559.997 -358.166 559.997 -358.166C559.997 -358.166 559.997 -358.166 559.997 -358.166C559.997 -358.166 559.997 -358.166 559.997 -358.166C559.997 -358.166 559.997 -358.166 559.997 -358.166C559.997 -358.166 559.997 -358.166 559.997 -358.166C559.997 -358.166 559.997 -358.166 559.997 -358.166C559.997 -358.166 559.997 -358.166 559.997 -358.166C559.997 -358.166 559.997 -358.166 559.997 -358.166C559.997 -358.166 559.997 -358.166 559.997 -358.166C559.997 -358.166 559.997 -358.166 559.997 -358.166C559.997 -358.166 559.997 -358.166 559.997 -358.166C559.997 -358.166 559.997 -358.166 559.997 -358.166C559.997 -358.166 559.997 -358.166 559.997 -358.166C559.997 -358.166 559.997 -358.166 559.997 -358.166C559.997 -358.166 559.997 -358.166 559.997 -358.166C559.997 -358.166 559.997 -358.166 559.997 -358.166C559.997 -358.166 559.997 -358.166 559.997 -358.166C559.997 -358.166 559.997 -358.166 559.997 -358.166C559.997 -358.166 559.997 -358.166 559.997 -358.166C559.997 -358.166 559.997 -358.166 559.997 -358.166C559.997 -358.166 559.997 -358.166 559.997 -358.166C559.997 -358.166 559.997 -358.166 559.997 -358.166C559.997 -358.166 559.997 -358.166 559.997 -358.166C559.997 -358.166 559.997 -358.166 559.997 -358.166C559.997 -358.166 559.996 -358.166 559.996 -358.166C559.996 -358.166 559.996 -358.166 559.996 -358.166C559.996 -358.166 559.996 -358.166 559.996 -358.166C559.996 -358.166 559.996 -358.166 559.996 -358.166C559.996 -358.166 559.996 -358.166 559.996 -358.166C559.996 -358.166 559.996 -358.166 559.996 -358.166C559.996 -358.166 559.996 -358.166 559.996 -358.166C559.996 -358.166 559.996 -358.166 559.996 -358.166C559.996 -358.166 559.996 -358.166 559.996 -358.166C559.996 -358.166 559.996 -358.166 559.996 -358.166C559.996 -358.166 559.996 -358.166 559.996 -358.166C559.996 -358.166 559.996 -358.166 559.996 -358.166C559.996 -358.166 559.996 -358.166 559.996 -358.166C559.996 -358.166 559.996 -358.166 559.996 -358.166C559.996 -358.166 559.996 -358.166 559.996 -358.166C559.996 -358.166 559.996 -358.166 559.996 -358.166C559.996 -358.166 559.996 -358.166 559.996 -358.166C559.996 -358.166 559.996 -358.166 559.996 -358.166C559.996 -358.166 559.996 -358.166 559.996 -358.166C559.996 -358.166 559.996 -358.166 559.996 -358.166C559.996 -358.166 559.996 -358.166 559.996 -358.166C559.996 -358.166 559.996 -358.166 559.996 -358.166C559.996 -358.166 559.996 -358.166 559.996 -358.166C559.996 -358.166 559.996 -358.166 559.996 -358.166C559.996 -358.166 559.996 -358.166 559.996 -358.166C559.996 -358.166 559.996 -358.166 559.996 -358.166C559.996 -358.166 559.996 -358.166 559.996 -358.166C559.996 -358.166 559.996 -358.166 559.996 -358.166C559.996 -358.166 559.996 -358.166 559.996 -358.166C559.996 -358.166 559.996 -358.166 559.996 -358.166C559.996 -358.166 559.996 -358.166 559.996 -358.166C559.996 -358.166 559.996 -358.166 559.996 -358.166C559.996 -358.166 559.996 -358.166 559.996 -358.166C559.996 -358.166 559.996 -358.166 559.996 -358.166C559.996 -358.166 559.996 -358.166 559.996 -358.166C559.996 -358.166 559.996 -358.166 559.996 -358.166C559.996 -358.166 559.996 -358.166 559.996 -358.166C559.996 -358.166 559.996 -358.166 559.996 -358.166C559.996 -358.166 559.996 -358.166 559.996 -358.166C559.996 -358.166 559.996 -358.166 559.996 -358.166C559.996 -358.166 559.996 -358.166 559.996 -358.166C559.996 -358.166 559.996 -358.166 559.996 -358.166C559.996 -358.166 559.996 -358.166 559.996 -358.166C559.996 -358.166 559.996 -358.166 559.996 -358.166C559.996 -358.166 559.996 -358.166 559.996 -358.166C559.996 -358.166 559.995 -358.166 559.995 -358.166C559.995 -358.166 559.995 -358.166 559.995 -358.166C559.995 -358.166 559.995 -358.166 559.995 -358.166C559.995 -358.166 559.995 -358.166 559.995 -358.166C559.995 -358.166 559.995 -358.166 559.995 -358.166C559.995 -358.166 559.995 -358.166 559.995 -358.166C559.995 -358.166 559.995 -358.166 559.995 -358.166C559.995 -358.166 559.995 -358.166 559.995 -358.166C559.995 -358.166 559.995 -358.166 559.995 -358.166C559.995 -358.166 559.995 -358.166 559.995 -358.166C559.995 -358.166 559.995 -358.166 559.995 -358.166C559.995 -358.166 559.995 -358.166 559.995 -358.166C559.995 -358.166 559.995 -358.166 559.995 -358.166C559.995 -358.166 559.995 -358.166 559.995 -358.166C559.995 -358.166 559.995 -358.166 559.995 -358.166C559.995 -358.166 559.995 -358.166 559.995 -358.166C559.995 -358.166 559.995 -358.166 559.995 -358.166C559.995 -358.166 559.995 -358.166 559.995 -358.166C559.995 -358.166 559.995 -358.166 559.995 -358.166C559.995 -358.166 559.995 -358.166 559.995 -358.166C559.995 -358.166 559.995 -358.166 559.995 -358.166C559.995 -358.166 559.995 -358.166 559.995 -358.166C559.995 -358.166 559.995 -358.166 559.995 -358.166C559.995 -358.166 559.995 -358.166 559.995 -358.166C559.995 -358.166 559.995 -358.166 559.995 -358.166C559.995 -358.166 559.995 -358.166 559.995 -358.166C559.995 -358.166 559.995 -358.166 559.995 -358.166C559.995 -358.166 559.995 -358.166 559.995 -358.166C559.995 -358.166 559.995 -358.166 559.995 -358.166C559.995 -358.166 559.995 -358.166 559.995 -358.166C559.995 -358.166 559.995 -358.166 559.995 -358.166C559.995 -358.166 559.995 -358.166 559.995 -358.166C559.995 -358.166 559.995 -358.166 559.995 -358.166C559.995 -358.166 559.995 -358.166 559.995 -358.166C559.995 -358.166 559.995 -358.166 559.995 -358.166C559.995 -358.166 559.995 -358.166 559.995 -358.166C559.995 -358.166 559.995 -358.166 559.995 -358.166C559.995 -358.166 559.995 -358.166 559.995 -358.166C559.995 -358.166 559.995 -358.166 559.995 -358.166C559.995 -358.166 559.995 -358.166 559.995 -358.166C559.995 -358.166 559.995 -358.166 559.995 -358.166C559.995 -358.166 559.995 -358.166 559.995 -358.166C559.995 -358.166 559.995 -358.166 559.995 -358.166C559.995 -358.166 559.995 -358.166 559.995 -358.166C559.995 -358.166 559.995 -358.166 559.995 -358.166C559.994 -358.166 559.994 -358.166 559.994 -358.166C559.994 -358.166 559.994 -358.166 559.994 -358.166C559.994 -358.166 559.994 -358.166 559.994 -358.166C559.994 -358.166 559.994 -358.166 559.994 -358.166C559.994 -358.166 559.994 -358.166 559.994 -358.166C559.994 -358.166 559.994 -358.166 559.994 -358.166C559.994 -358.166 559.994 -358.166 559.994 -358.166C559.994 -358.166 559.994 -358.166 559.994 -358.166C559.994 -358.166 559.994 -358.166 559.994 -358.166C559.994 -358.166 559.994 -358.166 559.994 -358.166C559.994 -358.166 559.994 -358.166 559.994 -358.166C559.994 -358.166 559.994 -358.166 559.994 -358.166C559.994 -358.166 559.994 -358.166 559.994 -358.166C559.994 -358.166 559.994 -358.166 559.994 -358.166C559.994 -358.166 559.994 -358.166 559.994 -358.166C559.994 -358.166 559.994 -358.166 559.994 -358.166C559.994 -358.166 559.994 -358.166 559.994 -358.166C559.994 -358.166 559.994 -358.166 559.994 -358.166C559.994 -358.166 559.994 -358.166 559.994 -358.166C559.994 -358.166 559.994 -358.166 559.994 -358.166C559.994 -358.166 559.994 -358.166 559.994 -358.166C559.994 -358.166 559.994 -358.166 559.994 -358.166C559.994 -358.166 559.994 -358.166 559.994 -358.166C559.994 -358.166 559.994 -358.166 559.994 -358.166C559.994 -358.166 559.994 -358.166 559.994 -358.166C559.994 -358.166 559.994 -358.166 559.994 -358.166C559.994 -358.166 559.994 -358.166 559.994 -358.166C559.994 -358.166 559.994 -358.166 559.994 -358.166C559.994 -358.166 559.994 -358.166 559.994 -358.166C559.994 -358.166 559.994 -358.166 559.994 -358.166C559.994 -358.166 559.994 -358.166 559.994 -358.166C559.994 -358.166 559.994 -358.166 559.994 -358.166C559.994 -358.166 559.994 -358.166 559.994 -358.166C559.994 -358.166 559.994 -358.166 559.994 -358.166C559.994 -358.166 559.994 -358.166 559.994 -358.166C559.994 -358.166 559.994 -358.166 559.994 -358.166C559.994 -358.166 559.994 -358.166 559.994 -358.166C559.994 -358.166 559.994 -358.166 559.994 -358.166C559.994 -358.166 559.994 -358.166 559.994 -358.166C559.994 -358.166 559.994 -358.166 559.994 -358.166C559.994 -358.166 559.994 -358.166 559.994 -358.166C559.994 -358.166 559.994 -358.166 559.994 -358.166C559.994 -358.166 559.994 -358.166 559.994 -358.166C559.994 -358.166 559.994 -358.166 559.994 -358.166C559.994 -358.166 559.994 -358.166 559.993 -358.166C559.993 -358.166 559.993 -358.166 559.993 -358.166C559.993 -358.166 559.993 -358.166 559.993 -358.166C559.993 -358.166 559.993 -358.166 559.993 -358.166C559.993 -358.166 559.993 -358.166 559.993 -358.166C559.993 -358.166 559.993 -358.166 559.993 -358.166C559.993 -358.166 559.993 -358.166 559.993 -358.166C559.993 -358.166 559.993 -358.166 559.993 -358.166C559.993 -358.166 559.993 -358.166 559.993 -358.166C559.993 -358.166 559.993 -358.166 559.993 -358.166C559.993 -358.166 559.993 -358.166 559.993 -358.166C559.993 -358.166 559.993 -358.166 559.993 -358.166C559.993 -358.166 559.993 -358.166 559.993 -358.166C559.993 -358.166 559.993 -358.166 559.993 -358.166C559.993 -358.166 559.993 -358.166 559.993 -358.166C559.993 -358.166 559.993 -358.166 559.993 -358.166C559.993 -358.166 559.993 -358.166 559.993 -358.166C559.993 -358.166 559.993 -358.166 559.993 -358.166C559.993 -358.166 559.993 -358.166 559.993 -358.166C559.993 -358.166 559.993 -358.166 559.993 -358.166C559.993 -358.166 559.993 -358.166 559.993 -358.166C559.993 -358.166 559.993 -358.166 559.993 -358.166C559.993 -358.166 559.993 -358.166 559.993 -358.166C559.993 -358.166 559.993 -358.166 559.993 -358.166C559.993 -358.166 559.993 -358.166 559.993 -358.166C559.993 -358.166 559.993 -358.166 559.993 -358.166C559.993 -358.166 559.993 -358.166 559.993 -358.166C559.993 -358.166 559.993 -358.166 559.993 -358.166C559.993 -358.166 559.993 -358.166 559.993 -358.166C559.993 -358.166 559.993 -358.166 559.993 -358.166C559.993 -358.166 559.993 -358.166 559.993 -358.166C559.993 -358.166 559.993 -358.166 559.993 -358.166C559.993 -358.166 559.993 -358.166 559.993 -358.166C559.993 -358.166 559.993 -358.166 559.993 -358.166C559.993 -358.166 559.993 -358.166 559.993 -358.166C559.993 -358.166 559.993 -358.166 559.993 -358.166C559.993 -358.166 559.993 -358.166 559.993 -358.166C559.993 -358.166 559.993 -358.166 559.993 -358.166C559.993 -358.166 559.993 -358.166 559.993 -358.166C559.993 -358.166 559.993 -358.166 559.993 -358.166C559.993 -358.166 559.993 -358.166 559.993 -358.166C559.993 -358.166 559.993 -358.166 559.993 -358.166C559.993 -358.166 559.993 -358.166 559.993 -358.166C559.993 -358.166 559.993 -358.166 559.993 -358.166C559.993 -358.166 559.993 -358.166 559.993 -358.166C559.993 -358.166 559.992 -358.166 559.992 -358.166C559.992 -358.166 559.992 -358.166 559.992 -358.166C559.992 -358.166 559.992 -358.166 559.992 -358.166C559.992 -358.166 559.992 -358.166 559.992 -358.166C559.992 -358.166 559.992 -358.166 559.992 -358.166C559.992 -358.166 559.992 -358.166 559.992 -358.166C559.992 -358.166 559.992 -358.166 559.992 -358.166C559.992 -358.166 559.992 -358.166 559.992 -358.166C559.992 -358.166 559.992 -358.166 559.992 -358.166C559.992 -358.166 559.992 -358.166 559.992 -358.166C559.992 -358.166 559.992 -358.166 559.992 -358.166C559.992 -358.166 559.992 -358.166 559.992 -358.166C559.992 -358.166 559.992 -358.166 559.992 -358.166C559.992 -358.166 559.992 -358.166 559.992 -358.166C559.992 -358.166 559.992 -358.166 559.992 -358.166C559.992 -358.166 559.992 -358.166 559.992 -358.166C559.992 -358.166 559.992 -358.166 559.992 -358.166C559.992 -358.166 559.992 -358.166 559.992 -358.166C559.992 -358.166 559.992 -358.166 559.992 -358.166C559.992 -358.166 559.992 -358.166 559.992 -358.166C559.992 -358.166 559.992 -358.166 559.992 -358.166C559.992 -358.166 559.992 -358.166 559.992 -358.166C559.992 -358.166 559.992 -358.166 559.992 -358.166C559.992 -358.166 559.992 -358.166 559.992 -358.166C559.992 -358.166 559.992 -358.166 559.992 -358.166C559.992 -358.166 559.992 -358.166 559.992 -358.166C559.992 -358.166 559.992 -358.166 559.992 -358.166C559.992 -358.166 559.992 -358.166 559.992 -358.166C559.992 -358.166 559.992 -358.166 559.992 -358.166C559.992 -358.166 559.992 -358.166 559.992 -358.166C559.992 -358.166 559.992 -358.166 559.992 -358.166C559.992 -358.166 559.992 -358.166 559.992 -358.166C559.992 -358.166 559.992 -358.166 559.992 -358.166C559.992 -358.166 559.992 -358.166 559.992 -358.166C559.992 -358.166 559.992 -358.166 559.992 -358.166C559.992 -358.166 559.992 -358.166 559.992 -358.166C559.992 -358.166 559.992 -358.166 559.992 -358.166C559.992 -358.166 559.992 -358.166 559.992 -358.166C559.992 -358.166 559.992 -358.166 559.992 -358.166C559.992 -358.166 559.992 -358.166 559.992 -358.166C559.992 -358.166 559.992 -358.166 559.992 -358.166C559.992 -358.166 559.992 -358.166 559.992 -358.166C559.992 -358.166 559.992 -358.166 559.992 -358.166C559.992 -358.166 559.992 -358.166 559.992 -358.166C559.992 -358.166 559.992 -358.166 559.992 -358.166C559.992 -358.166 559.991 -358.166 559.991 -358.166C559.991 -358.166 559.991 -358.166 559.991 -358.166C559.991 -358.166 559.991 -358.166 559.991 -358.166C559.991 -358.166 559.991 -358.166 559.991 -358.166C559.991 -358.166 559.991 -358.166 559.991 -358.166C559.991 -358.166 559.991 -358.166 559.991 -358.166C559.991 -358.166 559.991 -358.166 559.991 -358.166C559.991 -358.166 559.991 -358.166 559.991 -358.166C559.991 -358.166 559.991 -358.166 559.991 -358.166C559.991 -358.166 559.991 -358.166 559.991 -358.166C559.991 -358.166 559.991 -358.166 559.991 -358.166C559.991 -358.166 559.991 -358.166 559.991 -358.166C559.991 -358.166 559.991 -358.166 559.991 -358.166C559.991 -358.166 559.991 -358.166 559.991 -358.166C559.991 -358.166 559.991 -358.166 559.991 -358.166C559.991 -358.166 559.991 -358.166 559.991 -358.166C559.991 -358.166 559.991 -358.166 559.991 -358.166C559.991 -358.166 559.991 -358.166 559.991 -358.166C559.991 -358.166 559.991 -358.166 559.991 -358.166C559.991 -358.166 559.991 -358.166 559.991 -358.166C559.991 -358.166 559.991 -358.166 559.991 -358.166C559.991 -358.166 559.991 -358.166 559.991 -358.166C559.991 -358.166 559.991 -358.166 559.991 -358.166C559.991 -358.166 559.991 -358.166 559.991 -358.166C559.991 -358.166 559.991 -358.166 559.991 -358.166C559.991 -358.166 559.991 -358.166 559.991 -358.166C559.991 -358.166 559.991 -358.166 559.991 -358.166C559.991 -358.166 559.991 -358.166 559.991 -358.166C559.991 -358.166 559.991 -358.166 559.991 -358.166C559.991 -358.166 559.991 -358.166 559.991 -358.166C559.991 -358.166 559.991 -358.166 559.991 -358.166C559.991 -358.166 559.991 -358.166 559.991 -358.166C559.991 -358.166 559.991 -358.166 559.991 -358.166C559.991 -358.166 559.991 -358.166 559.991 -358.166C559.991 -358.166 559.991 -358.166 559.991 -358.166C559.991 -358.166 559.991 -358.166 559.991 -358.166C559.991 -358.166 559.991 -358.166 559.991 -358.166C559.991 -358.166 559.991 -358.166 559.991 -358.166C559.991 -358.166 559.991 -358.166 559.991 -358.166C559.991 -358.166 559.991 -358.166 559.991 -358.166C559.991 -358.166 559.991 -358.166 559.991 -358.166C559.991 -358.166 559.991 -358.166 559.991 -358.166C559.991 -358.166 559.991 -358.166 559.991 -358.166C559.991 -358.166 559.991 -358.166 559.991 -358.166C559.991 -358.166 559.991 -358.166 559.991 -358.166C559.99 -358.166 559.99 -358.166 559.99 -358.166C559.99 -358.166 559.99 -358.166 559.99 -358.166C559.99 -358.166 559.99 -358.166 559.99 -358.166C559.99 -358.166 559.99 -358.166 559.99 -358.166C559.99 -358.166 559.99 -358.166 559.99 -358.166C559.99 -358.166 559.99 -358.166 559.99 -358.166C559.99 -358.166 559.99 -358.166 559.99 -358.166C559.99 -358.166 559.99 -358.166 559.99 -358.166C559.99 -358.166 559.99 -358.166 559.99 -358.166C559.99 -358.166 559.99 -358.166 559.99 -358.166C559.99 -358.166 559.99 -358.166 559.99 -358.166C559.99 -358.166 559.99 -358.166 559.99 -358.166C559.99 -358.166 559.99 -358.166 559.99 -358.166C559.99 -358.166 559.99 -358.166 559.99 -358.166C559.99 -358.166 559.99 -358.166 559.99 -358.166C559.99 -358.166 559.99 -358.166 559.99 -358.166C559.99 -358.166 559.99 -358.166 559.99 -358.166C559.99 -358.166 559.99 -358.166 559.99 -358.166C559.99 -358.166 559.99 -358.166 559.99 -358.166C559.99 -358.166 559.99 -358.166 559.99 -358.166C559.99 -358.166 559.99 -358.166 559.99 -358.166C559.99 -358.166 559.99 -358.166 559.99 -358.166C559.99 -358.166 559.99 -358.166 559.99 -358.166C559.99 -358.166 559.99 -358.166 559.99 -358.166C559.99 -358.166 559.99 -358.166 559.99 -358.166C559.99 -358.166 559.99 -358.166 559.99 -358.166C559.99 -358.166 559.99 -358.166 559.99 -358.166C559.99 -358.166 559.99 -358.166 559.99 -358.166C559.99 -358.166 559.99 -358.166 559.99 -358.166C559.99 -358.166 559.99 -358.166 559.99 -358.166C559.99 -358.166 559.99 -358.166 559.99 -358.166C559.99 -358.166 559.99 -358.166 559.99 -358.166C559.99 -358.166 559.99 -358.166 559.99 -358.166C559.99 -358.166 559.99 -358.166 559.99 -358.166C559.99 -358.166 559.99 -358.166 559.99 -358.166C559.99 -358.166 559.99 -358.166 559.99 -358.166C559.99 -358.166 559.99 -358.166 559.99 -358.166C559.99 -358.166 559.99 -358.166 559.99 -358.166C559.99 -358.166 559.99 -358.166 559.99 -358.166C559.99 -358.166 559.99 -358.166 559.99 -358.166C559.99 -358.166 559.99 -358.166 559.99 -358.166C559.99 -358.166 559.99 -358.166 559.99 -358.166C559.99 -358.166 559.99 -358.166 559.99 -358.166C559.99 -358.166 559.99 -358.166 559.99 -358.166C559.99 -358.166 559.99 -358.166 559.99 -358.166C559.989 -358.166 559.989 -358.166 559.989 -358.166C559.989 -358.166 559.989 -358.166 559.989 -358.166C559.989 -358.166 559.989 -358.166 559.989 -358.166C559.989 -358.166 559.989 -358.166 559.989 -358.166C559.989 -358.166 559.989 -358.166 559.989 -358.166C559.989 -358.166 559.989 -358.166 559.989 -358.166C559.989 -358.166 559.989 -358.166 559.989 -358.166C559.989 -358.166 559.989 -358.166 559.989 -358.166C559.989 -358.166 559.989 -358.166 559.989 -358.166C559.989 -358.166 559.989 -358.166 559.989 -358.166C559.989 -358.166 559.989 -358.166 559.989 -358.166C559.989 -358.166 559.989 -358.166 559.989 -358.166C559.989 -358.166 559.989 -358.166 559.989 -358.166C559.989 -358.166 559.989 -358.166 559.989 -358.166C559.989 -358.166 559.989 -358.166 559.989 -358.166C559.989 -358.166 559.989 -358.166 559.989 -358.166C559.989 -358.166 559.989 -358.166 559.989 -358.166C559.989 -358.166 559.989 -358.166 559.989 -358.166C559.989 -358.166 559.989 -358.166 559.989 -358.166C559.989 -358.166 559.989 -358.166 559.989 -358.166C559.989 -358.166 559.989 -358.166 559.989 -358.166C559.989 -358.166 559.989 -358.166 559.989 -358.166C559.989 -358.166 559.989 -358.166 559.989 -358.166C559.989 -358.166 559.989 -358.166 559.989 -358.166C559.989 -358.166 559.989 -358.166 559.989 -358.166C559.989 -358.166 559.989 -358.166 559.989 -358.166C559.989 -358.166 559.989 -358.166 559.989 -358.166C559.989 -358.166 559.989 -358.166 559.989 -358.166C559.989 -358.166 559.989 -358.166 559.989 -358.166C559.989 -358.166 559.989 -358.166 559.989 -358.166C559.989 -358.166 559.989 -358.166 559.989 -358.166C559.989 -358.166 559.989 -358.166 559.989 -358.166C559.989 -358.166 559.989 -358.166 559.989 -358.166C559.989 -358.166 559.989 -358.166 559.989 -358.166C559.989 -358.166 559.989 -358.166 559.989 -358.166C559.989 -358.166 559.989 -358.166 559.989 -358.166C559.989 -358.166 559.989 -358.166 559.989 -358.166C559.989 -358.166 559.989 -358.166 559.989 -358.166C559.989 -358.166 559.989 -358.166 559.989 -358.166C559.989 -358.166 559.989 -358.166 559.989 -358.166C559.989 -358.166 559.989 -358.166 559.989 -358.166V-355.166C559.989 -355.166 559.989 -355.166 559.989 -355.166C559.989 -355.166 559.989 -355.166 559.989 -355.166C559.989 -355.166 559.989 -355.166 559.989 -355.166C559.989 -355.166 559.989 -355.166 559.989 -355.166C559.989 -355.166 559.989 -355.166 559.989 -355.166C559.989 -355.166 559.989 -355.166 559.989 -355.166C559.989 -355.166 559.989 -355.166 559.989 -355.166C559.989 -355.166 559.989 -355.166 559.989 -355.166C559.989 -355.166 559.989 -355.166 559.989 -355.166C559.989 -355.166 559.989 -355.166 559.989 -355.166C559.989 -355.166 559.989 -355.166 559.989 -355.166C559.989 -355.166 559.989 -355.166 559.989 -355.166C559.989 -355.166 559.989 -355.166 559.989 -355.166C559.989 -355.166 559.989 -355.166 559.989 -355.166C559.989 -355.166 559.989 -355.166 559.989 -355.166C559.989 -355.166 559.989 -355.166 559.989 -355.166C559.989 -355.166 559.989 -355.166 559.989 -355.166C559.989 -355.166 559.989 -355.166 559.989 -355.166C559.989 -355.166 559.989 -355.166 559.989 -355.166C559.989 -355.166 559.989 -355.166 559.989 -355.166C559.989 -355.166 559.989 -355.166 559.989 -355.166C559.989 -355.166 559.989 -355.166 559.989 -355.166C559.989 -355.166 559.989 -355.166 559.989 -355.166C559.989 -355.166 559.989 -355.166 559.989 -355.166C559.989 -355.166 559.989 -355.166 559.989 -355.166C559.989 -355.166 559.989 -355.166 559.989 -355.166C559.989 -355.166 559.989 -355.166 559.989 -355.166C559.989 -355.166 559.989 -355.166 559.989 -355.166C559.989 -355.166 559.989 -355.166 559.989 -355.166C559.989 -355.166 559.989 -355.166 559.989 -355.166C559.989 -355.166 559.989 -355.166 559.989 -355.166C559.989 -355.166 559.989 -355.166 559.989 -355.166C559.989 -355.166 559.989 -355.166 559.989 -355.166C559.989 -355.166 559.989 -355.166 559.989 -355.166C559.989 -355.166 559.989 -355.166 559.989 -355.166C559.989 -355.166 559.989 -355.166 559.989 -355.166C559.989 -355.166 559.989 -355.166 559.989 -355.166C559.989 -355.166 559.989 -355.166 559.989 -355.166C559.989 -355.166 559.989 -355.166 559.989 -355.166C559.989 -355.166 559.989 -355.166 559.989 -355.166C559.989 -355.166 559.989 -355.166 559.99 -355.166C559.99 -355.166 559.99 -355.166 559.99 -355.166C559.99 -355.166 559.99 -355.166 559.99 -355.166C559.99 -355.166 559.99 -355.166 559.99 -355.166C559.99 -355.166 559.99 -355.166 559.99 -355.166C559.99 -355.166 559.99 -355.166 559.99 -355.166C559.99 -355.166 559.99 -355.166 559.99 -355.166C559.99 -355.166 559.99 -355.166 559.99 -355.166C559.99 -355.166 559.99 -355.166 559.99 -355.166C559.99 -355.166 559.99 -355.166 559.99 -355.166C559.99 -355.166 559.99 -355.166 559.99 -355.166C559.99 -355.166 559.99 -355.166 559.99 -355.166C559.99 -355.166 559.99 -355.166 559.99 -355.166C559.99 -355.166 559.99 -355.166 559.99 -355.166C559.99 -355.166 559.99 -355.166 559.99 -355.166C559.99 -355.166 559.99 -355.166 559.99 -355.166C559.99 -355.166 559.99 -355.166 559.99 -355.166C559.99 -355.166 559.99 -355.166 559.99 -355.166C559.99 -355.166 559.99 -355.166 559.99 -355.166C559.99 -355.166 559.99 -355.166 559.99 -355.166C559.99 -355.166 559.99 -355.166 559.99 -355.166C559.99 -355.166 559.99 -355.166 559.99 -355.166C559.99 -355.166 559.99 -355.166 559.99 -355.166C559.99 -355.166 559.99 -355.166 559.99 -355.166C559.99 -355.166 559.99 -355.166 559.99 -355.166C559.99 -355.166 559.99 -355.166 559.99 -355.166C559.99 -355.166 559.99 -355.166 559.99 -355.166C559.99 -355.166 559.99 -355.166 559.99 -355.166C559.99 -355.166 559.99 -355.166 559.99 -355.166C559.99 -355.166 559.99 -355.166 559.99 -355.166C559.99 -355.166 559.99 -355.166 559.99 -355.166C559.99 -355.166 559.99 -355.166 559.99 -355.166C559.99 -355.166 559.99 -355.166 559.99 -355.166C559.99 -355.166 559.99 -355.166 559.99 -355.166C559.99 -355.166 559.99 -355.166 559.99 -355.166C559.99 -355.166 559.99 -355.166 559.99 -355.166C559.99 -355.166 559.99 -355.166 559.99 -355.166C559.99 -355.166 559.99 -355.166 559.99 -355.166C559.99 -355.166 559.99 -355.166 559.99 -355.166C559.99 -355.166 559.99 -355.166 559.99 -355.166C559.99 -355.166 559.99 -355.166 559.99 -355.166C559.99 -355.166 559.99 -355.166 559.99 -355.166C559.99 -355.166 559.99 -355.166 559.99 -355.166C559.99 -355.166 559.99 -355.166 559.99 -355.166C559.99 -355.166 559.99 -355.166 559.99 -355.166C559.99 -355.166 559.99 -355.166 559.991 -355.166C559.991 -355.166 559.991 -355.166 559.991 -355.166C559.991 -355.166 559.991 -355.166 559.991 -355.166C559.991 -355.166 559.991 -355.166 559.991 -355.166C559.991 -355.166 559.991 -355.166 559.991 -355.166C559.991 -355.166 559.991 -355.166 559.991 -355.166C559.991 -355.166 559.991 -355.166 559.991 -355.166C559.991 -355.166 559.991 -355.166 559.991 -355.166C559.991 -355.166 559.991 -355.166 559.991 -355.166C559.991 -355.166 559.991 -355.166 559.991 -355.166C559.991 -355.166 559.991 -355.166 559.991 -355.166C559.991 -355.166 559.991 -355.166 559.991 -355.166C559.991 -355.166 559.991 -355.166 559.991 -355.166C559.991 -355.166 559.991 -355.166 559.991 -355.166C559.991 -355.166 559.991 -355.166 559.991 -355.166C559.991 -355.166 559.991 -355.166 559.991 -355.166C559.991 -355.166 559.991 -355.166 559.991 -355.166C559.991 -355.166 559.991 -355.166 559.991 -355.166C559.991 -355.166 559.991 -355.166 559.991 -355.166C559.991 -355.166 559.991 -355.166 559.991 -355.166C559.991 -355.166 559.991 -355.166 559.991 -355.166C559.991 -355.166 559.991 -355.166 559.991 -355.166C559.991 -355.166 559.991 -355.166 559.991 -355.166C559.991 -355.166 559.991 -355.166 559.991 -355.166C559.991 -355.166 559.991 -355.166 559.991 -355.166C559.991 -355.166 559.991 -355.166 559.991 -355.166C559.991 -355.166 559.991 -355.166 559.991 -355.166C559.991 -355.166 559.991 -355.166 559.991 -355.166C559.991 -355.166 559.991 -355.166 559.991 -355.166C559.991 -355.166 559.991 -355.166 559.991 -355.166C559.991 -355.166 559.991 -355.166 559.991 -355.166C559.991 -355.166 559.991 -355.166 559.991 -355.166C559.991 -355.166 559.991 -355.166 559.991 -355.166C559.991 -355.166 559.991 -355.166 559.991 -355.166C559.991 -355.166 559.991 -355.166 559.991 -355.166C559.991 -355.166 559.991 -355.166 559.991 -355.166C559.991 -355.166 559.991 -355.166 559.991 -355.166C559.991 -355.166 559.991 -355.166 559.991 -355.166C559.991 -355.166 559.991 -355.166 559.991 -355.166C559.991 -355.166 559.991 -355.166 559.991 -355.166C559.991 -355.166 559.991 -355.166 559.991 -355.166C559.991 -355.166 559.991 -355.166 559.991 -355.166C559.991 -355.166 559.991 -355.166 559.991 -355.166C559.991 -355.166 559.991 -355.166 559.991 -355.166C559.991 -355.166 559.991 -355.166 559.991 -355.166C559.991 -355.166 559.992 -355.166 559.992 -355.166C559.992 -355.166 559.992 -355.166 559.992 -355.166C559.992 -355.166 559.992 -355.166 559.992 -355.166C559.992 -355.166 559.992 -355.166 559.992 -355.166C559.992 -355.166 559.992 -355.166 559.992 -355.166C559.992 -355.166 559.992 -355.166 559.992 -355.166C559.992 -355.166 559.992 -355.166 559.992 -355.166C559.992 -355.166 559.992 -355.166 559.992 -355.166C559.992 -355.166 559.992 -355.166 559.992 -355.166C559.992 -355.166 559.992 -355.166 559.992 -355.166C559.992 -355.166 559.992 -355.166 559.992 -355.166C559.992 -355.166 559.992 -355.166 559.992 -355.166C559.992 -355.166 559.992 -355.166 559.992 -355.166C559.992 -355.166 559.992 -355.166 559.992 -355.166C559.992 -355.166 559.992 -355.166 559.992 -355.166C559.992 -355.166 559.992 -355.166 559.992 -355.166C559.992 -355.166 559.992 -355.166 559.992 -355.166C559.992 -355.166 559.992 -355.166 559.992 -355.166C559.992 -355.166 559.992 -355.166 559.992 -355.166C559.992 -355.166 559.992 -355.166 559.992 -355.166C559.992 -355.166 559.992 -355.166 559.992 -355.166C559.992 -355.166 559.992 -355.166 559.992 -355.166C559.992 -355.166 559.992 -355.166 559.992 -355.166C559.992 -355.166 559.992 -355.166 559.992 -355.166C559.992 -355.166 559.992 -355.166 559.992 -355.166C559.992 -355.166 559.992 -355.166 559.992 -355.166C559.992 -355.166 559.992 -355.166 559.992 -355.166C559.992 -355.166 559.992 -355.166 559.992 -355.166C559.992 -355.166 559.992 -355.166 559.992 -355.166C559.992 -355.166 559.992 -355.166 559.992 -355.166C559.992 -355.166 559.992 -355.166 559.992 -355.166C559.992 -355.166 559.992 -355.166 559.992 -355.166C559.992 -355.166 559.992 -355.166 559.992 -355.166C559.992 -355.166 559.992 -355.166 559.992 -355.166C559.992 -355.166 559.992 -355.166 559.992 -355.166C559.992 -355.166 559.992 -355.166 559.992 -355.166C559.992 -355.166 559.992 -355.166 559.992 -355.166C559.992 -355.166 559.992 -355.166 559.992 -355.166C559.992 -355.166 559.992 -355.166 559.992 -355.166C559.992 -355.166 559.992 -355.166 559.992 -355.166C559.992 -355.166 559.992 -355.166 559.992 -355.166C559.992 -355.166 559.992 -355.166 559.992 -355.166C559.992 -355.166 559.992 -355.166 559.992 -355.166C559.992 -355.166 559.992 -355.166 559.992 -355.166C559.992 -355.166 559.992 -355.166 559.992 -355.166C559.992 -355.166 559.993 -355.166 559.993 -355.166C559.993 -355.166 559.993 -355.166 559.993 -355.166C559.993 -355.166 559.993 -355.166 559.993 -355.166C559.993 -355.166 559.993 -355.166 559.993 -355.166C559.993 -355.166 559.993 -355.166 559.993 -355.166C559.993 -355.166 559.993 -355.166 559.993 -355.166C559.993 -355.166 559.993 -355.166 559.993 -355.166C559.993 -355.166 559.993 -355.166 559.993 -355.166C559.993 -355.166 559.993 -355.166 559.993 -355.166C559.993 -355.166 559.993 -355.166 559.993 -355.166C559.993 -355.166 559.993 -355.166 559.993 -355.166C559.993 -355.166 559.993 -355.166 559.993 -355.166C559.993 -355.166 559.993 -355.166 559.993 -355.166C559.993 -355.166 559.993 -355.166 559.993 -355.166C559.993 -355.166 559.993 -355.166 559.993 -355.166C559.993 -355.166 559.993 -355.166 559.993 -355.166C559.993 -355.166 559.993 -355.166 559.993 -355.166C559.993 -355.166 559.993 -355.166 559.993 -355.166C559.993 -355.166 559.993 -355.166 559.993 -355.166C559.993 -355.166 559.993 -355.166 559.993 -355.166C559.993 -355.166 559.993 -355.166 559.993 -355.166C559.993 -355.166 559.993 -355.166 559.993 -355.166C559.993 -355.166 559.993 -355.166 559.993 -355.166C559.993 -355.166 559.993 -355.166 559.993 -355.166C559.993 -355.166 559.993 -355.166 559.993 -355.166C559.993 -355.166 559.993 -355.166 559.993 -355.166C559.993 -355.166 559.993 -355.166 559.993 -355.166C559.993 -355.166 559.993 -355.166 559.993 -355.166C559.993 -355.166 559.993 -355.166 559.993 -355.166C559.993 -355.166 559.993 -355.166 559.993 -355.166C559.993 -355.166 559.993 -355.166 559.993 -355.166C559.993 -355.166 559.993 -355.166 559.993 -355.166C559.993 -355.166 559.993 -355.166 559.993 -355.166C559.993 -355.166 559.993 -355.166 559.993 -355.166C559.993 -355.166 559.993 -355.166 559.993 -355.166C559.993 -355.166 559.993 -355.166 559.993 -355.166C559.993 -355.166 559.993 -355.166 559.993 -355.166C559.993 -355.166 559.993 -355.166 559.993 -355.166C559.993 -355.166 559.993 -355.166 559.993 -355.166C559.993 -355.166 559.993 -355.166 559.993 -355.166C559.993 -355.166 559.993 -355.166 559.993 -355.166C559.993 -355.166 559.993 -355.166 559.993 -355.166C559.993 -355.166 559.993 -355.166 559.993 -355.166C559.993 -355.166 559.993 -355.166 559.993 -355.166C559.993 -355.166 559.993 -355.166 559.993 -355.166C559.994 -355.166 559.994 -355.166 559.994 -355.166C559.994 -355.166 559.994 -355.166 559.994 -355.166C559.994 -355.166 559.994 -355.166 559.994 -355.166C559.994 -355.166 559.994 -355.166 559.994 -355.166C559.994 -355.166 559.994 -355.166 559.994 -355.166C559.994 -355.166 559.994 -355.166 559.994 -355.166C559.994 -355.166 559.994 -355.166 559.994 -355.166C559.994 -355.166 559.994 -355.166 559.994 -355.166C559.994 -355.166 559.994 -355.166 559.994 -355.166C559.994 -355.166 559.994 -355.166 559.994 -355.166C559.994 -355.166 559.994 -355.166 559.994 -355.166C559.994 -355.166 559.994 -355.166 559.994 -355.166C559.994 -355.166 559.994 -355.166 559.994 -355.166C559.994 -355.166 559.994 -355.166 559.994 -355.166C559.994 -355.166 559.994 -355.166 559.994 -355.166C559.994 -355.166 559.994 -355.166 559.994 -355.166C559.994 -355.166 559.994 -355.166 559.994 -355.166C559.994 -355.166 559.994 -355.166 559.994 -355.166C559.994 -355.166 559.994 -355.166 559.994 -355.166C559.994 -355.166 559.994 -355.166 559.994 -355.166C559.994 -355.166 559.994 -355.166 559.994 -355.166C559.994 -355.166 559.994 -355.166 559.994 -355.166C559.994 -355.166 559.994 -355.166 559.994 -355.166C559.994 -355.166 559.994 -355.166 559.994 -355.166C559.994 -355.166 559.994 -355.166 559.994 -355.166C559.994 -355.166 559.994 -355.166 559.994 -355.166C559.994 -355.166 559.994 -355.166 559.994 -355.166C559.994 -355.166 559.994 -355.166 559.994 -355.166C559.994 -355.166 559.994 -355.166 559.994 -355.166C559.994 -355.166 559.994 -355.166 559.994 -355.166C559.994 -355.166 559.994 -355.166 559.994 -355.166C559.994 -355.166 559.994 -355.166 559.994 -355.166C559.994 -355.166 559.994 -355.166 559.994 -355.166C559.994 -355.166 559.994 -355.166 559.994 -355.166C559.994 -355.166 559.994 -355.166 559.994 -355.166C559.994 -355.166 559.994 -355.166 559.994 -355.166C559.994 -355.166 559.994 -355.166 559.994 -355.166C559.994 -355.166 559.994 -355.166 559.994 -355.166C559.994 -355.166 559.994 -355.166 559.994 -355.166C559.994 -355.166 559.994 -355.166 559.994 -355.166C559.994 -355.166 559.994 -355.166 559.994 -355.166C559.994 -355.166 559.994 -355.166 559.994 -355.166C559.994 -355.166 559.994 -355.166 559.994 -355.166C559.994 -355.166 559.994 -355.166 559.994 -355.166C559.994 -355.166 559.994 -355.166 559.995 -355.166C559.995 -355.166 559.995 -355.166 559.995 -355.166C559.995 -355.166 559.995 -355.166 559.995 -355.166C559.995 -355.166 559.995 -355.166 559.995 -355.166C559.995 -355.166 559.995 -355.166 559.995 -355.166C559.995 -355.166 559.995 -355.166 559.995 -355.166C559.995 -355.166 559.995 -355.166 559.995 -355.166C559.995 -355.166 559.995 -355.166 559.995 -355.166C559.995 -355.166 559.995 -355.166 559.995 -355.166C559.995 -355.166 559.995 -355.166 559.995 -355.166C559.995 -355.166 559.995 -355.166 559.995 -355.166C559.995 -355.166 559.995 -355.166 559.995 -355.166C559.995 -355.166 559.995 -355.166 559.995 -355.166C559.995 -355.166 559.995 -355.166 559.995 -355.166C559.995 -355.166 559.995 -355.166 559.995 -355.166C559.995 -355.166 559.995 -355.166 559.995 -355.166C559.995 -355.166 559.995 -355.166 559.995 -355.166C559.995 -355.166 559.995 -355.166 559.995 -355.166C559.995 -355.166 559.995 -355.166 559.995 -355.166C559.995 -355.166 559.995 -355.166 559.995 -355.166C559.995 -355.166 559.995 -355.166 559.995 -355.166C559.995 -355.166 559.995 -355.166 559.995 -355.166C559.995 -355.166 559.995 -355.166 559.995 -355.166C559.995 -355.166 559.995 -355.166 559.995 -355.166C559.995 -355.166 559.995 -355.166 559.995 -355.166C559.995 -355.166 559.995 -355.166 559.995 -355.166C559.995 -355.166 559.995 -355.166 559.995 -355.166C559.995 -355.166 559.995 -355.166 559.995 -355.166C559.995 -355.166 559.995 -355.166 559.995 -355.166C559.995 -355.166 559.995 -355.166 559.995 -355.166C559.995 -355.166 559.995 -355.166 559.995 -355.166C559.995 -355.166 559.995 -355.166 559.995 -355.166C559.995 -355.166 559.995 -355.166 559.995 -355.166C559.995 -355.166 559.995 -355.166 559.995 -355.166C559.995 -355.166 559.995 -355.166 559.995 -355.166C559.995 -355.166 559.995 -355.166 559.995 -355.166C559.995 -355.166 559.995 -355.166 559.995 -355.166C559.995 -355.166 559.995 -355.166 559.995 -355.166C559.995 -355.166 559.995 -355.166 559.995 -355.166C559.995 -355.166 559.995 -355.166 559.995 -355.166C559.995 -355.166 559.995 -355.166 559.995 -355.166C559.995 -355.166 559.995 -355.166 559.995 -355.166C559.995 -355.166 559.995 -355.166 559.995 -355.166C559.995 -355.166 559.995 -355.166 559.995 -355.166C559.995 -355.166 559.995 -355.166 559.995 -355.166C559.995 -355.166 559.996 -355.166 559.996 -355.166C559.996 -355.166 559.996 -355.166 559.996 -355.166C559.996 -355.166 559.996 -355.166 559.996 -355.166C559.996 -355.166 559.996 -355.166 559.996 -355.166C559.996 -355.166 559.996 -355.166 559.996 -355.166C559.996 -355.166 559.996 -355.166 559.996 -355.166C559.996 -355.166 559.996 -355.166 559.996 -355.166C559.996 -355.166 559.996 -355.166 559.996 -355.166C559.996 -355.166 559.996 -355.166 559.996 -355.166C559.996 -355.166 559.996 -355.166 559.996 -355.166C559.996 -355.166 559.996 -355.166 559.996 -355.166C559.996 -355.166 559.996 -355.166 559.996 -355.166C559.996 -355.166 559.996 -355.166 559.996 -355.166C559.996 -355.166 559.996 -355.166 559.996 -355.166C559.996 -355.166 559.996 -355.166 559.996 -355.166C559.996 -355.166 559.996 -355.166 559.996 -355.166C559.996 -355.166 559.996 -355.166 559.996 -355.166C559.996 -355.166 559.996 -355.166 559.996 -355.166C559.996 -355.166 559.996 -355.166 559.996 -355.166C559.996 -355.166 559.996 -355.166 559.996 -355.166C559.996 -355.166 559.996 -355.166 559.996 -355.166C559.996 -355.166 559.996 -355.166 559.996 -355.166C559.996 -355.166 559.996 -355.166 559.996 -355.166C559.996 -355.166 559.996 -355.166 559.996 -355.166C559.996 -355.166 559.996 -355.166 559.996 -355.166C559.996 -355.166 559.996 -355.166 559.996 -355.166C559.996 -355.166 559.996 -355.166 559.996 -355.166C559.996 -355.166 559.996 -355.166 559.996 -355.166C559.996 -355.166 559.996 -355.166 559.996 -355.166C559.996 -355.166 559.996 -355.166 559.996 -355.166C559.996 -355.166 559.996 -355.166 559.996 -355.166C559.996 -355.166 559.996 -355.166 559.996 -355.166C559.996 -355.166 559.996 -355.166 559.996 -355.166C559.996 -355.166 559.996 -355.166 559.996 -355.166C559.996 -355.166 559.996 -355.166 559.996 -355.166C559.996 -355.166 559.996 -355.166 559.996 -355.166C559.996 -355.166 559.996 -355.166 559.996 -355.166C559.996 -355.166 559.996 -355.166 559.996 -355.166C559.996 -355.166 559.996 -355.166 559.996 -355.166C559.996 -355.166 559.996 -355.166 559.996 -355.166C559.996 -355.166 559.996 -355.166 559.996 -355.166C559.996 -355.166 559.996 -355.166 559.996 -355.166C559.996 -355.166 559.996 -355.166 559.996 -355.166C559.996 -355.166 559.996 -355.166 559.996 -355.166C559.996 -355.166 559.996 -355.166 559.996 -355.166C559.996 -355.166 559.997 -355.166 559.997 -355.166C559.997 -355.166 559.997 -355.166 559.997 -355.166C559.997 -355.166 559.997 -355.166 559.997 -355.166C559.997 -355.166 559.997 -355.166 559.997 -355.166C559.997 -355.166 559.997 -355.166 559.997 -355.166C559.997 -355.166 559.997 -355.166 559.997 -355.166C559.997 -355.166 559.997 -355.166 559.997 -355.166C559.997 -355.166 559.997 -355.166 559.997 -355.166C559.997 -355.166 559.997 -355.166 559.997 -355.166C559.997 -355.166 559.997 -355.166 559.997 -355.166C559.997 -355.166 559.997 -355.166 559.997 -355.166C559.997 -355.166 559.997 -355.166 559.997 -355.166C559.997 -355.166 559.997 -355.166 559.997 -355.166C559.997 -355.166 559.997 -355.166 559.997 -355.166C559.997 -355.166 559.997 -355.166 559.997 -355.166C559.997 -355.166 559.997 -355.166 559.997 -355.166C559.997 -355.166 559.997 -355.166 559.997 -355.166C559.997 -355.166 559.997 -355.166 559.997 -355.166C559.997 -355.166 559.997 -355.166 559.997 -355.166C559.997 -355.166 559.997 -355.166 559.997 -355.166C559.997 -355.166 559.997 -355.166 559.997 -355.166C559.997 -355.166 559.997 -355.166 559.997 -355.166C559.997 -355.166 559.997 -355.166 559.997 -355.166C559.997 -355.166 559.997 -355.166 559.997 -355.166C559.997 -355.166 559.997 -355.166 559.997 -355.166C559.997 -355.166 559.997 -355.166 559.997 -355.166C559.997 -355.166 559.997 -355.166 559.997 -355.166C559.997 -355.166 559.997 -355.166 559.997 -355.166C559.997 -355.166 559.997 -355.166 559.997 -355.166C559.997 -355.166 559.997 -355.166 559.997 -355.166C559.997 -355.166 559.997 -355.166 559.997 -355.166C559.997 -355.166 559.997 -355.166 559.997 -355.166C559.997 -355.166 559.997 -355.166 559.997 -355.166C559.997 -355.166 559.997 -355.166 559.997 -355.166C559.997 -355.166 559.997 -355.166 559.997 -355.166C559.997 -355.166 559.997 -355.166 559.997 -355.166C559.997 -355.166 559.997 -355.166 559.997 -355.166C559.997 -355.166 559.997 -355.166 559.997 -355.166C559.997 -355.166 559.997 -355.166 559.997 -355.166C559.997 -355.166 559.997 -355.166 559.997 -355.166C559.997 -355.166 559.997 -355.166 559.997 -355.166C559.997 -355.166 559.997 -355.166 559.997 -355.166C559.997 -355.166 559.997 -355.166 559.997 -355.166C559.997 -355.166 559.997 -355.166 559.997 -355.166C559.997 -355.166 559.997 -355.166 559.997 -355.166C559.998 -355.166 559.998 -355.166 559.998 -355.166C559.998 -355.166 559.998 -355.166 559.998 -355.166C559.998 -355.166 559.998 -355.166 559.998 -355.166C559.998 -355.166 559.998 -355.166 559.998 -355.166C559.998 -355.166 559.998 -355.166 559.998 -355.166C559.998 -355.166 559.998 -355.166 559.998 -355.166C559.998 -355.166 559.998 -355.166 559.998 -355.166C559.998 -355.166 559.998 -355.166 559.998 -355.166C559.998 -355.166 559.998 -355.166 559.998 -355.166C559.998 -355.166 559.998 -355.166 559.998 -355.166C559.998 -355.166 559.998 -355.166 559.998 -355.166C559.998 -355.166 559.998 -355.166 559.998 -355.166C559.998 -355.166 559.998 -355.166 559.998 -355.166C559.998 -355.166 559.998 -355.166 559.998 -355.166C559.998 -355.166 559.998 -355.166 559.998 -355.166C559.998 -355.166 559.998 -355.166 559.998 -355.166C559.998 -355.166 559.998 -355.166 559.998 -355.166C559.998 -355.166 559.998 -355.166 559.998 -355.166C559.998 -355.166 559.998 -355.166 559.998 -355.166C559.998 -355.166 559.998 -355.166 559.998 -355.166C559.998 -355.166 559.998 -355.166 559.998 -355.166C559.998 -355.166 559.998 -355.166 559.998 -355.166C559.998 -355.166 559.998 -355.166 559.998 -355.166C559.998 -355.166 559.998 -355.166 559.998 -355.166C559.998 -355.166 559.998 -355.166 559.998 -355.166C559.998 -355.166 559.998 -355.166 559.998 -355.166C559.998 -355.166 559.998 -355.166 559.998 -355.166C559.998 -355.166 559.998 -355.166 559.998 -355.166C559.998 -355.166 559.998 -355.166 559.998 -355.166C559.998 -355.166 559.998 -355.166 559.998 -355.166C559.998 -355.166 559.998 -355.166 559.998 -355.166C559.998 -355.166 559.998 -355.166 559.998 -355.166C559.998 -355.166 559.998 -355.166 559.998 -355.166C559.998 -355.166 559.998 -355.166 559.998 -355.166C559.998 -355.166 559.998 -355.166 559.998 -355.166C559.998 -355.166 559.998 -355.166 559.998 -355.166C559.998 -355.166 559.998 -355.166 559.998 -355.166C559.998 -355.166 559.998 -355.166 559.998 -355.166C559.998 -355.166 559.998 -355.166 559.998 -355.166C559.998 -355.166 559.998 -355.166 559.998 -355.166C559.998 -355.166 559.998 -355.166 559.998 -355.166C559.998 -355.166 559.998 -355.166 559.998 -355.166C559.998 -355.166 559.998 -355.166 559.998 -355.166C559.998 -355.166 559.998 -355.166 559.998 -355.166C559.998 -355.166 559.998 -355.166 559.998 -355.166C559.999 -355.166 559.999 -355.166 559.999 -355.166C559.999 -355.166 559.999 -355.166 559.999 -355.166C559.999 -355.166 559.999 -355.166 559.999 -355.166C559.999 -355.166 559.999 -355.166 559.999 -355.166C559.999 -355.166 559.999 -355.166 559.999 -355.166C559.999 -355.166 559.999 -355.166 559.999 -355.166C559.999 -355.166 559.999 -355.166 559.999 -355.166C559.999 -355.166 559.999 -355.166 559.999 -355.166C559.999 -355.166 559.999 -355.166 559.999 -355.166C559.999 -355.166 559.999 -355.166 559.999 -355.166C559.999 -355.166 559.999 -355.166 559.999 -355.166C559.999 -355.166 559.999 -355.166 559.999 -355.166C559.999 -355.166 559.999 -355.166 559.999 -355.166C559.999 -355.166 559.999 -355.166 559.999 -355.166C559.999 -355.166 559.999 -355.166 559.999 -355.166C559.999 -355.166 559.999 -355.166 559.999 -355.166C559.999 -355.166 559.999 -355.166 559.999 -355.166C559.999 -355.166 559.999 -355.166 559.999 -355.166C559.999 -355.166 559.999 -355.166 559.999 -355.166C559.999 -355.166 559.999 -355.166 559.999 -355.166C559.999 -355.166 559.999 -355.166 559.999 -355.166C559.999 -355.166 559.999 -355.166 559.999 -355.166C559.999 -355.166 559.999 -355.166 559.999 -355.166C559.999 -355.166 559.999 -355.166 559.999 -355.166C559.999 -355.166 559.999 -355.166 559.999 -355.166C559.999 -355.166 559.999 -355.166 559.999 -355.166C559.999 -355.166 559.999 -355.166 559.999 -355.166C559.999 -355.166 559.999 -355.166 559.999 -355.166C559.999 -355.166 559.999 -355.166 559.999 -355.166C559.999 -355.166 559.999 -355.166 559.999 -355.166C559.999 -355.166 559.999 -355.166 559.999 -355.166C559.999 -355.166 559.999 -355.166 559.999 -355.166C559.999 -355.166 559.999 -355.166 559.999 -355.166C559.999 -355.166 559.999 -355.166 559.999 -355.166C559.999 -355.166 559.999 -355.166 559.999 -355.166C559.999 -355.166 559.999 -355.166 559.999 -355.166C559.999 -355.166 559.999 -355.166 559.999 -355.166C559.999 -355.166 559.999 -355.166 559.999 -355.166C559.999 -355.166 559.999 -355.166 559.999 -355.166C559.999 -355.166 559.999 -355.166 559.999 -355.166C559.999 -355.166 559.999 -355.166 559.999 -355.166C559.999 -355.166 559.999 -355.166 559.999 -355.166C559.999 -355.166 559.999 -355.166 559.999 -355.166C559.999 -355.166 559.999 -355.166 559.999 -355.166C559.999 -355.166 559.999 -355.166 559.999 -355.166C560 -355.166 560 -355.166 560 -355.166C560 -355.166 560 -355.166 560 -355.166C560 -355.166 560 -355.166 560 -355.166C560 -355.166 560 -355.166 560 -355.166C560 -355.166 560 -355.166 560 -355.166C560 -355.166 560 -355.166 560 -355.166C560 -355.166 560 -355.166 560 -355.166C560 -355.166 560 -355.166 560 -355.166C560 -355.166 560 -355.166 560 -355.166C560 -355.166 560 -355.166 560 -355.166C560 -355.166 560 -355.166 560 -355.166C560 -355.166 560 -355.166 560 -355.166C560 -355.166 560 -355.166 560 -355.166C560 -355.166 560 -355.166 560 -355.166C560 -355.166 560 -355.166 560 -355.166C560 -355.166 560 -355.166 560 -355.166C560 -355.166 560 -355.166 560 -355.166C560 -355.166 560 -355.166 560 -355.166C560 -355.166 560 -355.166 560 -355.166C560 -355.166 560 -355.166 560 -355.166C560 -355.166 560 -355.166 560 -355.166C560 -355.166 560 -355.166 560 -355.166C560 -355.166 560 -355.166 560 -355.166V-358.166ZM559.989 -358.166C520.594 -358.166 488.583 -389.782 487.945 -429.024L484.946 -428.976C485.61 -388.098 518.953 -355.166 559.989 -355.166V-358.166Z" fill="#C9AC6A"/>
</g>
</g>
<defs>
<filter id="filter0_d" x="-9.5" y="-436.5" width="581" height="600" filterUnits="userSpaceOnUse" color-interpolation-filters="sRGB">
<feFlood flood-opacity="0" result="BackgroundImageFix"/>
<feColorMatrix in="SourceAlpha" type="matrix" values="0 0 0 0 0 0 0 0 0 0 0 0 0 0 0 0 0 0 127 0" result="hardAlpha"/>
<feOffset dy="4"/>
<feGaussianBlur stdDeviation="5"/>
<feColorMatrix type="matrix" values="0 0 0 0 0.00392157 0 0 0 0 0.0156863 0 0 0 0 0.027451 0 0 0 0.1 0"/>
<feBlend mode="normal" in2="BackgroundImageFix" result="effect1_dropShadow"/>
<feBlend mode="normal" in="SourceGraphic" in2="effect1_dropShadow" result="shape"/>
</filter>
</defs>
</svg>
