<svg width="444" height="267" viewBox="0 0 444 267" fill="none" xmlns="http://www.w3.org/2000/svg">
<path d="M441 59V49.1754C418.888 49.1754 394.81 29.5263 394.81 3H384" stroke="#BB8C3C"/>
<path d="M3 59V49.1754C25.1121 49.1754 49.1897 29.5263 49.1897 3H60" stroke="#BB8C3C"/>
<path fill-rule="evenodd" clip-rule="evenodd" d="M384.008 2H59.9916C59.4578 33.5712 33.6985 59 2 59V255C2 260.523 6.47716 265 12 265H222H432C437.523 265 442 260.523 442 255V59C410.302 59 384.542 33.5712 384.008 2Z" fill="#0D1F30"/>
<path d="M384.008 2L385.508 1.97465L385.483 0.5H384.008V2ZM59.9916 2V0.5H58.5167L58.4918 1.97465L59.9916 2ZM2 59V57.5H0.5V59H2ZM442 59H443.5V57.5H442V59ZM384.008 0.5H59.9916V3.5H384.008V0.5ZM58.4918 1.97465C57.9718 32.7288 32.8786 57.5 2 57.5V60.5C34.5185 60.5 60.9438 34.4136 61.4913 2.02535L58.4918 1.97465ZM0.5 59V255H3.5V59H0.5ZM0.5 255C0.5 261.351 5.64873 266.5 12 266.5V263.5C7.30558 263.5 3.5 259.694 3.5 255H0.5ZM12 266.5H222V263.5H12V266.5ZM222 266.5H432V263.5H222V266.5ZM432 266.5C438.351 266.5 443.5 261.351 443.5 255H440.5C440.5 259.694 436.694 263.5 432 263.5V266.5ZM443.5 255V59H440.5V255H443.5ZM442 57.5C411.121 57.5 386.028 32.7288 385.508 1.97465L382.509 2.02535C383.056 34.4136 409.482 60.5 442 60.5V57.5Z" fill="#C9AC6A"/>
<path d="M3 73.0877C36.75 73.0877 73.5 43.2632 73.5 3" stroke="#BB8C3C"/>
<path d="M72 15H14V72" stroke="#BB8C3C"/>
<path d="M371 15H429V72" stroke="#BB8C3C"/>
<path d="M440.5 73.0877C406.75 73.0877 370 43.2632 370 3" stroke="#BB8C3C"/>
</svg>
