<svg width="562" height="668" viewBox="0 0 562 668" fill="none" xmlns="http://www.w3.org/2000/svg">
<path d="M3.26831 74.3331V61.8741C31.3099 61.8741 61.844 36.9559 61.844 3.31641H75.5532" stroke="#BB8C3C"/>
<path d="M558.72 74.3331V61.8741C530.679 61.8741 500.145 36.9559 500.145 3.31641H486.436" stroke="#BB8C3C"/>
<path fill-rule="evenodd" clip-rule="evenodd" d="M486.445 1.99902H75.5431C74.892 42.0589 42.215 74.3328 1.99999 74.3328L2.00002 655.999C2.00002 661.522 6.47718 665.999 12 665.999H281H550C555.523 665.999 560 661.522 560 655.999V74.3328C559.996 74.3328 559.992 74.3328 559.989 74.3328C519.774 74.3328 487.097 42.0589 486.445 1.99902Z" fill="#0D1F30"/>
<path d="M486.445 1.99902L487.945 1.97465L487.921 0.499023H486.445V1.99902ZM75.5431 1.99902V0.499023H74.0673L74.0433 1.97465L75.5431 1.99902ZM1.99999 74.3328V72.8328H0.499992L0.499992 74.3328L1.99999 74.3328ZM2.00002 655.999L3.50002 655.999L3.50002 655.999L2.00002 655.999ZM560 74.3328H561.5V72.8328H560V74.3328ZM486.445 0.499023H75.5431V3.49902H486.445V0.499023ZM74.0433 1.97465C73.4055 41.217 41.3947 72.8328 1.99999 72.8328V75.8328C43.0353 75.8328 76.3786 42.9007 77.0429 2.0234L74.0433 1.97465ZM0.499992 74.3328L0.500023 655.999L3.50002 655.999L3.49999 74.3328L0.499992 74.3328ZM0.500023 655.999C0.500023 662.35 5.64875 667.499 12 667.499V664.499C7.30561 664.499 3.50002 660.693 3.50002 655.999H0.500023ZM12 667.499H281V664.499H12V667.499ZM281 667.499H550V664.499H281V667.499ZM550 667.499C556.351 667.499 561.5 662.35 561.5 655.999H558.5C558.5 660.693 554.694 664.499 550 664.499V667.499ZM561.5 655.999V74.3328H558.5V655.999H561.5ZM560 72.8328C560 72.8328 560 72.8328 560 72.8328C560 72.8328 560 72.8328 560 72.8328C560 72.8328 560 72.8328 560 72.8328C560 72.8328 560 72.8328 560 72.8328C560 72.8328 560 72.8328 560 72.8328C560 72.8328 560 72.8328 560 72.8328C560 72.8328 560 72.8328 560 72.8328C560 72.8328 560 72.8328 560 72.8328C560 72.8328 560 72.8328 560 72.8328C560 72.8328 560 72.8328 560 72.8328C560 72.8328 560 72.8328 560 72.8328C560 72.8328 560 72.8328 560 72.8328C560 72.8328 560 72.8328 560 72.8328C560 72.8328 560 72.8328 560 72.8328C560 72.8328 560 72.8328 560 72.8328C560 72.8328 560 72.8328 560 72.8328C560 72.8328 560 72.8328 560 72.8328C560 72.8328 560 72.8328 560 72.8328C560 72.8328 560 72.8328 560 72.8328C560 72.8328 560 72.8328 560 72.8328C560 72.8328 560 72.8328 560 72.8328C560 72.8328 560 72.8328 560 72.8328C560 72.8328 559.999 72.8328 559.999 72.8328C559.999 72.8328 559.999 72.8328 559.999 72.8328C559.999 72.8328 559.999 72.8328 559.999 72.8328C559.999 72.8328 559.999 72.8328 559.999 72.8328C559.999 72.8328 559.999 72.8328 559.999 72.8328C559.999 72.8328 559.999 72.8328 559.999 72.8328C559.999 72.8328 559.999 72.8328 559.999 72.8328C559.999 72.8328 559.999 72.8328 559.999 72.8328C559.999 72.8328 559.999 72.8328 559.999 72.8328C559.999 72.8328 559.999 72.8328 559.999 72.8328C559.999 72.8328 559.999 72.8328 559.999 72.8328C559.999 72.8328 559.999 72.8328 559.999 72.8328C559.999 72.8328 559.999 72.8328 559.999 72.8328C559.999 72.8328 559.999 72.8328 559.999 72.8328C559.999 72.8328 559.999 72.8328 559.999 72.8328C559.999 72.8328 559.999 72.8328 559.999 72.8328C559.999 72.8328 559.999 72.8328 559.999 72.8328C559.999 72.8328 559.999 72.8328 559.999 72.8328C559.999 72.8328 559.999 72.8328 559.999 72.8328C559.999 72.8328 559.999 72.8328 559.999 72.8328C559.999 72.8328 559.999 72.8328 559.999 72.8328C559.999 72.8328 559.999 72.8328 559.999 72.8328C559.999 72.8328 559.999 72.8328 559.999 72.8328C559.999 72.8328 559.999 72.8328 559.999 72.8328C559.999 72.8328 559.999 72.8328 559.999 72.8328C559.999 72.8328 559.999 72.8328 559.999 72.8328C559.999 72.8328 559.999 72.8328 559.999 72.8328C559.999 72.8328 559.999 72.8328 559.999 72.8328C559.999 72.8328 559.999 72.8328 559.999 72.8328C559.999 72.8328 559.999 72.8328 559.999 72.8328C559.999 72.8328 559.999 72.8328 559.999 72.8328C559.999 72.8328 559.999 72.8328 559.999 72.8328C559.999 72.8328 559.999 72.8328 559.999 72.8328C559.999 72.8328 559.999 72.8328 559.999 72.8328C559.999 72.8328 559.999 72.8328 559.999 72.8328C559.999 72.8328 559.999 72.8328 559.999 72.8328C559.999 72.8328 559.999 72.8328 559.999 72.8328C559.999 72.8328 559.999 72.8328 559.999 72.8328C559.999 72.8328 559.999 72.8328 559.999 72.8328C559.999 72.8328 559.999 72.8328 559.999 72.8328C559.999 72.8328 559.999 72.8328 559.999 72.8328C559.999 72.8328 559.999 72.8328 559.999 72.8328C559.999 72.8328 559.999 72.8328 559.999 72.8328C559.999 72.8328 559.999 72.8328 559.999 72.8328C559.999 72.8328 559.999 72.8328 559.999 72.8328C559.999 72.8328 559.998 72.8328 559.998 72.8328C559.998 72.8328 559.998 72.8328 559.998 72.8328C559.998 72.8328 559.998 72.8328 559.998 72.8328C559.998 72.8328 559.998 72.8328 559.998 72.8328C559.998 72.8328 559.998 72.8328 559.998 72.8328C559.998 72.8328 559.998 72.8328 559.998 72.8328C559.998 72.8328 559.998 72.8328 559.998 72.8328C559.998 72.8328 559.998 72.8328 559.998 72.8328C559.998 72.8328 559.998 72.8328 559.998 72.8328C559.998 72.8328 559.998 72.8328 559.998 72.8328C559.998 72.8328 559.998 72.8328 559.998 72.8328C559.998 72.8328 559.998 72.8328 559.998 72.8328C559.998 72.8328 559.998 72.8328 559.998 72.8328C559.998 72.8328 559.998 72.8328 559.998 72.8328C559.998 72.8328 559.998 72.8328 559.998 72.8328C559.998 72.8328 559.998 72.8328 559.998 72.8328C559.998 72.8328 559.998 72.8328 559.998 72.8328C559.998 72.8328 559.998 72.8328 559.998 72.8328C559.998 72.8328 559.998 72.8328 559.998 72.8328C559.998 72.8328 559.998 72.8328 559.998 72.8328C559.998 72.8328 559.998 72.8328 559.998 72.8328C559.998 72.8328 559.998 72.8328 559.998 72.8328C559.998 72.8328 559.998 72.8328 559.998 72.8328C559.998 72.8328 559.998 72.8328 559.998 72.8328C559.998 72.8328 559.998 72.8328 559.998 72.8328C559.998 72.8328 559.998 72.8328 559.998 72.8328C559.998 72.8328 559.998 72.8328 559.998 72.8328C559.998 72.8328 559.998 72.8328 559.998 72.8328C559.998 72.8328 559.998 72.8328 559.998 72.8328C559.998 72.8328 559.998 72.8328 559.998 72.8328C559.998 72.8328 559.998 72.8328 559.998 72.8328C559.998 72.8328 559.998 72.8328 559.998 72.8328C559.998 72.8328 559.998 72.8328 559.998 72.8328C559.998 72.8328 559.998 72.8328 559.998 72.8328C559.998 72.8328 559.998 72.8328 559.998 72.8328C559.998 72.8328 559.998 72.8328 559.998 72.8328C559.998 72.8328 559.998 72.8328 559.998 72.8328C559.998 72.8328 559.998 72.8328 559.998 72.8328C559.998 72.8328 559.998 72.8328 559.998 72.8328C559.998 72.8328 559.998 72.8328 559.998 72.8328C559.998 72.8328 559.998 72.8328 559.998 72.8328C559.998 72.8328 559.998 72.8328 559.998 72.8328C559.998 72.8328 559.998 72.8328 559.998 72.8328C559.998 72.8328 559.998 72.8328 559.998 72.8328C559.998 72.8328 559.998 72.8328 559.998 72.8328C559.998 72.8328 559.997 72.8328 559.997 72.8328C559.997 72.8328 559.997 72.8328 559.997 72.8328C559.997 72.8328 559.997 72.8328 559.997 72.8328C559.997 72.8328 559.997 72.8328 559.997 72.8328C559.997 72.8328 559.997 72.8328 559.997 72.8328C559.997 72.8328 559.997 72.8328 559.997 72.8328C559.997 72.8328 559.997 72.8328 559.997 72.8328C559.997 72.8328 559.997 72.8328 559.997 72.8328C559.997 72.8328 559.997 72.8328 559.997 72.8328C559.997 72.8328 559.997 72.8328 559.997 72.8328C559.997 72.8328 559.997 72.8328 559.997 72.8328C559.997 72.8328 559.997 72.8328 559.997 72.8328C559.997 72.8328 559.997 72.8328 559.997 72.8328C559.997 72.8328 559.997 72.8328 559.997 72.8328C559.997 72.8328 559.997 72.8328 559.997 72.8328C559.997 72.8328 559.997 72.8328 559.997 72.8328C559.997 72.8328 559.997 72.8328 559.997 72.8328C559.997 72.8328 559.997 72.8328 559.997 72.8328C559.997 72.8328 559.997 72.8328 559.997 72.8328C559.997 72.8328 559.997 72.8328 559.997 72.8328C559.997 72.8328 559.997 72.8328 559.997 72.8328C559.997 72.8328 559.997 72.8328 559.997 72.8328C559.997 72.8328 559.997 72.8328 559.997 72.8328C559.997 72.8328 559.997 72.8328 559.997 72.8328C559.997 72.8328 559.997 72.8328 559.997 72.8328C559.997 72.8328 559.997 72.8328 559.997 72.8328C559.997 72.8328 559.997 72.8328 559.997 72.8328C559.997 72.8328 559.997 72.8328 559.997 72.8328C559.997 72.8328 559.997 72.8328 559.997 72.8328C559.997 72.8328 559.997 72.8328 559.997 72.8328C559.997 72.8328 559.997 72.8328 559.997 72.8328C559.997 72.8328 559.997 72.8328 559.997 72.8328C559.997 72.8328 559.997 72.8328 559.997 72.8328C559.997 72.8328 559.997 72.8328 559.997 72.8328C559.997 72.8328 559.997 72.8328 559.997 72.8328C559.997 72.8328 559.997 72.8328 559.997 72.8328C559.997 72.8328 559.997 72.8328 559.997 72.8328C559.997 72.8328 559.997 72.8328 559.997 72.8328C559.997 72.8328 559.997 72.8328 559.997 72.8328C559.997 72.8328 559.997 72.8328 559.997 72.8328C559.997 72.8328 559.997 72.8328 559.997 72.8328C559.997 72.8328 559.997 72.8328 559.997 72.8328C559.997 72.8328 559.997 72.8328 559.997 72.8328C559.997 72.8328 559.997 72.8328 559.997 72.8328C559.997 72.8328 559.997 72.8328 559.997 72.8328C559.996 72.8328 559.996 72.8328 559.996 72.8328C559.996 72.8328 559.996 72.8328 559.996 72.8328C559.996 72.8328 559.996 72.8328 559.996 72.8328C559.996 72.8328 559.996 72.8328 559.996 72.8328C559.996 72.8328 559.996 72.8328 559.996 72.8328C559.996 72.8328 559.996 72.8328 559.996 72.8328C559.996 72.8328 559.996 72.8328 559.996 72.8328C559.996 72.8328 559.996 72.8328 559.996 72.8328C559.996 72.8328 559.996 72.8328 559.996 72.8328C559.996 72.8328 559.996 72.8328 559.996 72.8328C559.996 72.8328 559.996 72.8328 559.996 72.8328C559.996 72.8328 559.996 72.8328 559.996 72.8328C559.996 72.8328 559.996 72.8328 559.996 72.8328C559.996 72.8328 559.996 72.8328 559.996 72.8328C559.996 72.8328 559.996 72.8328 559.996 72.8328C559.996 72.8328 559.996 72.8328 559.996 72.8328C559.996 72.8328 559.996 72.8328 559.996 72.8328C559.996 72.8328 559.996 72.8328 559.996 72.8328C559.996 72.8328 559.996 72.8328 559.996 72.8328C559.996 72.8328 559.996 72.8328 559.996 72.8328C559.996 72.8328 559.996 72.8328 559.996 72.8328C559.996 72.8328 559.996 72.8328 559.996 72.8328C559.996 72.8328 559.996 72.8328 559.996 72.8328C559.996 72.8328 559.996 72.8328 559.996 72.8328C559.996 72.8328 559.996 72.8328 559.996 72.8328C559.996 72.8328 559.996 72.8328 559.996 72.8328C559.996 72.8328 559.996 72.8328 559.996 72.8328C559.996 72.8328 559.996 72.8328 559.996 72.8328C559.996 72.8328 559.996 72.8328 559.996 72.8328C559.996 72.8328 559.996 72.8328 559.996 72.8328C559.996 72.8328 559.996 72.8328 559.996 72.8328C559.996 72.8328 559.996 72.8328 559.996 72.8328C559.996 72.8328 559.996 72.8328 559.996 72.8328C559.996 72.8328 559.996 72.8328 559.996 72.8328C559.996 72.8328 559.996 72.8328 559.996 72.8328C559.996 72.8328 559.996 72.8328 559.996 72.8328C559.996 72.8328 559.996 72.8328 559.996 72.8328C559.996 72.8328 559.996 72.8328 559.996 72.8328C559.996 72.8328 559.996 72.8328 559.996 72.8328C559.996 72.8328 559.996 72.8328 559.996 72.8328C559.996 72.8328 559.996 72.8328 559.996 72.8328C559.996 72.8328 559.996 72.8328 559.996 72.8328C559.996 72.8328 559.996 72.8328 559.996 72.8328C559.996 72.8328 559.996 72.8328 559.996 72.8328C559.996 72.8328 559.996 72.8328 559.996 72.8328C559.995 72.8328 559.995 72.8328 559.995 72.8328C559.995 72.8328 559.995 72.8328 559.995 72.8328C559.995 72.8328 559.995 72.8328 559.995 72.8328C559.995 72.8328 559.995 72.8328 559.995 72.8328C559.995 72.8328 559.995 72.8328 559.995 72.8328C559.995 72.8328 559.995 72.8328 559.995 72.8328C559.995 72.8328 559.995 72.8328 559.995 72.8328C559.995 72.8328 559.995 72.8328 559.995 72.8328C559.995 72.8328 559.995 72.8328 559.995 72.8328C559.995 72.8328 559.995 72.8328 559.995 72.8328C559.995 72.8328 559.995 72.8328 559.995 72.8328C559.995 72.8328 559.995 72.8328 559.995 72.8328C559.995 72.8328 559.995 72.8328 559.995 72.8328C559.995 72.8328 559.995 72.8328 559.995 72.8328C559.995 72.8328 559.995 72.8328 559.995 72.8328C559.995 72.8328 559.995 72.8328 559.995 72.8328C559.995 72.8328 559.995 72.8328 559.995 72.8328C559.995 72.8328 559.995 72.8328 559.995 72.8328C559.995 72.8328 559.995 72.8328 559.995 72.8328C559.995 72.8328 559.995 72.8328 559.995 72.8328C559.995 72.8328 559.995 72.8328 559.995 72.8328C559.995 72.8328 559.995 72.8328 559.995 72.8328C559.995 72.8328 559.995 72.8328 559.995 72.8328C559.995 72.8328 559.995 72.8328 559.995 72.8328C559.995 72.8328 559.995 72.8328 559.995 72.8328C559.995 72.8328 559.995 72.8328 559.995 72.8328C559.995 72.8328 559.995 72.8328 559.995 72.8328C559.995 72.8328 559.995 72.8328 559.995 72.8328C559.995 72.8328 559.995 72.8328 559.995 72.8328C559.995 72.8328 559.995 72.8328 559.995 72.8328C559.995 72.8328 559.995 72.8328 559.995 72.8328C559.995 72.8328 559.995 72.8328 559.995 72.8328C559.995 72.8328 559.995 72.8328 559.995 72.8328C559.995 72.8328 559.995 72.8328 559.995 72.8328C559.995 72.8328 559.995 72.8328 559.995 72.8328C559.995 72.8328 559.995 72.8328 559.995 72.8328C559.995 72.8328 559.995 72.8328 559.995 72.8328C559.995 72.8328 559.995 72.8328 559.995 72.8328C559.995 72.8328 559.995 72.8328 559.995 72.8328C559.995 72.8328 559.995 72.8328 559.995 72.8328C559.995 72.8328 559.995 72.8328 559.995 72.8328C559.995 72.8328 559.995 72.8328 559.995 72.8328C559.995 72.8328 559.995 72.8328 559.995 72.8328C559.995 72.8328 559.995 72.8328 559.995 72.8328C559.995 72.8328 559.995 72.8328 559.994 72.8328C559.994 72.8328 559.994 72.8328 559.994 72.8328C559.994 72.8328 559.994 72.8328 559.994 72.8328C559.994 72.8328 559.994 72.8328 559.994 72.8328C559.994 72.8328 559.994 72.8328 559.994 72.8328C559.994 72.8328 559.994 72.8328 559.994 72.8328C559.994 72.8328 559.994 72.8328 559.994 72.8328C559.994 72.8328 559.994 72.8328 559.994 72.8328C559.994 72.8328 559.994 72.8328 559.994 72.8328C559.994 72.8328 559.994 72.8328 559.994 72.8328C559.994 72.8328 559.994 72.8328 559.994 72.8328C559.994 72.8328 559.994 72.8328 559.994 72.8328C559.994 72.8328 559.994 72.8328 559.994 72.8328C559.994 72.8328 559.994 72.8328 559.994 72.8328C559.994 72.8328 559.994 72.8328 559.994 72.8328C559.994 72.8328 559.994 72.8328 559.994 72.8328C559.994 72.8328 559.994 72.8328 559.994 72.8328C559.994 72.8328 559.994 72.8328 559.994 72.8328C559.994 72.8328 559.994 72.8328 559.994 72.8328C559.994 72.8328 559.994 72.8328 559.994 72.8328C559.994 72.8328 559.994 72.8328 559.994 72.8328C559.994 72.8328 559.994 72.8328 559.994 72.8328C559.994 72.8328 559.994 72.8328 559.994 72.8328C559.994 72.8328 559.994 72.8328 559.994 72.8328C559.994 72.8328 559.994 72.8328 559.994 72.8328C559.994 72.8328 559.994 72.8328 559.994 72.8328C559.994 72.8328 559.994 72.8328 559.994 72.8328C559.994 72.8328 559.994 72.8328 559.994 72.8328C559.994 72.8328 559.994 72.8328 559.994 72.8328C559.994 72.8328 559.994 72.8328 559.994 72.8328C559.994 72.8328 559.994 72.8328 559.994 72.8328C559.994 72.8328 559.994 72.8328 559.994 72.8328C559.994 72.8328 559.994 72.8328 559.994 72.8328C559.994 72.8328 559.994 72.8328 559.994 72.8328C559.994 72.8328 559.994 72.8328 559.994 72.8328C559.994 72.8328 559.994 72.8328 559.994 72.8328C559.994 72.8328 559.994 72.8328 559.994 72.8328C559.994 72.8328 559.994 72.8328 559.994 72.8328C559.994 72.8328 559.994 72.8328 559.994 72.8328C559.994 72.8328 559.994 72.8328 559.994 72.8328C559.994 72.8328 559.994 72.8328 559.994 72.8328C559.994 72.8328 559.994 72.8328 559.994 72.8328C559.994 72.8328 559.994 72.8328 559.994 72.8328C559.994 72.8328 559.994 72.8328 559.994 72.8328C559.994 72.8328 559.994 72.8328 559.994 72.8328C559.994 72.8328 559.993 72.8328 559.993 72.8328C559.993 72.8328 559.993 72.8328 559.993 72.8328C559.993 72.8328 559.993 72.8328 559.993 72.8328C559.993 72.8328 559.993 72.8328 559.993 72.8328C559.993 72.8328 559.993 72.8328 559.993 72.8328C559.993 72.8328 559.993 72.8328 559.993 72.8328C559.993 72.8328 559.993 72.8328 559.993 72.8328C559.993 72.8328 559.993 72.8328 559.993 72.8328C559.993 72.8328 559.993 72.8328 559.993 72.8328C559.993 72.8328 559.993 72.8328 559.993 72.8328C559.993 72.8328 559.993 72.8328 559.993 72.8328C559.993 72.8328 559.993 72.8328 559.993 72.8328C559.993 72.8328 559.993 72.8328 559.993 72.8328C559.993 72.8328 559.993 72.8328 559.993 72.8328C559.993 72.8328 559.993 72.8328 559.993 72.8328C559.993 72.8328 559.993 72.8328 559.993 72.8328C559.993 72.8328 559.993 72.8328 559.993 72.8328C559.993 72.8328 559.993 72.8328 559.993 72.8328C559.993 72.8328 559.993 72.8328 559.993 72.8328C559.993 72.8328 559.993 72.8328 559.993 72.8328C559.993 72.8328 559.993 72.8328 559.993 72.8328C559.993 72.8328 559.993 72.8328 559.993 72.8328C559.993 72.8328 559.993 72.8328 559.993 72.8328C559.993 72.8328 559.993 72.8328 559.993 72.8328C559.993 72.8328 559.993 72.8328 559.993 72.8328C559.993 72.8328 559.993 72.8328 559.993 72.8328C559.993 72.8328 559.993 72.8328 559.993 72.8328C559.993 72.8328 559.993 72.8328 559.993 72.8328C559.993 72.8328 559.993 72.8328 559.993 72.8328C559.993 72.8328 559.993 72.8328 559.993 72.8328C559.993 72.8328 559.993 72.8328 559.993 72.8328C559.993 72.8328 559.993 72.8328 559.993 72.8328C559.993 72.8328 559.993 72.8328 559.993 72.8328C559.993 72.8328 559.993 72.8328 559.993 72.8328C559.993 72.8328 559.993 72.8328 559.993 72.8328C559.993 72.8328 559.993 72.8328 559.993 72.8328C559.993 72.8328 559.993 72.8328 559.993 72.8328C559.993 72.8328 559.993 72.8328 559.993 72.8328C559.993 72.8328 559.993 72.8328 559.993 72.8328C559.993 72.8328 559.993 72.8328 559.993 72.8328C559.993 72.8328 559.993 72.8328 559.993 72.8328C559.993 72.8328 559.993 72.8328 559.993 72.8328C559.993 72.8328 559.993 72.8328 559.993 72.8328C559.993 72.8328 559.993 72.8328 559.993 72.8328C559.993 72.8328 559.993 72.8328 559.993 72.8328C559.992 72.8328 559.992 72.8328 559.992 72.8328C559.992 72.8328 559.992 72.8328 559.992 72.8328C559.992 72.8328 559.992 72.8328 559.992 72.8328C559.992 72.8328 559.992 72.8328 559.992 72.8328C559.992 72.8328 559.992 72.8328 559.992 72.8328C559.992 72.8328 559.992 72.8328 559.992 72.8328C559.992 72.8328 559.992 72.8328 559.992 72.8328C559.992 72.8328 559.992 72.8328 559.992 72.8328C559.992 72.8328 559.992 72.8328 559.992 72.8328C559.992 72.8328 559.992 72.8328 559.992 72.8328C559.992 72.8328 559.992 72.8328 559.992 72.8328C559.992 72.8328 559.992 72.8328 559.992 72.8328C559.992 72.8328 559.992 72.8328 559.992 72.8328C559.992 72.8328 559.992 72.8328 559.992 72.8328C559.992 72.8328 559.992 72.8328 559.992 72.8328C559.992 72.8328 559.992 72.8328 559.992 72.8328C559.992 72.8328 559.992 72.8328 559.992 72.8328C559.992 72.8328 559.992 72.8328 559.992 72.8328C559.992 72.8328 559.992 72.8328 559.992 72.8328C559.992 72.8328 559.992 72.8328 559.992 72.8328C559.992 72.8328 559.992 72.8328 559.992 72.8328C559.992 72.8328 559.992 72.8328 559.992 72.8328C559.992 72.8328 559.992 72.8328 559.992 72.8328C559.992 72.8328 559.992 72.8328 559.992 72.8328C559.992 72.8328 559.992 72.8328 559.992 72.8328C559.992 72.8328 559.992 72.8328 559.992 72.8328C559.992 72.8328 559.992 72.8328 559.992 72.8328C559.992 72.8328 559.992 72.8328 559.992 72.8328C559.992 72.8328 559.992 72.8328 559.992 72.8328C559.992 72.8328 559.992 72.8328 559.992 72.8328C559.992 72.8328 559.992 72.8328 559.992 72.8328C559.992 72.8328 559.992 72.8328 559.992 72.8328C559.992 72.8328 559.992 72.8328 559.992 72.8328C559.992 72.8328 559.992 72.8328 559.992 72.8328C559.992 72.8328 559.992 72.8328 559.992 72.8328C559.992 72.8328 559.992 72.8328 559.992 72.8328C559.992 72.8328 559.992 72.8328 559.992 72.8328C559.992 72.8328 559.992 72.8328 559.992 72.8328C559.992 72.8328 559.992 72.8328 559.992 72.8328C559.992 72.8328 559.992 72.8328 559.992 72.8328C559.992 72.8328 559.992 72.8328 559.992 72.8328C559.992 72.8328 559.992 72.8328 559.992 72.8328C559.992 72.8328 559.992 72.8328 559.992 72.8328C559.992 72.8328 559.992 72.8328 559.992 72.8328C559.992 72.8328 559.992 72.8328 559.992 72.8328C559.991 72.8328 559.991 72.8328 559.991 72.8328C559.991 72.8328 559.991 72.8328 559.991 72.8328C559.991 72.8328 559.991 72.8328 559.991 72.8328C559.991 72.8328 559.991 72.8328 559.991 72.8328C559.991 72.8328 559.991 72.8328 559.991 72.8328C559.991 72.8328 559.991 72.8328 559.991 72.8328C559.991 72.8328 559.991 72.8328 559.991 72.8328C559.991 72.8328 559.991 72.8328 559.991 72.8328C559.991 72.8328 559.991 72.8328 559.991 72.8328C559.991 72.8328 559.991 72.8328 559.991 72.8328C559.991 72.8328 559.991 72.8328 559.991 72.8328C559.991 72.8328 559.991 72.8328 559.991 72.8328C559.991 72.8328 559.991 72.8328 559.991 72.8328C559.991 72.8328 559.991 72.8328 559.991 72.8328C559.991 72.8328 559.991 72.8328 559.991 72.8328C559.991 72.8328 559.991 72.8328 559.991 72.8328C559.991 72.8328 559.991 72.8328 559.991 72.8328C559.991 72.8328 559.991 72.8328 559.991 72.8328C559.991 72.8328 559.991 72.8328 559.991 72.8328C559.991 72.8328 559.991 72.8328 559.991 72.8328C559.991 72.8328 559.991 72.8328 559.991 72.8328C559.991 72.8328 559.991 72.8328 559.991 72.8328C559.991 72.8328 559.991 72.8328 559.991 72.8328C559.991 72.8328 559.991 72.8328 559.991 72.8328C559.991 72.8328 559.991 72.8328 559.991 72.8328C559.991 72.8328 559.991 72.8328 559.991 72.8328C559.991 72.8328 559.991 72.8328 559.991 72.8328C559.991 72.8328 559.991 72.8328 559.991 72.8328C559.991 72.8328 559.991 72.8328 559.991 72.8328C559.991 72.8328 559.991 72.8328 559.991 72.8328C559.991 72.8328 559.991 72.8328 559.991 72.8328C559.991 72.8328 559.991 72.8328 559.991 72.8328C559.991 72.8328 559.991 72.8328 559.991 72.8328C559.991 72.8328 559.991 72.8328 559.991 72.8328C559.991 72.8328 559.991 72.8328 559.991 72.8328C559.991 72.8328 559.991 72.8328 559.991 72.8328C559.991 72.8328 559.991 72.8328 559.991 72.8328C559.991 72.8328 559.991 72.8328 559.991 72.8328C559.991 72.8328 559.991 72.8328 559.991 72.8328C559.991 72.8328 559.991 72.8328 559.991 72.8328C559.991 72.8328 559.991 72.8328 559.991 72.8328C559.991 72.8328 559.991 72.8328 559.991 72.8328C559.991 72.8328 559.991 72.8328 559.991 72.8328C559.991 72.8328 559.991 72.8328 559.991 72.8328C559.991 72.8328 559.991 72.8328 559.99 72.8328C559.99 72.8328 559.99 72.8328 559.99 72.8328C559.99 72.8328 559.99 72.8328 559.99 72.8328C559.99 72.8328 559.99 72.8328 559.99 72.8328C559.99 72.8328 559.99 72.8328 559.99 72.8328C559.99 72.8328 559.99 72.8328 559.99 72.8328C559.99 72.8328 559.99 72.8328 559.99 72.8328C559.99 72.8328 559.99 72.8328 559.99 72.8328C559.99 72.8328 559.99 72.8328 559.99 72.8328C559.99 72.8328 559.99 72.8328 559.99 72.8328C559.99 72.8328 559.99 72.8328 559.99 72.8328C559.99 72.8328 559.99 72.8328 559.99 72.8328C559.99 72.8328 559.99 72.8328 559.99 72.8328C559.99 72.8328 559.99 72.8328 559.99 72.8328C559.99 72.8328 559.99 72.8328 559.99 72.8328C559.99 72.8328 559.99 72.8328 559.99 72.8328C559.99 72.8328 559.99 72.8328 559.99 72.8328C559.99 72.8328 559.99 72.8328 559.99 72.8328C559.99 72.8328 559.99 72.8328 559.99 72.8328C559.99 72.8328 559.99 72.8328 559.99 72.8328C559.99 72.8328 559.99 72.8328 559.99 72.8328C559.99 72.8328 559.99 72.8328 559.99 72.8328C559.99 72.8328 559.99 72.8328 559.99 72.8328C559.99 72.8328 559.99 72.8328 559.99 72.8328C559.99 72.8328 559.99 72.8328 559.99 72.8328C559.99 72.8328 559.99 72.8328 559.99 72.8328C559.99 72.8328 559.99 72.8328 559.99 72.8328C559.99 72.8328 559.99 72.8328 559.99 72.8328C559.99 72.8328 559.99 72.8328 559.99 72.8328C559.99 72.8328 559.99 72.8328 559.99 72.8328C559.99 72.8328 559.99 72.8328 559.99 72.8328C559.99 72.8328 559.99 72.8328 559.99 72.8328C559.99 72.8328 559.99 72.8328 559.99 72.8328C559.99 72.8328 559.99 72.8328 559.99 72.8328C559.99 72.8328 559.99 72.8328 559.99 72.8328C559.99 72.8328 559.99 72.8328 559.99 72.8328C559.99 72.8328 559.99 72.8328 559.99 72.8328C559.99 72.8328 559.99 72.8328 559.99 72.8328C559.99 72.8328 559.99 72.8328 559.99 72.8328C559.99 72.8328 559.99 72.8328 559.99 72.8328C559.99 72.8328 559.99 72.8328 559.99 72.8328C559.99 72.8328 559.99 72.8328 559.99 72.8328C559.99 72.8328 559.99 72.8328 559.99 72.8328C559.99 72.8328 559.99 72.8328 559.99 72.8328C559.99 72.8328 559.99 72.8328 559.99 72.8328C559.99 72.8328 559.99 72.8328 559.989 72.8328C559.989 72.8328 559.989 72.8328 559.989 72.8328C559.989 72.8328 559.989 72.8328 559.989 72.8328C559.989 72.8328 559.989 72.8328 559.989 72.8328C559.989 72.8328 559.989 72.8328 559.989 72.8328C559.989 72.8328 559.989 72.8328 559.989 72.8328C559.989 72.8328 559.989 72.8328 559.989 72.8328C559.989 72.8328 559.989 72.8328 559.989 72.8328C559.989 72.8328 559.989 72.8328 559.989 72.8328C559.989 72.8328 559.989 72.8328 559.989 72.8328C559.989 72.8328 559.989 72.8328 559.989 72.8328C559.989 72.8328 559.989 72.8328 559.989 72.8328C559.989 72.8328 559.989 72.8328 559.989 72.8328C559.989 72.8328 559.989 72.8328 559.989 72.8328C559.989 72.8328 559.989 72.8328 559.989 72.8328C559.989 72.8328 559.989 72.8328 559.989 72.8328C559.989 72.8328 559.989 72.8328 559.989 72.8328C559.989 72.8328 559.989 72.8328 559.989 72.8328C559.989 72.8328 559.989 72.8328 559.989 72.8328C559.989 72.8328 559.989 72.8328 559.989 72.8328C559.989 72.8328 559.989 72.8328 559.989 72.8328C559.989 72.8328 559.989 72.8328 559.989 72.8328C559.989 72.8328 559.989 72.8328 559.989 72.8328C559.989 72.8328 559.989 72.8328 559.989 72.8328C559.989 72.8328 559.989 72.8328 559.989 72.8328C559.989 72.8328 559.989 72.8328 559.989 72.8328C559.989 72.8328 559.989 72.8328 559.989 72.8328C559.989 72.8328 559.989 72.8328 559.989 72.8328C559.989 72.8328 559.989 72.8328 559.989 72.8328C559.989 72.8328 559.989 72.8328 559.989 72.8328C559.989 72.8328 559.989 72.8328 559.989 72.8328C559.989 72.8328 559.989 72.8328 559.989 72.8328C559.989 72.8328 559.989 72.8328 559.989 72.8328C559.989 72.8328 559.989 72.8328 559.989 72.8328C559.989 72.8328 559.989 72.8328 559.989 72.8328C559.989 72.8328 559.989 72.8328 559.989 72.8328C559.989 72.8328 559.989 72.8328 559.989 72.8328C559.989 72.8328 559.989 72.8328 559.989 72.8328C559.989 72.8328 559.989 72.8328 559.989 72.8328C559.989 72.8328 559.989 72.8328 559.989 72.8328C559.989 72.8328 559.989 72.8328 559.989 72.8328C559.989 72.8328 559.989 72.8328 559.989 72.8328V75.8328C559.989 75.8328 559.989 75.8328 559.989 75.8328C559.989 75.8328 559.989 75.8328 559.989 75.8328C559.989 75.8328 559.989 75.8328 559.989 75.8328C559.989 75.8328 559.989 75.8328 559.989 75.8328C559.989 75.8328 559.989 75.8328 559.989 75.8328C559.989 75.8328 559.989 75.8328 559.989 75.8328C559.989 75.8328 559.989 75.8328 559.989 75.8328C559.989 75.8328 559.989 75.8328 559.989 75.8328C559.989 75.8328 559.989 75.8328 559.989 75.8328C559.989 75.8328 559.989 75.8328 559.989 75.8328C559.989 75.8328 559.989 75.8328 559.989 75.8328C559.989 75.8328 559.989 75.8328 559.989 75.8328C559.989 75.8328 559.989 75.8328 559.989 75.8328C559.989 75.8328 559.989 75.8328 559.989 75.8328C559.989 75.8328 559.989 75.8328 559.989 75.8328C559.989 75.8328 559.989 75.8328 559.989 75.8328C559.989 75.8328 559.989 75.8328 559.989 75.8328C559.989 75.8328 559.989 75.8328 559.989 75.8328C559.989 75.8328 559.989 75.8328 559.989 75.8328C559.989 75.8328 559.989 75.8328 559.989 75.8328C559.989 75.8328 559.989 75.8328 559.989 75.8328C559.989 75.8328 559.989 75.8328 559.989 75.8328C559.989 75.8328 559.989 75.8328 559.989 75.8328C559.989 75.8328 559.989 75.8328 559.989 75.8328C559.989 75.8328 559.989 75.8328 559.989 75.8328C559.989 75.8328 559.989 75.8328 559.989 75.8328C559.989 75.8328 559.989 75.8328 559.989 75.8328C559.989 75.8328 559.989 75.8328 559.989 75.8328C559.989 75.8328 559.989 75.8328 559.989 75.8328C559.989 75.8328 559.989 75.8328 559.989 75.8328C559.989 75.8328 559.989 75.8328 559.989 75.8328C559.989 75.8328 559.989 75.8328 559.989 75.8328C559.989 75.8328 559.989 75.8328 559.989 75.8328C559.989 75.8328 559.989 75.8328 559.989 75.8328C559.989 75.8328 559.989 75.8328 559.989 75.8328C559.989 75.8328 559.989 75.8328 559.989 75.8328C559.989 75.8328 559.989 75.8328 559.989 75.8328C559.989 75.8328 559.989 75.8328 559.989 75.8328C559.989 75.8328 559.989 75.8328 559.989 75.8328C559.989 75.8328 559.989 75.8328 559.989 75.8328C559.989 75.8328 559.989 75.8328 559.989 75.8328C559.99 75.8328 559.99 75.8328 559.99 75.8328C559.99 75.8328 559.99 75.8328 559.99 75.8328C559.99 75.8328 559.99 75.8328 559.99 75.8328C559.99 75.8328 559.99 75.8328 559.99 75.8328C559.99 75.8328 559.99 75.8328 559.99 75.8328C559.99 75.8328 559.99 75.8328 559.99 75.8328C559.99 75.8328 559.99 75.8328 559.99 75.8328C559.99 75.8328 559.99 75.8328 559.99 75.8328C559.99 75.8328 559.99 75.8328 559.99 75.8328C559.99 75.8328 559.99 75.8328 559.99 75.8328C559.99 75.8328 559.99 75.8328 559.99 75.8328C559.99 75.8328 559.99 75.8328 559.99 75.8328C559.99 75.8328 559.99 75.8328 559.99 75.8328C559.99 75.8328 559.99 75.8328 559.99 75.8328C559.99 75.8328 559.99 75.8328 559.99 75.8328C559.99 75.8328 559.99 75.8328 559.99 75.8328C559.99 75.8328 559.99 75.8328 559.99 75.8328C559.99 75.8328 559.99 75.8328 559.99 75.8328C559.99 75.8328 559.99 75.8328 559.99 75.8328C559.99 75.8328 559.99 75.8328 559.99 75.8328C559.99 75.8328 559.99 75.8328 559.99 75.8328C559.99 75.8328 559.99 75.8328 559.99 75.8328C559.99 75.8328 559.99 75.8328 559.99 75.8328C559.99 75.8328 559.99 75.8328 559.99 75.8328C559.99 75.8328 559.99 75.8328 559.99 75.8328C559.99 75.8328 559.99 75.8328 559.99 75.8328C559.99 75.8328 559.99 75.8328 559.99 75.8328C559.99 75.8328 559.99 75.8328 559.99 75.8328C559.99 75.8328 559.99 75.8328 559.99 75.8328C559.99 75.8328 559.99 75.8328 559.99 75.8328C559.99 75.8328 559.99 75.8328 559.99 75.8328C559.99 75.8328 559.99 75.8328 559.99 75.8328C559.99 75.8328 559.99 75.8328 559.99 75.8328C559.99 75.8328 559.99 75.8328 559.99 75.8328C559.99 75.8328 559.99 75.8328 559.99 75.8328C559.99 75.8328 559.99 75.8328 559.99 75.8328C559.99 75.8328 559.99 75.8328 559.99 75.8328C559.99 75.8328 559.99 75.8328 559.99 75.8328C559.99 75.8328 559.99 75.8328 559.99 75.8328C559.99 75.8328 559.99 75.8328 559.99 75.8328C559.99 75.8328 559.99 75.8328 559.99 75.8328C559.99 75.8328 559.99 75.8328 559.99 75.8328C559.99 75.8328 559.99 75.8328 559.99 75.8328C559.99 75.8328 559.99 75.8328 559.99 75.8328C559.99 75.8328 559.99 75.8328 559.99 75.8328C559.991 75.8328 559.991 75.8328 559.991 75.8328C559.991 75.8328 559.991 75.8328 559.991 75.8328C559.991 75.8328 559.991 75.8328 559.991 75.8328C559.991 75.8328 559.991 75.8328 559.991 75.8328C559.991 75.8328 559.991 75.8328 559.991 75.8328C559.991 75.8328 559.991 75.8328 559.991 75.8328C559.991 75.8328 559.991 75.8328 559.991 75.8328C559.991 75.8328 559.991 75.8328 559.991 75.8328C559.991 75.8328 559.991 75.8328 559.991 75.8328C559.991 75.8328 559.991 75.8328 559.991 75.8328C559.991 75.8328 559.991 75.8328 559.991 75.8328C559.991 75.8328 559.991 75.8328 559.991 75.8328C559.991 75.8328 559.991 75.8328 559.991 75.8328C559.991 75.8328 559.991 75.8328 559.991 75.8328C559.991 75.8328 559.991 75.8328 559.991 75.8328C559.991 75.8328 559.991 75.8328 559.991 75.8328C559.991 75.8328 559.991 75.8328 559.991 75.8328C559.991 75.8328 559.991 75.8328 559.991 75.8328C559.991 75.8328 559.991 75.8328 559.991 75.8328C559.991 75.8328 559.991 75.8328 559.991 75.8328C559.991 75.8328 559.991 75.8328 559.991 75.8328C559.991 75.8328 559.991 75.8328 559.991 75.8328C559.991 75.8328 559.991 75.8328 559.991 75.8328C559.991 75.8328 559.991 75.8328 559.991 75.8328C559.991 75.8328 559.991 75.8328 559.991 75.8328C559.991 75.8328 559.991 75.8328 559.991 75.8328C559.991 75.8328 559.991 75.8328 559.991 75.8328C559.991 75.8328 559.991 75.8328 559.991 75.8328C559.991 75.8328 559.991 75.8328 559.991 75.8328C559.991 75.8328 559.991 75.8328 559.991 75.8328C559.991 75.8328 559.991 75.8328 559.991 75.8328C559.991 75.8328 559.991 75.8328 559.991 75.8328C559.991 75.8328 559.991 75.8328 559.991 75.8328C559.991 75.8328 559.991 75.8328 559.991 75.8328C559.991 75.8328 559.991 75.8328 559.991 75.8328C559.991 75.8328 559.991 75.8328 559.991 75.8328C559.991 75.8328 559.991 75.8328 559.991 75.8328C559.991 75.8328 559.991 75.8328 559.991 75.8328C559.991 75.8328 559.991 75.8328 559.991 75.8328C559.991 75.8328 559.991 75.8328 559.991 75.8328C559.991 75.8328 559.991 75.8328 559.991 75.8328C559.991 75.8328 559.991 75.8328 559.991 75.8328C559.991 75.8328 559.991 75.8328 559.991 75.8328C559.991 75.8328 559.991 75.8328 559.991 75.8328C559.991 75.8328 559.991 75.8328 559.992 75.8328C559.992 75.8328 559.992 75.8328 559.992 75.8328C559.992 75.8328 559.992 75.8328 559.992 75.8328C559.992 75.8328 559.992 75.8328 559.992 75.8328C559.992 75.8328 559.992 75.8328 559.992 75.8328C559.992 75.8328 559.992 75.8328 559.992 75.8328C559.992 75.8328 559.992 75.8328 559.992 75.8328C559.992 75.8328 559.992 75.8328 559.992 75.8328C559.992 75.8328 559.992 75.8328 559.992 75.8328C559.992 75.8328 559.992 75.8328 559.992 75.8328C559.992 75.8328 559.992 75.8328 559.992 75.8328C559.992 75.8328 559.992 75.8328 559.992 75.8328C559.992 75.8328 559.992 75.8328 559.992 75.8328C559.992 75.8328 559.992 75.8328 559.992 75.8328C559.992 75.8328 559.992 75.8328 559.992 75.8328C559.992 75.8328 559.992 75.8328 559.992 75.8328C559.992 75.8328 559.992 75.8328 559.992 75.8328C559.992 75.8328 559.992 75.8328 559.992 75.8328C559.992 75.8328 559.992 75.8328 559.992 75.8328C559.992 75.8328 559.992 75.8328 559.992 75.8328C559.992 75.8328 559.992 75.8328 559.992 75.8328C559.992 75.8328 559.992 75.8328 559.992 75.8328C559.992 75.8328 559.992 75.8328 559.992 75.8328C559.992 75.8328 559.992 75.8328 559.992 75.8328C559.992 75.8328 559.992 75.8328 559.992 75.8328C559.992 75.8328 559.992 75.8328 559.992 75.8328C559.992 75.8328 559.992 75.8328 559.992 75.8328C559.992 75.8328 559.992 75.8328 559.992 75.8328C559.992 75.8328 559.992 75.8328 559.992 75.8328C559.992 75.8328 559.992 75.8328 559.992 75.8328C559.992 75.8328 559.992 75.8328 559.992 75.8328C559.992 75.8328 559.992 75.8328 559.992 75.8328C559.992 75.8328 559.992 75.8328 559.992 75.8328C559.992 75.8328 559.992 75.8328 559.992 75.8328C559.992 75.8328 559.992 75.8328 559.992 75.8328C559.992 75.8328 559.992 75.8328 559.992 75.8328C559.992 75.8328 559.992 75.8328 559.992 75.8328C559.992 75.8328 559.992 75.8328 559.992 75.8328C559.992 75.8328 559.992 75.8328 559.992 75.8328C559.992 75.8328 559.992 75.8328 559.992 75.8328C559.992 75.8328 559.992 75.8328 559.992 75.8328C559.992 75.8328 559.992 75.8328 559.992 75.8328C559.992 75.8328 559.992 75.8328 559.992 75.8328C559.992 75.8328 559.992 75.8328 559.992 75.8328C559.992 75.8328 559.992 75.8328 559.992 75.8328C559.992 75.8328 559.992 75.8328 559.993 75.8328C559.993 75.8328 559.993 75.8328 559.993 75.8328C559.993 75.8328 559.993 75.8328 559.993 75.8328C559.993 75.8328 559.993 75.8328 559.993 75.8328C559.993 75.8328 559.993 75.8328 559.993 75.8328C559.993 75.8328 559.993 75.8328 559.993 75.8328C559.993 75.8328 559.993 75.8328 559.993 75.8328C559.993 75.8328 559.993 75.8328 559.993 75.8328C559.993 75.8328 559.993 75.8328 559.993 75.8328C559.993 75.8328 559.993 75.8328 559.993 75.8328C559.993 75.8328 559.993 75.8328 559.993 75.8328C559.993 75.8328 559.993 75.8328 559.993 75.8328C559.993 75.8328 559.993 75.8328 559.993 75.8328C559.993 75.8328 559.993 75.8328 559.993 75.8328C559.993 75.8328 559.993 75.8328 559.993 75.8328C559.993 75.8328 559.993 75.8328 559.993 75.8328C559.993 75.8328 559.993 75.8328 559.993 75.8328C559.993 75.8328 559.993 75.8328 559.993 75.8328C559.993 75.8328 559.993 75.8328 559.993 75.8328C559.993 75.8328 559.993 75.8328 559.993 75.8328C559.993 75.8328 559.993 75.8328 559.993 75.8328C559.993 75.8328 559.993 75.8328 559.993 75.8328C559.993 75.8328 559.993 75.8328 559.993 75.8328C559.993 75.8328 559.993 75.8328 559.993 75.8328C559.993 75.8328 559.993 75.8328 559.993 75.8328C559.993 75.8328 559.993 75.8328 559.993 75.8328C559.993 75.8328 559.993 75.8328 559.993 75.8328C559.993 75.8328 559.993 75.8328 559.993 75.8328C559.993 75.8328 559.993 75.8328 559.993 75.8328C559.993 75.8328 559.993 75.8328 559.993 75.8328C559.993 75.8328 559.993 75.8328 559.993 75.8328C559.993 75.8328 559.993 75.8328 559.993 75.8328C559.993 75.8328 559.993 75.8328 559.993 75.8328C559.993 75.8328 559.993 75.8328 559.993 75.8328C559.993 75.8328 559.993 75.8328 559.993 75.8328C559.993 75.8328 559.993 75.8328 559.993 75.8328C559.993 75.8328 559.993 75.8328 559.993 75.8328C559.993 75.8328 559.993 75.8328 559.993 75.8328C559.993 75.8328 559.993 75.8328 559.993 75.8328C559.993 75.8328 559.993 75.8328 559.993 75.8328C559.993 75.8328 559.993 75.8328 559.993 75.8328C559.993 75.8328 559.993 75.8328 559.993 75.8328C559.993 75.8328 559.993 75.8328 559.993 75.8328C559.993 75.8328 559.993 75.8328 559.993 75.8328C559.993 75.8328 559.993 75.8328 559.993 75.8328C559.993 75.8328 559.994 75.8328 559.994 75.8328C559.994 75.8328 559.994 75.8328 559.994 75.8328C559.994 75.8328 559.994 75.8328 559.994 75.8328C559.994 75.8328 559.994 75.8328 559.994 75.8328C559.994 75.8328 559.994 75.8328 559.994 75.8328C559.994 75.8328 559.994 75.8328 559.994 75.8328C559.994 75.8328 559.994 75.8328 559.994 75.8328C559.994 75.8328 559.994 75.8328 559.994 75.8328C559.994 75.8328 559.994 75.8328 559.994 75.8328C559.994 75.8328 559.994 75.8328 559.994 75.8328C559.994 75.8328 559.994 75.8328 559.994 75.8328C559.994 75.8328 559.994 75.8328 559.994 75.8328C559.994 75.8328 559.994 75.8328 559.994 75.8328C559.994 75.8328 559.994 75.8328 559.994 75.8328C559.994 75.8328 559.994 75.8328 559.994 75.8328C559.994 75.8328 559.994 75.8328 559.994 75.8328C559.994 75.8328 559.994 75.8328 559.994 75.8328C559.994 75.8328 559.994 75.8328 559.994 75.8328C559.994 75.8328 559.994 75.8328 559.994 75.8328C559.994 75.8328 559.994 75.8328 559.994 75.8328C559.994 75.8328 559.994 75.8328 559.994 75.8328C559.994 75.8328 559.994 75.8328 559.994 75.8328C559.994 75.8328 559.994 75.8328 559.994 75.8328C559.994 75.8328 559.994 75.8328 559.994 75.8328C559.994 75.8328 559.994 75.8328 559.994 75.8328C559.994 75.8328 559.994 75.8328 559.994 75.8328C559.994 75.8328 559.994 75.8328 559.994 75.8328C559.994 75.8328 559.994 75.8328 559.994 75.8328C559.994 75.8328 559.994 75.8328 559.994 75.8328C559.994 75.8328 559.994 75.8328 559.994 75.8328C559.994 75.8328 559.994 75.8328 559.994 75.8328C559.994 75.8328 559.994 75.8328 559.994 75.8328C559.994 75.8328 559.994 75.8328 559.994 75.8328C559.994 75.8328 559.994 75.8328 559.994 75.8328C559.994 75.8328 559.994 75.8328 559.994 75.8328C559.994 75.8328 559.994 75.8328 559.994 75.8328C559.994 75.8328 559.994 75.8328 559.994 75.8328C559.994 75.8328 559.994 75.8328 559.994 75.8328C559.994 75.8328 559.994 75.8328 559.994 75.8328C559.994 75.8328 559.994 75.8328 559.994 75.8328C559.994 75.8328 559.994 75.8328 559.994 75.8328C559.994 75.8328 559.994 75.8328 559.994 75.8328C559.994 75.8328 559.994 75.8328 559.994 75.8328C559.994 75.8328 559.994 75.8328 559.994 75.8328C559.994 75.8328 559.994 75.8328 559.994 75.8328C559.995 75.8328 559.995 75.8328 559.995 75.8328C559.995 75.8328 559.995 75.8328 559.995 75.8328C559.995 75.8328 559.995 75.8328 559.995 75.8328C559.995 75.8328 559.995 75.8328 559.995 75.8328C559.995 75.8328 559.995 75.8328 559.995 75.8328C559.995 75.8328 559.995 75.8328 559.995 75.8328C559.995 75.8328 559.995 75.8328 559.995 75.8328C559.995 75.8328 559.995 75.8328 559.995 75.8328C559.995 75.8328 559.995 75.8328 559.995 75.8328C559.995 75.8328 559.995 75.8328 559.995 75.8328C559.995 75.8328 559.995 75.8328 559.995 75.8328C559.995 75.8328 559.995 75.8328 559.995 75.8328C559.995 75.8328 559.995 75.8328 559.995 75.8328C559.995 75.8328 559.995 75.8328 559.995 75.8328C559.995 75.8328 559.995 75.8328 559.995 75.8328C559.995 75.8328 559.995 75.8328 559.995 75.8328C559.995 75.8328 559.995 75.8328 559.995 75.8328C559.995 75.8328 559.995 75.8328 559.995 75.8328C559.995 75.8328 559.995 75.8328 559.995 75.8328C559.995 75.8328 559.995 75.8328 559.995 75.8328C559.995 75.8328 559.995 75.8328 559.995 75.8328C559.995 75.8328 559.995 75.8328 559.995 75.8328C559.995 75.8328 559.995 75.8328 559.995 75.8328C559.995 75.8328 559.995 75.8328 559.995 75.8328C559.995 75.8328 559.995 75.8328 559.995 75.8328C559.995 75.8328 559.995 75.8328 559.995 75.8328C559.995 75.8328 559.995 75.8328 559.995 75.8328C559.995 75.8328 559.995 75.8328 559.995 75.8328C559.995 75.8328 559.995 75.8328 559.995 75.8328C559.995 75.8328 559.995 75.8328 559.995 75.8328C559.995 75.8328 559.995 75.8328 559.995 75.8328C559.995 75.8328 559.995 75.8328 559.995 75.8328C559.995 75.8328 559.995 75.8328 559.995 75.8328C559.995 75.8328 559.995 75.8328 559.995 75.8328C559.995 75.8328 559.995 75.8328 559.995 75.8328C559.995 75.8328 559.995 75.8328 559.995 75.8328C559.995 75.8328 559.995 75.8328 559.995 75.8328C559.995 75.8328 559.995 75.8328 559.995 75.8328C559.995 75.8328 559.995 75.8328 559.995 75.8328C559.995 75.8328 559.995 75.8328 559.995 75.8328C559.995 75.8328 559.995 75.8328 559.995 75.8328C559.995 75.8328 559.995 75.8328 559.995 75.8328C559.995 75.8328 559.995 75.8328 559.995 75.8328C559.995 75.8328 559.995 75.8328 559.995 75.8328C559.995 75.8328 559.995 75.8328 559.996 75.8328C559.996 75.8328 559.996 75.8328 559.996 75.8328C559.996 75.8328 559.996 75.8328 559.996 75.8328C559.996 75.8328 559.996 75.8328 559.996 75.8328C559.996 75.8328 559.996 75.8328 559.996 75.8328C559.996 75.8328 559.996 75.8328 559.996 75.8328C559.996 75.8328 559.996 75.8328 559.996 75.8328C559.996 75.8328 559.996 75.8328 559.996 75.8328C559.996 75.8328 559.996 75.8328 559.996 75.8328C559.996 75.8328 559.996 75.8328 559.996 75.8328C559.996 75.8328 559.996 75.8328 559.996 75.8328C559.996 75.8328 559.996 75.8328 559.996 75.8328C559.996 75.8328 559.996 75.8328 559.996 75.8328C559.996 75.8328 559.996 75.8328 559.996 75.8328C559.996 75.8328 559.996 75.8328 559.996 75.8328C559.996 75.8328 559.996 75.8328 559.996 75.8328C559.996 75.8328 559.996 75.8328 559.996 75.8328C559.996 75.8328 559.996 75.8328 559.996 75.8328C559.996 75.8328 559.996 75.8328 559.996 75.8328C559.996 75.8328 559.996 75.8328 559.996 75.8328C559.996 75.8328 559.996 75.8328 559.996 75.8328C559.996 75.8328 559.996 75.8328 559.996 75.8328C559.996 75.8328 559.996 75.8328 559.996 75.8328C559.996 75.8328 559.996 75.8328 559.996 75.8328C559.996 75.8328 559.996 75.8328 559.996 75.8328C559.996 75.8328 559.996 75.8328 559.996 75.8328C559.996 75.8328 559.996 75.8328 559.996 75.8328C559.996 75.8328 559.996 75.8328 559.996 75.8328C559.996 75.8328 559.996 75.8328 559.996 75.8328C559.996 75.8328 559.996 75.8328 559.996 75.8328C559.996 75.8328 559.996 75.8328 559.996 75.8328C559.996 75.8328 559.996 75.8328 559.996 75.8328C559.996 75.8328 559.996 75.8328 559.996 75.8328C559.996 75.8328 559.996 75.8328 559.996 75.8328C559.996 75.8328 559.996 75.8328 559.996 75.8328C559.996 75.8328 559.996 75.8328 559.996 75.8328C559.996 75.8328 559.996 75.8328 559.996 75.8328C559.996 75.8328 559.996 75.8328 559.996 75.8328C559.996 75.8328 559.996 75.8328 559.996 75.8328C559.996 75.8328 559.996 75.8328 559.996 75.8328C559.996 75.8328 559.996 75.8328 559.996 75.8328C559.996 75.8328 559.996 75.8328 559.996 75.8328C559.996 75.8328 559.996 75.8328 559.996 75.8328C559.996 75.8328 559.996 75.8328 559.996 75.8328C559.996 75.8328 559.996 75.8328 559.996 75.8328C559.996 75.8328 559.996 75.8328 559.997 75.8328C559.997 75.8328 559.997 75.8328 559.997 75.8328C559.997 75.8328 559.997 75.8328 559.997 75.8328C559.997 75.8328 559.997 75.8328 559.997 75.8328C559.997 75.8328 559.997 75.8328 559.997 75.8328C559.997 75.8328 559.997 75.8328 559.997 75.8328C559.997 75.8328 559.997 75.8328 559.997 75.8328C559.997 75.8328 559.997 75.8328 559.997 75.8328C559.997 75.8328 559.997 75.8328 559.997 75.8328C559.997 75.8328 559.997 75.8328 559.997 75.8328C559.997 75.8328 559.997 75.8328 559.997 75.8328C559.997 75.8328 559.997 75.8328 559.997 75.8328C559.997 75.8328 559.997 75.8328 559.997 75.8328C559.997 75.8328 559.997 75.8328 559.997 75.8328C559.997 75.8328 559.997 75.8328 559.997 75.8328C559.997 75.8328 559.997 75.8328 559.997 75.8328C559.997 75.8328 559.997 75.8328 559.997 75.8328C559.997 75.8328 559.997 75.8328 559.997 75.8328C559.997 75.8328 559.997 75.8328 559.997 75.8328C559.997 75.8328 559.997 75.8328 559.997 75.8328C559.997 75.8328 559.997 75.8328 559.997 75.8328C559.997 75.8328 559.997 75.8328 559.997 75.8328C559.997 75.8328 559.997 75.8328 559.997 75.8328C559.997 75.8328 559.997 75.8328 559.997 75.8328C559.997 75.8328 559.997 75.8328 559.997 75.8328C559.997 75.8328 559.997 75.8328 559.997 75.8328C559.997 75.8328 559.997 75.8328 559.997 75.8328C559.997 75.8328 559.997 75.8328 559.997 75.8328C559.997 75.8328 559.997 75.8328 559.997 75.8328C559.997 75.8328 559.997 75.8328 559.997 75.8328C559.997 75.8328 559.997 75.8328 559.997 75.8328C559.997 75.8328 559.997 75.8328 559.997 75.8328C559.997 75.8328 559.997 75.8328 559.997 75.8328C559.997 75.8328 559.997 75.8328 559.997 75.8328C559.997 75.8328 559.997 75.8328 559.997 75.8328C559.997 75.8328 559.997 75.8328 559.997 75.8328C559.997 75.8328 559.997 75.8328 559.997 75.8328C559.997 75.8328 559.997 75.8328 559.997 75.8328C559.997 75.8328 559.997 75.8328 559.997 75.8328C559.997 75.8328 559.997 75.8328 559.997 75.8328C559.997 75.8328 559.997 75.8328 559.997 75.8328C559.997 75.8328 559.997 75.8328 559.997 75.8328C559.997 75.8328 559.997 75.8328 559.997 75.8328C559.997 75.8328 559.997 75.8328 559.997 75.8328C559.997 75.8328 559.997 75.8328 559.997 75.8328C559.997 75.8328 559.998 75.8328 559.998 75.8328C559.998 75.8328 559.998 75.8328 559.998 75.8328C559.998 75.8328 559.998 75.8328 559.998 75.8328C559.998 75.8328 559.998 75.8328 559.998 75.8328C559.998 75.8328 559.998 75.8328 559.998 75.8328C559.998 75.8328 559.998 75.8328 559.998 75.8328C559.998 75.8328 559.998 75.8328 559.998 75.8328C559.998 75.8328 559.998 75.8328 559.998 75.8328C559.998 75.8328 559.998 75.8328 559.998 75.8328C559.998 75.8328 559.998 75.8328 559.998 75.8328C559.998 75.8328 559.998 75.8328 559.998 75.8328C559.998 75.8328 559.998 75.8328 559.998 75.8328C559.998 75.8328 559.998 75.8328 559.998 75.8328C559.998 75.8328 559.998 75.8328 559.998 75.8328C559.998 75.8328 559.998 75.8328 559.998 75.8328C559.998 75.8328 559.998 75.8328 559.998 75.8328C559.998 75.8328 559.998 75.8328 559.998 75.8328C559.998 75.8328 559.998 75.8328 559.998 75.8328C559.998 75.8328 559.998 75.8328 559.998 75.8328C559.998 75.8328 559.998 75.8328 559.998 75.8328C559.998 75.8328 559.998 75.8328 559.998 75.8328C559.998 75.8328 559.998 75.8328 559.998 75.8328C559.998 75.8328 559.998 75.8328 559.998 75.8328C559.998 75.8328 559.998 75.8328 559.998 75.8328C559.998 75.8328 559.998 75.8328 559.998 75.8328C559.998 75.8328 559.998 75.8328 559.998 75.8328C559.998 75.8328 559.998 75.8328 559.998 75.8328C559.998 75.8328 559.998 75.8328 559.998 75.8328C559.998 75.8328 559.998 75.8328 559.998 75.8328C559.998 75.8328 559.998 75.8328 559.998 75.8328C559.998 75.8328 559.998 75.8328 559.998 75.8328C559.998 75.8328 559.998 75.8328 559.998 75.8328C559.998 75.8328 559.998 75.8328 559.998 75.8328C559.998 75.8328 559.998 75.8328 559.998 75.8328C559.998 75.8328 559.998 75.8328 559.998 75.8328C559.998 75.8328 559.998 75.8328 559.998 75.8328C559.998 75.8328 559.998 75.8328 559.998 75.8328C559.998 75.8328 559.998 75.8328 559.998 75.8328C559.998 75.8328 559.998 75.8328 559.998 75.8328C559.998 75.8328 559.998 75.8328 559.998 75.8328C559.998 75.8328 559.998 75.8328 559.998 75.8328C559.998 75.8328 559.998 75.8328 559.998 75.8328C559.998 75.8328 559.998 75.8328 559.998 75.8328C559.998 75.8328 559.998 75.8328 559.998 75.8328C559.998 75.8328 559.998 75.8328 559.998 75.8328C559.998 75.8328 559.999 75.8328 559.999 75.8328C559.999 75.8328 559.999 75.8328 559.999 75.8328C559.999 75.8328 559.999 75.8328 559.999 75.8328C559.999 75.8328 559.999 75.8328 559.999 75.8328C559.999 75.8328 559.999 75.8328 559.999 75.8328C559.999 75.8328 559.999 75.8328 559.999 75.8328C559.999 75.8328 559.999 75.8328 559.999 75.8328C559.999 75.8328 559.999 75.8328 559.999 75.8328C559.999 75.8328 559.999 75.8328 559.999 75.8328C559.999 75.8328 559.999 75.8328 559.999 75.8328C559.999 75.8328 559.999 75.8328 559.999 75.8328C559.999 75.8328 559.999 75.8328 559.999 75.8328C559.999 75.8328 559.999 75.8328 559.999 75.8328C559.999 75.8328 559.999 75.8328 559.999 75.8328C559.999 75.8328 559.999 75.8328 559.999 75.8328C559.999 75.8328 559.999 75.8328 559.999 75.8328C559.999 75.8328 559.999 75.8328 559.999 75.8328C559.999 75.8328 559.999 75.8328 559.999 75.8328C559.999 75.8328 559.999 75.8328 559.999 75.8328C559.999 75.8328 559.999 75.8328 559.999 75.8328C559.999 75.8328 559.999 75.8328 559.999 75.8328C559.999 75.8328 559.999 75.8328 559.999 75.8328C559.999 75.8328 559.999 75.8328 559.999 75.8328C559.999 75.8328 559.999 75.8328 559.999 75.8328C559.999 75.8328 559.999 75.8328 559.999 75.8328C559.999 75.8328 559.999 75.8328 559.999 75.8328C559.999 75.8328 559.999 75.8328 559.999 75.8328C559.999 75.8328 559.999 75.8328 559.999 75.8328C559.999 75.8328 559.999 75.8328 559.999 75.8328C559.999 75.8328 559.999 75.8328 559.999 75.8328C559.999 75.8328 559.999 75.8328 559.999 75.8328C559.999 75.8328 559.999 75.8328 559.999 75.8328C559.999 75.8328 559.999 75.8328 559.999 75.8328C559.999 75.8328 559.999 75.8328 559.999 75.8328C559.999 75.8328 559.999 75.8328 559.999 75.8328C559.999 75.8328 559.999 75.8328 559.999 75.8328C559.999 75.8328 559.999 75.8328 559.999 75.8328C559.999 75.8328 559.999 75.8328 559.999 75.8328C559.999 75.8328 559.999 75.8328 559.999 75.8328C559.999 75.8328 559.999 75.8328 559.999 75.8328C559.999 75.8328 559.999 75.8328 559.999 75.8328C559.999 75.8328 559.999 75.8328 559.999 75.8328C559.999 75.8328 559.999 75.8328 559.999 75.8328C559.999 75.8328 559.999 75.8328 559.999 75.8328C559.999 75.8328 559.999 75.8328 559.999 75.8328C559.999 75.8328 560 75.8328 560 75.8328C560 75.8328 560 75.8328 560 75.8328C560 75.8328 560 75.8328 560 75.8328C560 75.8328 560 75.8328 560 75.8328C560 75.8328 560 75.8328 560 75.8328C560 75.8328 560 75.8328 560 75.8328C560 75.8328 560 75.8328 560 75.8328C560 75.8328 560 75.8328 560 75.8328C560 75.8328 560 75.8328 560 75.8328C560 75.8328 560 75.8328 560 75.8328C560 75.8328 560 75.8328 560 75.8328C560 75.8328 560 75.8328 560 75.8328C560 75.8328 560 75.8328 560 75.8328C560 75.8328 560 75.8328 560 75.8328C560 75.8328 560 75.8328 560 75.8328C560 75.8328 560 75.8328 560 75.8328C560 75.8328 560 75.8328 560 75.8328C560 75.8328 560 75.8328 560 75.8328C560 75.8328 560 75.8328 560 75.8328C560 75.8328 560 75.8328 560 75.8328C560 75.8328 560 75.8328 560 75.8328C560 75.8328 560 75.8328 560 75.8328C560 75.8328 560 75.8328 560 75.8328V72.8328ZM559.989 72.8328C520.594 72.8328 488.583 41.217 487.945 1.97465L484.946 2.0234C485.61 42.9007 518.953 75.8328 559.989 75.8328V72.8328Z" fill="#C9AC6A"/>
<path d="M3 91.931C45.8003 91.931 92.405 54.1088 92.405 3.04883" stroke="#BB8C3C"/>
<path d="M90.7708 18.2656H17.2178V90.5505" stroke="#BB8C3C"/>
<path d="M470.486 18.2656H544.039V90.5505" stroke="#BB8C3C"/>
<path d="M558.623 91.93C515.822 91.93 469.218 54.1078 469.218 3.04785" stroke="#BB8C3C"/>
</svg>
