<svg width="93" height="28" viewBox="0 0 93 28" fill="none" xmlns="http://www.w3.org/2000/svg">
<g clip-path="url(#clip0)">
<path d="M13.9449 0C11.1863 0 8.48978 0.821159 6.19616 2.35964C3.90254 3.89812 2.11488 6.08482 1.05924 8.64321C0.00360158 11.2016 -0.272601 14.0168 0.265558 16.7328C0.803717 19.4488 2.13207 21.9435 4.08263 23.9017C6.0332 25.8598 8.51836 27.1933 11.2239 27.7335C13.9294 28.2737 16.7337 27.9965 19.2823 26.9367C21.8308 25.877 24.0091 24.0824 25.5416 21.78C27.0742 19.4775 27.8921 16.7705 27.8921 14.0013C27.8921 10.2879 26.4227 6.72662 23.8071 4.10088C21.1915 1.47513 17.6439 0 13.9449 0ZM20.3412 20.1931C20.2817 20.2911 20.2035 20.3763 20.1112 20.4439C20.0188 20.5115 19.914 20.5601 19.8028 20.5869C19.6917 20.6138 19.5764 20.6183 19.4635 20.6003C19.3506 20.5823 19.2423 20.542 19.145 20.4819C15.8704 18.4741 11.748 18.0194 6.89361 19.1328C6.78078 19.1626 6.66313 19.1694 6.54766 19.1526C6.4322 19.1358 6.32128 19.0959 6.22151 19.0351C6.12174 18.9744 6.03517 18.8942 5.96695 18.7991C5.89873 18.7041 5.85026 18.5963 5.82442 18.4821C5.79858 18.3679 5.79591 18.2496 5.81655 18.1343C5.8372 18.0191 5.88075 17.9091 5.9446 17.8111C6.00846 17.7131 6.09131 17.629 6.18823 17.5638C6.28515 17.4986 6.39415 17.4536 6.50874 17.4316C11.8212 16.213 16.3777 16.7374 20.0535 18.9922C20.2501 19.1133 20.3909 19.3078 20.4448 19.5329C20.4988 19.7581 20.4615 19.9955 20.3412 20.1931ZM22.0472 16.3815C21.8964 16.6281 21.6541 16.8046 21.3738 16.8721C21.0934 16.9395 20.7978 16.8925 20.5519 16.7412C16.803 14.4269 11.088 13.7581 6.65512 15.1084C6.51706 15.1553 6.37102 15.1738 6.22569 15.1629C6.08036 15.152 5.93869 15.1119 5.80909 15.045C5.6795 14.978 5.56463 14.8856 5.4713 14.7733C5.37797 14.6609 5.30809 14.5308 5.2658 14.3908C5.22351 14.2508 5.20968 14.1037 5.22513 13.9582C5.24058 13.8128 5.28499 13.6719 5.35573 13.544C5.42647 13.4161 5.5221 13.3037 5.63693 13.2136C5.75176 13.1236 5.88345 13.0575 6.02419 13.0195C11.0893 11.4779 17.3809 12.2253 21.6914 14.8804C21.8131 14.9554 21.9189 15.0537 22.0027 15.1697C22.0865 15.2857 22.1467 15.4172 22.1799 15.5566C22.213 15.696 22.2185 15.8406 22.196 15.9822C22.1734 16.1237 22.1233 16.2594 22.0485 16.3815H22.0472ZM22.1936 12.4115C17.6989 9.73742 10.283 9.48407 5.99138 10.7926C5.66099 10.8908 5.30532 10.8538 5.002 10.6897C4.69868 10.5256 4.47233 10.2477 4.37236 9.91672C4.27239 9.5857 4.3069 9.22842 4.46838 8.92286C4.62986 8.6173 4.90518 8.38826 5.23427 8.28574C10.1555 6.78465 18.3576 7.07474 23.5312 10.1592C23.8201 10.3406 24.0269 10.6283 24.1073 10.9607C24.1878 11.2932 24.1354 11.644 23.9615 11.9382C23.7876 12.2324 23.506 12.4467 23.1768 12.5351C22.8476 12.6236 22.497 12.5792 22.1999 12.4115H22.1936ZM37.9416 12.9245C35.5339 12.3482 35.1062 11.9441 35.1062 11.0941C35.1062 10.291 35.8633 9.75009 36.98 9.75009C38.0652 9.75009 39.1416 10.1605 40.2709 11.0054C40.2876 11.0179 40.3065 11.0269 40.3267 11.0319C40.3468 11.0369 40.3678 11.0378 40.3883 11.0346C40.4093 11.0319 40.4296 11.0248 40.4476 11.0136C40.4657 11.0025 40.4812 10.9876 40.493 10.97L41.6691 9.30673C41.6924 9.27374 41.7022 9.23305 41.6966 9.19301C41.691 9.15297 41.6703 9.11661 41.6388 9.09138C40.2949 8.00832 38.7832 7.48263 37.0141 7.48263C34.4147 7.48263 32.5976 9.04832 32.5976 11.2904C32.5976 13.6973 34.1648 14.5447 36.8728 15.2009C39.1757 15.7342 39.5656 16.1801 39.5656 16.9743C39.5656 17.861 38.7794 18.4083 37.5138 18.4083C36.1081 18.4083 34.9611 17.932 33.679 16.8185C33.6468 16.7919 33.6058 16.7784 33.5642 16.7805C33.5434 16.7819 33.5231 16.7874 33.5045 16.7967C33.4858 16.8061 33.4692 16.8191 33.4557 16.835L32.137 18.4146C32.1101 18.4459 32.0966 18.4866 32.0995 18.5279C32.1023 18.5692 32.1212 18.6077 32.1522 18.635C33.6056 19.9575 35.4992 20.6864 37.4608 20.6782C40.2621 20.6782 42.0729 19.1417 42.0729 16.7628C42.0729 14.755 40.8804 13.6428 37.9466 12.9271L37.9416 12.9245ZM48.415 10.5405C47.2011 10.5405 46.2042 11.0206 45.3865 12.0049V10.8978C45.3867 10.877 45.3828 10.8565 45.375 10.8373C45.3672 10.8181 45.3557 10.8006 45.3411 10.7859C45.3266 10.7711 45.3093 10.7595 45.2902 10.7515C45.2711 10.7435 45.2507 10.7394 45.23 10.7394H43.0647C43.0231 10.7397 42.9833 10.7566 42.954 10.7862C42.9247 10.8159 42.9082 10.856 42.9082 10.8978V23.2029C42.9082 23.2446 42.9247 23.2847 42.954 23.3144C42.9833 23.344 43.0231 23.3609 43.0647 23.3612H45.2212C45.2622 23.3599 45.301 23.3426 45.3295 23.3131C45.358 23.2835 45.3739 23.244 45.3739 23.2029V19.319C45.7455 19.7595 46.21 20.1115 46.7338 20.3496C47.2575 20.5877 47.8275 20.7061 48.4023 20.696C50.6585 20.696 52.945 18.9529 52.945 15.6189C52.945 12.2848 50.6636 10.5405 48.4023 10.5405H48.415ZM50.4478 15.6189C50.4478 17.3163 49.4068 18.5007 47.9153 18.5007C46.4238 18.5007 45.3285 17.2619 45.3285 15.6189C45.3285 13.9759 46.4414 12.7371 47.9153 12.7371C49.3891 12.7371 50.4478 13.9493 50.4478 15.6189ZM58.8101 10.5405C55.9079 10.5405 53.6277 12.7877 53.6277 15.6556C53.6277 18.4931 55.8889 20.715 58.7748 20.715C61.6909 20.715 63.9749 18.4767 63.9749 15.6189C63.9749 12.7611 61.7036 10.5418 58.8101 10.5418V10.5405ZM58.8101 18.521C57.2644 18.521 56.0984 17.2733 56.0984 15.6214C56.0984 13.9696 57.224 12.7561 58.7748 12.7561C60.3256 12.7561 61.5029 14.0025 61.5029 15.6569C61.5029 17.3113 60.366 18.5185 58.8063 18.5185L58.8101 18.521ZM70.1795 10.7419H67.8021V8.30347C67.8023 8.28274 67.7984 8.26218 67.7906 8.24298C67.7828 8.22377 67.7713 8.20631 67.7567 8.19159C67.7422 8.17687 67.7249 8.16518 67.7058 8.15721C67.6868 8.14923 67.6663 8.14513 67.6456 8.14513H65.4891C65.4474 8.14546 65.4075 8.16225 65.378 8.19188C65.3485 8.2215 65.3317 8.26158 65.3314 8.30347V10.7394H64.3017C64.2811 10.7394 64.2606 10.7435 64.2416 10.7515C64.2225 10.7595 64.2052 10.7711 64.1906 10.7859C64.1761 10.8006 64.1646 10.8181 64.1568 10.8373C64.149 10.8565 64.1451 10.877 64.1453 10.8978V12.7573C64.1451 12.7781 64.149 12.7987 64.1568 12.818C64.1646 12.8373 64.176 12.8548 64.1906 12.8697C64.2051 12.8845 64.2224 12.8963 64.2415 12.9044C64.2605 12.9125 64.281 12.9168 64.3017 12.9169H65.3377V17.7305C65.3377 19.675 66.3018 20.6618 68.2046 20.6618C68.9108 20.6782 69.6083 20.5032 70.2236 20.1551C70.2481 20.1418 70.2685 20.122 70.2825 20.0979C70.2965 20.0738 70.3037 20.0462 70.3031 20.0183V18.2448C70.303 18.218 70.2961 18.1916 70.283 18.1681C70.27 18.1446 70.2513 18.1249 70.2287 18.1106C70.2061 18.0959 70.18 18.0876 70.1532 18.0864C70.1263 18.0853 70.0997 18.0915 70.076 18.1042C69.686 18.3066 69.2531 18.4113 68.8141 18.4095C68.1226 18.4095 67.8122 18.0941 67.8122 17.3885V12.9169H70.1858C70.2064 12.9169 70.2269 12.9128 70.2459 12.9049C70.265 12.8969 70.2823 12.8852 70.2969 12.8705C70.3114 12.8558 70.3229 12.8383 70.3307 12.8191C70.3385 12.7999 70.3424 12.7793 70.3422 12.7586V10.899C70.3429 10.8782 70.3394 10.8574 70.3319 10.838C70.3244 10.8186 70.313 10.8009 70.2985 10.786C70.284 10.7711 70.2667 10.7593 70.2475 10.7513C70.2284 10.7433 70.2078 10.7392 70.187 10.7394L70.1795 10.7419ZM78.4459 10.7508V10.4519C78.4459 9.57148 78.7828 9.18513 79.5361 9.18513C79.9509 9.18981 80.3619 9.26564 80.7513 9.40934C80.7748 9.41738 80.8 9.41962 80.8246 9.41587C80.8492 9.41213 80.8725 9.4025 80.8926 9.3878C80.9126 9.37325 80.9289 9.35423 80.9403 9.33224C80.9517 9.31026 80.9578 9.28591 80.9582 9.26113V7.43702C80.9583 7.40293 80.9474 7.36971 80.9272 7.34232C80.907 7.31494 80.8784 7.29484 80.8459 7.28502C80.2651 7.10905 79.6608 7.02361 79.0541 7.03167C77.0641 7.03167 76.0105 8.1578 76.0105 10.2872V10.7445H74.9745C74.9326 10.7445 74.8923 10.7611 74.8625 10.7908C74.8327 10.8204 74.8158 10.8607 74.8155 10.9028V12.7725C74.8158 12.8148 74.8327 12.8552 74.8624 12.885C74.8922 12.9149 74.9324 12.9318 74.9745 12.9321H76.0105V20.3552C76.0124 20.3949 76.0292 20.4324 76.0575 20.4601C76.0859 20.4879 76.1236 20.5038 76.1632 20.5047H78.3184C78.3392 20.5049 78.3598 20.5009 78.379 20.493C78.3982 20.4851 78.4156 20.4734 78.4303 20.4587C78.445 20.444 78.4566 20.4264 78.4645 20.4072C78.4724 20.3879 78.4763 20.3672 78.4762 20.3464V12.9169H80.4951L83.5791 20.34C83.2296 21.1191 82.8851 21.2749 82.4157 21.2749C81.9968 21.2643 81.5875 21.1475 81.2257 20.9354C81.1867 20.9156 81.1415 20.9115 81.0995 20.924C81.079 20.931 81.0602 20.9422 81.0441 20.9568C81.0281 20.9713 81.0152 20.9891 81.0062 21.0089L80.2756 22.6189C80.2586 22.6553 80.2561 22.697 80.2688 22.7351C80.2815 22.7733 80.3083 22.8052 80.3437 22.8241C81.0439 23.2236 81.8375 23.4287 82.6428 23.4182C84.2353 23.4182 85.116 22.6721 85.8908 20.6694L89.631 10.9662C89.6404 10.9423 89.6439 10.9164 89.6411 10.8909C89.6384 10.8653 89.6295 10.8408 89.6152 10.8195C89.6009 10.7982 89.5817 10.7807 89.5591 10.7685C89.5366 10.7563 89.5114 10.7498 89.4858 10.7495H87.241C87.208 10.7493 87.1758 10.7594 87.1489 10.7785C87.122 10.7976 87.1017 10.8247 87.0908 10.856L84.7917 17.4493L82.268 10.8522C82.2568 10.8222 82.2368 10.7964 82.2107 10.7781C82.1846 10.7597 82.1535 10.7498 82.1217 10.7495L78.4459 10.7508ZM73.6508 10.7419H71.4943C71.4525 10.7419 71.4123 10.7586 71.3828 10.7883C71.3532 10.818 71.3366 10.8583 71.3366 10.9003V20.34C71.3355 20.3614 71.3389 20.3827 71.3463 20.4028C71.3538 20.4228 71.3653 20.4411 71.3801 20.4565C71.3948 20.4719 71.4126 20.4842 71.4322 20.4924C71.4519 20.5007 71.473 20.5049 71.4943 20.5047H73.6508C73.6716 20.5049 73.6922 20.5009 73.7114 20.493C73.7306 20.4851 73.748 20.4734 73.7627 20.4587C73.7774 20.444 73.789 20.4264 73.7969 20.4072C73.8047 20.3879 73.8087 20.3672 73.8085 20.3464V10.8978C73.8087 10.8769 73.8047 10.8562 73.7969 10.837C73.789 10.8177 73.7774 10.8001 73.7627 10.7854C73.748 10.7707 73.7306 10.759 73.7114 10.7511C73.6922 10.7432 73.6716 10.7392 73.6508 10.7394V10.7419ZM72.5845 6.43503C72.2785 6.43478 71.9792 6.52569 71.7246 6.69624C71.47 6.86679 71.2715 7.10933 71.1543 7.39316C71.037 7.67698 71.0063 7.98935 71.0659 8.29072C71.1256 8.5921 71.2729 8.86894 71.4894 9.08621C71.7058 9.30348 71.9816 9.45141 72.2818 9.5113C72.582 9.57118 72.8932 9.54032 73.1759 9.42262C73.4586 9.30492 73.7002 9.10567 73.8701 8.85008C74.04 8.59449 74.1306 8.29405 74.1303 7.98679C74.128 7.57656 73.9639 7.18395 73.674 6.89481C73.3841 6.60568 72.9919 6.44356 72.5833 6.4439L72.5845 6.43503ZM91.4745 13.7707C91.1739 13.77 90.8802 13.6798 90.6305 13.5117C90.3808 13.3435 90.1863 13.1049 90.0716 12.8259C89.9569 12.5469 89.9271 12.2401 89.9859 11.9441C90.0448 11.6481 90.1896 11.3762 90.4022 11.1628C90.6148 10.9494 90.8857 10.804 91.1805 10.7449C91.4753 10.6858 91.781 10.7158 92.0589 10.8309C92.3369 10.9461 92.5746 11.1413 92.7421 11.3919C92.9096 11.6426 92.9994 11.9374 93.0001 12.2392C93.0016 12.4408 92.9632 12.6406 92.8871 12.8271C92.8109 13.0136 92.6986 13.183 92.5566 13.3255C92.4147 13.4681 92.2459 13.5808 92.0601 13.6572C91.8744 13.7337 91.6753 13.7722 91.4745 13.7707ZM91.4821 10.8686C91.2103 10.8661 90.9439 10.9448 90.7168 11.0946C90.4897 11.2445 90.3121 11.4588 90.2066 11.7102C90.1011 11.9616 90.0724 12.2389 90.1243 12.5067C90.1761 12.7745 90.3062 13.0208 90.4978 13.2143C90.6894 13.4077 90.9341 13.5396 91.2006 13.5932C91.4671 13.6467 91.7434 13.6195 91.9945 13.515C92.2455 13.4105 92.4599 13.2334 92.6105 13.0062C92.761 12.779 92.8408 12.5121 92.8399 12.2392C92.8399 12.0602 92.8047 11.8829 92.7364 11.7175C92.668 11.5521 92.5679 11.4019 92.4417 11.2754C92.3154 11.149 92.1656 11.0487 92.0007 10.9804C91.8359 10.9121 91.6592 10.8772 91.4808 10.8775L91.4821 10.8686ZM91.8177 12.3976L92.2468 13.0005H91.8846L91.4972 12.447H91.1666V13.0005H90.8638V11.4045H91.573C91.9439 11.4045 92.1875 11.5945 92.1875 11.9111C92.1926 12.0227 92.1585 12.1326 92.0912 12.2215C92.0238 12.3104 91.9275 12.3727 91.819 12.3976H91.8177ZM91.5654 11.6755H91.1666V12.1822H91.5578C91.7534 12.1822 91.872 12.086 91.872 11.9289C91.872 11.7718 91.7572 11.6781 91.5578 11.6781L91.5654 11.6755Z" fill="#1ED760"/>
</g>
<defs>
<clipPath id="clip0">
<rect width="93" height="28" fill="white"/>
</clipPath>
</defs>
</svg>
