<svg width="7" height="14" viewBox="0 0 7 14" fill="none" xmlns="http://www.w3.org/2000/svg">
<path d="M0.46967 3.96967C0.176777 4.26256 0.176777 4.73744 0.46967 5.03033C0.762563 5.32322 1.23744 5.32322 1.53033 5.03033L0.46967 3.96967ZM3.5 2L4.03033 1.46967L3.5 0.93934L2.96967 1.46967L3.5 2ZM5.46967 5.03033C5.76256 5.32322 6.23744 5.32322 6.53033 5.03033C6.82322 4.73744 6.82322 4.26256 6.53033 3.96967L5.46967 5.03033ZM1.53033 5.03033L4.03033 2.53033L2.96967 1.46967L0.46967 3.96967L1.53033 5.03033ZM2.96967 2.53033L5.46967 5.03033L6.53033 3.96967L4.03033 1.46967L2.96967 2.53033Z" fill="#9B8A61"/>
<path d="M0.46967 10.5303C0.176777 10.2374 0.176777 9.76256 0.46967 9.46967C0.762563 9.17678 1.23744 9.17678 1.53033 9.46967L0.46967 10.5303ZM3.5 12.5L4.03033 13.0303L3.5 13.5607L2.96967 13.0303L3.5 12.5ZM5.46967 9.46967C5.76256 9.17678 6.23744 9.17678 6.53033 9.46967C6.82322 9.76256 6.82322 10.2374 6.53033 10.5303L5.46967 9.46967ZM1.53033 9.46967L4.03033 11.9697L2.96967 13.0303L0.46967 10.5303L1.53033 9.46967ZM2.96967 11.9697L5.46967 9.46967L6.53033 10.5303L4.03033 13.0303L2.96967 11.9697Z" fill="#9B8A61"/>
</svg>
