<svg width="12" height="13" viewBox="0 0 12 13" fill="none" xmlns="http://www.w3.org/2000/svg">
<path d="M5.03662 10.2446C6.02051 10.2446 6.93457 9.93359 7.68994 9.40674L10.4639 12.1807C10.6099 12.3267 10.8003 12.3965 11.0034 12.3965C11.4287 12.3965 11.7334 12.0664 11.7334 11.6475C11.7334 11.4507 11.6699 11.2666 11.5239 11.1206L8.76904 8.35938C9.34668 7.58496 9.68945 6.62646 9.68945 5.5918C9.68945 3.02734 7.59473 0.938965 5.03662 0.938965C2.47852 0.938965 0.383789 3.021 0.383789 5.5918C0.383789 8.1499 2.47217 10.2446 5.03662 10.2446ZM5.03662 9.15918C3.0752 9.15918 1.46289 7.54688 1.46289 5.5918C1.46289 3.63672 3.0752 2.02441 5.03662 2.02441C6.9917 2.02441 8.604 3.63672 8.604 5.5918C8.604 7.54688 6.9917 9.15918 5.03662 9.15918Z" fill="#8A8980"/>
</svg>
