<svg width="20" height="20" viewBox="0 0 20 20" fill="none" xmlns="http://www.w3.org/2000/svg">
<circle cx="10" cy="10" r="9.5" fill="#101010" stroke="#9C9C9C"/>
<path d="M15.4346 9.08398H14.7803C14.4971 6.74512 12.461 4.86035 10 4.86035C8.67189 4.86035 7.46095 5.43164 6.61622 6.32031C6.3672 6.55469 6.37208 6.87207 6.55763 7.05762C6.75294 7.25293 7.04591 7.27734 7.31447 7.04297C7.98829 6.33984 8.94533 5.89062 10 5.89062C11.919 5.89062 13.4668 7.29199 13.7354 9.08398H13.0225C12.6611 9.08398 12.5586 9.3623 12.7735 9.66504L13.916 11.2617C14.0918 11.5059 14.3652 11.5059 14.541 11.2617L15.6836 9.66992C15.9033 9.36719 15.8057 9.08398 15.4346 9.08398ZM4.56056 10.2559H5.22462C5.50783 12.5898 7.53908 14.4746 10 14.4746C11.3379 14.4746 12.5488 13.8984 13.3936 13.0098C13.6377 12.7803 13.6279 12.458 13.4473 12.2725C13.252 12.0771 12.959 12.0576 12.6904 12.292C12.0215 13 11.0645 13.4443 10 13.4443C8.08107 13.4443 6.5381 12.043 6.26466 10.2559H6.97267C7.334 10.2559 7.44142 9.97266 7.22169 9.66992L6.084 8.07324C5.90822 7.8291 5.6299 7.8291 5.45412 8.07324L4.31154 9.66992C4.09181 9.97266 4.18947 10.2559 4.56056 10.2559Z" fill="white" fill-opacity="0.75"/>
</svg>
