<svg width="658" height="658" viewBox="0 0 658 658" fill="none" xmlns="http://www.w3.org/2000/svg">
<circle cx="329" cy="331.505" r="311" stroke="url(#paint0_angular)" stroke-width="6"/>
<circle cx="329" cy="329.505" r="328" stroke="url(#paint1_angular)" stroke-width="2"/>
<path opacity="0.6" d="M328.996 32.5968H327.464L327.533 46.3823H328.996V32.5968ZM321.336 32.6963H320.363H320.278H319.803L320.217 46.4818H321.68L321.336 32.6963ZM313.675 32.9797L312.143 33.064L312.909 46.8494L314.372 46.7729L313.675 32.9874V32.9797ZM306.014 33.4699L304.482 33.5847L305.601 47.3319C306.083 47.286 306.574 47.2477 307.056 47.2171L306.014 33.4316V33.4699ZM298.354 34.1438L297.189 34.2664H297.105H296.829L298.354 48.0135L299.809 47.8604L298.4 34.1285L298.354 34.1438ZM290.747 35.0246L289.483 35.1854H289.406H289.223L291.046 48.8483L292.494 48.6569L290.747 34.9863V35.0246ZM283.163 36.0891L281.631 36.3265L283.806 49.9435L285.247 49.7138L283.148 36.0891H283.163ZM275.602 37.3604L274.974 37.4753L274.101 37.6361L276.621 51.1842L278.061 50.9238L275.602 37.3604ZM268.087 38.8156L266.555 39.1296L269.428 52.6164C269.903 52.5091 270.377 52.4096 270.86 52.3177L268.056 38.8156H268.087ZM260.603 40.4698H260.541H260.495L260.051 40.577H259.974L259.124 40.7762L262.342 54.1787L263.766 53.8417L260.61 40.4239L260.603 40.4698ZM253.172 42.3156L252.643 42.4534H252.59H252.528H252.49H252.421H252.352H252.276H252.222H252.161H252.092H252.015L251.839 42.4994L255.401 55.8177L256.811 55.4424L253.317 42.1088L253.172 42.3156ZM245.787 44.3527L245.565 44.414L244.316 44.7816L248.223 58.0004L249.625 57.5945L245.795 44.3527H245.787ZM238.456 46.5814L238.287 46.635H238.234H238.188H238.142H238.073H237.989L237.674 46.7346H237.606H237.552L237.115 46.8724L241.298 60.1677L242.685 59.7235L238.502 46.589L238.456 46.5814ZM231.186 49.0015L230.175 49.3691H230.083H230.029L229.784 49.461L234.38 62.4806L235.759 61.9982L231.232 48.9785L231.186 49.0015ZM223.985 51.6054L223.456 51.8046H223.403L222.576 52.1186L227.501 64.9927L228.865 64.4719L224.046 51.6054H223.985ZM216.853 54.3932L215.972 54.7531H215.919L215.604 54.8757H215.52H215.474L220.729 67.6196L222.078 67.0681L216.891 54.2936L216.853 54.3932ZM209.798 57.3647L208.388 57.985L213.973 70.5911L215.313 70.0014L209.798 57.3647ZM202.811 60.52L202.474 60.6809H202.421L201.448 61.1404L207.354 73.5933L208.679 72.9729L202.834 60.4818L202.811 60.52ZM195.917 63.8592L194.545 64.5485L200.774 76.8482L202.084 76.1895L195.955 63.8592H195.917ZM189.107 67.3668L188.762 67.5583L187.758 68.0944L194.3 80.2256L195.587 79.5364L189.107 67.3668ZM182.396 71.0583L181.063 71.8241L187.919 83.7869L189.183 83.021L182.396 71.0276V71.0583ZM175.777 74.8876L175.547 75.0254L174.62 75.5845L174.467 75.6841L181.622 87.463L182.871 86.6971L175.777 74.8723V74.8876ZM169.258 78.916L168.944 79.1151L168.806 79.1994H168.768L168.645 79.276H168.607L168.492 79.3449L168.354 79.4368L168.04 79.6359L175.501 91.231L176.727 90.4652L169.327 78.8318L169.258 78.916ZM162.892 83.1435L161.804 83.9094H161.751H161.712L161.628 83.9707L169.381 95.3973L170.591 94.5778L162.892 83.1435ZM156.633 87.486L155.867 88.0374L155.729 88.1293H155.691L155.607 88.1906L155.408 88.3284L163.451 99.5253L164.639 98.6828L156.633 87.486ZM150.444 92.0046C150.13 92.2343 149.815 92.4794 149.501 92.7168H149.463L149.249 92.8776L157.576 103.868C157.959 103.569 158.342 103.278 158.74 102.987L150.467 91.9586L150.444 92.0046ZM144.376 96.6763L143.863 97.0822H143.817L143.764 97.1205L143.702 97.1741L143.641 97.2277H143.603L143.258 97.5034L151.746 108.417L152.887 107.506L144.376 96.6763ZM138.424 101.501L137.559 102.229L137.459 102.305L137.275 102.459L146.092 113.012L147.211 112.078L138.386 101.524L138.424 101.501ZM132.602 106.479L132.495 106.579H132.441L132.342 106.671L132.296 106.709L132.12 106.885L131.982 107L131.844 107.123L131.706 107.238L131.629 107.306L131.438 107.475L140.546 117.806L141.642 116.841L132.549 106.479H132.602ZM126.91 111.603L125.937 112.499L125.868 112.553L125.815 112.606L135.184 122.723L136.256 121.728L126.903 111.603H126.91ZM121.31 116.841L121.219 116.933L121.157 116.987L121.088 117.056L121.004 117.132L120.95 117.186L120.874 117.263L120.797 117.339V117.377L120.698 117.477L120.644 117.523L120.583 117.584L120.261 117.898L129.921 127.74L130.97 126.713L121.31 116.841ZM115.887 122.248L115.458 122.685L115.358 122.784C115.182 122.968 115.006 123.144 114.837 123.328L124.742 132.917L125.761 131.868L115.887 122.279V122.248ZM110.601 127.793L110.486 127.916L110.386 128.023L110.341 128.077L110.249 128.176H110.21L110.126 128.268L110.003 128.398L109.613 128.812L119.717 138.285L120.705 137.213L110.601 127.831V127.793ZM105.461 133.468L104.603 134.456L104.549 134.517L104.457 134.625L114.845 143.692L115.81 142.597L105.468 133.476L105.461 133.468ZM100.466 139.273L99.5161 140.415L110.134 149.214L111.068 148.088L100.497 139.235L100.466 139.273ZM95.6245 145.209L95.1803 145.76L95.119 145.845L95.073 145.898L94.9964 145.998L94.9351 146.082V146.12L94.8355 146.25L94.7206 146.396L105.553 154.92L106.464 153.771L95.6705 145.194L95.6245 145.209ZM90.9286 151.259V151.297L89.9864 152.515L101.033 160.763L101.914 159.592L90.9286 151.305V151.259ZM86.4012 157.432L85.5126 158.68L96.766 166.645L97.6163 165.451L86.4012 157.432ZM82.027 163.72L81.9581 163.819L81.192 164.991L92.6829 172.65L93.4949 171.44L82.0807 163.712L82.027 163.72ZM77.8137 170.122L77.7678 170.191L77.7142 170.291L77.6605 170.367L77.6222 170.429L77.5456 170.551V170.589C77.3771 170.85 77.2085 171.11 77.0477 171.355L88.6994 178.731L89.4655 177.498L77.852 170.069L77.8137 170.122ZM73.7689 176.624L73.5391 177V177.053C73.3629 177.337 73.1868 177.628 73.0182 177.919L84.8155 185.003L85.5816 183.755L73.7843 176.624H73.7689ZM69.8927 183.226L69.8161 183.349V183.387L69.7472 183.51V183.548L69.6859 183.663V183.716L69.6169 183.831L69.5786 183.908V183.946L69.2492 184.528L81.2687 191.291C81.5061 190.869 81.7436 190.441 81.9888 190.019L70.0076 183.196L69.8927 183.226ZM66.185 189.927L66.0701 190.134L66.0011 190.264L65.733 190.77L65.6564 190.908L65.5951 191.03L65.4802 191.252L77.6682 197.701C77.8904 197.272 78.1202 196.843 78.35 196.414L66.2003 189.897L66.185 189.927ZM62.6535 196.728C62.5079 197.012 62.3624 197.295 62.2245 197.578C62.0866 197.862 62.056 197.923 61.964 198.099L74.3129 204.226L74.9717 202.916L62.6535 196.721V196.728ZM59.2981 203.621L59.1603 203.912L59.1219 203.981L58.8921 204.471L58.647 205L71.149 210.812L71.7696 209.487L59.2981 203.613V203.621ZM56.119 210.59L55.5062 211.992L68.1538 217.483C68.3453 217.031 68.5444 216.587 68.7436 216.143L56.119 210.59ZM53.1237 217.636L52.5492 219.053L65.3347 224.215L65.8862 222.859L53.1237 217.636ZM50.3123 224.759C50.1284 225.241 49.9523 225.716 49.7761 226.191L62.6918 231.023C62.8603 230.564 63.0288 230.112 63.205 229.653L50.3123 224.759ZM47.6847 231.958L47.4702 232.578C47.3706 232.846 47.2787 233.13 47.1868 233.398L60.2098 237.893L60.6924 236.515L47.6694 231.92L47.6847 231.958ZM45.2487 239.218L45.1338 239.563V239.616V239.678V239.762L45.0648 239.969V240.045C45.0035 240.221 44.9499 240.405 44.8886 240.589L58.0418 244.74L58.4785 243.346L45.3559 239.134L45.2487 239.218ZM42.9965 246.532L42.7666 247.336V247.375C42.713 247.566 42.6517 247.773 42.5904 247.964L55.8432 251.794C55.9811 251.326 56.119 250.859 56.2492 250.392L43.0194 246.509L42.9965 246.532ZM40.9587 253.93L40.568 255.416L53.9204 258.878L54.2881 257.469L40.9587 253.93ZM39.0896 261.359C39.0206 261.666 38.944 261.98 38.8751 262.286V262.378C38.8368 262.531 38.7985 262.684 38.7678 262.837L52.1968 265.954C52.3041 265.48 52.4189 265.005 52.5338 264.53L39.1125 261.344L39.0896 261.359ZM37.4196 268.834L37.3506 269.156V269.225L37.2127 269.906V269.983L37.1438 270.327L50.5881 273.077L50.8868 271.645L37.3966 268.803L37.4196 268.834ZM35.9334 276.347L35.8874 276.63V276.715C35.8185 277.098 35.7572 277.481 35.6883 277.848L49.2628 280.268C49.3471 279.786 49.4313 279.311 49.5233 278.828L35.9564 276.339L35.9334 276.347ZM34.6464 283.898L34.4166 285.43L48.0524 287.498C48.1214 287.015 48.198 286.533 48.2746 286.051L34.6464 283.914V283.898ZM33.5586 291.48C33.5127 291.825 33.4667 292.17 33.4284 292.514V292.591C33.4284 292.729 33.4284 292.867 33.3748 292.997L47.0565 294.72C47.1178 294.238 47.1791 293.747 47.2481 293.265L33.5356 291.457L33.5586 291.48ZM32.6394 299.116C32.6011 299.507 32.5551 299.882 32.5168 300.303V300.364V300.64L46.2369 302.011C46.2828 301.521 46.3288 301.038 46.3824 300.556L32.6394 299.116ZM31.9346 306.775L31.8197 308.306L45.5551 309.256L45.67 307.801L31.9193 306.713L31.9346 306.775ZM31.429 314.433C31.429 314.862 31.3907 315.276 31.3677 315.705V315.973L45.1567 316.631C45.1567 316.149 45.2027 315.659 45.2333 315.176L31.4443 314.41L31.429 314.433ZM31.1226 322.092C31.1226 322.429 31.1226 322.773 31.1226 323.11C31.1226 323.271 31.1226 323.417 31.1226 323.578L44.9116 323.892C44.9116 323.402 44.9116 322.919 44.9116 322.429L31.1226 322.046V322.092ZM31 329.75V330.516V331.198H44.789V329.735L31 329.697V329.75ZM44.8656 337.103L31.0766 337.409V338.405V338.558C31.0766 338.688 31.0766 338.811 31.0766 338.941L44.8656 338.566C44.8656 338.075 44.8656 337.585 44.8656 337.103ZM45.1184 344.401L31.3294 345.06C31.3294 345.466 31.3677 345.88 31.3907 346.285V346.339V346.584L45.1797 345.857C45.1797 345.374 45.1261 344.884 45.1031 344.394L45.1184 344.401ZM45.5627 351.7L31.7737 352.703L31.8656 353.852V353.906C31.8656 354.013 31.8656 354.128 31.8656 354.235L45.6087 353.155C45.6087 352.673 45.5321 352.183 45.5015 351.7H45.5627ZM46.1909 358.976L32.4632 360.339C32.4632 360.684 32.5321 361.036 32.5704 361.38V361.426L32.6164 361.855L46.3211 360.385C46.2675 359.902 46.2215 359.42 46.1756 358.93L46.1909 358.976ZM47.0029 366.236L33.2982 367.867C33.3518 368.304 33.4054 368.74 33.4667 369.177V369.384L47.1408 367.607L46.957 366.152L47.0029 366.236ZM47.9988 373.473L34.3706 375.534C34.4089 375.817 34.4549 376.1 34.5009 376.384V376.606L34.5698 377.042L48.1903 374.913C48.1214 374.431 48.0448 373.948 47.9682 373.466L47.9988 373.473ZM49.1862 380.68L35.5963 383.008C35.6883 383.514 35.7725 384.012 35.8645 384.54L49.4313 382.059C49.3471 381.576 49.2551 381.101 49.1709 380.619L49.1862 380.68ZM50.5574 387.856L37.0518 390.613C37.1361 391.042 37.2204 391.448 37.3123 391.877V391.938V391.992V392.076L50.8102 389.242L50.5115 387.818L50.5574 387.856ZM52.0895 394.986L38.6606 398.012C38.7525 398.425 38.8521 398.839 38.944 399.252V399.291L38.9823 399.467L52.4496 396.327C52.3347 395.852 52.2274 395.377 52.1125 394.902L52.0895 394.986ZM53.8285 402.078L40.4838 405.54C40.4838 405.64 40.5298 405.724 40.5604 405.823V405.885V405.961V406.045L40.614 406.252V406.336C40.6676 406.551 40.7213 406.742 40.7825 406.957L54.1119 403.434C53.9817 402.959 53.8591 402.492 53.7366 402.017L53.8285 402.078ZM55.7513 409.124L42.4985 412.954V413.007V413.068L42.6824 413.719V413.811V413.903L42.8203 414.37L56.0501 410.541C55.9198 410.074 55.782 409.607 55.6441 409.14L55.7513 409.124ZM57.858 416.117L44.7048 420.26L44.7431 420.375C44.8886 420.819 45.0265 421.271 45.1721 421.715L58.3023 417.503L57.858 416.117ZM60.1561 423.048L47.1332 427.535C47.2098 427.742 47.2787 427.949 47.3553 428.164V428.217C47.4396 428.47 47.5238 428.723 47.6158 428.983L60.6387 424.434C60.4779 423.974 60.317 423.515 60.1638 423.055L60.1561 423.048ZM62.6152 429.94L49.7148 434.673L49.8067 434.926L50.0978 435.692L50.251 436.098L63.1744 431.204L62.6611 429.841L62.6152 429.94ZM65.2581 436.741L52.4496 441.796L52.8403 442.745V442.807L53.0088 443.205L65.7713 437.99L65.2198 436.634L65.2581 436.741ZM68.0772 443.481L55.4219 448.964C55.4679 449.071 55.5215 449.186 55.5675 449.301L56.0347 450.366L68.6594 444.821C68.4602 444.377 68.2687 443.925 68.0772 443.481ZM71.0648 450.144L58.5781 455.849L58.7389 456.202V456.255V456.332V456.408L58.7772 456.485L58.8921 456.722V456.768V456.83V456.906L58.9917 457.113L71.4708 451.247L70.8503 449.922L71.0648 450.144ZM74.2286 456.722L61.8721 462.849L61.9793 463.064L62.462 464.029L62.5386 464.174L74.8568 457.986L74.2056 456.676L74.2286 456.722ZM77.5609 463.225L65.3653 469.665L65.4572 469.834L65.7713 470.416V470.47C65.8633 470.63 65.9552 470.799 66.0394 470.967L78.1968 464.465L77.515 463.171L77.5609 463.225ZM81.0542 469.635L69.0347 476.39L69.073 476.451L69.4024 477.041L69.7778 477.699L81.7589 470.876C81.5215 470.454 81.2763 470.033 81.0388 469.604L81.0542 469.635ZM84.7159 475.961L72.888 482.923L73.2787 483.566V483.612V483.688L73.6081 484.232L85.413 477.11L84.647 475.861L84.7159 475.961ZM88.5462 482.18L76.8945 489.547C77.0247 489.762 77.1626 489.976 77.3005 490.191C77.4307 490.405 77.5686 490.619 77.7065 490.834L89.3276 483.405C89.0595 482.999 88.799 482.586 88.5615 482.172L88.5462 482.18ZM92.5297 488.307L81.0388 495.965L81.3453 496.425L81.3836 496.486L81.4295 496.555L81.6057 496.808L81.6976 496.938L81.7743 497.053L81.8815 497.206L93.3034 489.486L92.4914 488.276L92.5297 488.307ZM96.6664 494.326L85.39 502.176L86.2787 503.425L97.5014 495.414L96.6511 494.219L96.6664 494.326ZM100.956 500.239L89.9098 508.38L90.1626 508.717L90.8291 509.605L101.845 501.303L100.964 500.131L100.956 500.239ZM105.399 506.044L94.5827 514.461C94.7589 514.683 94.9274 514.905 95.1036 515.119L95.1496 515.173V515.226L95.2415 515.349L95.3411 515.479L95.4407 515.602L106.242 507.024L105.331 505.883L105.399 506.044ZM109.996 511.727L99.3783 520.45L99.5314 520.633L99.6157 520.741L99.723 520.871L99.8455 521.016L100.198 521.445L100.298 521.568L110.93 512.791L109.996 511.665V511.727ZM114.73 517.294L104.342 526.354L104.518 526.554L104.564 526.615L104.603 526.661C104.764 526.837 104.925 527.021 105.078 527.205L105.124 527.25L105.315 527.473L115.665 518.359L114.699 517.264L114.73 517.294ZM119.602 522.74L109.444 531.938L109.551 532.052L110.057 532.596V532.642L110.425 533.04L120.629 523.712L119.633 522.64L119.602 522.74ZM124.612 528.055L114.699 537.636L114.952 537.896L115.059 538.011H115.098L115.197 538.11H115.236L115.328 538.202L115.435 538.31H115.473L115.573 538.417L115.619 538.455L115.68 538.524L115.726 538.57L125.585 528.935L124.566 527.886L124.612 528.055ZM129.76 533.247L120.092 542.974L121.188 544.046L130.81 534.166L129.76 533.148V533.247ZM135.038 538.302L125.623 548.373L125.83 548.564L125.891 548.618L126.022 548.741L126.16 548.871L126.282 548.986L126.328 549.024L126.389 549.085L126.719 549.384L136.08 539.267L135.008 538.271L135.038 538.302ZM140.439 543.219L131.292 553.527L131.905 554.071L131.997 554.155L132.426 554.53L141.519 544.168L140.424 543.203L140.439 543.219ZM145.97 547.998L137.084 558.536L137.52 558.911L138.248 559.524L147.081 548.932L145.962 547.998H145.97ZM151.616 552.593L143.005 563.338L143.511 563.744H143.557L143.618 563.797L143.748 563.897L144.193 564.249L152.803 553.443L151.654 552.532L151.616 552.593ZM157.384 557.081L149.049 568.002L149.149 568.078L150.267 568.929L158.548 557.9C158.158 557.609 157.782 557.318 157.384 557.019V557.081ZM163.26 561.423L155.208 572.528L155.277 572.574H155.323L155.385 572.62L155.507 572.712L156.273 573.248L156.365 573.309L156.419 573.348L164.409 562.112L163.221 561.262L163.26 561.423ZM169.243 565.612L161.482 577.008L162.417 577.636H162.471L162.716 577.805L170.422 566.401L169.212 565.582L169.243 565.612ZM175.371 569.648L167.902 581.236L168.109 581.374L168.224 581.443C168.484 581.619 168.752 581.787 168.99 581.956L169.128 582.048L176.551 570.376L175.325 569.61L175.371 569.648ZM181.561 573.524L174.398 585.303L175.693 586.069L182.794 574.251L181.546 573.485L181.561 573.524ZM187.85 577.238L180.994 589.193L182.319 589.959L189.091 577.889L187.82 577.169L187.85 577.238ZM194.231 580.792L187.682 592.923L187.82 592.992H187.865H187.919H187.973H188.019H188.057H188.111L188.953 593.444L195.442 581.282L194.147 580.593L194.231 580.792ZM200.705 584.177L194.477 596.431L195.84 597.12L201.984 584.782L200.674 584.131L200.705 584.177ZM207.262 587.393L201.348 599.846L201.555 599.946L201.693 600.007L202.704 600.49L208.557 588.006L207.231 587.386L207.262 587.393ZM213.904 590.457L208.312 603.055H208.365L208.97 603.323H209.047L209.667 603.599L215.198 590.97L213.858 590.38L213.904 590.457ZM220.614 593.329L215.352 606.073L216.47 606.525L216.769 606.655L221.97 593.88L220.614 593.329ZM227.402 596.025L222.476 608.899L223.901 609.443L228.765 596.545L227.402 596.025ZM234.258 598.552L229.662 611.572H229.73H229.769H229.838L231.04 611.993L235.576 598.973L234.197 598.491L234.258 598.552ZM241.152 600.896L236.893 614.007L237.154 614.091H237.2L238.172 614.405H238.234H238.31L242.501 601.271L241.114 600.827L241.152 600.896ZM248.124 603.063L244.201 616.182L245.527 616.565H245.573H245.641L249.472 603.323L248.07 602.917L248.124 603.063ZM255.156 605.047L251.578 618.357H251.624L253.034 618.732L256.542 605.406L255.133 605.031L255.156 605.047ZM262.234 606.846L259.002 620.249L260.534 620.601L263.69 607.183L262.273 606.846H262.234ZM269.351 608.462L266.471 621.941L266.739 622.003H266.808L267.972 622.248L270.776 608.684L269.343 608.386L269.351 608.462ZM276.514 609.894L273.986 623.443L274.621 623.565L275.112 623.657L275.495 623.726L277.946 610.055L276.506 609.795L276.514 609.894ZM283.715 611.143L281.501 624.676L281.937 624.744L283.017 624.913L285.124 611.288L283.684 611.066L283.715 611.143ZM290.938 612.2L289.108 625.863L289.468 625.916H289.537L290.632 626.054L292.379 612.353L290.931 612.161L290.938 612.2ZM298.193 613.08L296.715 626.782H296.822H297.182H297.366L298.239 626.874L299.649 613.165L298.193 613.011V613.08ZM305.471 613.77L304.344 627.509L305.877 627.632L306.934 613.846L305.478 613.731L305.471 613.77ZM312.763 614.268L311.997 628.053H312.319L313.529 628.114L314.234 614.329L312.779 614.245L312.763 614.268ZM320.064 614.589L319.635 628.375H320.11H321.144L321.496 614.589H320.033H320.064ZM327.372 614.719L327.296 628.505H328.828V614.65L327.372 614.719ZM336.151 614.643H334.696L334.964 628.428H335.852H335.99H336.496L336.151 614.643ZM343.459 614.367L342.004 614.436L342.624 628.221H343.184H343.268H344.149L343.459 614.436V614.367ZM350.752 613.908L349.297 614.015L350.262 627.67L351.311 627.601H351.786L350.745 613.816L350.752 613.908ZM358.037 613.264L356.582 613.41L357.899 627.126L359.432 626.981L358.045 613.264H358.037ZM365.292 612.437L363.844 612.613L365.514 626.299L366.541 626.169H366.625H366.724H367.039L365.284 612.353L365.292 612.437ZM372.531 611.419L371.083 611.633L373.106 625.273L374.255 625.097L374.622 625.043L372.531 611.419ZM379.74 610.216L378.3 610.469L380.674 624.048C381.017 623.997 381.361 623.935 381.709 623.864H381.785H381.854L382.161 623.802L379.717 610.239L379.74 610.216ZM386.91 608.83L385.478 609.121L388.197 622.638L389.729 622.324L386.941 608.83H386.91ZM394.042 607.298L392.617 607.628L395.681 621.061L396.133 620.961H396.202L397.175 620.731L394.034 607.313L394.042 607.298ZM401.128 605.537L399.719 605.904L403.135 619.261L404.361 618.939H404.422H404.483H404.568L401.12 605.46L401.128 605.537ZM408.168 603.599L406.766 604.005L410.528 617.262L412.006 616.841L408.176 603.599H408.168ZM415.162 601.478L413.768 601.914L417.859 614.964L419.138 614.559L419.322 614.505L415.147 601.363L415.162 601.478ZM422.057 599.18L420.678 599.655L425.121 612.674L426.577 612.177L422.057 599.157V599.18ZM428.951 596.699L427.58 597.212L432.368 610.055H432.414H432.452L433.777 609.557L428.928 596.653L428.951 596.699ZM435.754 594.041L434.398 594.585L439.515 607.39L439.615 607.352H439.699H439.76H439.799L440.503 607.068L440.833 606.931L435.654 594.156L435.754 594.041ZM442.488 591.207L441.147 591.79L446.594 604.457L447.536 604.051H447.589L447.988 603.875L442.48 591.238L442.488 591.207ZM449.145 588.205L447.819 588.818L453.588 601.34L454.982 600.696L449.145 588.205ZM455.717 585.027L454.407 585.678L460.536 598.047L461.302 597.687L461.363 597.648L461.938 597.365L455.809 585.027H455.717ZM462.213 581.688L460.919 582.369L467.331 594.57L468.687 593.857L462.213 581.688ZM468.618 578.173L467.346 578.892L474.064 590.924L475.367 590.158L468.579 578.157L468.618 578.173ZM474.93 574.496L473.681 575.262L480.675 586.988L481.993 586.222L474.899 574.397L474.93 574.496ZM481.15 570.667L479.917 571.433L487.248 583.112H487.309H487.355L488.282 582.523L488.413 582.438L488.497 582.385L481.104 570.744L481.15 570.667ZM487.279 566.677L486.038 567.366L493.698 578.854L493.898 578.724L494.411 578.379L494.97 578.004L487.309 566.562L487.279 566.677ZM493.292 562.526L492.097 563.368L500.026 574.65L501.275 573.769L493.292 562.526ZM499.199 558.222L498.027 559.095L506.239 570.169L506.354 570.077L507.396 569.312H507.457L499.191 558.276L499.199 558.222ZM504.99 553.765L503.841 554.668L512.329 565.536L512.444 565.452L512.49 565.413L512.582 565.337H512.635L512.727 565.26H512.781L512.888 565.184L512.949 565.13H512.995L513.516 564.724L504.967 553.902L504.99 553.765ZM510.667 549.169L509.54 550.096L518.304 560.742L518.748 560.374L518.856 560.282L519.484 559.761L510.659 549.169H510.667ZM516.228 544.421L515.148 545.256L524.142 555.679L525.283 554.691L516.197 544.322L516.228 544.421ZM521.659 539.535L520.587 540.523L529.879 550.709L531.013 549.667L521.659 539.535ZM526.968 534.518L525.873 535.407L535.426 545.363L535.701 545.095L536.521 544.329L526.915 534.442L526.968 534.518ZM532.147 529.357L531.12 530.398L540.926 540.094L540.979 540.04L541.041 539.979L541.148 539.872L541.278 539.742L541.539 539.481L541.638 539.374L541.692 539.328L541.745 539.267L541.853 539.16L541.922 539.091L532.07 529.449L532.147 529.357ZM537.187 524.072C536.858 524.432 536.529 524.784 536.192 525.137L546.242 534.58L546.755 534.036L546.863 533.921C546.985 533.791 547.108 533.653 547.238 533.523L537.134 524.133L537.187 524.072ZM542.098 518.658L541.125 519.753L551.413 528.943L552.371 527.863L542.083 518.535L542.098 518.658ZM546.863 513.12C546.556 513.496 546.242 513.886 545.92 514.239L556.446 523.153L557.434 521.981L546.863 513.12ZM551.459 507.461C551.16 507.844 550.854 508.227 550.547 508.602L561.272 517.248L561.418 517.072L561.87 516.505L561.931 516.429L562.207 516.084L551.421 507.491L551.459 507.461ZM555.941 501.694C555.642 502.077 555.351 502.46 555.052 502.858L566.014 511.221C566.328 510.815 566.635 510.402 566.941 509.996L555.941 501.694ZM560.269 495.804L559.411 496.991L570.588 505.071C570.794 504.772 571.001 504.489 571.216 504.198L571.285 504.114L571.354 504.007V503.968L571.445 503.838L560.238 495.812L560.269 495.804ZM564.444 489.808L563.616 491.018L574.992 498.806C575.138 498.607 575.276 498.401 575.414 498.194L575.506 498.056L575.82 497.596L564.405 489.861L564.444 489.808ZM568.466 483.681L567.699 484.906L579.275 492.404L580.102 491.117L568.496 483.681H568.466ZM572.296 477.477L571.53 478.726L583.289 485.925C583.365 485.794 583.442 485.664 583.526 485.542V485.48L583.932 484.814L584.024 484.661L572.227 477.523L572.296 477.477ZM575.996 471.182L575.23 472.453L587.173 479.346C587.28 479.154 587.387 478.963 587.502 478.772V478.726L587.893 478.036L575.919 471.205L575.996 471.182ZM579.535 464.795L578.838 466.081L590.957 472.66L591.294 472.024V471.978L591.547 471.504L591.608 471.396L579.458 464.879L579.535 464.795ZM582.906 458.315L582.247 459.617L594.504 465.89L594.68 465.545C594.833 465.231 594.994 464.917 595.155 464.603V464.557L582.844 458.354L582.906 458.315ZM586.108 451.752C585.901 452.196 585.694 452.633 585.48 453.069L597.92 459.02L598.143 458.561V458.492V458.423C598.143 458.354 598.204 458.292 598.242 458.224C598.326 458.055 598.395 457.902 598.48 457.726L586.008 451.844L586.108 451.752ZM589.172 445.112C588.973 445.556 588.774 446 588.582 446.445L601.169 452.074L601.283 451.813V451.744V451.698V451.66L601.46 451.262L601.506 451.178V451.132L601.689 450.718L589.073 445.158L589.172 445.112ZM592.029 438.388C591.846 438.84 591.662 439.291 591.47 439.743L604.202 445.035L604.325 444.737C604.478 444.369 604.639 443.971 604.792 443.619L592.029 438.388ZM594.718 431.595L594.19 432.965L607.052 437.928L607.136 437.729V437.645V437.561C607.259 437.224 607.389 436.879 607.519 436.542L594.634 431.641L594.718 431.595ZM597.223 424.702C597.062 425.161 596.902 425.621 596.733 426.08L609.756 430.676C609.817 430.499 609.879 430.316 609.948 430.139V430.094C610.047 429.818 610.147 429.542 610.239 429.259L597.216 424.664L597.223 424.702ZM599.522 417.809C599.376 418.269 599.223 418.736 599.07 419.195L612.177 423.492C612.299 423.101 612.43 422.726 612.552 422.32C612.552 422.22 612.613 422.136 612.644 422.037L599.522 417.809ZM601.674 410.832C601.536 411.299 601.398 411.759 601.253 412.226L614.467 416.185C614.552 415.887 614.643 415.596 614.728 415.297V415.243C614.774 415.067 614.827 414.899 614.881 414.723L601.712 410.756L601.674 410.832ZM603.635 403.802C603.513 404.269 603.39 404.736 603.26 405.211L616.566 408.818C616.635 408.557 616.704 408.32 616.773 408.052V408.006L616.911 407.478V407.439V407.37L603.582 403.832L603.635 403.802ZM605.42 396.717C605.313 397.192 605.198 397.667 605.083 398.134L618.481 401.404L618.78 400.148V400.102L618.818 399.919L605.405 396.725L605.42 396.717ZM607.075 389.488L606.776 390.912L620.251 393.83C620.251 393.669 620.32 393.508 620.358 393.34L620.573 392.337L607.075 389.488ZM608.492 382.327C608.408 382.802 608.316 383.284 608.224 383.759L621.775 386.325C621.775 386.179 621.829 386.026 621.86 385.873C621.86 385.681 621.929 385.497 621.959 385.314L622.051 384.846L608.484 382.35L608.492 382.327ZM609.725 375.128L609.496 376.568L623.101 378.789C623.101 378.635 623.154 378.49 623.177 378.337V378.153V378.053C623.177 377.992 623.177 377.908 623.177 377.839V377.762C623.177 377.601 623.231 377.448 623.254 377.287L609.633 375.143L609.725 375.128ZM610.767 367.898C610.706 368.38 610.645 368.863 610.576 369.345L624.242 371.214C624.311 370.709 624.372 370.203 624.441 369.682L610.767 367.89V367.898ZM611.633 360.645L611.472 362.093L625.177 363.624C625.177 363.364 625.238 363.111 625.261 362.859V362.682C625.261 362.491 625.261 362.3 625.322 362.108L611.61 360.668L611.633 360.645ZM612.307 353.37C612.261 353.852 612.223 354.342 612.184 354.825L625.92 355.989C625.966 355.483 626.012 354.97 626.05 354.457L612.307 353.362V353.37ZM612.79 346.079C612.79 346.561 612.736 347.051 612.705 347.534L626.494 348.353V348.024V347.963L626.563 346.829L612.774 346.063L612.79 346.079ZM613.096 338.772L613.05 340.235L626.839 340.702V339.998V339.936V339.171L613.05 338.772H613.096ZM613.211 331.466C613.211 331.949 613.211 332.439 613.211 332.929L627 333.044C627 332.599 627 332.171 627 331.726V331.512L613.211 331.466ZM626.931 323.846L613.142 324.144C613.142 324.635 613.142 325.117 613.142 325.607L626.931 325.377C626.931 325.056 626.931 324.742 626.931 324.42C626.931 324.229 626.931 324.037 626.931 323.846ZM626.663 316.187L612.874 316.838L612.943 318.293L626.732 317.711L626.663 316.179V316.187ZM626.203 308.529L612.414 309.524C612.414 310.014 612.483 310.497 612.514 310.979L626.303 310.053V309.884C626.303 309.624 626.303 309.371 626.249 309.118L626.203 308.529ZM625.552 300.87L611.832 302.225L611.97 303.673L625.698 302.394L625.629 301.697V301.613C625.629 301.352 625.583 301.13 625.56 300.847L625.552 300.87ZM624.702 293.257L611.02 294.965C611.081 295.448 611.135 295.93 611.196 296.413L624.886 294.781C624.886 294.605 624.886 294.429 624.824 294.253V294.169L624.709 293.257H624.702ZM623.66 285.675L610.024 287.728C610.093 288.21 610.17 288.693 610.239 289.175L623.882 287.192C623.828 286.839 623.783 286.495 623.729 286.15V286.081V286.02L623.683 285.714L623.66 285.675ZM622.419 278.116L608.844 280.521C608.929 280.996 609.013 281.478 609.09 281.961L622.679 279.625V279.433L622.587 278.913V278.836C622.587 278.622 622.519 278.407 622.48 278.193V278.116H622.419ZM620.986 270.588L607.473 273.345C607.573 273.82 607.665 274.302 607.764 274.777L621.285 272.097V271.897C621.209 271.507 621.132 271.132 621.048 270.718V270.588H620.986ZM619.355 263.105L605.926 266.207L606.247 267.639L619.699 264.576L619.577 264.055V264.009C619.508 263.703 619.439 263.389 619.362 263.082L619.355 263.105ZM617.539 255.669L604.187 259.115C604.309 259.59 604.432 260.065 604.547 260.532L617.915 257.155C617.792 256.657 617.662 256.159 617.539 255.669ZM615.524 248.278L602.264 252.069C602.402 252.544 602.532 253.011 602.662 253.478L615.938 249.756C615.861 249.465 615.777 249.182 615.701 248.899V248.853V248.814C615.647 248.638 615.601 248.454 615.547 248.278H615.524ZM613.318 240.941L600.165 245.077L600.602 246.479L613.778 242.404C613.701 242.167 613.625 241.929 613.556 241.692V241.631V241.569C613.502 241.378 613.441 241.186 613.379 240.995L613.318 240.941ZM610.928 233.666L597.905 238.146L598.38 239.525L611.441 235.121L611.15 234.255V234.202C611.089 234.033 611.028 233.865 610.974 233.689L610.928 233.666ZM608.346 226.459L595.423 231.269L595.929 232.639L608.875 227.899C608.722 227.478 608.576 227.064 608.415 226.658V226.597L608.362 226.459H608.346ZM605.543 219.39L592.75 224.537L593.293 225.892L606.11 220.815V220.753L606.033 220.547V220.47V220.424V220.378V220.324V220.255L605.711 219.451L605.543 219.39ZM602.593 212.329L589.938 217.797L590.513 219.145L603.199 213.73C603.053 213.393 602.907 213.056 602.77 212.719L602.601 212.336L602.593 212.329ZM599.46 205.337L586.951 211.134C587.157 211.578 587.357 212.022 587.563 212.459L600.096 206.73L599.996 206.501L599.943 206.386L599.621 205.696L599.56 205.566C599.56 205.497 599.491 205.421 599.46 205.352V205.337ZM596.151 198.444L583.794 204.571L584.438 205.88L596.825 199.822C596.641 199.439 596.45 199.056 596.266 198.681L596.151 198.451V198.444ZM592.658 191.62L580.493 198.023L581.174 199.317L593.431 192.937C593.194 192.493 592.956 192.034 592.719 191.582L592.658 191.62ZM588.996 184.896L576.969 191.643L577.681 192.922L589.739 186.236L589.279 185.401L589.203 185.263V185.194V185.148L589.065 184.903L588.996 184.896ZM585.166 178.263L573.368 185.317L574.134 186.573L586.016 179.573L585.778 179.167V179.121L585.273 178.271L585.166 178.263ZM581.159 171.738L569.538 179.09C569.799 179.496 570.059 179.91 570.304 180.324L582.009 173.025L581.19 171.731L581.159 171.738ZM576.992 165.313L565.501 172.971L566.305 174.189L577.796 166.592C577.658 166.377 577.52 166.163 577.375 165.956L577.283 165.826C577.176 165.65 577.068 165.489 576.953 165.32L576.992 165.313ZM572.679 158.964L561.41 166.906L562.245 168.1L573.56 160.212L573.414 160.013L573.345 159.913L572.694 158.987L572.679 158.964ZM568.182 152.76L557.12 160.993L557.994 162.165L569.094 153.993L569.025 153.894L568.987 153.848L568.443 153.082L568.374 152.99L568.228 152.791L568.182 152.76ZM563.532 146.71L552.685 155.219L553.581 156.367L564.474 147.943L564.252 147.66L564.199 147.598L563.739 147.016V146.97L563.67 146.878L563.609 146.802L563.532 146.71ZM558.721 140.744L548.088 149.528C548.403 149.904 548.709 150.294 549.015 150.662L559.687 141.923C559.365 141.533 559.043 141.157 558.714 140.744H558.721ZM553.765 134.908L543.37 143.961L544.327 145.063L554.768 136.064L554.293 135.513L553.765 134.908ZM548.663 129.195L538.497 138.515L539.486 139.595L549.69 130.328L549.184 129.769L549.115 129.693C548.969 129.532 548.824 129.379 548.686 129.218L548.663 129.195ZM543.408 123.619L533.487 133.193L534.499 134.249L544.457 124.722L544.013 124.263L543.959 124.201L543.913 124.163L543.799 124.04L543.4 123.635L543.408 123.619ZM538.045 118.174L528.37 128C528.715 128.345 529.06 128.689 529.412 129.026L539.133 119.254L539.041 119.162L538.275 118.396L538.191 118.319V118.274L538.045 118.174ZM532.514 112.874L523.077 122.968L524.142 123.964L533.61 113.946L533.48 113.824L533.372 113.732L533.319 113.678L533.258 113.617L533.158 113.525L533.035 113.41L532.989 113.364L532.936 113.311L532.813 113.204L532.538 112.943L532.514 112.874ZM526.853 107.712L517.661 118.021L518.756 118.993L527.949 108.739L526.807 107.712H526.853ZM521.062 102.704L512.145 113.242L513.263 114.184L522.203 103.692L521.935 103.462H521.897L521.813 103.385L521.552 103.171L521.445 103.079L521.345 102.995L521.054 102.75L521.062 102.704ZM515.148 97.8404L506.53 108.601L507.671 109.52L516.343 98.7977L516.282 98.7518L516.205 98.6905L515.148 97.8404ZM509.081 93.0997L500.738 104.075L501.903 104.963L510.33 94.0264L509.832 93.6511L509.724 93.5669L509.119 93.1074L509.081 93.0997ZM502.952 88.5429L494.863 99.7627L496.05 100.62L504.163 89.4772L503.558 89.033L503.443 88.9488L503.381 88.9028L503.32 88.8645L503.19 88.7726L502.975 88.6194L502.952 88.5429ZM496.678 84.1545L488.911 95.5428L490.113 96.37L497.942 85.0199L497.628 84.8055L497.498 84.7136L497.421 84.6599L496.709 84.1775L496.678 84.1545ZM490.297 79.9193L482.79 91.568L484.015 92.3339L491.546 80.7924C491.324 80.6392 491.094 80.4937 490.864 80.3482L490.787 80.2946L490.695 80.2333H490.634L490.266 79.9959L490.297 79.9193ZM483.74 75.8832L476.569 87.6545L477.818 88.4203L485.05 76.6797L484.72 76.4806L484.636 76.427L484.092 76.09L483.747 75.8832H483.74ZM477.152 71.985L470.257 83.94L471.521 84.7059L478.416 72.7891L477.826 72.4445H477.772L477.205 72.1228L477.152 71.985ZM470.456 68.2552L463.899 80.3788L465.186 81.0834L471.804 68.9905L471.659 68.9139H471.605L470.464 68.2935L470.456 68.2552ZM463.669 64.7016L457.433 76.9554L458.728 77.6217L465.033 65.3679L464.941 65.322H464.872L463.715 64.7323L463.669 64.7016ZM456.774 61.3242L450.853 73.7694L452.17 74.4051L458.153 61.9828L456.774 61.3242ZM449.811 58.1229L444.211 70.7213L445.552 71.3187L451.213 58.7509L449.811 58.1229ZM442.771 55.1054L437.554 67.8263L438.902 68.3931L444.265 55.6798L443.453 55.3352H443.391L442.863 55.1207L442.771 55.1054ZM435.654 52.2717L430.713 65.1382L432.077 65.6666L437.087 52.8232L435.777 52.31H435.654V52.2717ZM428.469 49.6142L423.872 62.6338L425.251 63.124L429.962 50.135L428.522 49.6142H428.469ZM421.268 47.1481L417.001 60.252L418.395 60.7115L422.723 47.623L422.44 47.5311L421.268 47.1481ZM413.952 44.8505L410.03 58.0616L411.432 58.4829L415.423 45.2871L413.952 44.8505ZM406.582 42.7674L403.005 56.1087L404.414 56.4916L408.061 43.1963L406.582 42.798V42.7674ZM399.159 40.8681L395.927 54.2706L397.344 54.6153L400.645 41.2357L399.673 41.0212H399.619L399.175 40.914L399.159 40.8681ZM391.69 39.1679L388.81 52.6547L390.235 52.961L393.192 39.4972H393.1L392.05 39.2674L391.69 39.1908V39.1679ZM384.183 37.6361L381.647 51.1842L383.08 51.4599L385.684 37.9578L384.221 37.6821L384.183 37.6361ZM376.637 36.3189L374.446 49.9359L375.887 50.1656L378.146 36.5716L377.848 36.518H377.756H377.679L376.645 36.3495L376.637 36.3189ZM369.061 35.2084L367.222 48.8637L368.67 49.0628L370.578 35.4152L369.344 35.2467H369.26H369.061V35.2084ZM361.454 34.2817L359.968 47.9906L361.423 48.1514L362.955 34.4502L362.029 34.3506H361.531H361.431L361.454 34.2817ZM353.793 33.5158L352.66 47.2553L354.123 47.3779L355.326 33.646L354.644 33.5847L353.793 33.5158ZM346.133 32.9874L345.367 46.7729L346.822 46.8571L347.68 33.0716C347.159 33.0716 346.661 33.0027 346.148 32.9797L346.133 32.9874ZM338.472 32.6504L338.036 46.4359L339.499 46.4818L340.004 32.6963H338.786H338.472V32.6504ZM330.812 32.5049L330.727 46.2904H332.191L332.344 32.5049H330.812Z" fill="#C9AC6A"/>
<defs>
<radialGradient id="paint0_angular" cx="0" cy="0" r="1" gradientUnits="userSpaceOnUse" gradientTransform="translate(329 331.505) rotate(90) scale(314)">
<stop offset="0.312582" stop-color="#D4C18B"/>
<stop offset="0.402335" stop-color="#765C29"/>
<stop offset="0.597142" stop-color="#765C29"/>
<stop offset="0.691398" stop-color="#D4C18B"/>
<stop offset="0.999357" stop-color="#443916"/>
</radialGradient>
<radialGradient id="paint1_angular" cx="0" cy="0" r="1" gradientUnits="userSpaceOnUse" gradientTransform="translate(329 329.505) rotate(90) scale(329)">
<stop offset="0.312582" stop-color="#D4C18B"/>
<stop offset="0.402335" stop-color="#765C29"/>
<stop offset="0.597142" stop-color="#765C29"/>
<stop offset="0.691398" stop-color="#D4C18B"/>
<stop offset="0.999357" stop-color="#443916"/>
</radialGradient>
</defs>
</svg>
